<?xml version="1.0" encoding="UTF-8" standalone="no"?>
<svg
   xmlns:dc="http://purl.org/dc/elements/1.1/"
   xmlns:cc="http://creativecommons.org/ns#"
   xmlns:rdf="http://www.w3.org/1999/02/22-rdf-syntax-ns#"
   xmlns:svg="http://www.w3.org/2000/svg"
   xmlns="http://www.w3.org/2000/svg"
   xmlns:sodipodi="http://sodipodi.sourceforge.net/DTD/sodipodi-0.dtd"
   xmlns:inkscape="http://www.inkscape.org/namespaces/inkscape"
   width="744.094488189"
   height="1052.36220472"
   id="svg6183"
   version="1.1"
   inkscape:version="0.91 r13725"
   sodipodi:docname="biccolo_layout_0.ink.svg">
  <metadata
     id="metadata8185">
    <rdf:RDF>
      <cc:Work
         rdf:about="">
        <dc:format>image/svg+xml</dc:format>
        <dc:type
           rdf:resource="http://purl.org/dc/dcmitype/StillImage" />
        <dc:title></dc:title>
      </cc:Work>
    </rdf:RDF>
  </metadata>
  <sodipodi:namedview
     pagecolor="#ffffff"
     bordercolor="#666666"
     borderopacity="1"
     objecttolerance="10"
     gridtolerance="10"
     guidetolerance="10"
     inkscape:pageopacity="0"
     inkscape:pageshadow="2"
     inkscape:window-width="1366"
     inkscape:window-height="705"
     id="namedview8183"
     showgrid="false"
     inkscape:zoom="0.72030189"
     inkscape:cx="504.72681"
     inkscape:cy="751.86102"
     inkscape:window-x="-8"
     inkscape:window-y="-8"
     inkscape:window-maximized="1"
     inkscape:current-layer="g6347" />
  <desc
     id="desc6185">C:\philetus\bottery_piccolo\Piccolo_Hardware\bottery_piccolo\biccolo_layout_0.dxf - scale = 1.000000, origin = (0.000000, 0.000000), auto = False</desc>
  <defs
     id="defs6187">
    <marker
       refY="0.0"
       refX="0.0"
       style="overflow:visible"
       id="DistanceX"
       orient="auto">
      <path
         style="stroke:#000000; stroke-width:0.5"
         d="M 3,-3 L -3,3 M 0,-5 L  0,5"
         id="path6190" />
    </marker>
    <pattern
       height="8"
       width="8"
       patternUnits="userSpaceOnUse"
       y="0"
       x="0"
       id="Hatch">
      <path
         linecap="square"
         stroke="#000000"
         stroke-width="0.25"
         d="M8 4 l-4,4"
         id="path6193" />
      <path
         linecap="square"
         stroke="#000000"
         stroke-width="0.25"
         d="M6 2 l-4,4"
         id="path6195" />
      <path
         linecap="square"
         stroke="#000000"
         stroke-width="0.25"
         d="M4 0 l-4,4"
         id="path6197" />
    </pattern>
    <symbol
       id="*Model_Space" />
    <symbol
       id="*Paper_Space" />
    <symbol
       id="*Paper_Space0" />
    <symbol
       id="_D">
      <path
         style="stroke:#000000;fill:none;stroke-linecap: round"
         d="M 258.530368,467.856094 275.172333,467.856094"
         id="path6203" />
      <path
         style="stroke:#000000;fill:none;stroke-linecap: round"
         d="M 258.530368,468.210424 275.172333,468.210424"
         id="path6205" />
      <path
         style="stroke:#000000;fill:none;stroke-linecap: round"
         d="M 286.422333,418.336564 263.922333,418.336564"
         id="path6207" />
      <path
         style="stroke:#000000;fill:none;stroke-linecap: round"
         d="M 263.922333,418.336564 263.922333,467.856094"
         id="path6209" />
      <path
         style="stroke:#000000;fill:none;stroke-linecap: round"
         d="M 263.922333,468.210424 263.922333,490.710424"
         id="path6211" />
      <text
         y="412.764241"
         x="286.422333"
         style="font-size: 11.3px; fill: #000000; font-family: Arial"
         sodipodi:linespacing="125%"
         id="text6213">
        <tspan
           sodipodi:role="line"
           id="tspan6215">0.10</tspan>
      </text>
    </symbol>
    <symbol
       id="_D_1">
      <path
         style="stroke:#000000;fill:none;stroke-linecap: round"
         d="M 148.803259,241.834427 128.915250,247.914802"
         id="path6218" />
      <path
         style="stroke:#000000;fill:none;stroke-linecap: round"
         d="M 148.906855,242.173275 129.018846,248.253650"
         id="path6220" />
      <path
         style="stroke:#000000;fill:none;stroke-linecap: round"
         d="M 139.673678,244.625620 133.095315,223.108763"
         id="path6222" />
      <path
         style="stroke:#000000;fill:none;stroke-linecap: round"
         d="M 139.777275,244.964468 157.845453,304.062818"
         id="path6224" />
      <path
         style="stroke:#000000;fill:none;stroke-linecap: round"
         d="M 157.845453,304.062818 180.345453,304.062818"
         id="path6226" />
      <text
         y="298.490494"
         x="180.345453"
         style="font-size: 11.3px; fill: #000000; font-family: Arial"
         sodipodi:linespacing="125%"
         id="text6228">
        <tspan
           sodipodi:role="line"
           id="tspan6230">0.10</tspan>
      </text>
    </symbol>
    <symbol
       id="SW_CENTERMARKSYMBOL_0">
      <path
         style="stroke:#000000;fill:none;stroke-linecap: round"
         d="M 0.000000,1052.362205 0.000000,1043.362205"
         id="path6233" />
      <path
         style="stroke:#000000;fill:none;stroke-linecap: round"
         d="M 0.000000,1052.362205 -9.000000,1052.362205"
         id="path6235" />
      <path
         style="stroke:#000000;fill:none;stroke-linecap: round"
         d="M 0.000000,1052.362205 0.000000,1061.362205"
         id="path6237" />
      <path
         style="stroke:#000000;fill:none;stroke-linecap: round"
         d="M 0.000000,1052.362205 9.000000,1052.362205"
         id="path6239" />
      <path
         style="stroke:#000000;fill:none;stroke-linecap: round"
         d="M 0.000000,1043.362205 0.000000,1037.161417"
         id="path6241" />
      <path
         style="stroke:#000000;fill:none;stroke-linecap: round"
         d="M -9.000000,1052.362205 -15.200787,1052.362205"
         id="path6243" />
      <path
         style="stroke:#000000;fill:none;stroke-linecap: round"
         d="M 0.000000,1061.362205 0.000000,1067.562992"
         id="path6245" />
      <path
         style="stroke:#000000;fill:none;stroke-linecap: round"
         d="M 9.000000,1052.362205 15.200787,1052.362205"
         id="path6247" />
    </symbol>
    <symbol
       id="SW_CENTERMARKSYMBOL_1">
      <path
         style="stroke:#000000;fill:none;stroke-linecap: round"
         d="M 0.000000,1052.362205 0.000000,1043.362205"
         id="path6250" />
      <path
         style="stroke:#000000;fill:none;stroke-linecap: round"
         d="M 0.000000,1052.362205 -9.000000,1052.362205"
         id="path6252" />
      <path
         style="stroke:#000000;fill:none;stroke-linecap: round"
         d="M 0.000000,1052.362205 0.000000,1061.362205"
         id="path6254" />
      <path
         style="stroke:#000000;fill:none;stroke-linecap: round"
         d="M 0.000000,1052.362205 9.000000,1052.362205"
         id="path6256" />
      <path
         style="stroke:#000000;fill:none;stroke-linecap: round"
         d="M 0.000000,1043.362205 0.000000,1037.161417"
         id="path6258" />
      <path
         style="stroke:#000000;fill:none;stroke-linecap: round"
         d="M -9.000000,1052.362205 -15.200787,1052.362205"
         id="path6260" />
      <path
         style="stroke:#000000;fill:none;stroke-linecap: round"
         d="M 0.000000,1061.362205 0.000000,1067.562992"
         id="path6262" />
      <path
         style="stroke:#000000;fill:none;stroke-linecap: round"
         d="M 9.000000,1052.362205 15.200787,1052.362205"
         id="path6264" />
    </symbol>
    <symbol
       id="SW_CENTERMARKSYMBOL_2">
      <path
         style="stroke:#000000;fill:none;stroke-linecap: round"
         d="M 0.000000,1052.362205 0.000000,1043.362205"
         id="path6267" />
      <path
         style="stroke:#000000;fill:none;stroke-linecap: round"
         d="M 0.000000,1052.362205 -9.000000,1052.362205"
         id="path6269" />
      <path
         style="stroke:#000000;fill:none;stroke-linecap: round"
         d="M 0.000000,1052.362205 0.000000,1061.362205"
         id="path6271" />
      <path
         style="stroke:#000000;fill:none;stroke-linecap: round"
         d="M 0.000000,1052.362205 9.000000,1052.362205"
         id="path6273" />
      <path
         style="stroke:#000000;fill:none;stroke-linecap: round"
         d="M 0.000000,1043.362205 0.000000,1037.161417"
         id="path6275" />
      <path
         style="stroke:#000000;fill:none;stroke-linecap: round"
         d="M -9.000000,1052.362205 -15.200787,1052.362205"
         id="path6277" />
      <path
         style="stroke:#000000;fill:none;stroke-linecap: round"
         d="M 0.000000,1061.362205 0.000000,1067.562992"
         id="path6279" />
      <path
         style="stroke:#000000;fill:none;stroke-linecap: round"
         d="M 9.000000,1052.362205 15.200787,1052.362205"
         id="path6281" />
    </symbol>
    <symbol
       id="SW_CENTERMARKSYMBOL_3">
      <path
         style="stroke:#000000;fill:none;stroke-linecap: round"
         d="M 0.000000,1052.362205 0.000000,1043.362205"
         id="path6284" />
      <path
         style="stroke:#000000;fill:none;stroke-linecap: round"
         d="M 0.000000,1052.362205 -9.000000,1052.362205"
         id="path6286" />
      <path
         style="stroke:#000000;fill:none;stroke-linecap: round"
         d="M 0.000000,1052.362205 0.000000,1061.362205"
         id="path6288" />
      <path
         style="stroke:#000000;fill:none;stroke-linecap: round"
         d="M 0.000000,1052.362205 9.000000,1052.362205"
         id="path6290" />
      <path
         style="stroke:#000000;fill:none;stroke-linecap: round"
         d="M 0.000000,1043.362205 0.000000,1037.161417"
         id="path6292" />
      <path
         style="stroke:#000000;fill:none;stroke-linecap: round"
         d="M -9.000000,1052.362205 -15.200787,1052.362205"
         id="path6294" />
      <path
         style="stroke:#000000;fill:none;stroke-linecap: round"
         d="M 0.000000,1061.362205 0.000000,1067.562992"
         id="path6296" />
      <path
         style="stroke:#000000;fill:none;stroke-linecap: round"
         d="M 9.000000,1052.362205 15.200787,1052.362205"
         id="path6298" />
    </symbol>
    <symbol
       id="_D_2">
      <path
         style="stroke:#000000;fill:none;stroke-linecap: round"
         d="M 525.276237,209.020964 508.522165,192.772268"
         id="path6301" />
      <path
         style="stroke:#000000;fill:none;stroke-linecap: round"
         d="M 525.522921,208.766608 508.768849,192.517911"
         id="path6303" />
      <path
         style="stroke:#000000;fill:none;stroke-linecap: round"
         d="M 516.597985,200.604486 502.634381,215.002393"
         id="path6305" />
      <path
         style="stroke:#000000;fill:none;stroke-linecap: round"
         d="M 516.844669,200.350129 532.509105,184.198490"
         id="path6307" />
      <path
         style="stroke:#000000;fill:none;stroke-linecap: round"
         d="M 502.634381,215.002393 480.134381,215.002393"
         id="path6309" />
      <text
         y="209.430069"
         x="441.900007"
         style="font-size: 11.3px; fill: #000000; font-family: Arial"
         sodipodi:linespacing="125%"
         id="text6311">
        <tspan
           sodipodi:role="line"
           id="tspan6313">0.10</tspan>
      </text>
    </symbol>
    <symbol
       id="_D_3">
      <path
         style="stroke:#000000;fill:none;stroke-linecap: round"
         d="M 599.306566,246.745613 654.166589,229.973221"
         id="path6316" />
      <path
         style="stroke:#000000;fill:none;stroke-linecap: round"
         d="M 599.410162,247.084461 654.270185,230.312069"
         id="path6318" />
      <path
         style="stroke:#000000;fill:none;stroke-linecap: round"
         d="M 643.408160,233.262403 636.829797,211.745546"
         id="path6320" />
      <path
         style="stroke:#000000;fill:none;stroke-linecap: round"
         d="M 643.511756,233.601251 650.350691,255.970398"
         id="path6322" />
      <path
         style="stroke:#000000;fill:none;stroke-linecap: round"
         d="M 650.350691,255.970398 672.850691,255.970398"
         id="path6324" />
      <text
         y="250.398075"
         x="672.850691"
         style="font-size: 11.3px; fill: #000000; font-family: Arial"
         sodipodi:linespacing="125%"
         id="text6326">
        <tspan
           sodipodi:role="line"
           id="tspan6328">0.10</tspan>
      </text>
    </symbol>
    <symbol
       id="SW_CENTERMARKSYMBOL_4">
      <path
         style="stroke:#000000;fill:none;stroke-linecap: round"
         d="M 0.000000,1052.362205 0.000000,1043.362205"
         id="path6331" />
      <path
         style="stroke:#000000;fill:none;stroke-linecap: round"
         d="M 0.000000,1052.362205 -9.000000,1052.362205"
         id="path6333" />
      <path
         style="stroke:#000000;fill:none;stroke-linecap: round"
         d="M 0.000000,1052.362205 0.000000,1061.362205"
         id="path6335" />
      <path
         style="stroke:#000000;fill:none;stroke-linecap: round"
         d="M 0.000000,1052.362205 9.000000,1052.362205"
         id="path6337" />
      <path
         style="stroke:#000000;fill:none;stroke-linecap: round"
         d="M 0.000000,1034.362205 0.000000,1033.263780"
         id="path6339" />
      <path
         style="stroke:#000000;fill:none;stroke-linecap: round"
         d="M -18.000000,1052.362205 -19.098425,1052.362205"
         id="path6341" />
      <path
         style="stroke:#000000;fill:none;stroke-linecap: round"
         d="M 0.000000,1070.362205 0.000000,1071.460630"
         id="path6343" />
      <path
         style="stroke:#000000;fill:none;stroke-linecap: round"
         d="M 18.000000,1052.362205 19.098425,1052.362205"
         id="path6345" />
    </symbol>
  </defs>
  <g
     inkscape:label="0"
     inkscape:groupmode="layer"
     id="g6347">
    <g
       id="g8195">
      <path
         d="m 179.76813,157.30495 a 3.897638,3.897638 0 0 0 -3.89763,-3.89764 m -84.379484,0 A 18.070866,18.070866 0 0 0 73.42015,171.47818 m 106.34798,222.11568 0,-236.28891 m -3.89763,-3.89764 -84.379484,0 m -18.070866,18.07087 0,332.16531 m 0,0 a 18.070866,18.070866 0 0 0 18.070866,18.07087 m 0,0 325.078704,0 m 0,0 a 18.070866,18.070866 0 0 0 18.07087,-18.07087 m 0,0 0,-332.16531 m 0,0 a 18.070866,18.070866 0 0 0 -18.07087,-18.07087 m 0,0 -84.37948,0 M 179.76813,393.59386 a 74.262235,74.262235 0 0 0 148.52447,0 m 3.89764,-240.18655 a 3.897638,3.897638 0 0 0 -3.89764,3.89764 m 0,0 0,2.17735 m 0,0 -13.7116,4.68964 m 0,0 0,6.41319 m 0,0 13.7116,4.68965 m 0,0 0,5.46736 m 0,0 -13.7116,4.68964 m 0,0 0,6.4132 m 0,0 13.7116,4.68964 m 0,0 0,5.46736 m 0,0 -13.7116,4.68965 m 0,0 0,6.41319 m 0,0 13.7116,4.68964 m 0,0 0,5.46737 m 0,0 -13.7116,4.68964 m 0,0 0,6.41319 m 0,0 13.7116,4.68965 m 0,0 0,5.46736 m 0,0 -13.7116,4.68964 m 0,0 0,6.41319 m 0,0 13.7116,4.68965 m 0,0 0,5.46736 m 0,0 -13.7116,4.68964 m 0,0 0,6.4132 m 0,0 13.7116,4.68964 m 0,0 0,5.46736 m 0,0 -13.7116,4.68965 m 0,0 0,6.41319 m 0,0 13.7116,4.68964 m 0,0 0,5.46737 m 0,0 -13.7116,4.68964 m 0,0 0,6.41319 m 0,0 13.7116,4.68965 m 0,0 0,5.46736 m 0,0 -13.7116,4.68964 m 0,0 0,6.41319 m 0,0 13.7116,4.68965 m 0,0 0,5.46736 m 0,0 -13.7116,4.68964 m 0,0 0,6.4132 m 0,0 13.7116,4.68964 m 0,0 0,5.46736 m 0,0 -13.7116,4.68965 m 0,0 0,6.41319 m 0,0 13.7116,4.68964 m 0,0 0,5.72066"
         style="stroke:#000000;fill:none;stroke-linecap:round;stroke-width:0.17716535;stroke-miterlimit:4;stroke-dasharray:none"
         id="path6689" />
      <path
         id="path6713"
         d="M 157.243749,234.927760 A 5.846457,5.846457 -0.000000 1 0 145.550835,234.927760 5.846457,5.846457 -0.000000 1 0 157.243749,234.927760 z"
         style="stroke:#000000;fill:none;stroke-dasharray:none;stroke-width:0.17716535;stroke-miterlimit:4" />
      <path
         id="path6715"
         d="M 157.243749,440.193912 A 5.846457,5.846457 -0.000000 1 0 145.550835,440.193912 5.846457,5.846457 -0.000000 1 0 157.243749,440.193912 z"
         style="stroke:#000000;fill:none;stroke-dasharray:none;stroke-width:0.17716535;stroke-miterlimit:4" />
      <path
         id="path6717"
         d="M 362.509901,440.193912 A 5.846457,5.846457 -0.000000 1 0 350.816987,440.193912 5.846457,5.846457 -0.000000 1 0 362.509901,440.193912 z"
         style="stroke:#000000;fill:none;stroke-dasharray:none;stroke-width:0.17716535;stroke-miterlimit:4" />
      <path
         id="path6719"
         d="M 362.509901,234.927760 A 5.846457,5.846457 -0.000000 1 0 350.816987,234.927760 5.846457,5.846457 -0.000000 1 0 362.509901,234.927760 z"
         style="stroke:#000000;fill:none;stroke-dasharray:none;stroke-width:0.17716535;stroke-miterlimit:4" />
      <path
         id="path6721"
         d="M 263.922333,468.210424 263.922333,467.856094"
         style="stroke:#000000;fill:none;stroke-linecap:round;marker-start:url(#DistanceX);marker-end:url(#DistanceX);stroke-width:0.17716535;stroke-miterlimit:4;stroke-dasharray:none" />
    </g>
    <g
       id="g10760">
      <path
         d="m 524.39497,207.14713 a 39.172419,39.172419 0 0 0 2.10131,2.81875 m 0.26852,-7.4698 a 74.76378,74.76378 0 0 0 -2.36983,4.65105 m 5.88537,-4.60788 a 39.172419,39.172419 0 0 0 -3.51554,-0.0432 m 9.36028,1.06086 a 25.802108,25.802108 0 0 0 -5.84474,-1.01769 m 8.19318,2.04641 a 10.261111,10.261111 0 0 0 -2.34844,-1.02872 m 2.34844,1.02872 a 5.767292,5.767292 0 0 0 1.59725,0.65278 m 0,0 a 1.970364,1.970364 0 0 0 1.01501,-0.0231 m 3.40081,-4.68082 a 74.950486,74.950486 0 0 0 -3.40081,4.68082 m 3.40081,-4.68082 a 1.970364,1.970364 0 0 0 -0.29168,-0.97247 m 0,0 a 5.767292,5.767292 0 0 0 -1.11441,-1.31736 m -1.70408,-1.9156 a 10.261111,10.261111 0 0 0 1.70408,1.9156 m -4.47808,-7.1598 a 25.802108,25.802108 0 0 0 2.774,5.2442 m -3.90142,-8.57433 a 39.172419,39.172419 0 0 0 1.12742,3.33013 m 2.56368,-7.02123 a 74.76378,74.76378 0 0 0 -3.6911,3.6911 m 7.02122,-2.56368 a 39.172419,39.172419 0 0 0 -3.33012,-1.12742 m 8.57433,3.90143 a 25.802108,25.802108 0 0 0 -5.24421,-2.77401 m 7.15981,4.47809 a 10.261111,10.261111 0 0 0 -1.9156,-1.70408 m 1.9156,1.70408 a 5.767292,5.767292 0 0 0 1.31736,1.11441 m 0,0 a 1.970364,1.970364 0 0 0 0.97246,0.29167 m 4.68082,-3.40081 a 74.950486,74.950486 0 0 0 -4.68082,3.40081 m 4.68082,-3.40081 a 1.970364,1.970364 0 0 0 0.0231,-1.015 m 0,0 a 5.767292,5.767292 0 0 0 -0.65278,-1.59726 m -1.02873,-2.34843 a 10.261111,10.261111 0 0 0 1.02873,2.34843 m -2.04641,-8.19318 a 25.802108,25.802108 0 0 0 1.01768,5.84475 m -1.06086,-9.36028 a 39.172419,39.172419 0 0 0 0.0432,3.51553 m 4.60788,-5.88537 a 74.76378,74.76378 0 0 0 -4.65106,2.36984 m 7.46981,-0.26853 a 39.172419,39.172419 0 0 0 -2.81875,-2.10131 m 6.94907,6.3601 a 25.802108,25.802108 0 0 0 -4.13032,-4.25879 m 5.42557,6.47142 a 10.261111,10.261111 0 0 0 -1.29525,-2.21263 m 1.29525,2.21263 a 5.767292,5.767292 0 0 0 0.90852,1.46695 m 0,0 a 1.970364,1.970364 0 0 0 0.83473,0.57791 m 5.50263,-1.78791 a 74.950486,74.950486 0 0 0 -5.50263,1.78791 m 5.50263,-1.78791 a 1.970364,1.970364 0 0 0 0.33563,-0.95819 m 0,0 a 5.767292,5.767292 0 0 0 -0.12725,-1.7208 m -0.25267,-2.55139 a 10.261111,10.261111 0 0 0 0.25267,2.55139 m 0.58558,-8.42455 a 25.802108,25.802108 0 0 0 -0.83825,5.87316 m 1.88355,-9.22998 a 39.172419,39.172419 0 0 0 -1.0453,3.35682 m 6.20103,-4.17341 a 74.76378,74.76378 0 0 0 -5.15573,0.81659 m 7.18718,2.05292 a 39.172419,39.172419 0 0 0 -2.03145,-2.86951 m 4.64358,8.19619 a 25.802108,25.802108 0 0 0 -2.61213,-5.32668 m 3.16025,7.83127 a 10.261111,10.261111 0 0 0 -0.54812,-2.50459 m 0.54812,2.50459 a 5.767292,5.767292 0 0 0 0.41074,1.6759 m 0,0 a 1.970364,1.970364 0 0 0 0.61529,0.80758 m 5.78581,0 a 74.950486,74.950486 0 0 0 -5.78581,0 m 5.78581,0 a 1.970364,1.970364 0 0 0 0.6153,-0.80758 m 0,0 a 5.767292,5.767292 0 0 0 0.41073,-1.6759 m 0.54812,-2.50459 a 10.261111,10.261111 0 0 0 -0.54812,2.50459 m 3.16025,-7.83127 a 25.802108,25.802108 0 0 0 -2.61213,5.32668 m 4.64358,-8.19619 a 39.172419,39.172419 0 0 0 -2.03145,2.86951 m 7.18719,-2.05292 a 74.76378,74.76378 0 0 0 -5.15574,-0.81659 m 6.20103,4.17341 a 39.172419,39.172419 0 0 0 -1.04529,-3.35682 m 1.88354,9.22998 a 25.802108,25.802108 0 0 0 -0.83825,-5.87316 m 0.58558,8.42455 a 10.261111,10.261111 0 0 0 0.25267,-2.55139 m -0.25267,2.55139 a 5.767292,5.767292 0 0 0 -0.12724,1.7208 m 0,0 a 1.970364,1.970364 0 0 0 0.33562,0.95819 m 5.50264,1.78791 a 74.950486,74.950486 0 0 0 -5.50264,-1.78791 m 5.50264,1.78791 a 1.970364,1.970364 0 0 0 0.83473,-0.57791 m 0,0 a 5.767292,5.767292 0 0 0 0.90852,-1.46695 m 1.29525,-2.21263 a 10.261111,10.261111 0 0 0 -1.29525,2.21263 m 5.42557,-6.47142 a 25.802108,25.802108 0 0 0 -4.13032,4.25879 m 6.94907,-6.3601 a 39.172419,39.172419 0 0 0 -2.81875,2.10131 m 7.4698,0.26853 a 74.76378,74.76378 0 0 0 -4.65105,-2.36984 m 4.60788,5.88537 a 39.172419,39.172419 0 0 0 0.0432,-3.51553 m -1.06086,9.36028 a 25.802108,25.802108 0 0 0 1.01769,-5.84475 m -2.04642,8.19318 a 10.261111,10.261111 0 0 0 1.02873,-2.34843 m -1.02873,2.34843 a 5.767292,5.767292 0 0 0 -0.65277,1.59726 m 0,0 a 1.970364,1.970364 0 0 0 0.0231,1.015 m 4.68082,3.40081 a 74.950486,74.950486 0 0 0 -4.68082,-3.40081 m 4.68082,3.40081 a 1.970364,1.970364 0 0 0 0.97246,-0.29167 m 0,0 a 5.767292,5.767292 0 0 0 1.31737,-1.11441 m 1.9156,-1.70408 a 10.261111,10.261111 0 0 0 -1.9156,1.70408 m 7.1598,-4.47809 a 25.802108,25.802108 0 0 0 -5.2442,2.77401 m 8.57433,-3.90143 a 39.172419,39.172419 0 0 0 -3.33013,1.12742 m 7.02123,2.56368 a 74.76378,74.76378 0 0 0 -3.6911,-3.6911 m 2.56368,7.02123 a 39.172419,39.172419 0 0 0 1.12742,-3.33013 m -3.90143,8.57433 a 25.802108,25.802108 0 0 0 2.77401,-5.2442 m -4.47809,7.1598 a 10.261111,10.261111 0 0 0 1.70408,-1.9156 m -1.70408,1.9156 a 5.767292,5.767292 0 0 0 -1.11441,1.31736 m 0,0 a 1.970364,1.970364 0 0 0 -0.29168,0.97247 m 3.40082,4.68082 a 74.950486,74.950486 0 0 0 -3.40082,-4.68082 m 3.40082,4.68082 a 1.970364,1.970364 0 0 0 1.015,0.0231 m 0,0 a 5.767292,5.767292 0 0 0 1.59726,-0.65278 m 2.34843,-1.02872 a 10.261111,10.261111 0 0 0 -2.34843,1.02872 m 8.19318,-2.04641 a 25.802108,25.802108 0 0 0 -5.84475,1.01769 m 9.36028,-1.06086 a 39.172419,39.172419 0 0 0 -3.51553,0.0432 m 5.88536,4.60788 a 74.76378,74.76378 0 0 0 -2.36983,-4.65105 m 0.26852,7.4698 a 39.172419,39.172419 0 0 0 2.10131,-2.81875 m -6.36009,6.94907 a 25.802108,25.802108 0 0 0 4.25878,-4.13032 m -6.47141,5.42557 a 10.261111,10.261111 0 0 0 2.21263,-1.29525 m -2.21263,1.29525 a 5.767292,5.767292 0 0 0 -1.46695,0.90852 m 0,0 a 1.970364,1.970364 0 0 0 -0.57791,0.83473 m 1.78791,5.50264 a 74.950486,74.950486 0 0 0 -1.78791,-5.50264 m 1.78791,5.50264 a 1.970364,1.970364 0 0 0 0.95819,0.33562 m 0,0 a 5.767292,5.767292 0 0 0 1.7208,-0.12724 m 2.55139,-0.25268 a 10.261111,10.261111 0 0 0 -2.55139,0.25268 m 8.42455,0.58557 a 25.802108,25.802108 0 0 0 -5.87316,-0.83825 m 9.22998,1.88355 a 39.172419,39.172419 0 0 0 -3.35682,-1.0453 m 4.1734,6.20104 a 74.76378,74.76378 0 0 0 -0.81658,-5.15574 m -2.05292,7.18719 a 39.172419,39.172419 0 0 0 2.8695,-2.03145 m -8.19618,4.64358 a 25.802108,25.802108 0 0 0 5.32668,-2.61213 m -7.83127,3.16024 a 10.261111,10.261111 0 0 0 2.50459,-0.54811 m -2.50459,0.54811 a 5.767292,5.767292 0 0 0 -1.6759,0.41074 m 0,0 a 1.970364,1.970364 0 0 0 -0.80758,0.6153 m 0,5.78581 a 74.950486,74.950486 0 0 0 0,-5.78581 m 0,5.78581 a 1.970364,1.970364 0 0 0 0.80758,0.61529 m 0,0 a 5.767292,5.767292 0 0 0 1.6759,0.41074 m 2.50459,0.54812 a 10.261111,10.261111 0 0 0 -2.50459,-0.54812 m 7.83127,3.16025 a 25.802108,25.802108 0 0 0 -5.32668,-2.61213 m 8.19618,4.64358 a 39.172419,39.172419 0 0 0 -2.8695,-2.03145 m 2.05292,7.18718 a 74.76378,74.76378 0 0 0 0.81658,-5.15573 m -4.1734,6.20103 a 39.172419,39.172419 0 0 0 3.35682,-1.0453 m -9.22998,1.88355 a 25.802108,25.802108 0 0 0 5.87316,-0.83825 m -8.42455,0.58558 a 10.261111,10.261111 0 0 0 2.55139,0.25267 m -2.55139,-0.25267 a 5.767292,5.767292 0 0 0 -1.7208,-0.12725 m 0,0 a 1.970364,1.970364 0 0 0 -0.95819,0.33563 m -1.78791,5.50263 a 74.950486,74.950486 0 0 0 1.78791,-5.50263 m -1.78791,5.50263 a 1.970364,1.970364 0 0 0 0.57791,0.83473 m 0,0 a 5.767292,5.767292 0 0 0 1.46695,0.90852 m 2.21263,1.29525 a 10.261111,10.261111 0 0 0 -2.21263,-1.29525 m 6.47141,5.42557 a 25.802108,25.802108 0 0 0 -4.25878,-4.13032 m 6.36009,6.94907 a 39.172419,39.172419 0 0 0 -2.10131,-2.81875 m -0.26852,7.46981 a 74.76378,74.76378 0 0 0 2.36983,-4.65106 m -5.88536,4.60788 a 39.172419,39.172419 0 0 0 3.51553,0.0432 m -9.36028,-1.06087 a 25.802108,25.802108 0 0 0 5.84475,1.01769 m -8.19318,-2.04641 a 10.261111,10.261111 0 0 0 2.34843,1.02872 m -2.34843,-1.02872 a 5.767292,5.767292 0 0 0 -1.59726,-0.65278 m 0,0 a 1.970364,1.970364 0 0 0 -1.015,0.0231 m -3.40082,4.68082 a 74.950486,74.950486 0 0 0 3.40082,-4.68082 m -3.40082,4.68082 a 1.970364,1.970364 0 0 0 0.29168,0.97246 m 0,0 a 5.767292,5.767292 0 0 0 1.11441,1.31736 m 1.70408,1.9156 a 10.261111,10.261111 0 0 0 -1.70408,-1.9156 m 4.47809,7.1598 a 25.802108,25.802108 0 0 0 -2.77401,-5.2442 m 3.90143,8.57433 a 39.172419,39.172419 0 0 0 -1.12742,-3.33013 m -2.56368,7.02123 a 74.76378,74.76378 0 0 0 3.6911,-3.6911 m -7.02123,2.56368 a 39.172419,39.172419 0 0 0 3.33013,1.12742 m -8.57433,-3.90142 a 25.802108,25.802108 0 0 0 5.2442,2.774 m -7.1598,-4.47809 a 10.261111,10.261111 0 0 0 1.9156,1.70409 m -1.9156,-1.70409 a 5.767292,5.767292 0 0 0 -1.31737,-1.1144 m 0,0 a 1.970364,1.970364 0 0 0 -0.97246,-0.29168 m -4.68082,3.40081 a 74.950486,74.950486 0 0 0 4.68082,-3.40081 m -4.68082,3.40081 a 1.970364,1.970364 0 0 0 -0.0231,1.015 m 0,0 a 5.767292,5.767292 0 0 0 0.65277,1.59726 m 1.02873,2.34843 a 10.261111,10.261111 0 0 0 -1.02873,-2.34843 m 2.04642,8.19318 a 25.802108,25.802108 0 0 0 -1.01769,-5.84475 m 1.06086,9.36029 a 39.172419,39.172419 0 0 0 -0.0432,-3.51554 m -4.60788,5.88537 a 74.76378,74.76378 0 0 0 4.65105,-2.36983 m -7.4698,0.26852 a 39.172419,39.172419 0 0 0 2.81875,2.10131 m -6.94907,-6.36009 a 25.802108,25.802108 0 0 0 4.13032,4.25878 m -5.42557,-6.47141 a 10.261111,10.261111 0 0 0 1.29525,2.21263 m -1.29525,-2.21263 a 5.767292,5.767292 0 0 0 -0.90852,-1.46695 m 0,0 a 1.970364,1.970364 0 0 0 -0.83473,-0.57792 m -5.50264,1.78792 a 74.950486,74.950486 0 0 0 5.50264,-1.78792 m -5.50264,1.78792 a 1.970364,1.970364 0 0 0 -0.33562,0.95818 m 0,0 a 5.767292,5.767292 0 0 0 0.12724,1.7208 m 0.25267,2.55139 a 10.261111,10.261111 0 0 0 -0.25267,-2.55139 m -0.58558,8.42456 a 25.802108,25.802108 0 0 0 0.83825,-5.87317 m -1.88354,9.22998 a 39.172419,39.172419 0 0 0 1.04529,-3.35681 m -6.20103,4.1734 a 74.76378,74.76378 0 0 0 5.15574,-0.81659 m -7.18719,-2.05292 a 39.172419,39.172419 0 0 0 2.03145,2.86951 m -4.64358,-8.19619 a 25.802108,25.802108 0 0 0 2.61213,5.32668 m -3.16025,-7.83127 a 10.261111,10.261111 0 0 0 0.54812,2.50459 m -0.54812,-2.50459 a 5.767292,5.767292 0 0 0 -0.41073,-1.6759 m 0,0 a 1.970364,1.970364 0 0 0 -0.6153,-0.80757 m -5.78581,0 a 74.950486,74.950486 0 0 0 5.78581,0 m -5.78581,0 a 1.970364,1.970364 0 0 0 -0.61529,0.80757 m 0,0 a 5.767292,5.767292 0 0 0 -0.41074,1.6759 m -0.54812,2.50459 a 10.261111,10.261111 0 0 0 0.54812,-2.50459 m -3.16025,7.83127 a 25.802108,25.802108 0 0 0 2.61213,-5.32668 m -4.64358,8.19619 a 39.172419,39.172419 0 0 0 2.03145,-2.86951 m -7.18718,2.05292 a 74.76378,74.76378 0 0 0 5.15573,0.81659 m -6.20103,-4.1734 a 39.172419,39.172419 0 0 0 1.0453,3.35681 m -1.88355,-9.22998 a 25.802108,25.802108 0 0 0 0.83825,5.87317 m -0.58558,-8.42456 a 10.261111,10.261111 0 0 0 -0.25267,2.55139 m 0.25267,-2.55139 a 5.767292,5.767292 0 0 0 0.12725,-1.7208 m 0,0 a 1.970364,1.970364 0 0 0 -0.33563,-0.95818 m -5.50263,-1.78792 a 74.950486,74.950486 0 0 0 5.50263,1.78792 m -5.50263,-1.78792 a 1.970364,1.970364 0 0 0 -0.83473,0.57792 m 0,0 a 5.767292,5.767292 0 0 0 -0.90852,1.46695 m -1.29525,2.21263 a 10.261111,10.261111 0 0 0 1.29525,-2.21263 m -5.42557,6.47141 a 25.802108,25.802108 0 0 0 4.13032,-4.25878 m -6.94907,6.36009 a 39.172419,39.172419 0 0 0 2.81875,-2.10131 m -7.46981,-0.26852 a 74.76378,74.76378 0 0 0 4.65106,2.36983 m -4.60788,-5.88537 a 39.172419,39.172419 0 0 0 -0.0432,3.51554 m 1.06086,-9.36029 a 25.802108,25.802108 0 0 0 -1.01768,5.84475 m 2.04641,-8.19318 a 10.261111,10.261111 0 0 0 -1.02873,2.34843 m 1.02873,-2.34843 a 5.767292,5.767292 0 0 0 0.65278,-1.59726 m 0,0 a 1.970364,1.970364 0 0 0 -0.0231,-1.015 m -4.68082,-3.40081 a 74.950486,74.950486 0 0 0 4.68082,3.40081 m -4.68082,-3.40081 a 1.970364,1.970364 0 0 0 -0.97246,0.29168 m 0,0 a 5.767292,5.767292 0 0 0 -1.31736,1.1144 m -1.9156,1.70409 a 10.261111,10.261111 0 0 0 1.9156,-1.70409 m -7.15981,4.47809 a 25.802108,25.802108 0 0 0 5.24421,-2.774 m -8.57433,3.90142 a 39.172419,39.172419 0 0 0 3.33012,-1.12742 m -7.02122,-2.56368 a 74.76378,74.76378 0 0 0 3.6911,3.6911 m -2.56368,-7.02123 a 39.172419,39.172419 0 0 0 -1.12742,3.33013 m 3.90142,-8.57433 a 25.802108,25.802108 0 0 0 -2.774,5.2442 m 4.47808,-7.1598 a 10.261111,10.261111 0 0 0 -1.70408,1.9156 m 1.70408,-1.9156 a 5.767292,5.767292 0 0 0 1.11441,-1.31736 m 0,0 a 1.970364,1.970364 0 0 0 0.29168,-0.97246 m -3.40081,-4.68082 a 74.950486,74.950486 0 0 0 3.40081,4.68082 m -3.40081,-4.68082 a 1.970364,1.970364 0 0 0 -1.01501,-0.0231 m 0,0 a 5.767292,5.767292 0 0 0 -1.59725,0.65278 m -2.34844,1.02872 a 10.261111,10.261111 0 0 0 2.34844,-1.02872 m -8.19318,2.04641 a 25.802108,25.802108 0 0 0 5.84474,-1.01769 m -9.36028,1.06087 a 39.172419,39.172419 0 0 0 3.51554,-0.0432 m -5.88537,-4.60788 a 74.76378,74.76378 0 0 0 2.36983,4.65106 m -0.26852,-7.46981 a 39.172419,39.172419 0 0 0 -2.10131,2.81875 m 6.36009,-6.94907 a 25.802108,25.802108 0 0 0 -4.25878,4.13032 m 6.47141,-5.42557 a 10.261111,10.261111 0 0 0 -2.21263,1.29525 m 2.21263,-1.29525 a 5.767292,5.767292 0 0 0 1.46695,-0.90852 m 0,0 a 1.970364,1.970364 0 0 0 0.57792,-0.83473 m -1.78792,-5.50263 a 74.950486,74.950486 0 0 0 1.78792,5.50263 m -1.78792,-5.50263 a 1.970364,1.970364 0 0 0 -0.95818,-0.33563 m 0,0 a 5.767292,5.767292 0 0 0 -1.7208,0.12725 m -2.55139,0.25267 a 10.261111,10.261111 0 0 0 2.55139,-0.25267 m -8.42456,-0.58558 a 25.802108,25.802108 0 0 0 5.87317,0.83825 m -9.22998,-1.88355 a 39.172419,39.172419 0 0 0 3.35681,1.0453 m -4.1734,-6.20103 a 74.76378,74.76378 0 0 0 0.81659,5.15573 m 2.05291,-7.18718 a 39.172419,39.172419 0 0 0 -2.8695,2.03145 m 8.19619,-4.64358 a 25.802108,25.802108 0 0 0 -5.32669,2.61213 m 7.83128,-3.16025 a 10.261111,10.261111 0 0 0 -2.50459,0.54812 m 2.50459,-0.54812 a 5.767292,5.767292 0 0 0 1.6759,-0.41074 m 0,0 a 1.970364,1.970364 0 0 0 0.80757,-0.61529 m 0,-5.78581 a 74.950486,74.950486 0 0 0 0,5.78581 m 0,-5.78581 a 1.970364,1.970364 0 0 0 -0.80757,-0.6153 m 0,0 a 5.767292,5.767292 0 0 0 -1.6759,-0.41074 m -2.50459,-0.54811 a 10.261111,10.261111 0 0 0 2.50459,0.54811 m -7.83128,-3.16024 a 25.802108,25.802108 0 0 0 5.32669,2.61213 m -8.19619,-4.64358 a 39.172419,39.172419 0 0 0 2.8695,2.03145 m -2.05291,-7.18719 a 74.76378,74.76378 0 0 0 -0.81659,5.15574 m 4.1734,-6.20104 a 39.172419,39.172419 0 0 0 -3.35681,1.0453 m 9.22998,-1.88355 a 25.802108,25.802108 0 0 0 -5.87317,0.83825 m 8.42456,-0.58557 a 10.261111,10.261111 0 0 0 -2.55139,-0.25268 m 2.55139,0.25268 a 5.767292,5.767292 0 0 0 1.7208,0.12724 m 0,0 a 1.970364,1.970364 0 0 0 0.95818,-0.33562 m 1.78792,-5.50264 a 74.950486,74.950486 0 0 0 -1.78792,5.50264 m 1.78792,-5.50264 a 1.970364,1.970364 0 0 0 -0.57792,-0.83473 m 0,0 a 5.767292,5.767292 0 0 0 -1.46695,-0.90852 m -2.21263,-1.29525 a 10.261111,10.261111 0 0 0 2.21263,1.29525 m -6.47141,-5.42557 a 25.802108,25.802108 0 0 0 4.25878,4.13032"
         style="stroke:#000000;fill:none;stroke-linecap:round;stroke-width:0.17716535;stroke-miterlimit:4;stroke-dasharray:none"
         id="path7695" />
      <path
         id="path8179"
         d="M 601.898392,238.742962 A 9.744094,9.744094 -0.000000 1 0 582.410203,238.742962 9.744094,9.744094 -0.000000 1 0 601.898392,238.742962 z"
         style="stroke:#000000;fill:none;stroke-dasharray:none;stroke-width:0.17716535;stroke-miterlimit:4" />
    </g>
  </g>
</svg>
