  0
SECTION
  2
HEADER
  9
$ACADVER
  1
AC1015
  9
$ACADMAINTVER
 70
     6
  9
$DWGCODEPAGE
  3
ANSI_1252
  9
$INSBASE
 10
0.0
 20
0.0
 30
0.0
  9
$EXTMIN
 10
0.0
 20
0.0
 30
0.0
  9
$EXTMAX
 10
430.0
 20
275.0
 30
0.0
  9
$LIMMIN
 10
0.0
 20
0.0
  9
$LIMMAX
 10
430.0
 20
275.0
  9
$ORTHOMODE
 70
     0
  9
$REGENMODE
 70
     1
  9
$FILLMODE
 70
     1
  9
$QTEXTMODE
 70
     0
  9
$MIRRTEXT
 70
     1
  9
$LTSCALE
 40
1.0
  9
$ATTMODE
 70
     1
  9
$TEXTSIZE
 40
3.175
  9
$TRACEWID
 40
1.0
  9
$TEXTSTYLE
  7
Standard
  9
$CLAYER
  8
0
  9
$CELTYPE
  6
ByLayer
  9
$CECOLOR
 62
   256
  9
$CELTSCALE
 40
1.0
  9
$DISPSILH
 70
     0
  9
$DIMSCALE
 40
1.0
  9
$DIMASZ
 40
3.302
  9
$DIMEXO
 40
1.27
  9
$DIMDLI
 40
3.75
  9
$DIMRND
 40
0.0
  9
$DIMDLE
 40
0.0
  9
$DIMEXE
 40
3.175
  9
$DIMTP
 40
0.0
  9
$DIMTM
 40
0.0
  9
$DIMTXT
 40
3.175
  9
$DIMCEN
 40
2.5
  9
$DIMTSZ
 40
0.0
  9
$DIMTOL
 70
     0
  9
$DIMLIM
 70
     0
  9
$DIMTIH
 70
     1
  9
$DIMTOH
 70
     1
  9
$DIMSE1
 70
     0
  9
$DIMSE2
 70
     0
  9
$DIMTAD
 70
     0
  9
$DIMZIN
 70
     0
  9
$DIMBLK
  1

  9
$DIMASO
 70
     1
  9
$DIMSHO
 70
     1
  9
$DIMPOST
  1

  9
$DIMAPOST
  1

  9
$DIMALT
 70
     0
  9
$DIMALTD
 70
     3
  9
$DIMALTF
 40
0.0393700787
  9
$DIMLFAC
 40
1.0
  9
$DIMTOFL
 70
     1
  9
$DIMTVP
 40
0.0
  9
$DIMTIX
 70
     0
  9
$DIMSOXD
 70
     0
  9
$DIMSAH
 70
     0
  9
$DIMBLK1
  1

  9
$DIMBLK2
  1

  9
$DIMSTYLE
  2
ISO-25
  9
$DIMCLRD
 70
     0
  9
$DIMCLRE
 70
     0
  9
$DIMCLRT
 70
     0
  9
$DIMTFAC
 40
1.0
  9
$DIMGAP
 40
1.524
  9
$DIMJUST
 70
     0
  9
$DIMSD1
 70
     0
  9
$DIMSD2
 70
     0
  9
$DIMTOLJ
 70
     0
  9
$DIMTZIN
 70
     0
  9
$DIMALTZ
 70
     0
  9
$DIMALTTZ
 70
     0
  9
$DIMUPT
 70
     0
  9
$DIMDEC
 70
     2
  9
$DIMTDEC
 70
     2
  9
$DIMALTU
 70
     2
  9
$DIMALTTD
 70
     3
  9
$DIMTXSTY
  7
Standard
  9
$DIMAUNIT
 70
     0
  9
$DIMADEC
 70
     2
  9
$DIMALTRND
 40
0.0
  9
$DIMAZIN
 70
     0
  9
$DIMDSEP
 70
    44
  9
$DIMATFIT
 70
     3
  9
$DIMFRAC
 70
     0
  9
$DIMLDRBLK
  1

  9
$DIMLUNIT
 70
     2
  9
$DIMLWD
 70
    -2
  9
$DIMLWE
 70
    -2
  9
$DIMTMOVE
 70
     0
  9
$LUNITS
 70
     2
  9
$LUPREC
 70
     2
  9
$SKETCHINC
 40
1.0
  9
$FILLETRAD
 40
10.0
  9
$AUNITS
 70
     0
  9
$AUPREC
 70
     2
  9
$MENU
  1
.
  9
$ELEVATION
 40
0.0
  9
$PELEVATION
 40
0.0
  9
$THICKNESS
 40
0.0
  9
$LIMCHECK
 70
     0
  9
$CHAMFERA
 40
10.0
  9
$CHAMFERB
 40
10.0
  9
$CHAMFERC
 40
20.0
  9
$CHAMFERD
 40
0.0
  9
$SKPOLY
 70
     0
  9
$TDCREATE
 40
2457130.130370324
  9
$TDUCREATE
 40
2457130.422036991
  9
$TDUPDATE
 40
2457130.130371585
  9
$TDUUPDATE
 40
2457130.422038252
  9
$TDINDWG
 40
0.0000000116
  9
$TDUSRTIMER
 40
0.0000000116
  9
$USRTIMER
 70
     1
  9
$ANGBASE
 50
0.0
  9
$ANGDIR
 70
     0
  9
$PDMODE
 70
     0
  9
$PDSIZE
 40
-1.0
  9
$PLINEWID
 40
0.0
  9
$SPLFRAME
 70
     0
  9
$SPLINETYPE
 70
     6
  9
$SPLINESEGS
 70
     8
  9
$HANDSEED
  5
48A
  9
$SURFTAB1
 70
     6
  9
$SURFTAB2
 70
     6
  9
$SURFTYPE
 70
     6
  9
$SURFU
 70
     6
  9
$SURFV
 70
     6
  9
$UCSBASE
  2

  9
$UCSNAME
  2

  9
$UCSORG
 10
0.0
 20
0.0
 30
0.0
  9
$UCSXDIR
 10
1.0
 20
0.0
 30
0.0
  9
$UCSYDIR
 10
0.0
 20
1.0
 30
0.0
  9
$UCSORTHOREF
  2

  9
$UCSORTHOVIEW
 70
     0
  9
$UCSORGTOP
 10
0.0
 20
0.0
 30
0.0
  9
$UCSORGBOTTOM
 10
0.0
 20
0.0
 30
0.0
  9
$UCSORGLEFT
 10
0.0
 20
0.0
 30
0.0
  9
$UCSORGRIGHT
 10
0.0
 20
0.0
 30
0.0
  9
$UCSORGFRONT
 10
0.0
 20
0.0
 30
0.0
  9
$UCSORGBACK
 10
0.0
 20
0.0
 30
0.0
  9
$PUCSBASE
  2

  9
$PUCSNAME
  2

  9
$PUCSORG
 10
0.0
 20
0.0
 30
0.0
  9
$PUCSXDIR
 10
1.0
 20
0.0
 30
0.0
  9
$PUCSYDIR
 10
0.0
 20
1.0
 30
0.0
  9
$PUCSORTHOREF
  2

  9
$PUCSORTHOVIEW
 70
     0
  9
$PUCSORGTOP
 10
0.0
 20
0.0
 30
0.0
  9
$PUCSORGBOTTOM
 10
0.0
 20
0.0
 30
0.0
  9
$PUCSORGLEFT
 10
0.0
 20
0.0
 30
0.0
  9
$PUCSORGRIGHT
 10
0.0
 20
0.0
 30
0.0
  9
$PUCSORGFRONT
 10
0.0
 20
0.0
 30
0.0
  9
$PUCSORGBACK
 10
0.0
 20
0.0
 30
0.0
  9
$USERI1
 70
     0
  9
$USERI2
 70
     0
  9
$USERI3
 70
     0
  9
$USERI4
 70
     0
  9
$USERI5
 70
     0
  9
$USERR1
 40
0.0
  9
$USERR2
 40
0.0
  9
$USERR3
 40
0.0
  9
$USERR4
 40
0.0
  9
$USERR5
 40
0.0
  9
$WORLDVIEW
 70
     1
  9
$SHADEDGE
 70
     3
  9
$SHADEDIF
 70
    70
  9
$TILEMODE
 70
     1
  9
$MAXACTVP
 70
    64
  9
$PINSBASE
 10
0.0
 20
0.0
 30
0.0
  9
$PLIMCHECK
 70
     0
  9
$PEXTMIN
 10
1.0000000000E+20
 20
1.0000000000E+20
 30
1.0000000000E+20
  9
$PEXTMAX
 10
-1.0000000000E+20
 20
-1.0000000000E+20
 30
-1.0000000000E+20
  9
$PLIMMIN
 10
0.0
 20
0.0
  9
$PLIMMAX
 10
420.0
 20
297.0
  9
$UNITMODE
 70
     0
  9
$VISRETAIN
 70
     1
  9
$PLINEGEN
 70
     0
  9
$PSLTSCALE
 70
     1
  9
$TREEDEPTH
 70
  3020
  9
$CMLSTYLE
  2
Standard
  9
$CMLJUST
 70
     0
  9
$CMLSCALE
 40
20.0
  9
$PROXYGRAPHICS
 70
     1
  9
$MEASUREMENT
 70
     1
  9
$CELWEIGHT
370
    -1
  9
$ENDCAPS
280
     0
  9
$JOINSTYLE
280
     0
  9
$LWDISPLAY
290
     1
  9
$INSUNITS
 70
     4
  9
$HYPERLINKBASE
  1

  9
$STYLESHEET
  1

  9
$XEDIT
290
     1
  9
$CEPSNTYPE
380
     0
  9
$PSTYLEMODE
290
     1
  9
$FINGERPRINTGUID
  2
{13CFEDFE-5654-4EDD-8DA7-726BCD2EC5DA}
  9
$VERSIONGUID
  2
{FAEB1C32-E019-11D5-929B-00C0DF256EC4}
  9
$EXTNAMES
290
     1
  9
$PSVPSCALE
 40
0.0
  9
$OLESTARTUP
290
     0
  0
ENDSEC
  0
SECTION
  2
CLASSES
  0
CLASS
  1
ACDBDICTIONARYWDFLT
  2
AcDbDictionaryWithDefault
  3
ObjectDBX Classes
 90
        0
280
     0
281
     0
  0
CLASS
  1
VISUALSTYLE
  2
AcDbVisualStyle
  3
ObjectDBX Classes
 90
     4095
280
     0
281
     0
  0
CLASS
  1
MATERIAL
  2
AcDbMaterial
  3
ObjectDBX Classes
 90
     1153
280
     0
281
     0
  0
CLASS
  1
ACDBPLACEHOLDER
  2
AcDbPlaceHolder
  3
ObjectDBX Classes
 90
        0
280
     0
281
     0
  0
CLASS
  1
LAYOUT
  2
AcDbLayout
  3
ObjectDBX Classes
 90
        0
280
     0
281
     0
  0
ENDSEC
  0
SECTION
  2
TABLES
  0
TABLE
  2
VPORT
  5
8
330
0
100
AcDbSymbolTable
 70
     1
  0
VPORT
  5
29
330
8
100
AcDbSymbolTableRecord
100
AcDbViewportTableRecord
  2
*Active
 70
     0
 10
0.0
 20
0.0
 11
1.0
 21
1.0
 12
215.0
 22
137.5
 13
0.0
 23
0.0
 14
10.0
 24
10.0
 15
10.0
 25
10.0
 16
0.0
 26
0.0
 36
1.0
 17
0.0
 27
0.0
 37
0.0
 40
275.0
 41
1.5636363636
 42
50.0
 43
0.0
 44
0.0
 50
0.0
 51
0.0
 71
     0
 72
  2000
 73
     1
 74
     3
 75
     0
 76
     0
 77
     0
 78
     0
281
     0
 65
     1
110
0.0
120
0.0
130
0.0
111
1.0
121
0.0
131
0.0
112
0.0
122
1.0
132
0.0
 79
     0
146
0.0
  0
ENDTAB
  0
TABLE
  2
LTYPE
  5
5
330
0
100
AcDbSymbolTable
 70
     6
  0
LTYPE
  5
14
330
5
100
AcDbSymbolTableRecord
100
AcDbLinetypeTableRecord
  2
ByBlock
 70
     0
  3

 72
    65
 73
     0
 40
0.0
  0
LTYPE
  5
15
330
5
100
AcDbSymbolTableRecord
100
AcDbLinetypeTableRecord
  2
ByLayer
 70
     0
  3

 72
    65
 73
     0
 40
0.0
  0
LTYPE
  5
16
330
5
100
AcDbSymbolTableRecord
100
AcDbLinetypeTableRecord
  2
Continuous
 70
     0
  3
Solid line
 72
    65
 73
     0
 40
0.0
  0
LTYPE
  5
3F
330
5
100
AcDbSymbolTableRecord
100
AcDbLinetypeTableRecord
  2
HIDDEN
 70
     0
  3
Hidden __ __ __ __ __ __ __ __ __ __ __ __ __ __
 72
    65
 73
     2
 40
1.905
 49
1.27
 74
     0
 49
-0.635
 74
     0
  0
LTYPE
  5
40
330
5
100
AcDbSymbolTableRecord
100
AcDbLinetypeTableRecord
  2
PHANTOM
 70
     0
  3
Phantom ______  __  __  ______  __  __  ______
 72
    65
 73
     6
 40
12.7
 49
6.35
 74
     0
 49
-1.27
 74
     0
 49
1.27
 74
     0
 49
-1.27
 74
     0
 49
1.27
 74
     0
 49
-1.27
 74
     0
  0
LTYPE
  5
41
330
5
100
AcDbSymbolTableRecord
100
AcDbLinetypeTableRecord
  2
CENTER
 70
     0
  3
Center ____ _ ____ _ ____ _ ____ _ ____ _ ____
 72
    65
 73
     4
 40
10.16
 49
6.35
 74
     0
 49
-1.27
 74
     0
 49
1.27
 74
     0
 49
-1.27
 74
     0
  0
LTYPE
  5
42
330
5
100
AcDbSymbolTableRecord
100
AcDbLinetypeTableRecord
  2
CENTERX2
 70
     0
  3
Center (2x) ________  __  ________  __  _____
 72
    65
 73
     4
 40
20.32
 49
12.7
 74
     0
 49
-2.54
 74
     0
 49
2.54
 74
     0
 49
-2.54
 74
     0
  0
LTYPE
  5
43
330
5
100
AcDbSymbolTableRecord
100
AcDbLinetypeTableRecord
  2
DOT2
 70
     0
  3
Dot (.5x) ........................................
 72
    65
 73
     2
 40
0.635
 49
0.0
 74
     0
 49
-0.635
 74
     0
  0
ENDTAB
  0
TABLE
  2
LAYER
  5
2
330
0
100
AcDbSymbolTable
 70
     1
  0
LAYER
  5
10
330
2
100
AcDbSymbolTableRecord
100
AcDbLayerTableRecord
  2
0
 70
     0
 62
     7
  6
Continuous
370
    -3
390
F
  0
ENDTAB
  0
TABLE
  2
STYLE
  5
3
330
0
100
AcDbSymbolTable
 70
     2
  0
STYLE
  5
11
330
3
100
AcDbSymbolTableRecord
100
AcDbTextStyleTableRecord
  2
Standard
 70
     0
 40
0.0
 41
1.0
 50
0.0
 71
     0
 42
3.175
  3
txt
  4

  0
STYLE
  5
ED
330
3
100
AcDbSymbolTableRecord
100
AcDbTextStyleTableRecord
  2
SLDTEXTSTYLE0
 70
     0
 40
0.0
 41
0.75
 50
0.0
 71
     0
 42
0.2
  3
TXT
  4

  0
ENDTAB
  0
TABLE
  2
VIEW
  5
6
330
0
100
AcDbSymbolTable
 70
     0
  0
ENDTAB
  0
TABLE
  2
UCS
  5
7
330
0
100
AcDbSymbolTable
 70
     0
  0
ENDTAB
  0
TABLE
  2
APPID
  5
9
330
0
100
AcDbSymbolTable
 70
     1
  0
APPID
  5
12
330
9
100
AcDbSymbolTableRecord
100
AcDbRegAppTableRecord
  2
ACAD
 70
     0
  0
ENDTAB
  0
TABLE
  2
DIMSTYLE
  5
A
330
0
100
AcDbSymbolTable
 70
     2
100
AcDbDimStyleTable
  0
DIMSTYLE
105
27
330
A
100
AcDbSymbolTableRecord
100
AcDbDimStyleTableRecord
  2
ISO-25
 70
     0
 41
2.5
 42
0.625
 43
3.75
 44
1.25
 73
     0
 74
     0
 77
     1
 78
     8
140
2.5
141
2.5
143
0.0393700787
147
0.625
171
     3
172
     1
178
     0
271
     2
272
     2
274
     3
278
    44
283
     0
284
     8
340
11
  0
DIMSTYLE
105
EE
102
{ACAD_REACTORS
330
EC
330
FA
330
1A2
330
1AD
330
25D
330
2DC
330
3D7
330
3E3
330
47F
102
}
330
A
100
AcDbSymbolTableRecord
100
AcDbDimStyleTableRecord
  2
SLDDIMSTYLE0
 70
     0
 41
3.302
 44
0.0
 45
0.000000001
 78
     4
 79
     1
140
3.175
147
0.79375
172
     1
173
     1
178
     0
271
     2
272
     2
276
     2
284
    12
289
     0
340
ED
  0
ENDTAB
  0
TABLE
  2
BLOCK_RECORD
  5
1
330
0
100
AcDbSymbolTable
 70
    14
  0
BLOCK_RECORD
  5
1F
330
1
100
AcDbSymbolTableRecord
100
AcDbBlockTableRecord
  2
*Model_Space
340
22
  0
BLOCK_RECORD
  5
1B
330
1
100
AcDbSymbolTableRecord
100
AcDbBlockTableRecord
  2
*Paper_Space
340
1E
  0
BLOCK_RECORD
  5
23
330
1
100
AcDbSymbolTableRecord
100
AcDbBlockTableRecord
  2
*Paper_Space0
340
26
  0
BLOCK_RECORD
  5
EF
330
1
100
AcDbSymbolTableRecord
100
AcDbBlockTableRecord
  2
_D
340
0
  0
BLOCK_RECORD
  5
FB
330
1
100
AcDbSymbolTableRecord
100
AcDbBlockTableRecord
  2
_D_1
340
0
  0
BLOCK_RECORD
  5
1A3
330
1
100
AcDbSymbolTableRecord
100
AcDbBlockTableRecord
  2
_D_2
340
0
  0
BLOCK_RECORD
  5
1AE
330
1
100
AcDbSymbolTableRecord
100
AcDbBlockTableRecord
  2
_D_3
340
0
  0
BLOCK_RECORD
  5
1B9
330
1
100
AcDbSymbolTableRecord
100
AcDbBlockTableRecord
  2
SW_CENTERMARKSYMBOL_0
340
0
102
{BLKREFS
331
1C4
102
}
  0
BLOCK_RECORD
  5
1C5
330
1
100
AcDbSymbolTableRecord
100
AcDbBlockTableRecord
  2
SW_CENTERMARKSYMBOL_1
340
0
102
{BLKREFS
331
1D0
102
}
  0
BLOCK_RECORD
  5
1D1
330
1
100
AcDbSymbolTableRecord
100
AcDbBlockTableRecord
  2
SW_CENTERMARKSYMBOL_2
340
0
102
{BLKREFS
331
1DC
102
}
  0
BLOCK_RECORD
  5
1DD
330
1
100
AcDbSymbolTableRecord
100
AcDbBlockTableRecord
  2
SW_CENTERMARKSYMBOL_3
340
0
102
{BLKREFS
331
1E8
102
}
  0
BLOCK_RECORD
  5
25E
330
1
100
AcDbSymbolTableRecord
100
AcDbBlockTableRecord
  2
_D_4
340
0
  0
BLOCK_RECORD
  5
2DD
330
1
100
AcDbSymbolTableRecord
100
AcDbBlockTableRecord
  2
_D_5
340
0
  0
BLOCK_RECORD
  5
3D8
330
1
100
AcDbSymbolTableRecord
100
AcDbBlockTableRecord
  2
_D_6
340
0
  0
BLOCK_RECORD
  5
3E4
330
1
100
AcDbSymbolTableRecord
100
AcDbBlockTableRecord
  2
_D_7
340
0
  0
BLOCK_RECORD
  5
480
330
1
100
AcDbSymbolTableRecord
100
AcDbBlockTableRecord
  2
_D_8
340
0
  0
ENDTAB
  0
ENDSEC
  0
SECTION
  2
BLOCKS
  0
BLOCK
  5
20
330
1F
100
AcDbEntity
  8
0
100
AcDbBlockBegin
  2
*Model_Space
 70
     0
 10
0.0
 20
0.0
 30
0.0
  3
*Model_Space
  1

  0
ENDBLK
  5
21
330
1F
100
AcDbEntity
  8
0
100
AcDbBlockEnd
  0
BLOCK
  5
1C
330
1B
100
AcDbEntity
 67
     1
  8
0
100
AcDbBlockBegin
  2
*Paper_Space
 70
     0
 10
0.0
 20
0.0
 30
0.0
  3
*Paper_Space
  1

  0
ENDBLK
  5
1D
330
1B
100
AcDbEntity
 67
     1
  8
0
100
AcDbBlockEnd
  0
BLOCK
  5
24
330
23
100
AcDbEntity
  8
0
100
AcDbBlockBegin
  2
*Paper_Space0
 70
     0
 10
0.0
 20
0.0
 30
0.0
  3
*Paper_Space0
  1

  0
ENDBLK
  5
25
330
23
100
AcDbEntity
  8
0
100
AcDbBlockEnd
  0
BLOCK
  5
F0
330
EF
100
AcDbEntity
  8
0
100
AcDbBlockBegin
  2
_D
 70
     0
 10
0.0
 20
0.0
 30
0.0
  3
_D
  1

  0
SOLID
  5
F2
330
EF
100
AcDbEntity
  8
0
  6
Continuous
 62
     7
370
     0
100
AcDbTrace
 10
76.6976492694
 20
69.07
 30
0.0
 11
77.2056492694
 21
72.372
 31
0.0
 12
76.1896492694
 22
72.372
 32
0.0
 13
76.1896492694
 23
72.372
 33
0.0
  0
SOLID
  5
F3
330
EF
100
AcDbEntity
  8
0
  6
Continuous
 62
     7
370
     0
100
AcDbTrace
 10
76.6976492694
 20
68.97
 30
0.0
 11
76.1896492694
 21
65.668
 31
0.0
 12
77.2056492694
 22
65.668
 32
0.0
 13
77.2056492694
 23
65.668
 33
0.0
  0
LINE
  5
F4
330
EF
100
AcDbEntity
  8
0
  6
Continuous
 62
     7
370
     0
100
AcDbLine
 10
77.65
 20
69.07
 30
0.0
 11
73.5226492694
 21
69.07
 31
0.0
  0
LINE
  5
F5
330
EF
100
AcDbEntity
  8
0
  6
Continuous
 62
     7
370
     0
100
AcDbLine
 10
77.65
 20
68.97
 30
0.0
 11
73.5226492694
 21
68.97
 31
0.0
  0
LINE
  5
F6
330
EF
100
AcDbEntity
  8
0
  6
Continuous
 62
     7
370
     0
100
AcDbLine
 10
70.3476492694
 20
76.4502226411
 30
0.0
 11
76.6976492694
 21
76.4502226411
 31
0.0
  0
LINE
  5
F7
330
EF
100
AcDbEntity
  8
0
  6
Continuous
 62
     7
370
     0
100
AcDbLine
 10
76.6976492694
 20
76.4502226411
 30
0.0
 11
76.6976492694
 21
69.07
 31
0.0
  0
LINE
  5
F8
330
EF
100
AcDbEntity
  8
0
  6
Continuous
 62
     7
370
     0
100
AcDbLine
 10
76.6976492694
 20
68.97
 30
0.0
 11
76.6976492694
 21
62.62
 31
0.0
  0
MTEXT
  5
F9
330
EF
100
AcDbEntity
  8
0
  6
Continuous
 62
     7
370
     0
100
AcDbMText
 10
59.5570590725
 20
78.0228562145
 30
0.1
 40
3.175
 41
0.0
 71
     1
 72
     1
  1
0.10
  7
SLDTEXTSTYLE0
 73
     1
 44
1.0
  0
ENDBLK
  5
F1
330
EF
100
AcDbEntity
  8
0
100
AcDbBlockEnd
  0
BLOCK
  5
FC
330
FB
100
AcDbEntity
  8
0
100
AcDbBlockBegin
  2
_D_1
 70
     0
 10
0.0
 20
0.0
 30
0.0
  3
_D_1
  1

  0
SOLID
  5
FE
330
FB
100
AcDbEntity
  8
0
  6
Continuous
 62
     7
370
     0
100
AcDbTrace
 10
44.9612272096
 20
60.37
 30
0.0
 11
44.4532272096
 21
57.068
 31
0.0
 12
45.4692272096
 22
57.068
 32
0.0
 13
45.4692272096
 23
57.068
 33
0.0
  0
SOLID
  5
FF
330
FB
100
AcDbEntity
  8
0
  6
Continuous
 62
     7
370
     0
100
AcDbTrace
 10
44.9612272096
 20
60.47
 30
0.0
 11
45.4692272096
 21
63.772
 31
0.0
 12
44.4532272096
 22
63.772
 32
0.0
 13
44.4532272096
 23
63.772
 33
0.0
  0
LINE
  5
100
330
FB
100
AcDbEntity
  8
0
  6
Continuous
 62
     7
370
     0
100
AcDbLine
 10
38.3177828983
 20
60.37
 30
0.0
 11
48.1362272096
 21
60.37
 31
0.0
  0
LINE
  5
101
330
FB
100
AcDbEntity
  8
0
  6
Continuous
 62
     7
370
     0
100
AcDbLine
 10
38.3177828983
 20
60.47
 30
0.0
 11
48.1362272096
 21
60.47
 31
0.0
  0
LINE
  5
102
330
FB
100
AcDbEntity
  8
0
  6
Continuous
 62
     7
370
     0
100
AcDbLine
 10
51.3112272096
 20
54.9722169907
 30
0.0
 11
44.9612272096
 21
54.9722169907
 31
0.0
  0
LINE
  5
103
330
FB
100
AcDbEntity
  8
0
  6
Continuous
 62
     7
370
     0
100
AcDbLine
 10
44.9612272096
 20
54.9722169907
 30
0.0
 11
44.9612272096
 21
60.37
 31
0.0
  0
LINE
  5
104
330
FB
100
AcDbEntity
  8
0
  6
Continuous
 62
     7
370
     0
100
AcDbLine
 10
44.9612272096
 20
60.47
 30
0.0
 11
44.9612272096
 21
66.82
 31
0.0
  0
MTEXT
  5
105
330
FB
100
AcDbEntity
  8
0
  6
Continuous
 62
     7
370
     0
100
AcDbMText
 10
51.3112272096
 20
56.5448505641
 30
0.1
 40
3.175
 41
0.0
 71
     1
 72
     1
  1
0.10
  7
SLDTEXTSTYLE0
 73
     1
 44
1.0
  0
ENDBLK
  5
FD
330
FB
100
AcDbEntity
  8
0
100
AcDbBlockEnd
  0
BLOCK
  5
1A4
330
1A3
100
AcDbEntity
  8
0
100
AcDbBlockBegin
  2
_D_2
 70
     0
 10
0.0
 20
0.0
 30
0.0
  3
_D_2
  1

  0
SOLID
  5
1A6
330
1A3
100
AcDbEntity
  8
0
  6
Continuous
 62
     7
370
     0
100
AcDbTrace
 10
300.8677828983
 20
247.6128554408
 30
0.0
 11
297.5657828983
 21
248.1208554408
 31
0.0
 12
297.5657828983
 22
247.1048554408
 32
0.0
 13
297.5657828983
 23
247.1048554408
 33
0.0
  0
SOLID
  5
1A7
330
1A3
100
AcDbEntity
  8
0
  6
Continuous
 62
     7
370
     0
100
AcDbTrace
 10
300.9677828983
 20
247.6128554408
 30
0.0
 11
304.2697828983
 21
247.1048554408
 31
0.0
 12
304.2697828983
 22
248.1208554408
 32
0.0
 13
304.2697828983
 23
248.1208554408
 33
0.0
  0
LINE
  5
1A8
330
1A3
100
AcDbEntity
  8
0
  6
Continuous
 62
     7
370
     0
100
AcDbLine
 10
300.8677828983
 20
244.7761085508
 30
0.0
 11
300.8677828983
 21
250.7878554408
 31
0.0
  0
LINE
  5
1A9
330
1A3
100
AcDbEntity
  8
0
  6
Continuous
 62
     7
370
     0
100
AcDbLine
 10
300.9677828983
 20
244.7761085508
 30
0.0
 11
300.9677828983
 21
250.7878554408
 31
0.0
  0
LINE
  5
1AA
330
1A3
100
AcDbEntity
  8
0
  6
Continuous
 62
     7
370
     0
100
AcDbLine
 10
300.8677828983
 20
247.6128554408
 30
0.0
 11
293.2630779967
 21
247.6128554408
 31
0.0
  0
LINE
  5
1AB
330
1A3
100
AcDbEntity
  8
0
  6
Continuous
 62
     7
370
     0
100
AcDbLine
 10
300.9677828983
 20
247.6128554408
 30
0.0
 11
307.3177828983
 21
247.6128554408
 31
0.0
  0
MTEXT
  5
1AC
330
1A3
100
AcDbEntity
  8
0
  6
Continuous
 62
     7
370
     0
100
AcDbMText
 10
282.4724877999
 20
249.1854890142
 30
0.1
 40
3.175
 41
0.0
 71
     1
 72
     1
  1
0.10
  7
SLDTEXTSTYLE0
 73
     1
 44
1.0
  0
ENDBLK
  5
1A5
330
1A3
100
AcDbEntity
  8
0
100
AcDbBlockEnd
  0
BLOCK
  5
1AF
330
1AE
100
AcDbEntity
  8
0
100
AcDbBlockBegin
  2
_D_3
 70
     0
 10
0.0
 20
0.0
 30
0.0
  3
_D_3
  1

  0
SOLID
  5
1B1
330
1AE
100
AcDbEntity
  8
0
  6
Continuous
 62
     7
370
     0
100
AcDbTrace
 10
337.3205881286
 20
226.0492262441
 30
0.0
 11
337.8285881286
 21
229.3512262441
 31
0.0
 12
336.8125881286
 22
229.3512262441
 32
0.0
 13
336.8125881286
 23
229.3512262441
 33
0.0
  0
SOLID
  5
1B2
330
1AE
100
AcDbEntity
  8
0
  6
Continuous
 62
     7
370
     0
100
AcDbTrace
 10
337.3205881286
 20
225.9492262441
 30
0.0
 11
336.8125881286
 21
222.6472262441
 31
0.0
 12
337.8285881286
 22
222.6472262441
 32
0.0
 13
337.8285881286
 23
222.6472262441
 33
0.0
  0
LINE
  5
1B3
330
1AE
100
AcDbEntity
  8
0
  6
Continuous
 62
     7
370
     0
100
AcDbLine
 10
346.97
 20
226.0492262441
 30
0.0
 11
334.1455881286
 21
226.0492262441
 31
0.0
  0
LINE
  5
1B4
330
1AE
100
AcDbEntity
  8
0
  6
Continuous
 62
     7
370
     0
100
AcDbLine
 10
346.97
 20
225.9492262441
 30
0.0
 11
334.1455881286
 21
225.9492262441
 31
0.0
  0
LINE
  5
1B5
330
1AE
100
AcDbEntity
  8
0
  6
Continuous
 62
     7
370
     0
100
AcDbLine
 10
330.9705881286
 20
231.1007865134
 30
0.0
 11
337.3205881286
 21
231.1007865134
 31
0.0
  0
LINE
  5
1B6
330
1AE
100
AcDbEntity
  8
0
  6
Continuous
 62
     7
370
     0
100
AcDbLine
 10
337.3205881286
 20
231.1007865134
 30
0.0
 11
337.3205881286
 21
226.0492262441
 31
0.0
  0
LINE
  5
1B7
330
1AE
100
AcDbEntity
  8
0
  6
Continuous
 62
     7
370
     0
100
AcDbLine
 10
337.3205881286
 20
225.9492262441
 30
0.0
 11
337.3205881286
 21
219.5992262441
 31
0.0
  0
MTEXT
  5
1B8
330
1AE
100
AcDbEntity
  8
0
  6
Continuous
 62
     7
370
     0
100
AcDbMText
 10
320.1799979317
 20
232.6734200868
 30
0.1
 40
3.175
 41
0.0
 71
     1
 72
     1
  1
0.10
  7
SLDTEXTSTYLE0
 73
     1
 44
1.0
  0
ENDBLK
  5
1B0
330
1AE
100
AcDbEntity
  8
0
100
AcDbBlockEnd
  0
BLOCK
  5
1BA
330
1B9
100
AcDbEntity
  8
0
100
AcDbBlockBegin
  2
SW_CENTERMARKSYMBOL_0
 70
     0
 10
0.0
 20
0.0
 30
0.0
  3
SW_CENTERMARKSYMBOL_0
  1

  0
LINE
  5
1BC
330
1B9
100
AcDbEntity
  8
0
  6
Continuous
 62
     0
370
     0
100
AcDbLine
 10
0.0
 20
0.0
 30
0.0
 11
0.0
 21
2.54
 31
0.0
  0
LINE
  5
1BD
330
1B9
100
AcDbEntity
  8
0
  6
Continuous
 62
     0
370
     0
100
AcDbLine
 10
0.0
 20
0.0
 30
0.0
 11
-2.54
 21
0.0
 31
0.0
  0
LINE
  5
1BE
330
1B9
100
AcDbEntity
  8
0
  6
Continuous
 62
     0
370
     0
100
AcDbLine
 10
0.0
 20
0.0
 30
0.0
 11
0.0
 21
-2.54
 31
0.0
  0
LINE
  5
1BF
330
1B9
100
AcDbEntity
  8
0
  6
Continuous
 62
     0
370
     0
100
AcDbLine
 10
0.0
 20
0.0
 30
0.0
 11
2.54
 21
0.0
 31
0.0
  0
LINE
  5
1C0
330
1B9
100
AcDbEntity
  8
0
  6
Continuous
 62
     0
370
     0
100
AcDbLine
 10
0.0
 20
2.54
 30
0.0
 11
0.0
 21
4.54
 31
0.0
  0
LINE
  5
1C1
330
1B9
100
AcDbEntity
  8
0
  6
Continuous
 62
     0
370
     0
100
AcDbLine
 10
-2.54
 20
0.0
 30
0.0
 11
-4.54
 21
0.0
 31
0.0
  0
LINE
  5
1C2
330
1B9
100
AcDbEntity
  8
0
  6
Continuous
 62
     0
370
     0
100
AcDbLine
 10
0.0
 20
-2.54
 30
0.0
 11
0.0
 21
-4.54
 31
0.0
  0
LINE
  5
1C3
330
1B9
100
AcDbEntity
  8
0
  6
Continuous
 62
     0
370
     0
100
AcDbLine
 10
2.54
 20
0.0
 30
0.0
 11
4.54
 21
0.0
 31
0.0
  0
ENDBLK
  5
1BB
330
1B9
100
AcDbEntity
  8
0
100
AcDbBlockEnd
  0
BLOCK
  5
1C6
330
1C5
100
AcDbEntity
  8
0
100
AcDbBlockBegin
  2
SW_CENTERMARKSYMBOL_1
 70
     0
 10
0.0
 20
0.0
 30
0.0
  3
SW_CENTERMARKSYMBOL_1
  1

  0
LINE
  5
1C8
330
1C5
100
AcDbEntity
  8
0
  6
Continuous
 62
     0
370
     0
100
AcDbLine
 10
0.0
 20
0.0
 30
0.0
 11
0.0
 21
2.54
 31
0.0
  0
LINE
  5
1C9
330
1C5
100
AcDbEntity
  8
0
  6
Continuous
 62
     0
370
     0
100
AcDbLine
 10
0.0
 20
0.0
 30
0.0
 11
-2.54
 21
0.0
 31
0.0
  0
LINE
  5
1CA
330
1C5
100
AcDbEntity
  8
0
  6
Continuous
 62
     0
370
     0
100
AcDbLine
 10
0.0
 20
0.0
 30
0.0
 11
0.0
 21
-2.54
 31
0.0
  0
LINE
  5
1CB
330
1C5
100
AcDbEntity
  8
0
  6
Continuous
 62
     0
370
     0
100
AcDbLine
 10
0.0
 20
0.0
 30
0.0
 11
2.54
 21
0.0
 31
0.0
  0
LINE
  5
1CC
330
1C5
100
AcDbEntity
  8
0
  6
Continuous
 62
     0
370
     0
100
AcDbLine
 10
0.0
 20
2.54
 30
0.0
 11
0.0
 21
4.54
 31
0.0
  0
LINE
  5
1CD
330
1C5
100
AcDbEntity
  8
0
  6
Continuous
 62
     0
370
     0
100
AcDbLine
 10
-2.54
 20
0.0
 30
0.0
 11
-4.54
 21
0.0
 31
0.0
  0
LINE
  5
1CE
330
1C5
100
AcDbEntity
  8
0
  6
Continuous
 62
     0
370
     0
100
AcDbLine
 10
0.0
 20
-2.54
 30
0.0
 11
0.0
 21
-4.54
 31
0.0
  0
LINE
  5
1CF
330
1C5
100
AcDbEntity
  8
0
  6
Continuous
 62
     0
370
     0
100
AcDbLine
 10
2.54
 20
0.0
 30
0.0
 11
4.54
 21
0.0
 31
0.0
  0
ENDBLK
  5
1C7
330
1C5
100
AcDbEntity
  8
0
100
AcDbBlockEnd
  0
BLOCK
  5
1D2
330
1D1
100
AcDbEntity
  8
0
100
AcDbBlockBegin
  2
SW_CENTERMARKSYMBOL_2
 70
     0
 10
0.0
 20
0.0
 30
0.0
  3
SW_CENTERMARKSYMBOL_2
  1

  0
LINE
  5
1D4
330
1D1
100
AcDbEntity
  8
0
  6
Continuous
 62
     0
370
     0
100
AcDbLine
 10
0.0
 20
0.0
 30
0.0
 11
0.0
 21
2.54
 31
0.0
  0
LINE
  5
1D5
330
1D1
100
AcDbEntity
  8
0
  6
Continuous
 62
     0
370
     0
100
AcDbLine
 10
0.0
 20
0.0
 30
0.0
 11
-2.54
 21
0.0
 31
0.0
  0
LINE
  5
1D6
330
1D1
100
AcDbEntity
  8
0
  6
Continuous
 62
     0
370
     0
100
AcDbLine
 10
0.0
 20
0.0
 30
0.0
 11
0.0
 21
-2.54
 31
0.0
  0
LINE
  5
1D7
330
1D1
100
AcDbEntity
  8
0
  6
Continuous
 62
     0
370
     0
100
AcDbLine
 10
0.0
 20
0.0
 30
0.0
 11
2.54
 21
0.0
 31
0.0
  0
LINE
  5
1D8
330
1D1
100
AcDbEntity
  8
0
  6
Continuous
 62
     0
370
     0
100
AcDbLine
 10
0.0
 20
2.54
 30
0.0
 11
0.0
 21
4.54
 31
0.0
  0
LINE
  5
1D9
330
1D1
100
AcDbEntity
  8
0
  6
Continuous
 62
     0
370
     0
100
AcDbLine
 10
-2.54
 20
0.0
 30
0.0
 11
-4.54
 21
0.0
 31
0.0
  0
LINE
  5
1DA
330
1D1
100
AcDbEntity
  8
0
  6
Continuous
 62
     0
370
     0
100
AcDbLine
 10
0.0
 20
-2.54
 30
0.0
 11
0.0
 21
-4.54
 31
0.0
  0
LINE
  5
1DB
330
1D1
100
AcDbEntity
  8
0
  6
Continuous
 62
     0
370
     0
100
AcDbLine
 10
2.54
 20
0.0
 30
0.0
 11
4.54
 21
0.0
 31
0.0
  0
ENDBLK
  5
1D3
330
1D1
100
AcDbEntity
  8
0
100
AcDbBlockEnd
  0
BLOCK
  5
1DE
330
1DD
100
AcDbEntity
  8
0
100
AcDbBlockBegin
  2
SW_CENTERMARKSYMBOL_3
 70
     0
 10
0.0
 20
0.0
 30
0.0
  3
SW_CENTERMARKSYMBOL_3
  1

  0
LINE
  5
1E0
330
1DD
100
AcDbEntity
  8
0
  6
Continuous
 62
     0
370
     0
100
AcDbLine
 10
0.0
 20
0.0
 30
0.0
 11
0.0
 21
2.54
 31
0.0
  0
LINE
  5
1E1
330
1DD
100
AcDbEntity
  8
0
  6
Continuous
 62
     0
370
     0
100
AcDbLine
 10
0.0
 20
0.0
 30
0.0
 11
-2.54
 21
0.0
 31
0.0
  0
LINE
  5
1E2
330
1DD
100
AcDbEntity
  8
0
  6
Continuous
 62
     0
370
     0
100
AcDbLine
 10
0.0
 20
0.0
 30
0.0
 11
0.0
 21
-2.54
 31
0.0
  0
LINE
  5
1E3
330
1DD
100
AcDbEntity
  8
0
  6
Continuous
 62
     0
370
     0
100
AcDbLine
 10
0.0
 20
0.0
 30
0.0
 11
2.54
 21
0.0
 31
0.0
  0
LINE
  5
1E4
330
1DD
100
AcDbEntity
  8
0
  6
Continuous
 62
     0
370
     0
100
AcDbLine
 10
0.0
 20
2.54
 30
0.0
 11
0.0
 21
4.54
 31
0.0
  0
LINE
  5
1E5
330
1DD
100
AcDbEntity
  8
0
  6
Continuous
 62
     0
370
     0
100
AcDbLine
 10
-2.54
 20
0.0
 30
0.0
 11
-4.54
 21
0.0
 31
0.0
  0
LINE
  5
1E6
330
1DD
100
AcDbEntity
  8
0
  6
Continuous
 62
     0
370
     0
100
AcDbLine
 10
0.0
 20
-2.54
 30
0.0
 11
0.0
 21
-4.54
 31
0.0
  0
LINE
  5
1E7
330
1DD
100
AcDbEntity
  8
0
  6
Continuous
 62
     0
370
     0
100
AcDbLine
 10
2.54
 20
0.0
 30
0.0
 11
4.54
 21
0.0
 31
0.0
  0
ENDBLK
  5
1DF
330
1DD
100
AcDbEntity
  8
0
100
AcDbBlockEnd
  0
BLOCK
  5
25F
330
25E
100
AcDbEntity
  8
0
100
AcDbBlockBegin
  2
_D_4
 70
     0
 10
0.0
 20
0.0
 30
0.0
  3
_D_4
  1

  0
SOLID
  5
261
330
25E
100
AcDbEntity
  8
0
  6
Continuous
 62
     7
370
     0
100
AcDbTrace
 10
175.3477828983
 20
200.3900570387
 30
0.0
 11
178.6497828983
 21
199.8820570387
 31
0.0
 12
178.6497828983
 22
200.8980570387
 32
0.0
 13
178.6497828983
 23
200.8980570387
 33
0.0
  0
SOLID
  5
262
330
25E
100
AcDbEntity
  8
0
  6
Continuous
 62
     7
370
     0
100
AcDbTrace
 10
175.2477828983
 20
200.3900570387
 30
0.0
 11
171.9457828983
 21
200.8980570387
 31
0.0
 12
171.9457828983
 22
199.8820570387
 32
0.0
 13
171.9457828983
 23
199.8820570387
 33
0.0
  0
LINE
  5
263
330
25E
100
AcDbEntity
  8
0
  6
Continuous
 62
     7
370
     0
100
AcDbLine
 10
175.3477828983
 20
201.44
 30
0.0
 11
175.3477828983
 21
203.5650570387
 31
0.0
  0
LINE
  5
264
330
25E
100
AcDbEntity
  8
0
  6
Continuous
 62
     7
370
     0
100
AcDbLine
 10
175.2477828983
 20
201.44
 30
0.0
 11
175.2477828983
 21
203.5650570387
 31
0.0
  0
LINE
  5
265
330
25E
100
AcDbEntity
  8
0
  6
Continuous
 62
     7
370
     0
100
AcDbLine
 10
175.3477828983
 20
200.3900570387
 30
0.0
 11
178.4928870705
 21
200.3900570387
 31
0.0
  0
LINE
  5
266
330
25E
100
AcDbEntity
  8
0
  6
Continuous
 62
     7
370
     0
100
AcDbLine
 10
175.2477828983
 20
200.3900570387
 30
0.0
 11
168.8977828983
 21
200.3900570387
 31
0.0
  0
MTEXT
  5
267
330
25E
100
AcDbEntity
  8
0
  6
Continuous
 62
     7
370
     0
100
AcDbMText
 10
178.4928870705
 20
201.962690612
 30
0.1
 40
3.175
 41
0.0
 71
     1
 72
     1
  1
0.10
  7
SLDTEXTSTYLE0
 73
     1
 44
1.0
  0
ENDBLK
  5
260
330
25E
100
AcDbEntity
  8
0
100
AcDbBlockEnd
  0
BLOCK
  5
2DE
330
2DD
100
AcDbEntity
  8
0
100
AcDbBlockBegin
  2
_D_5
 70
     0
 10
0.0
 20
0.0
 30
0.0
  3
_D_5
  1

  0
SOLID
  5
2E0
330
2DD
100
AcDbEntity
  8
0
  6
Continuous
 62
     7
370
     0
100
AcDbTrace
 10
177.5077828983
 20
75.9767842882
 30
0.0
 11
180.8097828983
 21
75.4687842882
 31
0.0
 12
180.8097828983
 22
76.4847842882
 32
0.0
 13
180.8097828983
 23
76.4847842882
 33
0.0
  0
SOLID
  5
2E1
330
2DD
100
AcDbEntity
  8
0
  6
Continuous
 62
     7
370
     0
100
AcDbTrace
 10
177.4077828983
 20
75.9767842882
 30
0.0
 11
174.1057828983
 21
76.4847842882
 31
0.0
 12
174.1057828983
 22
75.4687842882
 32
0.0
 13
174.1057828983
 23
75.4687842882
 33
0.0
  0
LINE
  5
2E2
330
2DD
100
AcDbEntity
  8
0
  6
Continuous
 62
     7
370
     0
100
AcDbLine
 10
177.5077828983
 20
76.88
 30
0.0
 11
177.5077828983
 21
79.1517842882
 31
0.0
  0
LINE
  5
2E3
330
2DD
100
AcDbEntity
  8
0
  6
Continuous
 62
     7
370
     0
100
AcDbLine
 10
177.4077828983
 20
76.88
 30
0.0
 11
177.4077828983
 21
79.1517842882
 31
0.0
  0
LINE
  5
2E4
330
2DD
100
AcDbEntity
  8
0
  6
Continuous
 62
     7
370
     0
100
AcDbLine
 10
177.5077828983
 20
75.9767842882
 30
0.0
 11
183.7301542494
 21
75.9767842882
 31
0.0
  0
LINE
  5
2E5
330
2DD
100
AcDbEntity
  8
0
  6
Continuous
 62
     7
370
     0
100
AcDbLine
 10
177.4077828983
 20
75.9767842882
 30
0.0
 11
171.0577828983
 21
75.9767842882
 31
0.0
  0
MTEXT
  5
2E6
330
2DD
100
AcDbEntity
  8
0
  6
Continuous
 62
     7
370
     0
100
AcDbMText
 10
183.7301542494
 20
77.5494178616
 30
0.1
 40
3.175
 41
0.0
 71
     1
 72
     1
  1
0.10
  7
SLDTEXTSTYLE0
 73
     1
 44
1.0
  0
ENDBLK
  5
2DF
330
2DD
100
AcDbEntity
  8
0
100
AcDbBlockEnd
  0
BLOCK
  5
3D9
330
3D8
100
AcDbEntity
  8
0
100
AcDbBlockBegin
  2
_D_6
 70
     0
 10
0.0
 20
0.0
 30
0.0
  3
_D_6
  1

  0
SOLID
  5
3DB
330
3D8
100
AcDbEntity
  8
0
  6
Continuous
 62
     7
370
     0
100
AcDbTrace
 10
45.9499354467
 20
251.73
 30
0.0
 11
46.4579354467
 21
255.032
 31
0.0
 12
45.4419354467
 22
255.032
 32
0.0
 13
45.4419354467
 23
255.032
 33
0.0
  0
SOLID
  5
3DC
330
3D8
100
AcDbEntity
  8
0
  6
Continuous
 62
     7
370
     0
100
AcDbTrace
 10
45.9499354467
 20
251.63
 30
0.0
 11
45.4419354467
 21
248.328
 31
0.0
 12
46.4579354467
 22
248.328
 32
0.0
 13
46.4579354467
 23
248.328
 33
0.0
  0
LINE
  5
3DD
330
3D8
100
AcDbEntity
  8
0
  6
Continuous
 62
     7
370
     0
100
AcDbLine
 10
39.47
 20
251.73
 30
0.0
 11
49.1249354467
 21
251.73
 31
0.0
  0
LINE
  5
3DE
330
3D8
100
AcDbEntity
  8
0
  6
Continuous
 62
     7
370
     0
100
AcDbLine
 10
39.47
 20
251.63
 30
0.0
 11
49.1249354467
 21
251.63
 31
0.0
  0
LINE
  5
3DF
330
3D8
100
AcDbEntity
  8
0
  6
Continuous
 62
     7
370
     0
100
AcDbLine
 10
52.2999354467
 20
264.73
 30
0.0
 11
45.9499354467
 21
264.73
 31
0.0
  0
LINE
  5
3E0
330
3D8
100
AcDbEntity
  8
0
  6
Continuous
 62
     7
370
     0
100
AcDbLine
 10
45.9499354467
 20
264.73
 30
0.0
 11
45.9499354467
 21
251.73
 31
0.0
  0
LINE
  5
3E1
330
3D8
100
AcDbEntity
  8
0
  6
Continuous
 62
     7
370
     0
100
AcDbLine
 10
45.9499354467
 20
251.63
 30
0.0
 11
45.9499354467
 21
245.28
 31
0.0
  0
MTEXT
  5
3E2
330
3D8
100
AcDbEntity
  8
0
  6
Continuous
 62
     7
370
     0
100
AcDbMText
 10
52.2999354467
 20
266.3026335734
 30
0.1
 40
3.175
 41
0.0
 71
     1
 72
     1
  1
0.10
  7
SLDTEXTSTYLE0
 73
     1
 44
1.0
  0
ENDBLK
  5
3DA
330
3D8
100
AcDbEntity
  8
0
100
AcDbBlockEnd
  0
BLOCK
  5
3E5
330
3E4
100
AcDbEntity
  8
0
100
AcDbBlockBegin
  2
_D_7
 70
     0
 10
0.0
 20
0.0
 30
0.0
  3
_D_7
  1

  0
SOLID
  5
3E7
330
3E4
100
AcDbEntity
  8
0
  6
Continuous
 62
     7
370
     0
100
AcDbTrace
 10
31.034918192
 20
246.13
 30
0.0
 11
30.526918192
 21
242.828
 31
0.0
 12
31.542918192
 22
242.828
 32
0.0
 13
31.542918192
 23
242.828
 33
0.0
  0
SOLID
  5
3E8
330
3E4
100
AcDbEntity
  8
0
  6
Continuous
 62
     7
370
     0
100
AcDbTrace
 10
31.034918192
 20
246.23
 30
0.0
 11
31.542918192
 21
249.532
 31
0.0
 12
30.526918192
 22
249.532
 32
0.0
 13
30.526918192
 23
249.532
 33
0.0
  0
LINE
  5
3E9
330
3E4
100
AcDbEntity
  8
0
  6
Continuous
 62
     7
370
     0
100
AcDbLine
 10
36.93
 20
246.13
 30
0.0
 11
27.859918192
 21
246.13
 31
0.0
  0
LINE
  5
3EA
330
3E4
100
AcDbEntity
  8
0
  6
Continuous
 62
     7
370
     0
100
AcDbLine
 10
36.93
 20
246.23
 30
0.0
 11
27.859918192
 21
246.23
 31
0.0
  0
LINE
  5
3EB
330
3E4
100
AcDbEntity
  8
0
  6
Continuous
 62
     7
370
     0
100
AcDbLine
 10
24.684918192
 20
236.1645252967
 30
0.0
 11
31.034918192
 21
236.1645252967
 31
0.0
  0
LINE
  5
3EC
330
3E4
100
AcDbEntity
  8
0
  6
Continuous
 62
     7
370
     0
100
AcDbLine
 10
31.034918192
 20
236.1645252967
 30
0.0
 11
31.034918192
 21
246.13
 31
0.0
  0
LINE
  5
3ED
330
3E4
100
AcDbEntity
  8
0
  6
Continuous
 62
     7
370
     0
100
AcDbLine
 10
31.034918192
 20
246.23
 30
0.0
 11
31.034918192
 21
252.58
 31
0.0
  0
MTEXT
  5
3EE
330
3E4
100
AcDbEntity
  8
0
  6
Continuous
 62
     7
370
     0
100
AcDbMText
 10
13.8943279952
 20
237.7371588701
 30
0.1
 40
3.175
 41
0.0
 71
     1
 72
     1
  1
0.10
  7
SLDTEXTSTYLE0
 73
     1
 44
1.0
  0
ENDBLK
  5
3E6
330
3E4
100
AcDbEntity
  8
0
100
AcDbBlockEnd
  0
BLOCK
  5
481
330
480
100
AcDbEntity
  8
0
100
AcDbBlockBegin
  2
_D_8
 70
     0
 10
0.0
 20
0.0
 30
0.0
  3
_D_8
  1

  0
SOLID
  5
483
330
480
100
AcDbEntity
  8
0
  6
Continuous
 62
     7
370
     0
100
AcDbTrace
 10
302.3077828983
 20
123.2233333333
 30
0.0
 11
299.0057828983
 21
123.7313333333
 31
0.0
 12
299.0057828983
 22
122.7153333333
 32
0.0
 13
299.0057828983
 23
122.7153333333
 33
0.0
  0
SOLID
  5
484
330
480
100
AcDbEntity
  8
0
  6
Continuous
 62
     7
370
     0
100
AcDbTrace
 10
302.4077828983
 20
123.2233333333
 30
0.0
 11
305.7097828983
 21
122.7153333333
 31
0.0
 12
305.7097828983
 22
123.7313333333
 32
0.0
 13
305.7097828983
 23
123.7313333333
 33
0.0
  0
LINE
  5
485
330
480
100
AcDbEntity
  8
0
  6
Continuous
 62
     7
370
     0
100
AcDbLine
 10
302.3077828983
 20
123.4933333333
 30
0.0
 11
302.3077828983
 21
126.3983333333
 31
0.0
  0
LINE
  5
486
330
480
100
AcDbEntity
  8
0
  6
Continuous
 62
     7
370
     0
100
AcDbLine
 10
302.4077828983
 20
123.4933333333
 30
0.0
 11
302.4077828983
 21
126.3983333333
 31
0.0
  0
LINE
  5
487
330
480
100
AcDbEntity
  8
0
  6
Continuous
 62
     7
370
     0
100
AcDbLine
 10
302.3077828983
 20
123.2233333333
 30
0.0
 11
295.9577828983
 21
123.2233333333
 31
0.0
  0
LINE
  5
488
330
480
100
AcDbEntity
  8
0
  6
Continuous
 62
     7
370
     0
100
AcDbLine
 10
302.4077828983
 20
123.2233333333
 30
0.0
 11
308.7577828983
 21
123.2233333333
 31
0.0
  0
MTEXT
  5
489
330
480
100
AcDbEntity
  8
0
  6
Continuous
 62
     7
370
     0
100
AcDbMText
 10
296.9124877999
 20
124.7959669067
 30
0.1
 40
3.175
 41
0.0
 71
     1
 72
     1
  1
0.10
  7
SLDTEXTSTYLE0
 73
     1
 44
1.0
  0
ENDBLK
  5
482
330
480
100
AcDbEntity
  8
0
100
AcDbBlockEnd
  0
ENDSEC
  0
SECTION
  2
ENTITIES
  0
LINE
  5
44
330
1F
100
AcDbEntity
  8
0
  6
Continuous
 62
     7
370
    15
100
AcDbLine
 10
38.5477828983
 20
46.67
 30
0.0
 11
53.82
 21
46.67
 31
0.0
  0
LINE
  5
45
330
1F
100
AcDbEntity
  8
0
  6
Continuous
 62
     7
370
    15
100
AcDbLine
 10
38.5477828983
 20
16.67
 30
0.0
 11
38.5477828983
 21
46.67
 31
0.0
  0
LINE
  5
46
330
1F
100
AcDbEntity
  8
0
  6
Continuous
 62
     7
370
    15
100
AcDbLine
 10
26.6477828983
 20
16.67
 30
0.0
 11
38.5477828983
 21
16.67
 31
0.0
  0
LINE
  5
47
330
1F
100
AcDbEntity
  8
0
  6
Continuous
 62
     7
370
    15
100
AcDbLine
 10
26.6477828983
 20
16.67
 30
0.0
 11
26.6477828983
 21
25.4866666667
 31
0.0
  0
LINE
  5
48
330
1F
100
AcDbEntity
  8
0
  6
Continuous
 62
     7
370
    15
100
AcDbLine
 10
26.6477828983
 20
25.4866666667
 30
0.0
 11
23.5477828983
 21
25.4866666667
 31
0.0
  0
LINE
  5
49
330
1F
100
AcDbEntity
  8
0
  6
Continuous
 62
     7
370
    15
100
AcDbLine
 10
23.5477828983
 20
34.0033333333
 30
0.0
 11
23.5477828983
 21
25.4866666667
 31
0.0
  0
LINE
  5
4A
330
1F
100
AcDbEntity
  8
0
  6
Continuous
 62
     7
370
    15
100
AcDbLine
 10
23.5477828983
 20
34.0033333333
 30
0.0
 11
26.6477828983
 21
34.0033333333
 31
0.0
  0
LINE
  5
4B
330
1F
100
AcDbEntity
  8
0
  6
Continuous
 62
     7
370
    15
100
AcDbLine
 10
26.6477828983
 20
34.0033333333
 30
0.0
 11
26.6477828983
 21
42.92
 31
0.0
  0
LINE
  5
4C
330
1F
100
AcDbEntity
  8
0
  6
Continuous
 62
     7
370
    15
100
AcDbLine
 10
26.6477828983
 20
42.92
 30
0.0
 11
23.5477828983
 21
42.92
 31
0.0
  0
LINE
  5
4D
330
1F
100
AcDbEntity
  8
0
  6
Continuous
 62
     7
370
    15
100
AcDbLine
 10
23.5477828983
 20
51.4366666667
 30
0.0
 11
23.5477828983
 21
42.92
 31
0.0
  0
LINE
  5
4E
330
1F
100
AcDbEntity
  8
0
  6
Continuous
 62
     7
370
    15
100
AcDbLine
 10
23.5477828983
 20
51.4366666667
 30
0.0
 11
26.6477828983
 21
51.4366666667
 31
0.0
  0
LINE
  5
4F
330
1F
100
AcDbEntity
  8
0
  6
Continuous
 62
     7
370
    15
100
AcDbLine
 10
26.6477828983
 20
51.4366666667
 30
0.0
 11
26.6477828983
 21
60.3533333333
 31
0.0
  0
LINE
  5
50
330
1F
100
AcDbEntity
  8
0
  6
Continuous
 62
     7
370
    15
100
AcDbLine
 10
26.6477828983
 20
60.3533333333
 30
0.0
 11
23.5477828983
 21
60.3533333333
 31
0.0
  0
LINE
  5
51
330
1F
100
AcDbEntity
  8
0
  6
Continuous
 62
     7
370
    15
100
AcDbLine
 10
23.5477828983
 20
68.97
 30
0.0
 11
23.5477828983
 21
60.3533333333
 31
0.0
  0
LINE
  5
52
330
1F
100
AcDbEntity
  8
0
  6
Continuous
 62
     7
370
    15
100
AcDbLine
 10
31.9477828983
 20
68.97
 30
0.0
 11
23.5477828983
 21
68.97
 31
0.0
  0
LINE
  5
53
330
1F
100
AcDbEntity
  8
0
  6
Continuous
 62
     7
370
    15
100
AcDbLine
 10
31.9477828983
 20
68.97
 30
0.0
 11
31.9477828983
 21
65.87
 31
0.0
  0
LINE
  5
54
330
1F
100
AcDbEntity
  8
0
  6
Continuous
 62
     7
370
    15
100
AcDbLine
 10
31.9477828983
 20
65.87
 30
0.0
 11
42.1477828983
 21
65.87
 31
0.0
  0
LINE
  5
55
330
1F
100
AcDbEntity
  8
0
  6
Continuous
 62
     7
370
    15
100
AcDbLine
 10
42.1477828983
 20
65.87
 30
0.0
 11
42.1477828983
 21
68.97
 31
0.0
  0
LINE
  5
56
330
1F
100
AcDbEntity
  8
0
  6
Continuous
 62
     7
370
    15
100
AcDbLine
 10
115.6922171017
 20
68.97
 30
0.0
 11
42.1477828983
 21
68.97
 31
0.0
  0
LINE
  5
57
330
1F
100
AcDbEntity
  8
0
  6
Continuous
 62
     7
370
    15
100
AcDbLine
 10
115.6922171017
 20
68.97
 30
0.0
 11
115.6922171017
 21
65.87
 31
0.0
  0
LINE
  5
58
330
1F
100
AcDbEntity
  8
0
  6
Continuous
 62
     7
370
    15
100
AcDbLine
 10
115.6922171017
 20
65.87
 30
0.0
 11
125.8922171017
 21
65.87
 31
0.0
  0
LINE
  5
59
330
1F
100
AcDbEntity
  8
0
  6
Continuous
 62
     7
370
    15
100
AcDbLine
 10
125.8922171017
 20
65.87
 30
0.0
 11
125.8922171017
 21
68.97
 31
0.0
  0
LINE
  5
5A
330
1F
100
AcDbEntity
  8
0
  6
Continuous
 62
     7
370
    15
100
AcDbLine
 10
134.2922171017
 20
68.97
 30
0.0
 11
125.8922171017
 21
68.97
 31
0.0
  0
LINE
  5
5B
330
1F
100
AcDbEntity
  8
0
  6
Continuous
 62
     7
370
    15
100
AcDbLine
 10
134.2922171017
 20
60.3533333333
 30
0.0
 11
134.2922171017
 21
68.97
 31
0.0
  0
LINE
  5
5C
330
1F
100
AcDbEntity
  8
0
  6
Continuous
 62
     7
370
    15
100
AcDbLine
 10
134.2922171017
 20
60.3533333333
 30
0.0
 11
131.1922171017
 21
60.3533333333
 31
0.0
  0
LINE
  5
5D
330
1F
100
AcDbEntity
  8
0
  6
Continuous
 62
     7
370
    15
100
AcDbLine
 10
131.1922171017
 20
60.3533333333
 30
0.0
 11
131.1922171017
 21
51.4366666667
 31
0.0
  0
LINE
  5
5E
330
1F
100
AcDbEntity
  8
0
  6
Continuous
 62
     7
370
    15
100
AcDbLine
 10
131.1922171017
 20
51.4366666667
 30
0.0
 11
134.2922171017
 21
51.4366666667
 31
0.0
  0
LINE
  5
5F
330
1F
100
AcDbEntity
  8
0
  6
Continuous
 62
     7
370
    15
100
AcDbLine
 10
134.2922171017
 20
42.92
 30
0.0
 11
134.2922171017
 21
51.4366666667
 31
0.0
  0
LINE
  5
60
330
1F
100
AcDbEntity
  8
0
  6
Continuous
 62
     7
370
    15
100
AcDbLine
 10
134.2922171017
 20
42.92
 30
0.0
 11
131.1922171017
 21
42.92
 31
0.0
  0
LINE
  5
61
330
1F
100
AcDbEntity
  8
0
  6
Continuous
 62
     7
370
    15
100
AcDbLine
 10
131.1922171017
 20
42.92
 30
0.0
 11
131.1922171017
 21
34.0033333333
 31
0.0
  0
LINE
  5
62
330
1F
100
AcDbEntity
  8
0
  6
Continuous
 62
     7
370
    15
100
AcDbLine
 10
131.1922171017
 20
34.0033333333
 30
0.0
 11
134.2922171017
 21
34.0033333333
 31
0.0
  0
LINE
  5
63
330
1F
100
AcDbEntity
  8
0
  6
Continuous
 62
     7
370
    15
100
AcDbLine
 10
134.2922171017
 20
25.4866666667
 30
0.0
 11
134.2922171017
 21
34.0033333333
 31
0.0
  0
LINE
  5
64
330
1F
100
AcDbEntity
  8
0
  6
Continuous
 62
     7
370
    15
100
AcDbLine
 10
134.2922171017
 20
25.4866666667
 30
0.0
 11
131.1922171017
 21
25.4866666667
 31
0.0
  0
LINE
  5
65
330
1F
100
AcDbEntity
  8
0
  6
Continuous
 62
     7
370
    15
100
AcDbLine
 10
131.1922171017
 20
25.4866666667
 30
0.0
 11
131.1922171017
 21
16.67
 31
0.0
  0
LINE
  5
66
330
1F
100
AcDbEntity
  8
0
  6
Continuous
 62
     7
370
    15
100
AcDbLine
 10
119.2922171017
 20
16.67
 30
0.0
 11
131.1922171017
 21
16.67
 31
0.0
  0
LINE
  5
67
330
1F
100
AcDbEntity
  8
0
  6
Continuous
 62
     7
370
    15
100
AcDbLine
 10
119.2922171017
 20
46.67
 30
0.0
 11
119.2922171017
 21
16.67
 31
0.0
  0
LINE
  5
68
330
1F
100
AcDbEntity
  8
0
  6
Continuous
 62
     7
370
    15
100
AcDbLine
 10
104.02
 20
46.67
 30
0.0
 11
119.2922171017
 21
46.67
 31
0.0
  0
LINE
  5
69
330
1F
100
AcDbEntity
  8
0
  6
Continuous
 62
     7
370
    15
100
AcDbLine
 10
104.02
 20
46.67
 30
0.0
 11
104.02
 21
49.77
 31
0.0
  0
LINE
  5
6A
330
1F
100
AcDbEntity
  8
0
  6
Continuous
 62
     7
370
    15
100
AcDbLine
 10
104.02
 20
49.77
 30
0.0
 11
93.82
 21
49.77
 31
0.0
  0
LINE
  5
6B
330
1F
100
AcDbEntity
  8
0
  6
Continuous
 62
     7
370
    15
100
AcDbLine
 10
93.82
 20
49.77
 30
0.0
 11
93.82
 21
46.67
 31
0.0
  0
LINE
  5
6C
330
1F
100
AcDbEntity
  8
0
  6
Continuous
 62
     7
370
    15
100
AcDbLine
 10
84.02
 20
46.67
 30
0.0
 11
93.82
 21
46.67
 31
0.0
  0
LINE
  5
6D
330
1F
100
AcDbEntity
  8
0
  6
Continuous
 62
     7
370
    15
100
AcDbLine
 10
84.02
 20
46.67
 30
0.0
 11
84.02
 21
49.77
 31
0.0
  0
LINE
  5
6E
330
1F
100
AcDbEntity
  8
0
  6
Continuous
 62
     7
370
    15
100
AcDbLine
 10
84.02
 20
49.77
 30
0.0
 11
73.82
 21
49.77
 31
0.0
  0
LINE
  5
6F
330
1F
100
AcDbEntity
  8
0
  6
Continuous
 62
     7
370
    15
100
AcDbLine
 10
73.82
 20
49.77
 30
0.0
 11
73.82
 21
46.67
 31
0.0
  0
LINE
  5
70
330
1F
100
AcDbEntity
  8
0
  6
Continuous
 62
     7
370
    15
100
AcDbLine
 10
64.02
 20
46.67
 30
0.0
 11
73.82
 21
46.67
 31
0.0
  0
LINE
  5
71
330
1F
100
AcDbEntity
  8
0
  6
Continuous
 62
     7
370
    15
100
AcDbLine
 10
64.02
 20
46.67
 30
0.0
 11
64.02
 21
49.77
 31
0.0
  0
LINE
  5
72
330
1F
100
AcDbEntity
  8
0
  6
Continuous
 62
     7
370
    15
100
AcDbLine
 10
64.02
 20
49.77
 30
0.0
 11
53.82
 21
49.77
 31
0.0
  0
LINE
  5
73
330
1F
100
AcDbEntity
  8
0
  6
Continuous
 62
     7
370
    15
100
AcDbLine
 10
53.82
 20
49.77
 30
0.0
 11
53.82
 21
46.67
 31
0.0
  0
LINE
  5
74
330
1F
100
AcDbEntity
  8
0
  6
Continuous
 62
     7
370
    15
100
AcDbLine
 10
125.8922171017
 20
60.47
 30
0.0
 11
115.6922171017
 21
60.47
 31
0.0
  0
LINE
  5
75
330
1F
100
AcDbEntity
  8
0
  6
Continuous
 62
     7
370
    15
100
AcDbLine
 10
115.6922171017
 20
60.47
 30
0.0
 11
115.6922171017
 21
57.27
 31
0.0
  0
LINE
  5
76
330
1F
100
AcDbEntity
  8
0
  6
Continuous
 62
     7
370
    15
100
AcDbLine
 10
115.6922171017
 20
57.27
 30
0.0
 11
125.8922171017
 21
57.27
 31
0.0
  0
LINE
  5
77
330
1F
100
AcDbEntity
  8
0
  6
Continuous
 62
     7
370
    15
100
AcDbLine
 10
125.8922171017
 20
57.27
 30
0.0
 11
125.8922171017
 21
60.47
 31
0.0
  0
LINE
  5
78
330
1F
100
AcDbEntity
  8
0
  6
Continuous
 62
     7
370
    15
100
AcDbLine
 10
31.9477828983
 20
60.47
 30
0.0
 11
31.9477828983
 21
57.27
 31
0.0
  0
LINE
  5
79
330
1F
100
AcDbEntity
  8
0
  6
Continuous
 62
     7
370
    15
100
AcDbLine
 10
31.9477828983
 20
57.27
 30
0.0
 11
42.1477828983
 21
57.27
 31
0.0
  0
LINE
  5
7A
330
1F
100
AcDbEntity
  8
0
  6
Continuous
 62
     7
370
    15
100
AcDbLine
 10
42.1477828983
 20
57.27
 30
0.0
 11
42.1477828983
 21
60.47
 31
0.0
  0
LINE
  5
7B
330
1F
100
AcDbEntity
  8
0
  6
Continuous
 62
     7
370
    15
100
AcDbLine
 10
42.1477828983
 20
60.47
 30
0.0
 11
31.9477828983
 21
60.47
 31
0.0
  0
LINE
  5
7C
330
1F
100
AcDbEntity
  8
0
  6
Continuous
 62
     7
370
     0
100
AcDbLine
 10
115.7922171017
 20
69.07
 30
0.0
 11
42.0477828983
 21
69.07
 31
0.0
  0
LINE
  5
7D
330
1F
100
AcDbEntity
  8
0
  6
Continuous
 62
     7
370
     0
100
AcDbLine
 10
42.0477828983
 20
69.07
 30
0.0
 11
42.0477828983
 21
65.97
 31
0.0
  0
LINE
  5
7E
330
1F
100
AcDbEntity
  8
0
  6
Continuous
 62
     7
370
     0
100
AcDbLine
 10
42.0477828983
 20
65.97
 30
0.0
 11
32.0477828983
 21
65.97
 31
0.0
  0
LINE
  5
7F
330
1F
100
AcDbEntity
  8
0
  6
Continuous
 62
     7
370
     0
100
AcDbLine
 10
32.0477828983
 20
65.97
 30
0.0
 11
32.0477828983
 21
69.07
 31
0.0
  0
LINE
  5
80
330
1F
100
AcDbEntity
  8
0
  6
Continuous
 62
     7
370
     0
100
AcDbLine
 10
32.0477828983
 20
69.07
 30
0.0
 11
23.4477828983
 21
69.07
 31
0.0
  0
LINE
  5
81
330
1F
100
AcDbEntity
  8
0
  6
Continuous
 62
     7
370
     0
100
AcDbLine
 10
23.4477828983
 20
69.07
 30
0.0
 11
23.4477828983
 21
60.2533333333
 31
0.0
  0
LINE
  5
82
330
1F
100
AcDbEntity
  8
0
  6
Continuous
 62
     7
370
     0
100
AcDbLine
 10
23.4477828983
 20
60.2533333333
 30
0.0
 11
26.5477828983
 21
60.2533333333
 31
0.0
  0
LINE
  5
83
330
1F
100
AcDbEntity
  8
0
  6
Continuous
 62
     7
370
     0
100
AcDbLine
 10
26.5477828983
 20
60.2533333333
 30
0.0
 11
26.5477828983
 21
51.5366666667
 31
0.0
  0
LINE
  5
84
330
1F
100
AcDbEntity
  8
0
  6
Continuous
 62
     7
370
     0
100
AcDbLine
 10
26.5477828983
 20
51.5366666667
 30
0.0
 11
23.4477828983
 21
51.5366666667
 31
0.0
  0
LINE
  5
85
330
1F
100
AcDbEntity
  8
0
  6
Continuous
 62
     7
370
     0
100
AcDbLine
 10
23.4477828983
 20
51.5366666667
 30
0.0
 11
23.4477828983
 21
42.82
 31
0.0
  0
LINE
  5
86
330
1F
100
AcDbEntity
  8
0
  6
Continuous
 62
     7
370
     0
100
AcDbLine
 10
23.4477828983
 20
42.82
 30
0.0
 11
26.5477828983
 21
42.82
 31
0.0
  0
LINE
  5
87
330
1F
100
AcDbEntity
  8
0
  6
Continuous
 62
     7
370
     0
100
AcDbLine
 10
26.5477828983
 20
42.82
 30
0.0
 11
26.5477828983
 21
34.1033333333
 31
0.0
  0
LINE
  5
88
330
1F
100
AcDbEntity
  8
0
  6
Continuous
 62
     7
370
     0
100
AcDbLine
 10
26.5477828983
 20
34.1033333333
 30
0.0
 11
23.4477828983
 21
34.1033333333
 31
0.0
  0
LINE
  5
89
330
1F
100
AcDbEntity
  8
0
  6
Continuous
 62
     7
370
     0
100
AcDbLine
 10
23.4477828983
 20
34.1033333333
 30
0.0
 11
23.4477828983
 21
25.3866666667
 31
0.0
  0
LINE
  5
8A
330
1F
100
AcDbEntity
  8
0
  6
Continuous
 62
     7
370
     0
100
AcDbLine
 10
23.4477828983
 20
25.3866666667
 30
0.0
 11
26.5477828983
 21
25.3866666667
 31
0.0
  0
LINE
  5
8B
330
1F
100
AcDbEntity
  8
0
  6
Continuous
 62
     7
370
     0
100
AcDbLine
 10
26.5477828983
 20
25.3866666667
 30
0.0
 11
26.5477828983
 21
16.57
 31
0.0
  0
LINE
  5
8C
330
1F
100
AcDbEntity
  8
0
  6
Continuous
 62
     7
370
     0
100
AcDbLine
 10
26.5477828983
 20
16.57
 30
0.0
 11
38.6477828983
 21
16.57
 31
0.0
  0
LINE
  5
8D
330
1F
100
AcDbEntity
  8
0
  6
Continuous
 62
     7
370
     0
100
AcDbLine
 10
38.6477828983
 20
16.57
 30
0.0
 11
38.6477828983
 21
46.57
 31
0.0
  0
LINE
  5
8E
330
1F
100
AcDbEntity
  8
0
  6
Continuous
 62
     7
370
     0
100
AcDbLine
 10
38.6477828983
 20
46.57
 30
0.0
 11
53.92
 21
46.57
 31
0.0
  0
LINE
  5
8F
330
1F
100
AcDbEntity
  8
0
  6
Continuous
 62
     7
370
     0
100
AcDbLine
 10
53.92
 20
46.57
 30
0.0
 11
53.92
 21
49.67
 31
0.0
  0
LINE
  5
90
330
1F
100
AcDbEntity
  8
0
  6
Continuous
 62
     7
370
     0
100
AcDbLine
 10
53.92
 20
49.67
 30
0.0
 11
63.92
 21
49.67
 31
0.0
  0
LINE
  5
91
330
1F
100
AcDbEntity
  8
0
  6
Continuous
 62
     7
370
     0
100
AcDbLine
 10
63.92
 20
49.67
 30
0.0
 11
63.92
 21
46.57
 31
0.0
  0
LINE
  5
92
330
1F
100
AcDbEntity
  8
0
  6
Continuous
 62
     7
370
     0
100
AcDbLine
 10
63.92
 20
46.57
 30
0.0
 11
73.92
 21
46.57
 31
0.0
  0
LINE
  5
93
330
1F
100
AcDbEntity
  8
0
  6
Continuous
 62
     7
370
     0
100
AcDbLine
 10
73.92
 20
46.57
 30
0.0
 11
73.92
 21
49.67
 31
0.0
  0
LINE
  5
94
330
1F
100
AcDbEntity
  8
0
  6
Continuous
 62
     7
370
     0
100
AcDbLine
 10
73.92
 20
49.67
 30
0.0
 11
83.92
 21
49.67
 31
0.0
  0
LINE
  5
95
330
1F
100
AcDbEntity
  8
0
  6
Continuous
 62
     7
370
     0
100
AcDbLine
 10
83.92
 20
49.67
 30
0.0
 11
83.92
 21
46.57
 31
0.0
  0
LINE
  5
96
330
1F
100
AcDbEntity
  8
0
  6
Continuous
 62
     7
370
     0
100
AcDbLine
 10
83.92
 20
46.57
 30
0.0
 11
93.92
 21
46.57
 31
0.0
  0
LINE
  5
97
330
1F
100
AcDbEntity
  8
0
  6
Continuous
 62
     7
370
     0
100
AcDbLine
 10
93.92
 20
46.57
 30
0.0
 11
93.92
 21
49.67
 31
0.0
  0
LINE
  5
98
330
1F
100
AcDbEntity
  8
0
  6
Continuous
 62
     7
370
     0
100
AcDbLine
 10
93.92
 20
49.67
 30
0.0
 11
103.92
 21
49.67
 31
0.0
  0
LINE
  5
99
330
1F
100
AcDbEntity
  8
0
  6
Continuous
 62
     7
370
     0
100
AcDbLine
 10
103.92
 20
49.67
 30
0.0
 11
103.92
 21
46.57
 31
0.0
  0
LINE
  5
9A
330
1F
100
AcDbEntity
  8
0
  6
Continuous
 62
     7
370
     0
100
AcDbLine
 10
103.92
 20
46.57
 30
0.0
 11
119.1922171017
 21
46.57
 31
0.0
  0
LINE
  5
9B
330
1F
100
AcDbEntity
  8
0
  6
Continuous
 62
     7
370
     0
100
AcDbLine
 10
119.1922171017
 20
46.57
 30
0.0
 11
119.1922171017
 21
16.57
 31
0.0
  0
LINE
  5
9C
330
1F
100
AcDbEntity
  8
0
  6
Continuous
 62
     7
370
     0
100
AcDbLine
 10
119.1922171017
 20
16.57
 30
0.0
 11
131.2922171017
 21
16.57
 31
0.0
  0
LINE
  5
9D
330
1F
100
AcDbEntity
  8
0
  6
Continuous
 62
     7
370
     0
100
AcDbLine
 10
131.2922171017
 20
16.57
 30
0.0
 11
131.2922171017
 21
25.3866666667
 31
0.0
  0
LINE
  5
9E
330
1F
100
AcDbEntity
  8
0
  6
Continuous
 62
     7
370
     0
100
AcDbLine
 10
131.2922171017
 20
25.3866666667
 30
0.0
 11
134.3922171017
 21
25.3866666667
 31
0.0
  0
LINE
  5
9F
330
1F
100
AcDbEntity
  8
0
  6
Continuous
 62
     7
370
     0
100
AcDbLine
 10
134.3922171017
 20
25.3866666667
 30
0.0
 11
134.3922171017
 21
34.1033333333
 31
0.0
  0
LINE
  5
A0
330
1F
100
AcDbEntity
  8
0
  6
Continuous
 62
     7
370
     0
100
AcDbLine
 10
134.3922171017
 20
34.1033333333
 30
0.0
 11
131.2922171017
 21
34.1033333333
 31
0.0
  0
LINE
  5
A1
330
1F
100
AcDbEntity
  8
0
  6
Continuous
 62
     7
370
     0
100
AcDbLine
 10
131.2922171017
 20
34.1033333333
 30
0.0
 11
131.2922171017
 21
42.82
 31
0.0
  0
LINE
  5
A2
330
1F
100
AcDbEntity
  8
0
  6
Continuous
 62
     7
370
     0
100
AcDbLine
 10
131.2922171017
 20
42.82
 30
0.0
 11
134.3922171017
 21
42.82
 31
0.0
  0
LINE
  5
A3
330
1F
100
AcDbEntity
  8
0
  6
Continuous
 62
     7
370
     0
100
AcDbLine
 10
134.3922171017
 20
42.82
 30
0.0
 11
134.3922171017
 21
51.5366666667
 31
0.0
  0
LINE
  5
A4
330
1F
100
AcDbEntity
  8
0
  6
Continuous
 62
     7
370
     0
100
AcDbLine
 10
134.3922171017
 20
51.5366666667
 30
0.0
 11
131.2922171017
 21
51.5366666667
 31
0.0
  0
LINE
  5
A5
330
1F
100
AcDbEntity
  8
0
  6
Continuous
 62
     7
370
     0
100
AcDbLine
 10
131.2922171017
 20
51.5366666667
 30
0.0
 11
131.2922171017
 21
60.2533333333
 31
0.0
  0
LINE
  5
A6
330
1F
100
AcDbEntity
  8
0
  6
Continuous
 62
     7
370
     0
100
AcDbLine
 10
131.2922171017
 20
60.2533333333
 30
0.0
 11
134.3922171017
 21
60.2533333333
 31
0.0
  0
LINE
  5
A7
330
1F
100
AcDbEntity
  8
0
  6
Continuous
 62
     7
370
     0
100
AcDbLine
 10
134.3922171017
 20
60.2533333333
 30
0.0
 11
134.3922171017
 21
69.07
 31
0.0
  0
LINE
  5
A8
330
1F
100
AcDbEntity
  8
0
  6
Continuous
 62
     7
370
     0
100
AcDbLine
 10
134.3922171017
 20
69.07
 30
0.0
 11
125.7922171017
 21
69.07
 31
0.0
  0
LINE
  5
A9
330
1F
100
AcDbEntity
  8
0
  6
Continuous
 62
     7
370
     0
100
AcDbLine
 10
125.7922171017
 20
69.07
 30
0.0
 11
125.7922171017
 21
65.97
 31
0.0
  0
LINE
  5
AA
330
1F
100
AcDbEntity
  8
0
  6
Continuous
 62
     7
370
     0
100
AcDbLine
 10
125.7922171017
 20
65.97
 30
0.0
 11
115.7922171017
 21
65.97
 31
0.0
  0
LINE
  5
AB
330
1F
100
AcDbEntity
  8
0
  6
Continuous
 62
     7
370
     0
100
AcDbLine
 10
115.7922171017
 20
65.97
 30
0.0
 11
115.7922171017
 21
69.07
 31
0.0
  0
LINE
  5
AC
330
1F
100
AcDbEntity
  8
0
  6
CENTERX2
 62
     7
370
     0
100
AcDbLine
 10
53.82
 20
46.67
 30
0.0
 11
53.82
 21
49.77
 31
0.0
  0
LINE
  5
AD
330
1F
100
AcDbEntity
  8
0
  6
CENTERX2
 62
     7
370
     0
100
AcDbLine
 10
53.82
 20
49.77
 30
0.0
 11
64.02
 21
49.77
 31
0.0
  0
LINE
  5
AE
330
1F
100
AcDbEntity
  8
0
  6
CENTERX2
 62
     7
370
     0
100
AcDbLine
 10
64.02
 20
49.77
 30
0.0
 11
64.02
 21
46.67
 31
0.0
  0
LINE
  5
AF
330
1F
100
AcDbEntity
  8
0
  6
CENTERX2
 62
     7
370
     0
100
AcDbLine
 10
64.02
 20
46.67
 30
0.0
 11
73.82
 21
46.67
 31
0.0
  0
LINE
  5
B0
330
1F
100
AcDbEntity
  8
0
  6
CENTERX2
 62
     7
370
     0
100
AcDbLine
 10
73.82
 20
46.67
 30
0.0
 11
73.82
 21
49.77
 31
0.0
  0
LINE
  5
B1
330
1F
100
AcDbEntity
  8
0
  6
CENTERX2
 62
     7
370
     0
100
AcDbLine
 10
73.82
 20
49.77
 30
0.0
 11
84.02
 21
49.77
 31
0.0
  0
LINE
  5
B2
330
1F
100
AcDbEntity
  8
0
  6
CENTERX2
 62
     7
370
     0
100
AcDbLine
 10
84.02
 20
49.77
 30
0.0
 11
84.02
 21
46.67
 31
0.0
  0
LINE
  5
B3
330
1F
100
AcDbEntity
  8
0
  6
CENTERX2
 62
     7
370
     0
100
AcDbLine
 10
84.02
 20
46.67
 30
0.0
 11
93.82
 21
46.67
 31
0.0
  0
LINE
  5
B4
330
1F
100
AcDbEntity
  8
0
  6
CENTERX2
 62
     7
370
     0
100
AcDbLine
 10
93.82
 20
46.67
 30
0.0
 11
93.82
 21
49.77
 31
0.0
  0
LINE
  5
B5
330
1F
100
AcDbEntity
  8
0
  6
CENTERX2
 62
     7
370
     0
100
AcDbLine
 10
93.82
 20
49.77
 30
0.0
 11
104.02
 21
49.77
 31
0.0
  0
LINE
  5
B6
330
1F
100
AcDbEntity
  8
0
  6
CENTERX2
 62
     7
370
     0
100
AcDbLine
 10
104.02
 20
49.77
 30
0.0
 11
104.02
 21
46.67
 31
0.0
  0
LINE
  5
B7
330
1F
100
AcDbEntity
  8
0
  6
CENTERX2
 62
     7
370
     0
100
AcDbLine
 10
104.02
 20
46.67
 30
0.0
 11
119.2922171017
 21
46.67
 31
0.0
  0
LINE
  5
B8
330
1F
100
AcDbEntity
  8
0
  6
CENTERX2
 62
     7
370
     0
100
AcDbLine
 10
119.2922171017
 20
46.67
 30
0.0
 11
119.2922171017
 21
16.67
 31
0.0
  0
LINE
  5
B9
330
1F
100
AcDbEntity
  8
0
  6
CENTERX2
 62
     7
370
     0
100
AcDbLine
 10
119.2922171017
 20
16.67
 30
0.0
 11
131.1922171017
 21
16.67
 31
0.0
  0
LINE
  5
BA
330
1F
100
AcDbEntity
  8
0
  6
CENTERX2
 62
     7
370
     0
100
AcDbLine
 10
131.1922171017
 20
16.67
 30
0.0
 11
131.1922171017
 21
25.4866666667
 31
0.0
  0
LINE
  5
BB
330
1F
100
AcDbEntity
  8
0
  6
CENTERX2
 62
     7
370
     0
100
AcDbLine
 10
131.1922171017
 20
25.4866666667
 30
0.0
 11
134.2922171017
 21
25.4866666667
 31
0.0
  0
LINE
  5
BC
330
1F
100
AcDbEntity
  8
0
  6
CENTERX2
 62
     7
370
     0
100
AcDbLine
 10
134.2922171017
 20
25.4866666667
 30
0.0
 11
134.2922171017
 21
34.0033333333
 31
0.0
  0
LINE
  5
BD
330
1F
100
AcDbEntity
  8
0
  6
CENTERX2
 62
     7
370
     0
100
AcDbLine
 10
134.2922171017
 20
34.0033333333
 30
0.0
 11
131.1922171017
 21
34.0033333333
 31
0.0
  0
LINE
  5
BE
330
1F
100
AcDbEntity
  8
0
  6
CENTERX2
 62
     7
370
     0
100
AcDbLine
 10
131.1922171017
 20
34.0033333333
 30
0.0
 11
131.1922171017
 21
42.92
 31
0.0
  0
LINE
  5
BF
330
1F
100
AcDbEntity
  8
0
  6
CENTERX2
 62
     7
370
     0
100
AcDbLine
 10
131.1922171017
 20
42.92
 30
0.0
 11
134.2922171017
 21
42.92
 31
0.0
  0
LINE
  5
C0
330
1F
100
AcDbEntity
  8
0
  6
CENTERX2
 62
     7
370
     0
100
AcDbLine
 10
134.2922171017
 20
42.92
 30
0.0
 11
134.2922171017
 21
51.4366666667
 31
0.0
  0
LINE
  5
C1
330
1F
100
AcDbEntity
  8
0
  6
CENTERX2
 62
     7
370
     0
100
AcDbLine
 10
134.2922171017
 20
51.4366666667
 30
0.0
 11
131.1922171017
 21
51.4366666667
 31
0.0
  0
LINE
  5
C2
330
1F
100
AcDbEntity
  8
0
  6
CENTERX2
 62
     7
370
     0
100
AcDbLine
 10
131.1922171017
 20
51.4366666667
 30
0.0
 11
131.1922171017
 21
60.3533333333
 31
0.0
  0
LINE
  5
C3
330
1F
100
AcDbEntity
  8
0
  6
CENTERX2
 62
     7
370
     0
100
AcDbLine
 10
131.1922171017
 20
60.3533333333
 30
0.0
 11
134.2922171017
 21
60.3533333333
 31
0.0
  0
LINE
  5
C4
330
1F
100
AcDbEntity
  8
0
  6
CENTERX2
 62
     7
370
     0
100
AcDbLine
 10
134.2922171017
 20
60.3533333333
 30
0.0
 11
134.2922171017
 21
68.97
 31
0.0
  0
LINE
  5
C5
330
1F
100
AcDbEntity
  8
0
  6
CENTERX2
 62
     7
370
     0
100
AcDbLine
 10
134.2922171017
 20
68.97
 30
0.0
 11
125.8922171017
 21
68.97
 31
0.0
  0
LINE
  5
C6
330
1F
100
AcDbEntity
  8
0
  6
CENTERX2
 62
     7
370
     0
100
AcDbLine
 10
125.8922171017
 20
68.97
 30
0.0
 11
125.8922171017
 21
65.87
 31
0.0
  0
LINE
  5
C7
330
1F
100
AcDbEntity
  8
0
  6
CENTERX2
 62
     7
370
     0
100
AcDbLine
 10
125.8922171017
 20
65.87
 30
0.0
 11
115.6922171017
 21
65.87
 31
0.0
  0
LINE
  5
C8
330
1F
100
AcDbEntity
  8
0
  6
CENTERX2
 62
     7
370
     0
100
AcDbLine
 10
115.6922171017
 20
65.87
 30
0.0
 11
115.6922171017
 21
68.97
 31
0.0
  0
LINE
  5
C9
330
1F
100
AcDbEntity
  8
0
  6
CENTERX2
 62
     7
370
     0
100
AcDbLine
 10
115.6922171017
 20
68.97
 30
0.0
 11
42.1477828983
 21
68.97
 31
0.0
  0
LINE
  5
CA
330
1F
100
AcDbEntity
  8
0
  6
CENTERX2
 62
     7
370
     0
100
AcDbLine
 10
42.1477828983
 20
68.97
 30
0.0
 11
42.1477828983
 21
65.87
 31
0.0
  0
LINE
  5
CB
330
1F
100
AcDbEntity
  8
0
  6
CENTERX2
 62
     7
370
     0
100
AcDbLine
 10
42.1477828983
 20
65.87
 30
0.0
 11
31.9477828983
 21
65.87
 31
0.0
  0
LINE
  5
CC
330
1F
100
AcDbEntity
  8
0
  6
CENTERX2
 62
     7
370
     0
100
AcDbLine
 10
31.9477828983
 20
65.87
 30
0.0
 11
31.9477828983
 21
68.97
 31
0.0
  0
LINE
  5
CD
330
1F
100
AcDbEntity
  8
0
  6
CENTERX2
 62
     7
370
     0
100
AcDbLine
 10
31.9477828983
 20
68.97
 30
0.0
 11
23.5477828983
 21
68.97
 31
0.0
  0
LINE
  5
CE
330
1F
100
AcDbEntity
  8
0
  6
CENTERX2
 62
     7
370
     0
100
AcDbLine
 10
23.5477828983
 20
68.97
 30
0.0
 11
23.5477828983
 21
60.3533333333
 31
0.0
  0
LINE
  5
CF
330
1F
100
AcDbEntity
  8
0
  6
CENTERX2
 62
     7
370
     0
100
AcDbLine
 10
23.5477828983
 20
60.3533333333
 30
0.0
 11
26.6477828983
 21
60.3533333333
 31
0.0
  0
LINE
  5
D0
330
1F
100
AcDbEntity
  8
0
  6
CENTERX2
 62
     7
370
     0
100
AcDbLine
 10
26.6477828983
 20
60.3533333333
 30
0.0
 11
26.6477828983
 21
51.4366666667
 31
0.0
  0
LINE
  5
D1
330
1F
100
AcDbEntity
  8
0
  6
CENTERX2
 62
     7
370
     0
100
AcDbLine
 10
26.6477828983
 20
51.4366666667
 30
0.0
 11
23.5477828983
 21
51.4366666667
 31
0.0
  0
LINE
  5
D2
330
1F
100
AcDbEntity
  8
0
  6
CENTERX2
 62
     7
370
     0
100
AcDbLine
 10
23.5477828983
 20
51.4366666667
 30
0.0
 11
23.5477828983
 21
42.92
 31
0.0
  0
LINE
  5
D3
330
1F
100
AcDbEntity
  8
0
  6
CENTERX2
 62
     7
370
     0
100
AcDbLine
 10
23.5477828983
 20
42.92
 30
0.0
 11
26.6477828983
 21
42.92
 31
0.0
  0
LINE
  5
D4
330
1F
100
AcDbEntity
  8
0
  6
CENTERX2
 62
     7
370
     0
100
AcDbLine
 10
26.6477828983
 20
42.92
 30
0.0
 11
26.6477828983
 21
34.0033333333
 31
0.0
  0
LINE
  5
D5
330
1F
100
AcDbEntity
  8
0
  6
CENTERX2
 62
     7
370
     0
100
AcDbLine
 10
26.6477828983
 20
34.0033333333
 30
0.0
 11
23.5477828983
 21
34.0033333333
 31
0.0
  0
LINE
  5
D6
330
1F
100
AcDbEntity
  8
0
  6
CENTERX2
 62
     7
370
     0
100
AcDbLine
 10
23.5477828983
 20
34.0033333333
 30
0.0
 11
23.5477828983
 21
25.4866666667
 31
0.0
  0
LINE
  5
D7
330
1F
100
AcDbEntity
  8
0
  6
CENTERX2
 62
     7
370
     0
100
AcDbLine
 10
23.5477828983
 20
25.4866666667
 30
0.0
 11
26.6477828983
 21
25.4866666667
 31
0.0
  0
LINE
  5
D8
330
1F
100
AcDbEntity
  8
0
  6
CENTERX2
 62
     7
370
     0
100
AcDbLine
 10
26.6477828983
 20
25.4866666667
 30
0.0
 11
26.6477828983
 21
16.67
 31
0.0
  0
LINE
  5
D9
330
1F
100
AcDbEntity
  8
0
  6
CENTERX2
 62
     7
370
     0
100
AcDbLine
 10
26.6477828983
 20
16.67
 30
0.0
 11
38.5477828983
 21
16.67
 31
0.0
  0
LINE
  5
DA
330
1F
100
AcDbEntity
  8
0
  6
CENTERX2
 62
     7
370
     0
100
AcDbLine
 10
38.5477828983
 20
16.67
 30
0.0
 11
38.5477828983
 21
46.67
 31
0.0
  0
LINE
  5
DB
330
1F
100
AcDbEntity
  8
0
  6
CENTERX2
 62
     7
370
     0
100
AcDbLine
 10
38.5477828983
 20
46.67
 30
0.0
 11
53.82
 21
46.67
 31
0.0
  0
LINE
  5
DC
330
1F
100
AcDbEntity
  8
0
  6
CENTERX2
 62
     7
370
     0
100
AcDbLine
 10
42.1477828983
 20
60.47
 30
0.0
 11
31.9477828983
 21
60.47
 31
0.0
  0
LINE
  5
DD
330
1F
100
AcDbEntity
  8
0
  6
CENTERX2
 62
     7
370
     0
100
AcDbLine
 10
31.9477828983
 20
60.47
 30
0.0
 11
31.9477828983
 21
57.27
 31
0.0
  0
LINE
  5
DE
330
1F
100
AcDbEntity
  8
0
  6
CENTERX2
 62
     7
370
     0
100
AcDbLine
 10
31.9477828983
 20
57.27
 30
0.0
 11
42.1477828983
 21
57.27
 31
0.0
  0
LINE
  5
DF
330
1F
100
AcDbEntity
  8
0
  6
CENTERX2
 62
     7
370
     0
100
AcDbLine
 10
42.1477828983
 20
57.27
 30
0.0
 11
42.1477828983
 21
60.47
 31
0.0
  0
LINE
  5
E0
330
1F
100
AcDbEntity
  8
0
  6
CENTERX2
 62
     7
370
     0
100
AcDbLine
 10
115.6922171017
 20
57.27
 30
0.0
 11
125.8922171017
 21
57.27
 31
0.0
  0
LINE
  5
E1
330
1F
100
AcDbEntity
  8
0
  6
CENTERX2
 62
     7
370
     0
100
AcDbLine
 10
125.8922171017
 20
57.27
 30
0.0
 11
125.8922171017
 21
60.47
 31
0.0
  0
LINE
  5
E2
330
1F
100
AcDbEntity
  8
0
  6
CENTERX2
 62
     7
370
     0
100
AcDbLine
 10
125.8922171017
 20
60.47
 30
0.0
 11
115.6922171017
 21
60.47
 31
0.0
  0
LINE
  5
E3
330
1F
100
AcDbEntity
  8
0
  6
CENTERX2
 62
     7
370
     0
100
AcDbLine
 10
115.6922171017
 20
60.47
 30
0.0
 11
115.6922171017
 21
57.27
 31
0.0
  0
LINE
  5
E4
330
1F
100
AcDbEntity
  8
0
  6
Continuous
 62
     7
370
     0
100
AcDbLine
 10
42.0477828983
 20
60.37
 30
0.0
 11
32.0477828983
 21
60.37
 31
0.0
  0
LINE
  5
E5
330
1F
100
AcDbEntity
  8
0
  6
Continuous
 62
     7
370
     0
100
AcDbLine
 10
32.0477828983
 20
60.37
 30
0.0
 11
32.0477828983
 21
57.37
 31
0.0
  0
LINE
  5
E6
330
1F
100
AcDbEntity
  8
0
  6
Continuous
 62
     7
370
     0
100
AcDbLine
 10
32.0477828983
 20
57.37
 30
0.0
 11
42.0477828983
 21
57.37
 31
0.0
  0
LINE
  5
E7
330
1F
100
AcDbEntity
  8
0
  6
Continuous
 62
     7
370
     0
100
AcDbLine
 10
42.0477828983
 20
57.37
 30
0.0
 11
42.0477828983
 21
60.37
 31
0.0
  0
LINE
  5
E8
330
1F
100
AcDbEntity
  8
0
  6
Continuous
 62
     7
370
     0
100
AcDbLine
 10
125.7922171017
 20
60.37
 30
0.0
 11
115.7922171017
 21
60.37
 31
0.0
  0
LINE
  5
E9
330
1F
100
AcDbEntity
  8
0
  6
Continuous
 62
     7
370
     0
100
AcDbLine
 10
115.7922171017
 20
60.37
 30
0.0
 11
115.7922171017
 21
57.37
 31
0.0
  0
LINE
  5
EA
330
1F
100
AcDbEntity
  8
0
  6
Continuous
 62
     7
370
     0
100
AcDbLine
 10
115.7922171017
 20
57.37
 30
0.0
 11
125.7922171017
 21
57.37
 31
0.0
  0
LINE
  5
EB
330
1F
100
AcDbEntity
  8
0
  6
Continuous
 62
     7
370
     0
100
AcDbLine
 10
125.7922171017
 20
57.37
 30
0.0
 11
125.7922171017
 21
60.37
 31
0.0
  0
DIMENSION
  5
EC
330
1F
100
AcDbEntity
  8
0
  6
Continuous
 62
     7
370
     0
100
AcDbDimension
  2
_D
 10
76.6976492694
 20
68.97
 30
0.0
 11
76.6976492694
 21
76.4502226411
 31
0.0
 70
   160
  1
<>
 71
     2
 42
-1.0
  3
SLDDIMSTYLE0
100
AcDbAlignedDimension
 13
78.92
 23
69.07
 33
0.0
 14
78.92
 24
68.97
 34
0.0
 50
90.0
100
AcDbRotatedDimension
  0
DIMENSION
  5
FA
330
1F
100
AcDbEntity
  8
0
  6
Continuous
 62
     7
370
     0
100
AcDbDimension
  2
_D_1
 10
44.9612272096
 20
60.47
 30
0.0
 11
44.9612272096
 21
54.9722169907
 31
0.0
 70
   160
  1
<>
 71
     2
 42
-1.0
  3
SLDDIMSTYLE0
100
AcDbAlignedDimension
 13
37.0477828983
 23
60.37
 33
0.0
 14
37.0477828983
 24
60.47
 34
0.0
 50
90.0
100
AcDbRotatedDimension
  0
LINE
  5
106
330
1F
100
AcDbEntity
  8
0
  6
Continuous
 62
     7
370
    15
100
AcDbLine
 10
300.9677828983
 20
199.92
 30
0.0
 11
297.8677828983
 21
199.92
 31
0.0
  0
LINE
  5
107
330
1F
100
AcDbEntity
  8
0
  6
Continuous
 62
     7
370
    15
100
AcDbLine
 10
297.8677828983
 20
209.72
 30
0.0
 11
297.8677828983
 21
199.92
 31
0.0
  0
LINE
  5
108
330
1F
100
AcDbEntity
  8
0
  6
Continuous
 62
     7
370
    15
100
AcDbLine
 10
297.8677828983
 20
209.72
 30
0.0
 11
300.9677828983
 21
209.72
 31
0.0
  0
LINE
  5
109
330
1F
100
AcDbEntity
  8
0
  6
Continuous
 62
     7
370
    15
100
AcDbLine
 10
300.9677828983
 20
209.72
 30
0.0
 11
300.9677828983
 21
219.92
 31
0.0
  0
LINE
  5
10A
330
1F
100
AcDbEntity
  8
0
  6
Continuous
 62
     7
370
    15
100
AcDbLine
 10
300.9677828983
 20
219.92
 30
0.0
 11
297.8677828983
 21
219.92
 31
0.0
  0
LINE
  5
10B
330
1F
100
AcDbEntity
  8
0
  6
Continuous
 62
     7
370
    15
100
AcDbLine
 10
297.8677828983
 20
229.72
 30
0.0
 11
297.8677828983
 21
219.92
 31
0.0
  0
LINE
  5
10C
330
1F
100
AcDbEntity
  8
0
  6
Continuous
 62
     7
370
    15
100
AcDbLine
 10
297.8677828983
 20
229.72
 30
0.0
 11
300.9677828983
 21
229.72
 31
0.0
  0
LINE
  5
10D
330
1F
100
AcDbEntity
  8
0
  6
Continuous
 62
     7
370
    15
100
AcDbLine
 10
300.9677828983
 20
229.72
 30
0.0
 11
300.9677828983
 21
257.0922171017
 31
0.0
  0
LINE
  5
10E
330
1F
100
AcDbEntity
  8
0
  6
Continuous
 62
     7
370
    15
100
AcDbLine
 10
300.9677828983
 20
257.0922171017
 30
0.0
 11
328.34
 21
257.0922171017
 31
0.0
  0
LINE
  5
10F
330
1F
100
AcDbEntity
  8
0
  6
Continuous
 62
     7
370
    15
100
AcDbLine
 10
328.34
 20
257.0922171017
 30
0.0
 11
328.34
 21
260.1922171017
 31
0.0
  0
LINE
  5
110
330
1F
100
AcDbEntity
  8
0
  6
Continuous
 62
     7
370
    15
100
AcDbLine
 10
338.14
 20
260.1922171017
 30
0.0
 11
328.34
 21
260.1922171017
 31
0.0
  0
LINE
  5
111
330
1F
100
AcDbEntity
  8
0
  6
Continuous
 62
     7
370
    15
100
AcDbLine
 10
338.14
 20
260.1922171017
 30
0.0
 11
338.14
 21
257.0922171017
 31
0.0
  0
LINE
  5
112
330
1F
100
AcDbEntity
  8
0
  6
Continuous
 62
     7
370
    15
100
AcDbLine
 10
338.14
 20
257.0922171017
 30
0.0
 11
348.34
 21
257.0922171017
 31
0.0
  0
LINE
  5
113
330
1F
100
AcDbEntity
  8
0
  6
Continuous
 62
     7
370
    15
100
AcDbLine
 10
348.34
 20
257.0922171017
 30
0.0
 11
348.34
 21
260.1922171017
 31
0.0
  0
LINE
  5
114
330
1F
100
AcDbEntity
  8
0
  6
Continuous
 62
     7
370
    15
100
AcDbLine
 10
358.14
 20
260.1922171017
 30
0.0
 11
348.34
 21
260.1922171017
 31
0.0
  0
LINE
  5
115
330
1F
100
AcDbEntity
  8
0
  6
Continuous
 62
     7
370
    15
100
AcDbLine
 10
358.14
 20
260.1922171017
 30
0.0
 11
358.14
 21
257.0922171017
 31
0.0
  0
LINE
  5
116
330
1F
100
AcDbEntity
  8
0
  6
Continuous
 62
     7
370
    15
100
AcDbLine
 10
358.14
 20
257.0922171017
 30
0.0
 11
368.34
 21
257.0922171017
 31
0.0
  0
LINE
  5
117
330
1F
100
AcDbEntity
  8
0
  6
Continuous
 62
     7
370
    15
100
AcDbLine
 10
368.34
 20
257.0922171017
 30
0.0
 11
368.34
 21
260.1922171017
 31
0.0
  0
LINE
  5
118
330
1F
100
AcDbEntity
  8
0
  6
Continuous
 62
     7
370
    15
100
AcDbLine
 10
378.14
 20
260.1922171017
 30
0.0
 11
368.34
 21
260.1922171017
 31
0.0
  0
LINE
  5
119
330
1F
100
AcDbEntity
  8
0
  6
Continuous
 62
     7
370
    15
100
AcDbLine
 10
378.14
 20
260.1922171017
 30
0.0
 11
378.14
 21
257.0922171017
 31
0.0
  0
LINE
  5
11A
330
1F
100
AcDbEntity
  8
0
  6
Continuous
 62
     7
370
    15
100
AcDbLine
 10
378.14
 20
257.0922171017
 30
0.0
 11
405.5122171017
 21
257.0922171017
 31
0.0
  0
LINE
  5
11B
330
1F
100
AcDbEntity
  8
0
  6
Continuous
 62
     7
370
    15
100
AcDbLine
 10
405.5122171017
 20
257.0922171017
 30
0.0
 11
405.5122171017
 21
229.72
 31
0.0
  0
LINE
  5
11C
330
1F
100
AcDbEntity
  8
0
  6
Continuous
 62
     7
370
    15
100
AcDbLine
 10
405.5122171017
 20
229.72
 30
0.0
 11
408.6122171017
 21
229.72
 31
0.0
  0
LINE
  5
11D
330
1F
100
AcDbEntity
  8
0
  6
Continuous
 62
     7
370
    15
100
AcDbLine
 10
408.6122171017
 20
219.92
 30
0.0
 11
408.6122171017
 21
229.72
 31
0.0
  0
LINE
  5
11E
330
1F
100
AcDbEntity
  8
0
  6
Continuous
 62
     7
370
    15
100
AcDbLine
 10
408.6122171017
 20
219.92
 30
0.0
 11
405.5122171017
 21
219.92
 31
0.0
  0
LINE
  5
11F
330
1F
100
AcDbEntity
  8
0
  6
Continuous
 62
     7
370
    15
100
AcDbLine
 10
405.5122171017
 20
219.92
 30
0.0
 11
405.5122171017
 21
209.72
 31
0.0
  0
LINE
  5
120
330
1F
100
AcDbEntity
  8
0
  6
Continuous
 62
     7
370
    15
100
AcDbLine
 10
405.5122171017
 20
209.72
 30
0.0
 11
408.6122171017
 21
209.72
 31
0.0
  0
LINE
  5
121
330
1F
100
AcDbEntity
  8
0
  6
Continuous
 62
     7
370
    15
100
AcDbLine
 10
408.6122171017
 20
199.92
 30
0.0
 11
408.6122171017
 21
209.72
 31
0.0
  0
LINE
  5
122
330
1F
100
AcDbEntity
  8
0
  6
Continuous
 62
     7
370
    15
100
AcDbLine
 10
408.6122171017
 20
199.92
 30
0.0
 11
405.5122171017
 21
199.92
 31
0.0
  0
LINE
  5
123
330
1F
100
AcDbEntity
  8
0
  6
Continuous
 62
     7
370
    15
100
AcDbLine
 10
405.5122171017
 20
199.92
 30
0.0
 11
405.5122171017
 21
189.72
 31
0.0
  0
LINE
  5
124
330
1F
100
AcDbEntity
  8
0
  6
Continuous
 62
     7
370
    15
100
AcDbLine
 10
405.5122171017
 20
189.72
 30
0.0
 11
408.6122171017
 21
189.72
 31
0.0
  0
LINE
  5
125
330
1F
100
AcDbEntity
  8
0
  6
Continuous
 62
     7
370
    15
100
AcDbLine
 10
408.6122171017
 20
179.92
 30
0.0
 11
408.6122171017
 21
189.72
 31
0.0
  0
LINE
  5
126
330
1F
100
AcDbEntity
  8
0
  6
Continuous
 62
     7
370
    15
100
AcDbLine
 10
408.6122171017
 20
179.92
 30
0.0
 11
405.5122171017
 21
179.92
 31
0.0
  0
LINE
  5
127
330
1F
100
AcDbEntity
  8
0
  6
Continuous
 62
     7
370
    15
100
AcDbLine
 10
405.5122171017
 20
179.92
 30
0.0
 11
405.5122171017
 21
152.5477828983
 31
0.0
  0
LINE
  5
128
330
1F
100
AcDbEntity
  8
0
  6
Continuous
 62
     7
370
    15
100
AcDbLine
 10
405.5122171017
 20
152.5477828983
 30
0.0
 11
396.395550435
 21
152.5477828983
 31
0.0
  0
LINE
  5
129
330
1F
100
AcDbEntity
  8
0
  6
Continuous
 62
     7
370
    15
100
AcDbLine
 10
396.395550435
 20
152.5477828983
 30
0.0
 11
396.395550435
 21
149.4477828983
 31
0.0
  0
LINE
  5
12A
330
1F
100
AcDbEntity
  8
0
  6
Continuous
 62
     7
370
    15
100
AcDbLine
 10
310.084449565
 20
149.4477828983
 30
0.0
 11
396.395550435
 21
149.4477828983
 31
0.0
  0
LINE
  5
12B
330
1F
100
AcDbEntity
  8
0
  6
Continuous
 62
     7
370
    15
100
AcDbLine
 10
310.084449565
 20
149.4477828983
 30
0.0
 11
310.084449565
 21
152.5477828983
 31
0.0
  0
LINE
  5
12C
330
1F
100
AcDbEntity
  8
0
  6
Continuous
 62
     7
370
    15
100
AcDbLine
 10
310.084449565
 20
152.5477828983
 30
0.0
 11
300.9677828983
 21
152.5477828983
 31
0.0
  0
LINE
  5
12D
330
1F
100
AcDbEntity
  8
0
  6
Continuous
 62
     7
370
    15
100
AcDbLine
 10
300.9677828983
 20
152.5477828983
 30
0.0
 11
300.9677828983
 21
179.92
 31
0.0
  0
LINE
  5
12E
330
1F
100
AcDbEntity
  8
0
  6
Continuous
 62
     7
370
    15
100
AcDbLine
 10
300.9677828983
 20
179.92
 30
0.0
 11
297.8677828983
 21
179.92
 31
0.0
  0
LINE
  5
12F
330
1F
100
AcDbEntity
  8
0
  6
Continuous
 62
     7
370
    15
100
AcDbLine
 10
297.8677828983
 20
189.72
 30
0.0
 11
297.8677828983
 21
179.92
 31
0.0
  0
LINE
  5
130
330
1F
100
AcDbEntity
  8
0
  6
Continuous
 62
     7
370
    15
100
AcDbLine
 10
297.8677828983
 20
189.72
 30
0.0
 11
300.9677828983
 21
189.72
 31
0.0
  0
LINE
  5
131
330
1F
100
AcDbEntity
  8
0
  6
Continuous
 62
     7
370
    15
100
AcDbLine
 10
300.9677828983
 20
189.72
 30
0.0
 11
300.9677828983
 21
199.92
 31
0.0
  0
CIRCLE
  5
132
330
1F
100
AcDbEntity
  8
0
  6
Continuous
 62
     7
370
    15
100
AcDbCircle
 10
358.24
 20
179.4492262441
 30
0.0
 40
2.000000000000028
  0
CIRCLE
  5
133
330
1F
100
AcDbEntity
  8
0
  6
Continuous
 62
     7
370
    15
100
AcDbCircle
 10
348.24
 20
227.9492262441
 30
0.0
 40
2.0
  0
LINE
  5
134
330
1F
100
AcDbEntity
  8
0
  6
Continuous
 62
     7
370
    15
100
AcDbLine
 10
342.19
 20
225.0992262441
 30
0.0
 11
342.19
 21
182.2992262441
 31
0.0
  0
LINE
  5
135
330
1F
100
AcDbEntity
  8
0
  6
Continuous
 62
     7
370
    15
100
AcDbLine
 10
342.19
 20
182.2992262441
 30
0.0
 11
364.29
 21
182.2992262441
 31
0.0
  0
LINE
  5
136
330
1F
100
AcDbEntity
  8
0
  6
Continuous
 62
     7
370
    15
100
AcDbLine
 10
364.29
 20
182.2992262441
 30
0.0
 11
364.29
 21
225.0992262441
 31
0.0
  0
LINE
  5
137
330
1F
100
AcDbEntity
  8
0
  6
Continuous
 62
     7
370
    15
100
AcDbLine
 10
364.29
 20
225.0992262441
 30
0.0
 11
342.19
 21
225.0992262441
 31
0.0
  0
CIRCLE
  5
138
330
1F
100
AcDbEntity
  8
0
  6
Continuous
 62
     7
370
    15
100
AcDbCircle
 10
358.24
 20
227.9492262441
 30
0.0
 40
2.0
  0
CIRCLE
  5
139
330
1F
100
AcDbEntity
  8
0
  6
Continuous
 62
     7
370
    15
100
AcDbCircle
 10
348.24
 20
179.4492262441
 30
0.0
 40
2.000000000000028
  0
LINE
  5
13A
330
1F
100
AcDbEntity
  8
0
  6
Continuous
 62
     7
370
     0
100
AcDbLine
 10
300.8677828983
 20
257.1922171017
 30
0.0
 11
300.8677828983
 21
229.82
 31
0.0
  0
LINE
  5
13B
330
1F
100
AcDbEntity
  8
0
  6
Continuous
 62
     7
370
     0
100
AcDbLine
 10
300.8677828983
 20
229.82
 30
0.0
 11
297.7677828983
 21
229.82
 31
0.0
  0
LINE
  5
13C
330
1F
100
AcDbEntity
  8
0
  6
Continuous
 62
     7
370
     0
100
AcDbLine
 10
297.7677828983
 20
229.82
 30
0.0
 11
297.7677828983
 21
219.82
 31
0.0
  0
LINE
  5
13D
330
1F
100
AcDbEntity
  8
0
  6
Continuous
 62
     7
370
     0
100
AcDbLine
 10
297.7677828983
 20
219.82
 30
0.0
 11
300.8677828983
 21
219.82
 31
0.0
  0
LINE
  5
13E
330
1F
100
AcDbEntity
  8
0
  6
Continuous
 62
     7
370
     0
100
AcDbLine
 10
300.8677828983
 20
219.82
 30
0.0
 11
300.8677828983
 21
209.82
 31
0.0
  0
LINE
  5
13F
330
1F
100
AcDbEntity
  8
0
  6
Continuous
 62
     7
370
     0
100
AcDbLine
 10
300.8677828983
 20
209.82
 30
0.0
 11
297.7677828983
 21
209.82
 31
0.0
  0
LINE
  5
140
330
1F
100
AcDbEntity
  8
0
  6
Continuous
 62
     7
370
     0
100
AcDbLine
 10
297.7677828983
 20
209.82
 30
0.0
 11
297.7677828983
 21
199.82
 31
0.0
  0
LINE
  5
141
330
1F
100
AcDbEntity
  8
0
  6
Continuous
 62
     7
370
     0
100
AcDbLine
 10
297.7677828983
 20
199.82
 30
0.0
 11
300.8677828983
 21
199.82
 31
0.0
  0
LINE
  5
142
330
1F
100
AcDbEntity
  8
0
  6
Continuous
 62
     7
370
     0
100
AcDbLine
 10
300.8677828983
 20
199.82
 30
0.0
 11
300.8677828983
 21
189.82
 31
0.0
  0
LINE
  5
143
330
1F
100
AcDbEntity
  8
0
  6
Continuous
 62
     7
370
     0
100
AcDbLine
 10
300.8677828983
 20
189.82
 30
0.0
 11
297.7677828983
 21
189.82
 31
0.0
  0
LINE
  5
144
330
1F
100
AcDbEntity
  8
0
  6
Continuous
 62
     7
370
     0
100
AcDbLine
 10
297.7677828983
 20
189.82
 30
0.0
 11
297.7677828983
 21
179.82
 31
0.0
  0
LINE
  5
145
330
1F
100
AcDbEntity
  8
0
  6
Continuous
 62
     7
370
     0
100
AcDbLine
 10
297.7677828983
 20
179.82
 30
0.0
 11
300.8677828983
 21
179.82
 31
0.0
  0
LINE
  5
146
330
1F
100
AcDbEntity
  8
0
  6
Continuous
 62
     7
370
     0
100
AcDbLine
 10
300.8677828983
 20
179.82
 30
0.0
 11
300.8677828983
 21
152.4477828983
 31
0.0
  0
LINE
  5
147
330
1F
100
AcDbEntity
  8
0
  6
Continuous
 62
     7
370
     0
100
AcDbLine
 10
300.8677828983
 20
152.4477828983
 30
0.0
 11
309.984449565
 21
152.4477828983
 31
0.0
  0
LINE
  5
148
330
1F
100
AcDbEntity
  8
0
  6
Continuous
 62
     7
370
     0
100
AcDbLine
 10
309.984449565
 20
152.4477828983
 30
0.0
 11
309.984449565
 21
149.3477828983
 31
0.0
  0
LINE
  5
149
330
1F
100
AcDbEntity
  8
0
  6
Continuous
 62
     7
370
     0
100
AcDbLine
 10
309.984449565
 20
149.3477828983
 30
0.0
 11
396.495550435
 21
149.3477828983
 31
0.0
  0
LINE
  5
14A
330
1F
100
AcDbEntity
  8
0
  6
Continuous
 62
     7
370
     0
100
AcDbLine
 10
396.495550435
 20
149.3477828983
 30
0.0
 11
396.495550435
 21
152.4477828983
 31
0.0
  0
LINE
  5
14B
330
1F
100
AcDbEntity
  8
0
  6
Continuous
 62
     7
370
     0
100
AcDbLine
 10
396.495550435
 20
152.4477828983
 30
0.0
 11
405.6122171017
 21
152.4477828983
 31
0.0
  0
LINE
  5
14C
330
1F
100
AcDbEntity
  8
0
  6
Continuous
 62
     7
370
     0
100
AcDbLine
 10
405.6122171017
 20
152.4477828983
 30
0.0
 11
405.6122171017
 21
179.82
 31
0.0
  0
LINE
  5
14D
330
1F
100
AcDbEntity
  8
0
  6
Continuous
 62
     7
370
     0
100
AcDbLine
 10
405.6122171017
 20
179.82
 30
0.0
 11
408.7122171017
 21
179.82
 31
0.0
  0
LINE
  5
14E
330
1F
100
AcDbEntity
  8
0
  6
Continuous
 62
     7
370
     0
100
AcDbLine
 10
408.7122171017
 20
179.82
 30
0.0
 11
408.7122171017
 21
189.82
 31
0.0
  0
LINE
  5
14F
330
1F
100
AcDbEntity
  8
0
  6
Continuous
 62
     7
370
     0
100
AcDbLine
 10
408.7122171017
 20
189.82
 30
0.0
 11
405.6122171017
 21
189.82
 31
0.0
  0
LINE
  5
150
330
1F
100
AcDbEntity
  8
0
  6
Continuous
 62
     7
370
     0
100
AcDbLine
 10
405.6122171017
 20
189.82
 30
0.0
 11
405.6122171017
 21
199.82
 31
0.0
  0
LINE
  5
151
330
1F
100
AcDbEntity
  8
0
  6
Continuous
 62
     7
370
     0
100
AcDbLine
 10
405.6122171017
 20
199.82
 30
0.0
 11
408.7122171017
 21
199.82
 31
0.0
  0
LINE
  5
152
330
1F
100
AcDbEntity
  8
0
  6
Continuous
 62
     7
370
     0
100
AcDbLine
 10
408.7122171017
 20
199.82
 30
0.0
 11
408.7122171017
 21
209.82
 31
0.0
  0
LINE
  5
153
330
1F
100
AcDbEntity
  8
0
  6
Continuous
 62
     7
370
     0
100
AcDbLine
 10
408.7122171017
 20
209.82
 30
0.0
 11
405.6122171017
 21
209.82
 31
0.0
  0
LINE
  5
154
330
1F
100
AcDbEntity
  8
0
  6
Continuous
 62
     7
370
     0
100
AcDbLine
 10
405.6122171017
 20
209.82
 30
0.0
 11
405.6122171017
 21
219.82
 31
0.0
  0
LINE
  5
155
330
1F
100
AcDbEntity
  8
0
  6
Continuous
 62
     7
370
     0
100
AcDbLine
 10
405.6122171017
 20
219.82
 30
0.0
 11
408.7122171017
 21
219.82
 31
0.0
  0
LINE
  5
156
330
1F
100
AcDbEntity
  8
0
  6
Continuous
 62
     7
370
     0
100
AcDbLine
 10
408.7122171017
 20
219.82
 30
0.0
 11
408.7122171017
 21
229.82
 31
0.0
  0
LINE
  5
157
330
1F
100
AcDbEntity
  8
0
  6
Continuous
 62
     7
370
     0
100
AcDbLine
 10
408.7122171017
 20
229.82
 30
0.0
 11
405.6122171017
 21
229.82
 31
0.0
  0
LINE
  5
158
330
1F
100
AcDbEntity
  8
0
  6
Continuous
 62
     7
370
     0
100
AcDbLine
 10
405.6122171017
 20
229.82
 30
0.0
 11
405.6122171017
 21
257.1922171017
 31
0.0
  0
LINE
  5
159
330
1F
100
AcDbEntity
  8
0
  6
Continuous
 62
     7
370
     0
100
AcDbLine
 10
405.6122171017
 20
257.1922171017
 30
0.0
 11
378.24
 21
257.1922171017
 31
0.0
  0
LINE
  5
15A
330
1F
100
AcDbEntity
  8
0
  6
Continuous
 62
     7
370
     0
100
AcDbLine
 10
378.24
 20
257.1922171017
 30
0.0
 11
378.24
 21
260.2922171017
 31
0.0
  0
LINE
  5
15B
330
1F
100
AcDbEntity
  8
0
  6
Continuous
 62
     7
370
     0
100
AcDbLine
 10
378.24
 20
260.2922171017
 30
0.0
 11
368.24
 21
260.2922171017
 31
0.0
  0
LINE
  5
15C
330
1F
100
AcDbEntity
  8
0
  6
Continuous
 62
     7
370
     0
100
AcDbLine
 10
368.24
 20
260.2922171017
 30
0.0
 11
368.24
 21
257.1922171017
 31
0.0
  0
LINE
  5
15D
330
1F
100
AcDbEntity
  8
0
  6
Continuous
 62
     7
370
     0
100
AcDbLine
 10
368.24
 20
257.1922171017
 30
0.0
 11
358.24
 21
257.1922171017
 31
0.0
  0
LINE
  5
15E
330
1F
100
AcDbEntity
  8
0
  6
Continuous
 62
     7
370
     0
100
AcDbLine
 10
358.24
 20
257.1922171017
 30
0.0
 11
358.24
 21
260.2922171017
 31
0.0
  0
LINE
  5
15F
330
1F
100
AcDbEntity
  8
0
  6
Continuous
 62
     7
370
     0
100
AcDbLine
 10
358.24
 20
260.2922171017
 30
0.0
 11
348.24
 21
260.2922171017
 31
0.0
  0
LINE
  5
160
330
1F
100
AcDbEntity
  8
0
  6
Continuous
 62
     7
370
     0
100
AcDbLine
 10
348.24
 20
260.2922171017
 30
0.0
 11
348.24
 21
257.1922171017
 31
0.0
  0
LINE
  5
161
330
1F
100
AcDbEntity
  8
0
  6
Continuous
 62
     7
370
     0
100
AcDbLine
 10
348.24
 20
257.1922171017
 30
0.0
 11
338.24
 21
257.1922171017
 31
0.0
  0
LINE
  5
162
330
1F
100
AcDbEntity
  8
0
  6
Continuous
 62
     7
370
     0
100
AcDbLine
 10
338.24
 20
257.1922171017
 30
0.0
 11
338.24
 21
260.2922171017
 31
0.0
  0
LINE
  5
163
330
1F
100
AcDbEntity
  8
0
  6
Continuous
 62
     7
370
     0
100
AcDbLine
 10
338.24
 20
260.2922171017
 30
0.0
 11
328.24
 21
260.2922171017
 31
0.0
  0
LINE
  5
164
330
1F
100
AcDbEntity
  8
0
  6
Continuous
 62
     7
370
     0
100
AcDbLine
 10
328.24
 20
260.2922171017
 30
0.0
 11
328.24
 21
257.1922171017
 31
0.0
  0
LINE
  5
165
330
1F
100
AcDbEntity
  8
0
  6
Continuous
 62
     7
370
     0
100
AcDbLine
 10
328.24
 20
257.1922171017
 30
0.0
 11
300.8677828983
 21
257.1922171017
 31
0.0
  0
LINE
  5
166
330
1F
100
AcDbEntity
  8
0
  6
Continuous
 62
     7
370
     0
100
AcDbLine
 10
300.9677828983
 20
199.92
 30
0.0
 11
300.9677828983
 21
189.72
 31
0.0
  0
LINE
  5
167
330
1F
100
AcDbEntity
  8
0
  6
Continuous
 62
     7
370
     0
100
AcDbLine
 10
300.9677828983
 20
189.72
 30
0.0
 11
297.8677828983
 21
189.72
 31
0.0
  0
LINE
  5
168
330
1F
100
AcDbEntity
  8
0
  6
Continuous
 62
     7
370
     0
100
AcDbLine
 10
297.8677828983
 20
189.72
 30
0.0
 11
297.8677828983
 21
179.92
 31
0.0
  0
LINE
  5
169
330
1F
100
AcDbEntity
  8
0
  6
Continuous
 62
     7
370
     0
100
AcDbLine
 10
297.8677828983
 20
179.92
 30
0.0
 11
300.9677828983
 21
179.92
 31
0.0
  0
LINE
  5
16A
330
1F
100
AcDbEntity
  8
0
  6
Continuous
 62
     7
370
     0
100
AcDbLine
 10
300.9677828983
 20
179.92
 30
0.0
 11
300.9677828983
 21
152.5477828983
 31
0.0
  0
LINE
  5
16B
330
1F
100
AcDbEntity
  8
0
  6
Continuous
 62
     7
370
     0
100
AcDbLine
 10
300.9677828983
 20
152.5477828983
 30
0.0
 11
310.084449565
 21
152.5477828983
 31
0.0
  0
LINE
  5
16C
330
1F
100
AcDbEntity
  8
0
  6
Continuous
 62
     7
370
     0
100
AcDbLine
 10
310.084449565
 20
152.5477828983
 30
0.0
 11
310.084449565
 21
149.4477828983
 31
0.0
  0
LINE
  5
16D
330
1F
100
AcDbEntity
  8
0
  6
Continuous
 62
     7
370
     0
100
AcDbLine
 10
310.084449565
 20
149.4477828983
 30
0.0
 11
396.395550435
 21
149.4477828983
 31
0.0
  0
LINE
  5
16E
330
1F
100
AcDbEntity
  8
0
  6
Continuous
 62
     7
370
     0
100
AcDbLine
 10
396.395550435
 20
149.4477828983
 30
0.0
 11
396.395550435
 21
152.5477828983
 31
0.0
  0
LINE
  5
16F
330
1F
100
AcDbEntity
  8
0
  6
Continuous
 62
     7
370
     0
100
AcDbLine
 10
396.395550435
 20
152.5477828983
 30
0.0
 11
405.5122171017
 21
152.5477828983
 31
0.0
  0
LINE
  5
170
330
1F
100
AcDbEntity
  8
0
  6
Continuous
 62
     7
370
     0
100
AcDbLine
 10
405.5122171017
 20
152.5477828983
 30
0.0
 11
405.5122171017
 21
179.92
 31
0.0
  0
LINE
  5
171
330
1F
100
AcDbEntity
  8
0
  6
Continuous
 62
     7
370
     0
100
AcDbLine
 10
405.5122171017
 20
179.92
 30
0.0
 11
408.6122171017
 21
179.92
 31
0.0
  0
LINE
  5
172
330
1F
100
AcDbEntity
  8
0
  6
Continuous
 62
     7
370
     0
100
AcDbLine
 10
408.6122171017
 20
179.92
 30
0.0
 11
408.6122171017
 21
189.72
 31
0.0
  0
LINE
  5
173
330
1F
100
AcDbEntity
  8
0
  6
Continuous
 62
     7
370
     0
100
AcDbLine
 10
408.6122171017
 20
189.72
 30
0.0
 11
405.5122171017
 21
189.72
 31
0.0
  0
LINE
  5
174
330
1F
100
AcDbEntity
  8
0
  6
Continuous
 62
     7
370
     0
100
AcDbLine
 10
405.5122171017
 20
189.72
 30
0.0
 11
405.5122171017
 21
199.92
 31
0.0
  0
LINE
  5
175
330
1F
100
AcDbEntity
  8
0
  6
Continuous
 62
     7
370
     0
100
AcDbLine
 10
405.5122171017
 20
199.92
 30
0.0
 11
408.6122171017
 21
199.92
 31
0.0
  0
LINE
  5
176
330
1F
100
AcDbEntity
  8
0
  6
Continuous
 62
     7
370
     0
100
AcDbLine
 10
408.6122171017
 20
199.92
 30
0.0
 11
408.6122171017
 21
209.72
 31
0.0
  0
LINE
  5
177
330
1F
100
AcDbEntity
  8
0
  6
Continuous
 62
     7
370
     0
100
AcDbLine
 10
408.6122171017
 20
209.72
 30
0.0
 11
405.5122171017
 21
209.72
 31
0.0
  0
LINE
  5
178
330
1F
100
AcDbEntity
  8
0
  6
Continuous
 62
     7
370
     0
100
AcDbLine
 10
405.5122171017
 20
209.72
 30
0.0
 11
405.5122171017
 21
219.92
 31
0.0
  0
LINE
  5
179
330
1F
100
AcDbEntity
  8
0
  6
Continuous
 62
     7
370
     0
100
AcDbLine
 10
405.5122171017
 20
219.92
 30
0.0
 11
408.6122171017
 21
219.92
 31
0.0
  0
LINE
  5
17A
330
1F
100
AcDbEntity
  8
0
  6
Continuous
 62
     7
370
     0
100
AcDbLine
 10
408.6122171017
 20
219.92
 30
0.0
 11
408.6122171017
 21
229.72
 31
0.0
  0
LINE
  5
17B
330
1F
100
AcDbEntity
  8
0
  6
Continuous
 62
     7
370
     0
100
AcDbLine
 10
408.6122171017
 20
229.72
 30
0.0
 11
405.5122171017
 21
229.72
 31
0.0
  0
LINE
  5
17C
330
1F
100
AcDbEntity
  8
0
  6
Continuous
 62
     7
370
     0
100
AcDbLine
 10
405.5122171017
 20
229.72
 30
0.0
 11
405.5122171017
 21
257.0922171017
 31
0.0
  0
LINE
  5
17D
330
1F
100
AcDbEntity
  8
0
  6
Continuous
 62
     7
370
     0
100
AcDbLine
 10
405.5122171017
 20
257.0922171017
 30
0.0
 11
378.14
 21
257.0922171017
 31
0.0
  0
LINE
  5
17E
330
1F
100
AcDbEntity
  8
0
  6
Continuous
 62
     7
370
     0
100
AcDbLine
 10
378.14
 20
257.0922171017
 30
0.0
 11
378.14
 21
260.1922171017
 31
0.0
  0
LINE
  5
17F
330
1F
100
AcDbEntity
  8
0
  6
Continuous
 62
     7
370
     0
100
AcDbLine
 10
378.14
 20
260.1922171017
 30
0.0
 11
368.34
 21
260.1922171017
 31
0.0
  0
LINE
  5
180
330
1F
100
AcDbEntity
  8
0
  6
Continuous
 62
     7
370
     0
100
AcDbLine
 10
368.34
 20
260.1922171017
 30
0.0
 11
368.34
 21
257.0922171017
 31
0.0
  0
LINE
  5
181
330
1F
100
AcDbEntity
  8
0
  6
Continuous
 62
     7
370
     0
100
AcDbLine
 10
368.34
 20
257.0922171017
 30
0.0
 11
358.14
 21
257.0922171017
 31
0.0
  0
LINE
  5
182
330
1F
100
AcDbEntity
  8
0
  6
Continuous
 62
     7
370
     0
100
AcDbLine
 10
358.14
 20
257.0922171017
 30
0.0
 11
358.14
 21
260.1922171017
 31
0.0
  0
LINE
  5
183
330
1F
100
AcDbEntity
  8
0
  6
Continuous
 62
     7
370
     0
100
AcDbLine
 10
358.14
 20
260.1922171017
 30
0.0
 11
348.34
 21
260.1922171017
 31
0.0
  0
LINE
  5
184
330
1F
100
AcDbEntity
  8
0
  6
Continuous
 62
     7
370
     0
100
AcDbLine
 10
348.34
 20
260.1922171017
 30
0.0
 11
348.34
 21
257.0922171017
 31
0.0
  0
LINE
  5
185
330
1F
100
AcDbEntity
  8
0
  6
Continuous
 62
     7
370
     0
100
AcDbLine
 10
348.34
 20
257.0922171017
 30
0.0
 11
338.14
 21
257.0922171017
 31
0.0
  0
LINE
  5
186
330
1F
100
AcDbEntity
  8
0
  6
Continuous
 62
     7
370
     0
100
AcDbLine
 10
338.14
 20
257.0922171017
 30
0.0
 11
338.14
 21
260.1922171017
 31
0.0
  0
LINE
  5
187
330
1F
100
AcDbEntity
  8
0
  6
Continuous
 62
     7
370
     0
100
AcDbLine
 10
338.14
 20
260.1922171017
 30
0.0
 11
328.34
 21
260.1922171017
 31
0.0
  0
LINE
  5
188
330
1F
100
AcDbEntity
  8
0
  6
Continuous
 62
     7
370
     0
100
AcDbLine
 10
328.34
 20
260.1922171017
 30
0.0
 11
328.34
 21
257.0922171017
 31
0.0
  0
LINE
  5
189
330
1F
100
AcDbEntity
  8
0
  6
Continuous
 62
     7
370
     0
100
AcDbLine
 10
328.34
 20
257.0922171017
 30
0.0
 11
300.9677828983
 21
257.0922171017
 31
0.0
  0
LINE
  5
18A
330
1F
100
AcDbEntity
  8
0
  6
Continuous
 62
     7
370
     0
100
AcDbLine
 10
300.9677828983
 20
257.0922171017
 30
0.0
 11
300.9677828983
 21
229.72
 31
0.0
  0
LINE
  5
18B
330
1F
100
AcDbEntity
  8
0
  6
Continuous
 62
     7
370
     0
100
AcDbLine
 10
300.9677828983
 20
229.72
 30
0.0
 11
297.8677828983
 21
229.72
 31
0.0
  0
LINE
  5
18C
330
1F
100
AcDbEntity
  8
0
  6
Continuous
 62
     7
370
     0
100
AcDbLine
 10
297.8677828983
 20
229.72
 30
0.0
 11
297.8677828983
 21
219.92
 31
0.0
  0
LINE
  5
18D
330
1F
100
AcDbEntity
  8
0
  6
Continuous
 62
     7
370
     0
100
AcDbLine
 10
297.8677828983
 20
219.92
 30
0.0
 11
300.9677828983
 21
219.92
 31
0.0
  0
LINE
  5
18E
330
1F
100
AcDbEntity
  8
0
  6
Continuous
 62
     7
370
     0
100
AcDbLine
 10
300.9677828983
 20
219.92
 30
0.0
 11
300.9677828983
 21
209.72
 31
0.0
  0
LINE
  5
18F
330
1F
100
AcDbEntity
  8
0
  6
Continuous
 62
     7
370
     0
100
AcDbLine
 10
300.9677828983
 20
209.72
 30
0.0
 11
297.8677828983
 21
209.72
 31
0.0
  0
LINE
  5
190
330
1F
100
AcDbEntity
  8
0
  6
Continuous
 62
     7
370
     0
100
AcDbLine
 10
297.8677828983
 20
209.72
 30
0.0
 11
297.8677828983
 21
199.92
 31
0.0
  0
LINE
  5
191
330
1F
100
AcDbEntity
  8
0
  6
Continuous
 62
     7
370
     0
100
AcDbLine
 10
297.8677828983
 20
199.92
 30
0.0
 11
300.9677828983
 21
199.92
 31
0.0
  0
LINE
  5
192
330
1F
100
AcDbEntity
  8
0
  6
Continuous
 62
     7
370
     0
100
AcDbLine
 10
364.29
 20
182.2992262441
 30
0.0
 11
364.29
 21
225.0992262441
 31
0.0
  0
LINE
  5
193
330
1F
100
AcDbEntity
  8
0
  6
CENTERX2
 62
     7
370
     0
100
AcDbLine
 10
364.29
 20
225.0992262441
 30
0.0
 11
342.19
 21
225.0992262441
 31
0.0
  0
LINE
  5
194
330
1F
100
AcDbEntity
  8
0
  6
Continuous
 62
     7
370
     0
100
AcDbLine
 10
342.19
 20
225.0992262441
 30
0.0
 11
342.19
 21
182.2992262441
 31
0.0
  0
LINE
  5
195
330
1F
100
AcDbEntity
  8
0
  6
Continuous
 62
     7
370
     0
100
AcDbLine
 10
342.19
 20
182.2992262441
 30
0.0
 11
364.29
 21
182.2992262441
 31
0.0
  0
LINE
  5
196
330
1F
100
AcDbEntity
  8
0
  6
Continuous
 62
     7
370
     0
100
AcDbLine
 10
364.19
 20
224.9992262441
 30
0.0
 11
342.29
 21
224.9992262441
 31
0.0
  0
LINE
  5
197
330
1F
100
AcDbEntity
  8
0
  6
Continuous
 62
     7
370
     0
100
AcDbLine
 10
342.29
 20
224.9992262441
 30
0.0
 11
342.29
 21
182.3992262441
 31
0.0
  0
LINE
  5
198
330
1F
100
AcDbEntity
  8
0
  6
Continuous
 62
     7
370
     0
100
AcDbLine
 10
342.29
 20
182.3992262441
 30
0.0
 11
364.19
 21
182.3992262441
 31
0.0
  0
LINE
  5
199
330
1F
100
AcDbEntity
  8
0
  6
Continuous
 62
     7
370
     0
100
AcDbLine
 10
364.19
 20
182.3992262441
 30
0.0
 11
364.19
 21
224.9992262441
 31
0.0
  0
CIRCLE
  5
19A
330
1F
100
AcDbEntity
  8
0
  6
CENTERX2
 62
     7
370
     0
100
AcDbCircle
 10
358.24
 20
179.4492262441
 30
0.0
 40
1.999999999999995
  0
CIRCLE
  5
19B
330
1F
100
AcDbEntity
  8
0
  6
CENTERX2
 62
     7
370
     0
100
AcDbCircle
 10
348.24
 20
179.4492262441
 30
0.0
 40
1.999999999999995
  0
CIRCLE
  5
19C
330
1F
100
AcDbEntity
  8
0
  6
CENTERX2
 62
     7
370
     0
100
AcDbCircle
 10
348.24
 20
227.9492262441
 30
0.0
 40
1.999999999999995
  0
CIRCLE
  5
19D
330
1F
100
AcDbEntity
  8
0
  6
CENTERX2
 62
     7
370
     0
100
AcDbCircle
 10
358.24
 20
227.9492262441
 30
0.0
 40
1.999999999999995
  0
CIRCLE
  5
19E
330
1F
100
AcDbEntity
  8
0
  6
Continuous
 62
     7
370
     0
100
AcDbCircle
 10
348.24
 20
227.9492262441
 30
0.0
 40
1.900000000000034
  0
CIRCLE
  5
19F
330
1F
100
AcDbEntity
  8
0
  6
Continuous
 62
     7
370
     0
100
AcDbCircle
 10
358.24
 20
227.9492262441
 30
0.0
 40
1.900000000000034
  0
CIRCLE
  5
1A0
330
1F
100
AcDbEntity
  8
0
  6
Continuous
 62
     7
370
     0
100
AcDbCircle
 10
348.24
 20
179.4492262441
 30
0.0
 40
1.900000000000034
  0
CIRCLE
  5
1A1
330
1F
100
AcDbEntity
  8
0
  6
Continuous
 62
     7
370
     0
100
AcDbCircle
 10
358.24
 20
179.4492262441
 30
0.0
 40
1.900000000000034
  0
DIMENSION
  5
1A2
330
1F
100
AcDbEntity
  8
0
  6
Continuous
 62
     7
370
     0
100
AcDbDimension
  2
_D_2
 10
300.9677828983
 20
247.6128554408
 30
0.0
 11
287.8677828983
 21
247.6128554408
 31
0.0
 70
   160
  1
<>
 71
     2
 42
-1.0
  3
SLDDIMSTYLE0
100
AcDbAlignedDimension
 13
300.8677828983
 23
243.5061085508
 33
0.0
 14
300.9677828983
 24
243.5061085508
 34
0.0
100
AcDbRotatedDimension
  0
DIMENSION
  5
1AD
330
1F
100
AcDbEntity
  8
0
  6
Continuous
 62
     7
370
     0
100
AcDbDimension
  2
_D_3
 10
337.3205881286
 20
225.9492262441
 30
0.0
 11
337.3205881286
 21
231.1007865134
 31
0.0
 70
   160
  1
<>
 71
     2
 42
-1.0
  3
SLDDIMSTYLE0
100
AcDbAlignedDimension
 13
348.24
 23
226.0492262441
 33
0.0
 14
348.24
 24
225.9492262441
 34
0.0
 50
90.0
100
AcDbRotatedDimension
  0
INSERT
  5
1C4
330
1F
100
AcDbEntity
  8
0
  6
Continuous
 62
     7
370
     0
100
AcDbBlockReference
  2
SW_CENTERMARKSYMBOL_0
 10
358.24
 20
227.9492262441
 30
0.0
  0
INSERT
  5
1D0
330
1F
100
AcDbEntity
  8
0
  6
Continuous
 62
     7
370
     0
100
AcDbBlockReference
  2
SW_CENTERMARKSYMBOL_1
 10
348.24
 20
227.9492262441
 30
0.0
  0
INSERT
  5
1DC
330
1F
100
AcDbEntity
  8
0
  6
Continuous
 62
     7
370
     0
100
AcDbBlockReference
  2
SW_CENTERMARKSYMBOL_2
 10
348.24
 20
179.4492262441
 30
0.0
  0
INSERT
  5
1E8
330
1F
100
AcDbEntity
  8
0
  6
Continuous
 62
     7
370
     0
100
AcDbBlockReference
  2
SW_CENTERMARKSYMBOL_3
 10
358.24
 20
179.4492262441
 30
0.0
  0
LINE
  5
1E9
330
1F
100
AcDbEntity
  8
0
  6
Continuous
 62
     7
370
    15
100
AcDbLine
 10
156.7477828983
 20
242.52
 30
0.0
 11
159.8477828983
 21
242.52
 31
0.0
  0
LINE
  5
1EA
330
1F
100
AcDbEntity
  8
0
  6
Continuous
 62
     7
370
    15
100
AcDbLine
 10
159.8477828983
 20
242.52
 30
0.0
 11
159.8477828983
 21
249.8922171017
 31
0.0
  0
LINE
  5
1EB
330
1F
100
AcDbEntity
  8
0
  6
Continuous
 62
     7
370
    15
100
AcDbLine
 10
159.8477828983
 20
249.8922171017
 30
0.0
 11
165.3477828983
 21
249.8922171017
 31
0.0
  0
LINE
  5
1EC
330
1F
100
AcDbEntity
  8
0
  6
Continuous
 62
     7
370
    15
100
AcDbLine
 10
165.3477828983
 20
249.8922171017
 30
0.0
 11
165.3477828983
 21
252.9922171017
 31
0.0
  0
LINE
  5
1ED
330
1F
100
AcDbEntity
  8
0
  6
Continuous
 62
     7
370
    15
100
AcDbLine
 10
175.2477828983
 20
252.9922171017
 30
0.0
 11
165.3477828983
 21
252.9922171017
 31
0.0
  0
LINE
  5
1EE
330
1F
100
AcDbEntity
  8
0
  6
Continuous
 62
     7
370
    15
100
AcDbLine
 10
175.2477828983
 20
147.2477828983
 30
0.0
 11
175.2477828983
 21
252.9922171017
 31
0.0
  0
ARC
  5
1EF
330
1F
100
AcDbEntity
  8
0
  6
Continuous
 62
     7
370
    15
100
AcDbCircle
 10
170.2477828983
 20
147.2477828983
 30
0.0
 40
5.0
100
AcDbArc
 50
270.0
 51
0.0
  0
LINE
  5
1F0
330
1F
100
AcDbEntity
  8
0
  6
Continuous
 62
     7
370
    15
100
AcDbLine
 10
165.3477828983
 20
142.2477828983
 30
0.0
 11
170.2477828983
 21
142.2477828983
 31
0.0
  0
LINE
  5
1F1
330
1F
100
AcDbEntity
  8
0
  6
Continuous
 62
     7
370
    15
100
AcDbLine
 10
165.3477828983
 20
142.2477828983
 30
0.0
 11
165.3477828983
 21
145.3477828983
 31
0.0
  0
LINE
  5
1F2
330
1F
100
AcDbEntity
  8
0
  6
Continuous
 62
     7
370
    15
100
AcDbLine
 10
165.3477828983
 20
145.3477828983
 30
0.0
 11
159.8477828983
 21
145.3477828983
 31
0.0
  0
LINE
  5
1F3
330
1F
100
AcDbEntity
  8
0
  6
Continuous
 62
     7
370
    15
100
AcDbLine
 10
159.8477828983
 20
145.3477828983
 30
0.0
 11
159.8477828983
 21
152.72
 31
0.0
  0
LINE
  5
1F4
330
1F
100
AcDbEntity
  8
0
  6
Continuous
 62
     7
370
    15
100
AcDbLine
 10
159.8477828983
 20
152.72
 30
0.0
 11
156.7477828983
 21
152.72
 31
0.0
  0
LINE
  5
1F5
330
1F
100
AcDbEntity
  8
0
  6
Continuous
 62
     7
370
    15
100
AcDbLine
 10
156.7477828983
 20
162.52
 30
0.0
 11
156.7477828983
 21
152.72
 31
0.0
  0
LINE
  5
1F6
330
1F
100
AcDbEntity
  8
0
  6
Continuous
 62
     7
370
    15
100
AcDbLine
 10
156.7477828983
 20
162.52
 30
0.0
 11
159.8477828983
 21
162.52
 31
0.0
  0
LINE
  5
1F7
330
1F
100
AcDbEntity
  8
0
  6
Continuous
 62
     7
370
    15
100
AcDbLine
 10
159.8477828983
 20
162.52
 30
0.0
 11
159.8477828983
 21
172.72
 31
0.0
  0
LINE
  5
1F8
330
1F
100
AcDbEntity
  8
0
  6
Continuous
 62
     7
370
    15
100
AcDbLine
 10
159.8477828983
 20
172.72
 30
0.0
 11
156.7477828983
 21
172.72
 31
0.0
  0
LINE
  5
1F9
330
1F
100
AcDbEntity
  8
0
  6
Continuous
 62
     7
370
    15
100
AcDbLine
 10
156.7477828983
 20
182.52
 30
0.0
 11
156.7477828983
 21
172.72
 31
0.0
  0
LINE
  5
1FA
330
1F
100
AcDbEntity
  8
0
  6
Continuous
 62
     7
370
    15
100
AcDbLine
 10
156.7477828983
 20
182.52
 30
0.0
 11
159.8477828983
 21
182.52
 31
0.0
  0
LINE
  5
1FB
330
1F
100
AcDbEntity
  8
0
  6
Continuous
 62
     7
370
    15
100
AcDbLine
 10
159.8477828983
 20
182.52
 30
0.0
 11
159.8477828983
 21
192.72
 31
0.0
  0
LINE
  5
1FC
330
1F
100
AcDbEntity
  8
0
  6
Continuous
 62
     7
370
    15
100
AcDbLine
 10
159.8477828983
 20
192.72
 30
0.0
 11
156.7477828983
 21
192.72
 31
0.0
  0
LINE
  5
1FD
330
1F
100
AcDbEntity
  8
0
  6
Continuous
 62
     7
370
    15
100
AcDbLine
 10
156.7477828983
 20
202.52
 30
0.0
 11
156.7477828983
 21
192.72
 31
0.0
  0
LINE
  5
1FE
330
1F
100
AcDbEntity
  8
0
  6
Continuous
 62
     7
370
    15
100
AcDbLine
 10
156.7477828983
 20
202.52
 30
0.0
 11
159.8477828983
 21
202.52
 31
0.0
  0
LINE
  5
1FF
330
1F
100
AcDbEntity
  8
0
  6
Continuous
 62
     7
370
    15
100
AcDbLine
 10
159.8477828983
 20
202.52
 30
0.0
 11
159.8477828983
 21
212.72
 31
0.0
  0
LINE
  5
200
330
1F
100
AcDbEntity
  8
0
  6
Continuous
 62
     7
370
    15
100
AcDbLine
 10
159.8477828983
 20
212.72
 30
0.0
 11
156.7477828983
 21
212.72
 31
0.0
  0
LINE
  5
201
330
1F
100
AcDbEntity
  8
0
  6
Continuous
 62
     7
370
    15
100
AcDbLine
 10
156.7477828983
 20
222.52
 30
0.0
 11
159.8477828983
 21
222.52
 31
0.0
  0
LINE
  5
202
330
1F
100
AcDbEntity
  8
0
  6
Continuous
 62
     7
370
    15
100
AcDbLine
 10
159.8477828983
 20
222.52
 30
0.0
 11
159.8477828983
 21
232.72
 31
0.0
  0
LINE
  5
203
330
1F
100
AcDbEntity
  8
0
  6
Continuous
 62
     7
370
    15
100
AcDbLine
 10
159.8477828983
 20
232.72
 30
0.0
 11
156.7477828983
 21
232.72
 31
0.0
  0
LINE
  5
204
330
1F
100
AcDbEntity
  8
0
  6
Continuous
 62
     7
370
    15
100
AcDbLine
 10
156.7477828983
 20
222.52
 30
0.0
 11
156.7477828983
 21
212.72
 31
0.0
  0
LINE
  5
205
330
1F
100
AcDbEntity
  8
0
  6
Continuous
 62
     7
370
    15
100
AcDbLine
 10
156.7477828983
 20
242.52
 30
0.0
 11
156.7477828983
 21
232.72
 31
0.0
  0
LINE
  5
206
330
1F
100
AcDbEntity
  8
0
  6
Continuous
 62
     7
370
    15
100
AcDbLine
 10
267.4922171017
 20
232.72
 30
0.0
 11
264.3922171017
 21
232.72
 31
0.0
  0
LINE
  5
207
330
1F
100
AcDbEntity
  8
0
  6
Continuous
 62
     7
370
    15
100
AcDbLine
 10
264.3922171017
 20
232.72
 30
0.0
 11
264.3922171017
 21
222.52
 31
0.0
  0
LINE
  5
208
330
1F
100
AcDbEntity
  8
0
  6
Continuous
 62
     7
370
    15
100
AcDbLine
 10
264.3922171017
 20
222.52
 30
0.0
 11
267.4922171017
 21
222.52
 31
0.0
  0
LINE
  5
209
330
1F
100
AcDbEntity
  8
0
  6
Continuous
 62
     7
370
    15
100
AcDbLine
 10
267.4922171017
 20
212.72
 30
0.0
 11
267.4922171017
 21
222.52
 31
0.0
  0
LINE
  5
20A
330
1F
100
AcDbEntity
  8
0
  6
Continuous
 62
     7
370
    15
100
AcDbLine
 10
267.4922171017
 20
212.72
 30
0.0
 11
264.3922171017
 21
212.72
 31
0.0
  0
LINE
  5
20B
330
1F
100
AcDbEntity
  8
0
  6
Continuous
 62
     7
370
    15
100
AcDbLine
 10
264.3922171017
 20
212.72
 30
0.0
 11
264.3922171017
 21
202.52
 31
0.0
  0
LINE
  5
20C
330
1F
100
AcDbEntity
  8
0
  6
Continuous
 62
     7
370
    15
100
AcDbLine
 10
264.3922171017
 20
202.52
 30
0.0
 11
267.4922171017
 21
202.52
 31
0.0
  0
LINE
  5
20D
330
1F
100
AcDbEntity
  8
0
  6
Continuous
 62
     7
370
    15
100
AcDbLine
 10
267.4922171017
 20
192.72
 30
0.0
 11
267.4922171017
 21
202.52
 31
0.0
  0
LINE
  5
20E
330
1F
100
AcDbEntity
  8
0
  6
Continuous
 62
     7
370
    15
100
AcDbLine
 10
267.4922171017
 20
192.72
 30
0.0
 11
264.3922171017
 21
192.72
 31
0.0
  0
LINE
  5
20F
330
1F
100
AcDbEntity
  8
0
  6
Continuous
 62
     7
370
    15
100
AcDbLine
 10
264.3922171017
 20
192.72
 30
0.0
 11
264.3922171017
 21
182.52
 31
0.0
  0
LINE
  5
210
330
1F
100
AcDbEntity
  8
0
  6
Continuous
 62
     7
370
    15
100
AcDbLine
 10
264.3922171017
 20
182.52
 30
0.0
 11
267.4922171017
 21
182.52
 31
0.0
  0
LINE
  5
211
330
1F
100
AcDbEntity
  8
0
  6
Continuous
 62
     7
370
    15
100
AcDbLine
 10
267.4922171017
 20
172.72
 30
0.0
 11
267.4922171017
 21
182.52
 31
0.0
  0
LINE
  5
212
330
1F
100
AcDbEntity
  8
0
  6
Continuous
 62
     7
370
    15
100
AcDbLine
 10
267.4922171017
 20
172.72
 30
0.0
 11
264.3922171017
 21
172.72
 31
0.0
  0
LINE
  5
213
330
1F
100
AcDbEntity
  8
0
  6
Continuous
 62
     7
370
    15
100
AcDbLine
 10
264.3922171017
 20
172.72
 30
0.0
 11
264.3922171017
 21
162.52
 31
0.0
  0
LINE
  5
214
330
1F
100
AcDbEntity
  8
0
  6
Continuous
 62
     7
370
    15
100
AcDbLine
 10
264.3922171017
 20
162.52
 30
0.0
 11
267.4922171017
 21
162.52
 31
0.0
  0
LINE
  5
215
330
1F
100
AcDbEntity
  8
0
  6
Continuous
 62
     7
370
    15
100
AcDbLine
 10
267.4922171017
 20
152.72
 30
0.0
 11
267.4922171017
 21
162.52
 31
0.0
  0
LINE
  5
216
330
1F
100
AcDbEntity
  8
0
  6
Continuous
 62
     7
370
    15
100
AcDbLine
 10
267.4922171017
 20
152.72
 30
0.0
 11
264.3922171017
 21
152.72
 31
0.0
  0
LINE
  5
217
330
1F
100
AcDbEntity
  8
0
  6
Continuous
 62
     7
370
    15
100
AcDbLine
 10
264.3922171017
 20
152.72
 30
0.0
 11
264.3922171017
 21
145.3477828983
 31
0.0
  0
LINE
  5
218
330
1F
100
AcDbEntity
  8
0
  6
Continuous
 62
     7
370
    15
100
AcDbLine
 10
264.3922171017
 20
145.3477828983
 30
0.0
 11
258.8922171017
 21
145.3477828983
 31
0.0
  0
LINE
  5
219
330
1F
100
AcDbEntity
  8
0
  6
Continuous
 62
     7
370
    15
100
AcDbLine
 10
258.8922171017
 20
145.3477828983
 30
0.0
 11
258.8922171017
 21
142.2477828983
 31
0.0
  0
LINE
  5
21A
330
1F
100
AcDbEntity
  8
0
  6
Continuous
 62
     7
370
    15
100
AcDbLine
 10
253.9922171017
 20
142.2477828983
 30
0.0
 11
258.8922171017
 21
142.2477828983
 31
0.0
  0
ARC
  5
21B
330
1F
100
AcDbEntity
  8
0
  6
Continuous
 62
     7
370
    15
100
AcDbCircle
 10
253.9922171017
 20
147.2477828983
 30
0.0
 40
5.0
100
AcDbArc
 50
180.0
 51
270.0
  0
LINE
  5
21C
330
1F
100
AcDbEntity
  8
0
  6
Continuous
 62
     7
370
    15
100
AcDbLine
 10
248.9922171017
 20
252.9922171017
 30
0.0
 11
248.9922171017
 21
147.2477828983
 31
0.0
  0
LINE
  5
21D
330
1F
100
AcDbEntity
  8
0
  6
Continuous
 62
     7
370
    15
100
AcDbLine
 10
258.8922171017
 20
252.9922171017
 30
0.0
 11
258.8922171017
 21
249.8922171017
 31
0.0
  0
LINE
  5
21E
330
1F
100
AcDbEntity
  8
0
  6
Continuous
 62
     7
370
    15
100
AcDbLine
 10
258.8922171017
 20
249.8922171017
 30
0.0
 11
264.3922171017
 21
249.8922171017
 31
0.0
  0
LINE
  5
21F
330
1F
100
AcDbEntity
  8
0
  6
Continuous
 62
     7
370
    15
100
AcDbLine
 10
264.3922171017
 20
249.8922171017
 30
0.0
 11
264.3922171017
 21
242.52
 31
0.0
  0
LINE
  5
220
330
1F
100
AcDbEntity
  8
0
  6
Continuous
 62
     7
370
    15
100
AcDbLine
 10
264.3922171017
 20
242.52
 30
0.0
 11
267.4922171017
 21
242.52
 31
0.0
  0
LINE
  5
221
330
1F
100
AcDbEntity
  8
0
  6
Continuous
 62
     7
370
    15
100
AcDbLine
 10
267.4922171017
 20
232.72
 30
0.0
 11
267.4922171017
 21
242.52
 31
0.0
  0
LINE
  5
222
330
1F
100
AcDbEntity
  8
0
  6
Continuous
 62
     7
370
    15
100
AcDbLine
 10
258.8922171017
 20
252.9922171017
 30
0.0
 11
248.9922171017
 21
252.9922171017
 31
0.0
  0
LINE
  5
223
330
1F
100
AcDbEntity
  8
0
  6
Continuous
 62
     7
370
     0
100
AcDbLine
 10
175.3477828983
 20
147.2477828983
 30
0.0
 11
175.3477828983
 21
253.0922171017
 31
0.0
  0
LINE
  5
224
330
1F
100
AcDbEntity
  8
0
  6
Continuous
 62
     7
370
     0
100
AcDbLine
 10
175.3477828983
 20
253.0922171017
 30
0.0
 11
165.2477828983
 21
253.0922171017
 31
0.0
  0
LINE
  5
225
330
1F
100
AcDbEntity
  8
0
  6
Continuous
 62
     7
370
     0
100
AcDbLine
 10
165.2477828983
 20
253.0922171017
 30
0.0
 11
165.2477828983
 21
249.9922171017
 31
0.0
  0
LINE
  5
226
330
1F
100
AcDbEntity
  8
0
  6
Continuous
 62
     7
370
     0
100
AcDbLine
 10
165.2477828983
 20
249.9922171017
 30
0.0
 11
159.7477828983
 21
249.9922171017
 31
0.0
  0
LINE
  5
227
330
1F
100
AcDbEntity
  8
0
  6
Continuous
 62
     7
370
     0
100
AcDbLine
 10
159.7477828983
 20
249.9922171017
 30
0.0
 11
159.7477828983
 21
242.62
 31
0.0
  0
LINE
  5
228
330
1F
100
AcDbEntity
  8
0
  6
Continuous
 62
     7
370
     0
100
AcDbLine
 10
159.7477828983
 20
242.62
 30
0.0
 11
156.6477828983
 21
242.62
 31
0.0
  0
LINE
  5
229
330
1F
100
AcDbEntity
  8
0
  6
Continuous
 62
     7
370
     0
100
AcDbLine
 10
156.6477828983
 20
242.62
 30
0.0
 11
156.6477828983
 21
232.62
 31
0.0
  0
LINE
  5
22A
330
1F
100
AcDbEntity
  8
0
  6
Continuous
 62
     7
370
     0
100
AcDbLine
 10
156.6477828983
 20
232.62
 30
0.0
 11
159.7477828983
 21
232.62
 31
0.0
  0
LINE
  5
22B
330
1F
100
AcDbEntity
  8
0
  6
Continuous
 62
     7
370
     0
100
AcDbLine
 10
159.7477828983
 20
232.62
 30
0.0
 11
159.7477828983
 21
222.62
 31
0.0
  0
LINE
  5
22C
330
1F
100
AcDbEntity
  8
0
  6
Continuous
 62
     7
370
     0
100
AcDbLine
 10
159.7477828983
 20
222.62
 30
0.0
 11
156.6477828983
 21
222.62
 31
0.0
  0
LINE
  5
22D
330
1F
100
AcDbEntity
  8
0
  6
Continuous
 62
     7
370
     0
100
AcDbLine
 10
156.6477828983
 20
222.62
 30
0.0
 11
156.6477828983
 21
212.62
 31
0.0
  0
LINE
  5
22E
330
1F
100
AcDbEntity
  8
0
  6
Continuous
 62
     7
370
     0
100
AcDbLine
 10
156.6477828983
 20
212.62
 30
0.0
 11
159.7477828983
 21
212.62
 31
0.0
  0
LINE
  5
22F
330
1F
100
AcDbEntity
  8
0
  6
Continuous
 62
     7
370
     0
100
AcDbLine
 10
159.7477828983
 20
212.62
 30
0.0
 11
159.7477828983
 21
202.62
 31
0.0
  0
LINE
  5
230
330
1F
100
AcDbEntity
  8
0
  6
Continuous
 62
     7
370
     0
100
AcDbLine
 10
159.7477828983
 20
202.62
 30
0.0
 11
156.6477828983
 21
202.62
 31
0.0
  0
LINE
  5
231
330
1F
100
AcDbEntity
  8
0
  6
Continuous
 62
     7
370
     0
100
AcDbLine
 10
156.6477828983
 20
202.62
 30
0.0
 11
156.6477828983
 21
192.62
 31
0.0
  0
LINE
  5
232
330
1F
100
AcDbEntity
  8
0
  6
Continuous
 62
     7
370
     0
100
AcDbLine
 10
156.6477828983
 20
192.62
 30
0.0
 11
159.7477828983
 21
192.62
 31
0.0
  0
LINE
  5
233
330
1F
100
AcDbEntity
  8
0
  6
Continuous
 62
     7
370
     0
100
AcDbLine
 10
159.7477828983
 20
192.62
 30
0.0
 11
159.7477828983
 21
182.62
 31
0.0
  0
LINE
  5
234
330
1F
100
AcDbEntity
  8
0
  6
Continuous
 62
     7
370
     0
100
AcDbLine
 10
159.7477828983
 20
182.62
 30
0.0
 11
156.6477828983
 21
182.62
 31
0.0
  0
LINE
  5
235
330
1F
100
AcDbEntity
  8
0
  6
Continuous
 62
     7
370
     0
100
AcDbLine
 10
156.6477828983
 20
182.62
 30
0.0
 11
156.6477828983
 21
172.62
 31
0.0
  0
LINE
  5
236
330
1F
100
AcDbEntity
  8
0
  6
Continuous
 62
     7
370
     0
100
AcDbLine
 10
156.6477828983
 20
172.62
 30
0.0
 11
159.7477828983
 21
172.62
 31
0.0
  0
LINE
  5
237
330
1F
100
AcDbEntity
  8
0
  6
Continuous
 62
     7
370
     0
100
AcDbLine
 10
159.7477828983
 20
172.62
 30
0.0
 11
159.7477828983
 21
162.62
 31
0.0
  0
LINE
  5
238
330
1F
100
AcDbEntity
  8
0
  6
Continuous
 62
     7
370
     0
100
AcDbLine
 10
159.7477828983
 20
162.62
 30
0.0
 11
156.6477828983
 21
162.62
 31
0.0
  0
LINE
  5
239
330
1F
100
AcDbEntity
  8
0
  6
Continuous
 62
     7
370
     0
100
AcDbLine
 10
156.6477828983
 20
162.62
 30
0.0
 11
156.6477828983
 21
152.62
 31
0.0
  0
LINE
  5
23A
330
1F
100
AcDbEntity
  8
0
  6
Continuous
 62
     7
370
     0
100
AcDbLine
 10
156.6477828983
 20
152.62
 30
0.0
 11
159.7477828983
 21
152.62
 31
0.0
  0
LINE
  5
23B
330
1F
100
AcDbEntity
  8
0
  6
Continuous
 62
     7
370
     0
100
AcDbLine
 10
159.7477828983
 20
152.62
 30
0.0
 11
159.7477828983
 21
145.2477828983
 31
0.0
  0
LINE
  5
23C
330
1F
100
AcDbEntity
  8
0
  6
Continuous
 62
     7
370
     0
100
AcDbLine
 10
159.7477828983
 20
145.2477828983
 30
0.0
 11
165.2477828983
 21
145.2477828983
 31
0.0
  0
LINE
  5
23D
330
1F
100
AcDbEntity
  8
0
  6
Continuous
 62
     7
370
     0
100
AcDbLine
 10
165.2477828983
 20
145.2477828983
 30
0.0
 11
165.2477828983
 21
142.1477828983
 31
0.0
  0
LINE
  5
23E
330
1F
100
AcDbEntity
  8
0
  6
Continuous
 62
     7
370
     0
100
AcDbLine
 10
165.2477828983
 20
142.1477828983
 30
0.0
 11
170.2477828983
 21
142.1477828983
 31
0.0
  0
LINE
  5
23F
330
1F
100
AcDbEntity
  8
0
  6
CENTERX2
 62
     7
370
     0
100
AcDbLine
 10
156.7477828983
 20
242.52
 30
0.0
 11
156.7477828983
 21
232.72
 31
0.0
  0
LINE
  5
240
330
1F
100
AcDbEntity
  8
0
  6
CENTERX2
 62
     7
370
     0
100
AcDbLine
 10
156.7477828983
 20
232.72
 30
0.0
 11
159.8477828983
 21
232.72
 31
0.0
  0
LINE
  5
241
330
1F
100
AcDbEntity
  8
0
  6
CENTERX2
 62
     7
370
     0
100
AcDbLine
 10
159.8477828983
 20
232.72
 30
0.0
 11
159.8477828983
 21
222.52
 31
0.0
  0
LINE
  5
242
330
1F
100
AcDbEntity
  8
0
  6
CENTERX2
 62
     7
370
     0
100
AcDbLine
 10
159.8477828983
 20
222.52
 30
0.0
 11
156.7477828983
 21
222.52
 31
0.0
  0
LINE
  5
243
330
1F
100
AcDbEntity
  8
0
  6
CENTERX2
 62
     7
370
     0
100
AcDbLine
 10
156.7477828983
 20
222.52
 30
0.0
 11
156.7477828983
 21
212.72
 31
0.0
  0
LINE
  5
244
330
1F
100
AcDbEntity
  8
0
  6
CENTERX2
 62
     7
370
     0
100
AcDbLine
 10
156.7477828983
 20
212.72
 30
0.0
 11
159.8477828983
 21
212.72
 31
0.0
  0
LINE
  5
245
330
1F
100
AcDbEntity
  8
0
  6
CENTERX2
 62
     7
370
     0
100
AcDbLine
 10
159.8477828983
 20
212.72
 30
0.0
 11
159.8477828983
 21
202.52
 31
0.0
  0
LINE
  5
246
330
1F
100
AcDbEntity
  8
0
  6
CENTERX2
 62
     7
370
     0
100
AcDbLine
 10
159.8477828983
 20
202.52
 30
0.0
 11
156.7477828983
 21
202.52
 31
0.0
  0
LINE
  5
247
330
1F
100
AcDbEntity
  8
0
  6
CENTERX2
 62
     7
370
     0
100
AcDbLine
 10
156.7477828983
 20
202.52
 30
0.0
 11
156.7477828983
 21
192.72
 31
0.0
  0
LINE
  5
248
330
1F
100
AcDbEntity
  8
0
  6
CENTERX2
 62
     7
370
     0
100
AcDbLine
 10
156.7477828983
 20
192.72
 30
0.0
 11
159.8477828983
 21
192.72
 31
0.0
  0
LINE
  5
249
330
1F
100
AcDbEntity
  8
0
  6
CENTERX2
 62
     7
370
     0
100
AcDbLine
 10
159.8477828983
 20
192.72
 30
0.0
 11
159.8477828983
 21
182.52
 31
0.0
  0
LINE
  5
24A
330
1F
100
AcDbEntity
  8
0
  6
CENTERX2
 62
     7
370
     0
100
AcDbLine
 10
159.8477828983
 20
182.52
 30
0.0
 11
156.7477828983
 21
182.52
 31
0.0
  0
LINE
  5
24B
330
1F
100
AcDbEntity
  8
0
  6
CENTERX2
 62
     7
370
     0
100
AcDbLine
 10
156.7477828983
 20
182.52
 30
0.0
 11
156.7477828983
 21
172.72
 31
0.0
  0
LINE
  5
24C
330
1F
100
AcDbEntity
  8
0
  6
CENTERX2
 62
     7
370
     0
100
AcDbLine
 10
156.7477828983
 20
172.72
 30
0.0
 11
159.8477828983
 21
172.72
 31
0.0
  0
LINE
  5
24D
330
1F
100
AcDbEntity
  8
0
  6
CENTERX2
 62
     7
370
     0
100
AcDbLine
 10
159.8477828983
 20
172.72
 30
0.0
 11
159.8477828983
 21
162.52
 31
0.0
  0
LINE
  5
24E
330
1F
100
AcDbEntity
  8
0
  6
CENTERX2
 62
     7
370
     0
100
AcDbLine
 10
159.8477828983
 20
162.52
 30
0.0
 11
156.7477828983
 21
162.52
 31
0.0
  0
LINE
  5
24F
330
1F
100
AcDbEntity
  8
0
  6
CENTERX2
 62
     7
370
     0
100
AcDbLine
 10
156.7477828983
 20
162.52
 30
0.0
 11
156.7477828983
 21
152.72
 31
0.0
  0
LINE
  5
250
330
1F
100
AcDbEntity
  8
0
  6
CENTERX2
 62
     7
370
     0
100
AcDbLine
 10
156.7477828983
 20
152.72
 30
0.0
 11
159.8477828983
 21
152.72
 31
0.0
  0
LINE
  5
251
330
1F
100
AcDbEntity
  8
0
  6
CENTERX2
 62
     7
370
     0
100
AcDbLine
 10
159.8477828983
 20
152.72
 30
0.0
 11
159.8477828983
 21
145.3477828983
 31
0.0
  0
LINE
  5
252
330
1F
100
AcDbEntity
  8
0
  6
CENTERX2
 62
     7
370
     0
100
AcDbLine
 10
159.8477828983
 20
145.3477828983
 30
0.0
 11
165.3477828983
 21
145.3477828983
 31
0.0
  0
LINE
  5
253
330
1F
100
AcDbEntity
  8
0
  6
CENTERX2
 62
     7
370
     0
100
AcDbLine
 10
165.3477828983
 20
145.3477828983
 30
0.0
 11
165.3477828983
 21
142.2477828983
 31
0.0
  0
LINE
  5
254
330
1F
100
AcDbEntity
  8
0
  6
CENTERX2
 62
     7
370
     0
100
AcDbLine
 10
165.3477828983
 20
142.2477828983
 30
0.0
 11
170.2477828983
 21
142.2477828983
 31
0.0
  0
LINE
  5
255
330
1F
100
AcDbEntity
  8
0
  6
CENTERX2
 62
     7
370
     0
100
AcDbLine
 10
175.2477828983
 20
147.2477828983
 30
0.0
 11
175.2477828983
 21
252.9922171017
 31
0.0
  0
LINE
  5
256
330
1F
100
AcDbEntity
  8
0
  6
CENTERX2
 62
     7
370
     0
100
AcDbLine
 10
175.2477828983
 20
252.9922171017
 30
0.0
 11
165.3477828983
 21
252.9922171017
 31
0.0
  0
LINE
  5
257
330
1F
100
AcDbEntity
  8
0
  6
CENTERX2
 62
     7
370
     0
100
AcDbLine
 10
165.3477828983
 20
252.9922171017
 30
0.0
 11
165.3477828983
 21
249.8922171017
 31
0.0
  0
LINE
  5
258
330
1F
100
AcDbEntity
  8
0
  6
CENTERX2
 62
     7
370
     0
100
AcDbLine
 10
165.3477828983
 20
249.8922171017
 30
0.0
 11
159.8477828983
 21
249.8922171017
 31
0.0
  0
LINE
  5
259
330
1F
100
AcDbEntity
  8
0
  6
CENTERX2
 62
     7
370
     0
100
AcDbLine
 10
159.8477828983
 20
249.8922171017
 30
0.0
 11
159.8477828983
 21
242.52
 31
0.0
  0
LINE
  5
25A
330
1F
100
AcDbEntity
  8
0
  6
CENTERX2
 62
     7
370
     0
100
AcDbLine
 10
159.8477828983
 20
242.52
 30
0.0
 11
156.7477828983
 21
242.52
 31
0.0
  0
ARC
  5
25B
330
1F
100
AcDbEntity
  8
0
  6
Continuous
 62
     7
370
     0
100
AcDbCircle
 10
170.2477828983
 20
147.2477828983
 30
0.0
 40
5.099999999999994
100
AcDbArc
 50
270.0
 51
0.0
  0
ARC
  5
25C
330
1F
100
AcDbEntity
  8
0
  6
CENTERX2
 62
     7
370
     0
100
AcDbCircle
 10
170.2477828983
 20
147.2477828983
 30
0.0
 40
5.0
100
AcDbArc
 50
270.0
 51
0.0
  0
DIMENSION
  5
25D
330
1F
100
AcDbEntity
  8
0
  6
Continuous
 62
     7
370
     0
100
AcDbDimension
  2
_D_4
 10
175.2477828983
 20
200.3900570387
 30
0.0
 11
183.8881821689
 21
200.3900570387
 31
0.0
 70
   160
  1
<>
 71
     2
 42
-1.0
  3
SLDDIMSTYLE0
100
AcDbAlignedDimension
 13
175.3477828983
 23
200.17
 33
0.0
 14
175.2477828983
 24
200.17
 34
0.0
100
AcDbRotatedDimension
  0
LINE
  5
268
330
1F
100
AcDbEntity
  8
0
  6
Continuous
 62
     7
370
    15
100
AcDbLine
 10
269.6522171017
 20
48.16
 30
0.0
 11
266.5522171017
 21
48.16
 31
0.0
  0
LINE
  5
269
330
1F
100
AcDbEntity
  8
0
  6
Continuous
 62
     7
370
    15
100
AcDbLine
 10
266.5522171017
 20
48.16
 30
0.0
 11
266.5522171017
 21
37.96
 31
0.0
  0
LINE
  5
26A
330
1F
100
AcDbEntity
  8
0
  6
Continuous
 62
     7
370
    15
100
AcDbLine
 10
266.5522171017
 20
37.96
 30
0.0
 11
269.6522171017
 21
37.96
 31
0.0
  0
LINE
  5
26B
330
1F
100
AcDbEntity
  8
0
  6
Continuous
 62
     7
370
    15
100
AcDbLine
 10
269.6522171017
 20
28.16
 30
0.0
 11
269.6522171017
 21
37.96
 31
0.0
  0
LINE
  5
26C
330
1F
100
AcDbEntity
  8
0
  6
Continuous
 62
     7
370
    15
100
AcDbLine
 10
269.6522171017
 20
28.16
 30
0.0
 11
266.5522171017
 21
28.16
 31
0.0
  0
LINE
  5
26D
330
1F
100
AcDbEntity
  8
0
  6
Continuous
 62
     7
370
    15
100
AcDbLine
 10
266.5522171017
 20
28.16
 30
0.0
 11
266.5522171017
 21
20.5877828983
 31
0.0
  0
LINE
  5
26E
330
1F
100
AcDbEntity
  8
0
  6
Continuous
 62
     7
370
    15
100
AcDbLine
 10
266.5522171017
 20
20.5877828983
 30
0.0
 11
269.6522171017
 21
20.5877828983
 31
0.0
  0
LINE
  5
26F
330
1F
100
AcDbEntity
  8
0
  6
Continuous
 62
     7
370
    15
100
AcDbLine
 10
269.6522171017
 20
17.6877828983
 30
0.0
 11
269.6522171017
 21
20.5877828983
 31
0.0
  0
LINE
  5
270
330
1F
100
AcDbEntity
  8
0
  6
Continuous
 62
     7
370
    15
100
AcDbLine
 10
256.1522171017
 20
17.6877828983
 30
0.0
 11
269.6522171017
 21
17.6877828983
 31
0.0
  0
ARC
  5
271
330
1F
100
AcDbEntity
  8
0
  6
Continuous
 62
     7
370
    15
100
AcDbCircle
 10
256.1522171017
 20
22.6877828983
 30
0.0
 40
4.999999999999996
100
AcDbArc
 50
180.0
 51
270.0
  0
LINE
  5
272
330
1F
100
AcDbEntity
  8
0
  6
Continuous
 62
     7
370
    15
100
AcDbLine
 10
251.1522171017
 20
128.4322171017
 30
0.0
 11
251.1522171017
 21
22.6877828983
 31
0.0
  0
LINE
  5
273
330
1F
100
AcDbEntity
  8
0
  6
Continuous
 62
     7
370
    15
100
AcDbLine
 10
261.0522171017
 20
128.4322171017
 30
0.0
 11
251.1522171017
 21
128.4322171017
 31
0.0
  0
LINE
  5
274
330
1F
100
AcDbEntity
  8
0
  6
Continuous
 62
     7
370
    15
100
AcDbLine
 10
261.0522171017
 20
128.4322171017
 30
0.0
 11
261.0522171017
 21
125.3322171017
 31
0.0
  0
LINE
  5
275
330
1F
100
AcDbEntity
  8
0
  6
Continuous
 62
     7
370
    15
100
AcDbLine
 10
261.0522171017
 20
125.3322171017
 30
0.0
 11
266.5522171017
 21
125.3322171017
 31
0.0
  0
LINE
  5
276
330
1F
100
AcDbEntity
  8
0
  6
Continuous
 62
     7
370
    15
100
AcDbLine
 10
266.5522171017
 20
125.3322171017
 30
0.0
 11
266.5522171017
 21
117.96
 31
0.0
  0
LINE
  5
277
330
1F
100
AcDbEntity
  8
0
  6
Continuous
 62
     7
370
    15
100
AcDbLine
 10
266.5522171017
 20
117.96
 30
0.0
 11
269.6522171017
 21
117.96
 31
0.0
  0
LINE
  5
278
330
1F
100
AcDbEntity
  8
0
  6
Continuous
 62
     7
370
    15
100
AcDbLine
 10
269.6522171017
 20
108.16
 30
0.0
 11
269.6522171017
 21
117.96
 31
0.0
  0
LINE
  5
279
330
1F
100
AcDbEntity
  8
0
  6
Continuous
 62
     7
370
    15
100
AcDbLine
 10
269.6522171017
 20
108.16
 30
0.0
 11
266.5522171017
 21
108.16
 31
0.0
  0
LINE
  5
27A
330
1F
100
AcDbEntity
  8
0
  6
Continuous
 62
     7
370
    15
100
AcDbLine
 10
266.5522171017
 20
108.16
 30
0.0
 11
266.5522171017
 21
97.96
 31
0.0
  0
LINE
  5
27B
330
1F
100
AcDbEntity
  8
0
  6
Continuous
 62
     7
370
    15
100
AcDbLine
 10
266.5522171017
 20
97.96
 30
0.0
 11
269.6522171017
 21
97.96
 31
0.0
  0
LINE
  5
27C
330
1F
100
AcDbEntity
  8
0
  6
Continuous
 62
     7
370
    15
100
AcDbLine
 10
269.6522171017
 20
88.16
 30
0.0
 11
269.6522171017
 21
97.96
 31
0.0
  0
LINE
  5
27D
330
1F
100
AcDbEntity
  8
0
  6
Continuous
 62
     7
370
    15
100
AcDbLine
 10
269.6522171017
 20
88.16
 30
0.0
 11
266.5522171017
 21
88.16
 31
0.0
  0
LINE
  5
27E
330
1F
100
AcDbEntity
  8
0
  6
Continuous
 62
     7
370
    15
100
AcDbLine
 10
266.5522171017
 20
88.16
 30
0.0
 11
266.5522171017
 21
77.96
 31
0.0
  0
LINE
  5
27F
330
1F
100
AcDbEntity
  8
0
  6
Continuous
 62
     7
370
    15
100
AcDbLine
 10
266.5522171017
 20
77.96
 30
0.0
 11
269.6522171017
 21
77.96
 31
0.0
  0
LINE
  5
280
330
1F
100
AcDbEntity
  8
0
  6
Continuous
 62
     7
370
    15
100
AcDbLine
 10
269.6522171017
 20
68.16
 30
0.0
 11
269.6522171017
 21
77.96
 31
0.0
  0
LINE
  5
281
330
1F
100
AcDbEntity
  8
0
  6
Continuous
 62
     7
370
    15
100
AcDbLine
 10
269.6522171017
 20
68.16
 30
0.0
 11
266.5522171017
 21
68.16
 31
0.0
  0
LINE
  5
282
330
1F
100
AcDbEntity
  8
0
  6
Continuous
 62
     7
370
    15
100
AcDbLine
 10
266.5522171017
 20
68.16
 30
0.0
 11
266.5522171017
 21
57.96
 31
0.0
  0
LINE
  5
283
330
1F
100
AcDbEntity
  8
0
  6
Continuous
 62
     7
370
    15
100
AcDbLine
 10
266.5522171017
 20
57.96
 30
0.0
 11
269.6522171017
 21
57.96
 31
0.0
  0
LINE
  5
284
330
1F
100
AcDbEntity
  8
0
  6
Continuous
 62
     7
370
    15
100
AcDbLine
 10
269.6522171017
 20
48.16
 30
0.0
 11
269.6522171017
 21
57.96
 31
0.0
  0
LINE
  5
285
330
1F
100
AcDbEntity
  8
0
  6
Continuous
 62
     7
370
    15
100
AcDbLine
 10
158.9077828983
 20
117.96
 30
0.0
 11
162.0077828983
 21
117.96
 31
0.0
  0
LINE
  5
286
330
1F
100
AcDbEntity
  8
0
  6
Continuous
 62
     7
370
    15
100
AcDbLine
 10
162.0077828983
 20
117.96
 30
0.0
 11
162.0077828983
 21
125.3322171017
 31
0.0
  0
LINE
  5
287
330
1F
100
AcDbEntity
  8
0
  6
Continuous
 62
     7
370
    15
100
AcDbLine
 10
162.0077828983
 20
125.3322171017
 30
0.0
 11
167.5077828983
 21
125.3322171017
 31
0.0
  0
LINE
  5
288
330
1F
100
AcDbEntity
  8
0
  6
Continuous
 62
     7
370
    15
100
AcDbLine
 10
167.5077828983
 20
125.3322171017
 30
0.0
 11
167.5077828983
 21
128.4322171017
 31
0.0
  0
LINE
  5
289
330
1F
100
AcDbEntity
  8
0
  6
Continuous
 62
     7
370
    15
100
AcDbLine
 10
177.4077828983
 20
128.4322171017
 30
0.0
 11
167.5077828983
 21
128.4322171017
 31
0.0
  0
LINE
  5
28A
330
1F
100
AcDbEntity
  8
0
  6
Continuous
 62
     7
370
    15
100
AcDbLine
 10
177.4077828983
 20
22.6877828983
 30
0.0
 11
177.4077828983
 21
128.4322171017
 31
0.0
  0
ARC
  5
28B
330
1F
100
AcDbEntity
  8
0
  6
Continuous
 62
     7
370
    15
100
AcDbCircle
 10
172.4077828983
 20
22.6877828983
 30
0.0
 40
5.0
100
AcDbArc
 50
270.0
 51
0.0
  0
LINE
  5
28C
330
1F
100
AcDbEntity
  8
0
  6
Continuous
 62
     7
370
    15
100
AcDbLine
 10
158.9077828983
 20
17.6877828983
 30
0.0
 11
172.4077828983
 21
17.6877828983
 31
0.0
  0
LINE
  5
28D
330
1F
100
AcDbEntity
  8
0
  6
Continuous
 62
     7
370
    15
100
AcDbLine
 10
158.9077828983
 20
20.5877828983
 30
0.0
 11
158.9077828983
 21
17.6877828983
 31
0.0
  0
LINE
  5
28E
330
1F
100
AcDbEntity
  8
0
  6
Continuous
 62
     7
370
    15
100
AcDbLine
 10
158.9077828983
 20
20.5877828983
 30
0.0
 11
162.0077828983
 21
20.5877828983
 31
0.0
  0
LINE
  5
28F
330
1F
100
AcDbEntity
  8
0
  6
Continuous
 62
     7
370
    15
100
AcDbLine
 10
162.0077828983
 20
20.5877828983
 30
0.0
 11
162.0077828983
 21
28.16
 31
0.0
  0
LINE
  5
290
330
1F
100
AcDbEntity
  8
0
  6
Continuous
 62
     7
370
    15
100
AcDbLine
 10
162.0077828983
 20
28.16
 30
0.0
 11
158.9077828983
 21
28.16
 31
0.0
  0
LINE
  5
291
330
1F
100
AcDbEntity
  8
0
  6
Continuous
 62
     7
370
    15
100
AcDbLine
 10
158.9077828983
 20
37.96
 30
0.0
 11
158.9077828983
 21
28.16
 31
0.0
  0
LINE
  5
292
330
1F
100
AcDbEntity
  8
0
  6
Continuous
 62
     7
370
    15
100
AcDbLine
 10
158.9077828983
 20
37.96
 30
0.0
 11
162.0077828983
 21
37.96
 31
0.0
  0
LINE
  5
293
330
1F
100
AcDbEntity
  8
0
  6
Continuous
 62
     7
370
    15
100
AcDbLine
 10
162.0077828983
 20
37.96
 30
0.0
 11
162.0077828983
 21
48.16
 31
0.0
  0
LINE
  5
294
330
1F
100
AcDbEntity
  8
0
  6
Continuous
 62
     7
370
    15
100
AcDbLine
 10
162.0077828983
 20
48.16
 30
0.0
 11
158.9077828983
 21
48.16
 31
0.0
  0
LINE
  5
295
330
1F
100
AcDbEntity
  8
0
  6
Continuous
 62
     7
370
    15
100
AcDbLine
 10
158.9077828983
 20
57.96
 30
0.0
 11
158.9077828983
 21
48.16
 31
0.0
  0
LINE
  5
296
330
1F
100
AcDbEntity
  8
0
  6
Continuous
 62
     7
370
    15
100
AcDbLine
 10
158.9077828983
 20
57.96
 30
0.0
 11
162.0077828983
 21
57.96
 31
0.0
  0
LINE
  5
297
330
1F
100
AcDbEntity
  8
0
  6
Continuous
 62
     7
370
    15
100
AcDbLine
 10
162.0077828983
 20
57.96
 30
0.0
 11
162.0077828983
 21
68.16
 31
0.0
  0
LINE
  5
298
330
1F
100
AcDbEntity
  8
0
  6
Continuous
 62
     7
370
    15
100
AcDbLine
 10
162.0077828983
 20
68.16
 30
0.0
 11
158.9077828983
 21
68.16
 31
0.0
  0
LINE
  5
299
330
1F
100
AcDbEntity
  8
0
  6
Continuous
 62
     7
370
    15
100
AcDbLine
 10
158.9077828983
 20
77.96
 30
0.0
 11
158.9077828983
 21
68.16
 31
0.0
  0
LINE
  5
29A
330
1F
100
AcDbEntity
  8
0
  6
Continuous
 62
     7
370
    15
100
AcDbLine
 10
158.9077828983
 20
77.96
 30
0.0
 11
162.0077828983
 21
77.96
 31
0.0
  0
LINE
  5
29B
330
1F
100
AcDbEntity
  8
0
  6
Continuous
 62
     7
370
    15
100
AcDbLine
 10
162.0077828983
 20
77.96
 30
0.0
 11
162.0077828983
 21
88.16
 31
0.0
  0
LINE
  5
29C
330
1F
100
AcDbEntity
  8
0
  6
Continuous
 62
     7
370
    15
100
AcDbLine
 10
162.0077828983
 20
88.16
 30
0.0
 11
158.9077828983
 21
88.16
 31
0.0
  0
LINE
  5
29D
330
1F
100
AcDbEntity
  8
0
  6
Continuous
 62
     7
370
    15
100
AcDbLine
 10
158.9077828983
 20
97.96
 30
0.0
 11
158.9077828983
 21
88.16
 31
0.0
  0
LINE
  5
29E
330
1F
100
AcDbEntity
  8
0
  6
Continuous
 62
     7
370
    15
100
AcDbLine
 10
158.9077828983
 20
97.96
 30
0.0
 11
162.0077828983
 21
97.96
 31
0.0
  0
LINE
  5
29F
330
1F
100
AcDbEntity
  8
0
  6
Continuous
 62
     7
370
    15
100
AcDbLine
 10
162.0077828983
 20
97.96
 30
0.0
 11
162.0077828983
 21
108.16
 31
0.0
  0
LINE
  5
2A0
330
1F
100
AcDbEntity
  8
0
  6
Continuous
 62
     7
370
    15
100
AcDbLine
 10
162.0077828983
 20
108.16
 30
0.0
 11
158.9077828983
 21
108.16
 31
0.0
  0
LINE
  5
2A1
330
1F
100
AcDbEntity
  8
0
  6
Continuous
 62
     7
370
    15
100
AcDbLine
 10
158.9077828983
 20
117.96
 30
0.0
 11
158.9077828983
 21
108.16
 31
0.0
  0
LINE
  5
2A2
330
1F
100
AcDbEntity
  8
0
  6
Continuous
 62
     7
370
     0
100
AcDbLine
 10
177.5077828983
 20
22.6877828983
 30
0.0
 11
177.5077828983
 21
128.5322171017
 31
0.0
  0
LINE
  5
2A3
330
1F
100
AcDbEntity
  8
0
  6
Continuous
 62
     7
370
     0
100
AcDbLine
 10
177.5077828983
 20
128.5322171017
 30
0.0
 11
167.4077828983
 21
128.5322171017
 31
0.0
  0
LINE
  5
2A4
330
1F
100
AcDbEntity
  8
0
  6
Continuous
 62
     7
370
     0
100
AcDbLine
 10
167.4077828983
 20
128.5322171017
 30
0.0
 11
167.4077828983
 21
125.4322171017
 31
0.0
  0
LINE
  5
2A5
330
1F
100
AcDbEntity
  8
0
  6
Continuous
 62
     7
370
     0
100
AcDbLine
 10
167.4077828983
 20
125.4322171017
 30
0.0
 11
161.9077828983
 21
125.4322171017
 31
0.0
  0
LINE
  5
2A6
330
1F
100
AcDbEntity
  8
0
  6
Continuous
 62
     7
370
     0
100
AcDbLine
 10
161.9077828983
 20
125.4322171017
 30
0.0
 11
161.9077828983
 21
118.06
 31
0.0
  0
LINE
  5
2A7
330
1F
100
AcDbEntity
  8
0
  6
Continuous
 62
     7
370
     0
100
AcDbLine
 10
161.9077828983
 20
118.06
 30
0.0
 11
158.8077828983
 21
118.06
 31
0.0
  0
LINE
  5
2A8
330
1F
100
AcDbEntity
  8
0
  6
Continuous
 62
     7
370
     0
100
AcDbLine
 10
158.8077828983
 20
118.06
 30
0.0
 11
158.8077828983
 21
108.06
 31
0.0
  0
LINE
  5
2A9
330
1F
100
AcDbEntity
  8
0
  6
Continuous
 62
     7
370
     0
100
AcDbLine
 10
158.8077828983
 20
108.06
 30
0.0
 11
161.9077828983
 21
108.06
 31
0.0
  0
LINE
  5
2AA
330
1F
100
AcDbEntity
  8
0
  6
Continuous
 62
     7
370
     0
100
AcDbLine
 10
161.9077828983
 20
108.06
 30
0.0
 11
161.9077828983
 21
98.06
 31
0.0
  0
LINE
  5
2AB
330
1F
100
AcDbEntity
  8
0
  6
Continuous
 62
     7
370
     0
100
AcDbLine
 10
161.9077828983
 20
98.06
 30
0.0
 11
158.8077828983
 21
98.06
 31
0.0
  0
LINE
  5
2AC
330
1F
100
AcDbEntity
  8
0
  6
Continuous
 62
     7
370
     0
100
AcDbLine
 10
158.8077828983
 20
98.06
 30
0.0
 11
158.8077828983
 21
88.06
 31
0.0
  0
LINE
  5
2AD
330
1F
100
AcDbEntity
  8
0
  6
Continuous
 62
     7
370
     0
100
AcDbLine
 10
158.8077828983
 20
88.06
 30
0.0
 11
161.9077828983
 21
88.06
 31
0.0
  0
LINE
  5
2AE
330
1F
100
AcDbEntity
  8
0
  6
Continuous
 62
     7
370
     0
100
AcDbLine
 10
161.9077828983
 20
88.06
 30
0.0
 11
161.9077828983
 21
78.06
 31
0.0
  0
LINE
  5
2AF
330
1F
100
AcDbEntity
  8
0
  6
Continuous
 62
     7
370
     0
100
AcDbLine
 10
161.9077828983
 20
78.06
 30
0.0
 11
158.8077828983
 21
78.06
 31
0.0
  0
LINE
  5
2B0
330
1F
100
AcDbEntity
  8
0
  6
Continuous
 62
     7
370
     0
100
AcDbLine
 10
158.8077828983
 20
78.06
 30
0.0
 11
158.8077828983
 21
68.06
 31
0.0
  0
LINE
  5
2B1
330
1F
100
AcDbEntity
  8
0
  6
Continuous
 62
     7
370
     0
100
AcDbLine
 10
158.8077828983
 20
68.06
 30
0.0
 11
161.9077828983
 21
68.06
 31
0.0
  0
LINE
  5
2B2
330
1F
100
AcDbEntity
  8
0
  6
Continuous
 62
     7
370
     0
100
AcDbLine
 10
161.9077828983
 20
68.06
 30
0.0
 11
161.9077828983
 21
58.06
 31
0.0
  0
LINE
  5
2B3
330
1F
100
AcDbEntity
  8
0
  6
Continuous
 62
     7
370
     0
100
AcDbLine
 10
161.9077828983
 20
58.06
 30
0.0
 11
158.8077828983
 21
58.06
 31
0.0
  0
LINE
  5
2B4
330
1F
100
AcDbEntity
  8
0
  6
Continuous
 62
     7
370
     0
100
AcDbLine
 10
158.8077828983
 20
58.06
 30
0.0
 11
158.8077828983
 21
48.06
 31
0.0
  0
LINE
  5
2B5
330
1F
100
AcDbEntity
  8
0
  6
Continuous
 62
     7
370
     0
100
AcDbLine
 10
158.8077828983
 20
48.06
 30
0.0
 11
161.9077828983
 21
48.06
 31
0.0
  0
LINE
  5
2B6
330
1F
100
AcDbEntity
  8
0
  6
Continuous
 62
     7
370
     0
100
AcDbLine
 10
161.9077828983
 20
48.06
 30
0.0
 11
161.9077828983
 21
38.06
 31
0.0
  0
LINE
  5
2B7
330
1F
100
AcDbEntity
  8
0
  6
Continuous
 62
     7
370
     0
100
AcDbLine
 10
161.9077828983
 20
38.06
 30
0.0
 11
158.8077828983
 21
38.06
 31
0.0
  0
LINE
  5
2B8
330
1F
100
AcDbEntity
  8
0
  6
Continuous
 62
     7
370
     0
100
AcDbLine
 10
158.8077828983
 20
38.06
 30
0.0
 11
158.8077828983
 21
28.06
 31
0.0
  0
LINE
  5
2B9
330
1F
100
AcDbEntity
  8
0
  6
Continuous
 62
     7
370
     0
100
AcDbLine
 10
158.8077828983
 20
28.06
 30
0.0
 11
161.9077828983
 21
28.06
 31
0.0
  0
LINE
  5
2BA
330
1F
100
AcDbEntity
  8
0
  6
Continuous
 62
     7
370
     0
100
AcDbLine
 10
161.9077828983
 20
28.06
 30
0.0
 11
161.9077828983
 21
20.6877828983
 31
0.0
  0
LINE
  5
2BB
330
1F
100
AcDbEntity
  8
0
  6
Continuous
 62
     7
370
     0
100
AcDbLine
 10
161.9077828983
 20
20.6877828983
 30
0.0
 11
158.8077828983
 21
20.6877828983
 31
0.0
  0
LINE
  5
2BC
330
1F
100
AcDbEntity
  8
0
  6
Continuous
 62
     7
370
     0
100
AcDbLine
 10
158.8077828983
 20
20.6877828983
 30
0.0
 11
158.8077828983
 21
17.5877828983
 31
0.0
  0
LINE
  5
2BD
330
1F
100
AcDbEntity
  8
0
  6
Continuous
 62
     7
370
     0
100
AcDbLine
 10
158.8077828983
 20
17.5877828983
 30
0.0
 11
172.4077828983
 21
17.5877828983
 31
0.0
  0
LINE
  5
2BE
330
1F
100
AcDbEntity
  8
0
  6
CENTERX2
 62
     7
370
     0
100
AcDbLine
 10
158.9077828983
 20
117.96
 30
0.0
 11
158.9077828983
 21
108.16
 31
0.0
  0
LINE
  5
2BF
330
1F
100
AcDbEntity
  8
0
  6
CENTERX2
 62
     7
370
     0
100
AcDbLine
 10
158.9077828983
 20
108.16
 30
0.0
 11
162.0077828983
 21
108.16
 31
0.0
  0
LINE
  5
2C0
330
1F
100
AcDbEntity
  8
0
  6
CENTERX2
 62
     7
370
     0
100
AcDbLine
 10
162.0077828983
 20
108.16
 30
0.0
 11
162.0077828983
 21
97.96
 31
0.0
  0
LINE
  5
2C1
330
1F
100
AcDbEntity
  8
0
  6
CENTERX2
 62
     7
370
     0
100
AcDbLine
 10
162.0077828983
 20
97.96
 30
0.0
 11
158.9077828983
 21
97.96
 31
0.0
  0
LINE
  5
2C2
330
1F
100
AcDbEntity
  8
0
  6
CENTERX2
 62
     7
370
     0
100
AcDbLine
 10
158.9077828983
 20
97.96
 30
0.0
 11
158.9077828983
 21
88.16
 31
0.0
  0
LINE
  5
2C3
330
1F
100
AcDbEntity
  8
0
  6
CENTERX2
 62
     7
370
     0
100
AcDbLine
 10
158.9077828983
 20
88.16
 30
0.0
 11
162.0077828983
 21
88.16
 31
0.0
  0
LINE
  5
2C4
330
1F
100
AcDbEntity
  8
0
  6
CENTERX2
 62
     7
370
     0
100
AcDbLine
 10
162.0077828983
 20
88.16
 30
0.0
 11
162.0077828983
 21
77.96
 31
0.0
  0
LINE
  5
2C5
330
1F
100
AcDbEntity
  8
0
  6
CENTERX2
 62
     7
370
     0
100
AcDbLine
 10
162.0077828983
 20
77.96
 30
0.0
 11
158.9077828983
 21
77.96
 31
0.0
  0
LINE
  5
2C6
330
1F
100
AcDbEntity
  8
0
  6
CENTERX2
 62
     7
370
     0
100
AcDbLine
 10
158.9077828983
 20
77.96
 30
0.0
 11
158.9077828983
 21
68.16
 31
0.0
  0
LINE
  5
2C7
330
1F
100
AcDbEntity
  8
0
  6
CENTERX2
 62
     7
370
     0
100
AcDbLine
 10
158.9077828983
 20
68.16
 30
0.0
 11
162.0077828983
 21
68.16
 31
0.0
  0
LINE
  5
2C8
330
1F
100
AcDbEntity
  8
0
  6
CENTERX2
 62
     7
370
     0
100
AcDbLine
 10
162.0077828983
 20
68.16
 30
0.0
 11
162.0077828983
 21
57.96
 31
0.0
  0
LINE
  5
2C9
330
1F
100
AcDbEntity
  8
0
  6
CENTERX2
 62
     7
370
     0
100
AcDbLine
 10
162.0077828983
 20
57.96
 30
0.0
 11
158.9077828983
 21
57.96
 31
0.0
  0
LINE
  5
2CA
330
1F
100
AcDbEntity
  8
0
  6
CENTERX2
 62
     7
370
     0
100
AcDbLine
 10
158.9077828983
 20
57.96
 30
0.0
 11
158.9077828983
 21
48.16
 31
0.0
  0
LINE
  5
2CB
330
1F
100
AcDbEntity
  8
0
  6
CENTERX2
 62
     7
370
     0
100
AcDbLine
 10
158.9077828983
 20
48.16
 30
0.0
 11
162.0077828983
 21
48.16
 31
0.0
  0
LINE
  5
2CC
330
1F
100
AcDbEntity
  8
0
  6
CENTERX2
 62
     7
370
     0
100
AcDbLine
 10
162.0077828983
 20
48.16
 30
0.0
 11
162.0077828983
 21
37.96
 31
0.0
  0
LINE
  5
2CD
330
1F
100
AcDbEntity
  8
0
  6
CENTERX2
 62
     7
370
     0
100
AcDbLine
 10
162.0077828983
 20
37.96
 30
0.0
 11
158.9077828983
 21
37.96
 31
0.0
  0
LINE
  5
2CE
330
1F
100
AcDbEntity
  8
0
  6
CENTERX2
 62
     7
370
     0
100
AcDbLine
 10
158.9077828983
 20
37.96
 30
0.0
 11
158.9077828983
 21
28.16
 31
0.0
  0
LINE
  5
2CF
330
1F
100
AcDbEntity
  8
0
  6
CENTERX2
 62
     7
370
     0
100
AcDbLine
 10
158.9077828983
 20
28.16
 30
0.0
 11
162.0077828983
 21
28.16
 31
0.0
  0
LINE
  5
2D0
330
1F
100
AcDbEntity
  8
0
  6
CENTERX2
 62
     7
370
     0
100
AcDbLine
 10
162.0077828983
 20
28.16
 30
0.0
 11
162.0077828983
 21
20.5877828983
 31
0.0
  0
LINE
  5
2D1
330
1F
100
AcDbEntity
  8
0
  6
CENTERX2
 62
     7
370
     0
100
AcDbLine
 10
162.0077828983
 20
20.5877828983
 30
0.0
 11
158.9077828983
 21
20.5877828983
 31
0.0
  0
LINE
  5
2D2
330
1F
100
AcDbEntity
  8
0
  6
CENTERX2
 62
     7
370
     0
100
AcDbLine
 10
158.9077828983
 20
20.5877828983
 30
0.0
 11
158.9077828983
 21
17.6877828983
 31
0.0
  0
LINE
  5
2D3
330
1F
100
AcDbEntity
  8
0
  6
CENTERX2
 62
     7
370
     0
100
AcDbLine
 10
158.9077828983
 20
17.6877828983
 30
0.0
 11
172.4077828983
 21
17.6877828983
 31
0.0
  0
LINE
  5
2D4
330
1F
100
AcDbEntity
  8
0
  6
CENTERX2
 62
     7
370
     0
100
AcDbLine
 10
177.4077828983
 20
22.6877828983
 30
0.0
 11
177.4077828983
 21
128.4322171017
 31
0.0
  0
LINE
  5
2D5
330
1F
100
AcDbEntity
  8
0
  6
CENTERX2
 62
     7
370
     0
100
AcDbLine
 10
177.4077828983
 20
128.4322171017
 30
0.0
 11
167.5077828983
 21
128.4322171017
 31
0.0
  0
LINE
  5
2D6
330
1F
100
AcDbEntity
  8
0
  6
CENTERX2
 62
     7
370
     0
100
AcDbLine
 10
167.5077828983
 20
128.4322171017
 30
0.0
 11
167.5077828983
 21
125.3322171017
 31
0.0
  0
LINE
  5
2D7
330
1F
100
AcDbEntity
  8
0
  6
CENTERX2
 62
     7
370
     0
100
AcDbLine
 10
167.5077828983
 20
125.3322171017
 30
0.0
 11
162.0077828983
 21
125.3322171017
 31
0.0
  0
LINE
  5
2D8
330
1F
100
AcDbEntity
  8
0
  6
CENTERX2
 62
     7
370
     0
100
AcDbLine
 10
162.0077828983
 20
125.3322171017
 30
0.0
 11
162.0077828983
 21
117.96
 31
0.0
  0
LINE
  5
2D9
330
1F
100
AcDbEntity
  8
0
  6
CENTERX2
 62
     7
370
     0
100
AcDbLine
 10
162.0077828983
 20
117.96
 30
0.0
 11
158.9077828983
 21
117.96
 31
0.0
  0
ARC
  5
2DA
330
1F
100
AcDbEntity
  8
0
  6
Continuous
 62
     7
370
     0
100
AcDbCircle
 10
172.4077828983
 20
22.6877828983
 30
0.0
 40
5.099999999999998
100
AcDbArc
 50
270.0
 51
0.0
  0
ARC
  5
2DB
330
1F
100
AcDbEntity
  8
0
  6
CENTERX2
 62
     7
370
     0
100
AcDbCircle
 10
172.4077828983
 20
22.6877828983
 30
0.0
 40
5.0
100
AcDbArc
 50
270.0
 51
0.0
  0
DIMENSION
  5
2DC
330
1F
100
AcDbEntity
  8
0
  6
Continuous
 62
     7
370
     0
100
AcDbDimension
  2
_D_5
 10
177.4077828983
 20
75.9767842882
 30
0.0
 11
189.1254493478
 21
75.9767842882
 31
0.0
 70
   160
  1
<>
 71
     2
 42
-1.0
  3
SLDDIMSTYLE0
100
AcDbAlignedDimension
 13
177.5077828983
 23
75.61
 33
0.0
 14
177.4077828983
 24
75.61
 34
0.0
100
AcDbRotatedDimension
  0
LINE
  5
2E7
330
1F
100
AcDbEntity
  8
0
  6
Continuous
 62
     7
370
    15
100
AcDbLine
 10
130.4722171017
 20
251.63
 30
0.0
 11
133.5722171017
 21
251.63
 31
0.0
  0
LINE
  5
2E8
330
1F
100
AcDbEntity
  8
0
  6
Continuous
 62
     7
370
    15
100
AcDbLine
 10
133.5722171017
 20
237.2966666667
 30
0.0
 11
133.5722171017
 21
251.63
 31
0.0
  0
LINE
  5
2E9
330
1F
100
AcDbEntity
  8
0
  6
Continuous
 62
     7
370
    15
100
AcDbLine
 10
133.5722171017
 20
237.2966666667
 30
0.0
 11
130.4722171017
 21
237.2966666667
 31
0.0
  0
LINE
  5
2EA
330
1F
100
AcDbEntity
  8
0
  6
Continuous
 62
     7
370
    15
100
AcDbLine
 10
130.4722171017
 20
237.2966666667
 30
0.0
 11
130.4722171017
 21
228.58
 31
0.0
  0
LINE
  5
2EB
330
1F
100
AcDbEntity
  8
0
  6
Continuous
 62
     7
370
    15
100
AcDbLine
 10
130.4722171017
 20
228.58
 30
0.0
 11
133.5722171017
 21
228.58
 31
0.0
  0
LINE
  5
2EC
330
1F
100
AcDbEntity
  8
0
  6
Continuous
 62
     7
370
    15
100
AcDbLine
 10
133.5722171017
 20
219.8633333333
 30
0.0
 11
133.5722171017
 21
228.58
 31
0.0
  0
LINE
  5
2ED
330
1F
100
AcDbEntity
  8
0
  6
Continuous
 62
     7
370
    15
100
AcDbLine
 10
133.5722171017
 20
219.8633333333
 30
0.0
 11
130.4722171017
 21
219.8633333333
 31
0.0
  0
LINE
  5
2EE
330
1F
100
AcDbEntity
  8
0
  6
Continuous
 62
     7
370
    15
100
AcDbLine
 10
130.4722171017
 20
219.8633333333
 30
0.0
 11
130.4722171017
 21
211.1466666667
 31
0.0
  0
LINE
  5
2EF
330
1F
100
AcDbEntity
  8
0
  6
Continuous
 62
     7
370
    15
100
AcDbLine
 10
130.4722171017
 20
211.1466666667
 30
0.0
 11
133.5722171017
 21
211.1466666667
 31
0.0
  0
LINE
  5
2F0
330
1F
100
AcDbEntity
  8
0
  6
Continuous
 62
     7
370
    15
100
AcDbLine
 10
133.5722171017
 20
202.43
 30
0.0
 11
133.5722171017
 21
211.1466666667
 31
0.0
  0
LINE
  5
2F1
330
1F
100
AcDbEntity
  8
0
  6
Continuous
 62
     7
370
    15
100
AcDbLine
 10
118.5722171017
 20
202.43
 30
0.0
 11
133.5722171017
 21
202.43
 31
0.0
  0
LINE
  5
2F2
330
1F
100
AcDbEntity
  8
0
  6
Continuous
 62
     7
370
    15
100
AcDbLine
 10
118.5722171017
 20
232.43
 30
0.0
 11
118.5722171017
 21
202.43
 31
0.0
  0
LINE
  5
2F3
330
1F
100
AcDbEntity
  8
0
  6
Continuous
 62
     7
370
    15
100
AcDbLine
 10
103.3
 20
232.43
 30
0.0
 11
118.5722171017
 21
232.43
 31
0.0
  0
LINE
  5
2F4
330
1F
100
AcDbEntity
  8
0
  6
Continuous
 62
     7
370
    15
100
AcDbLine
 10
103.3
 20
232.43
 30
0.0
 11
103.3
 21
235.53
 31
0.0
  0
LINE
  5
2F5
330
1F
100
AcDbEntity
  8
0
  6
Continuous
 62
     7
370
    15
100
AcDbLine
 10
103.3
 20
235.53
 30
0.0
 11
93.1
 21
235.53
 31
0.0
  0
LINE
  5
2F6
330
1F
100
AcDbEntity
  8
0
  6
Continuous
 62
     7
370
    15
100
AcDbLine
 10
93.1
 20
235.53
 30
0.0
 11
93.1
 21
232.43
 31
0.0
  0
LINE
  5
2F7
330
1F
100
AcDbEntity
  8
0
  6
Continuous
 62
     7
370
    15
100
AcDbLine
 10
83.3
 20
232.43
 30
0.0
 11
93.1
 21
232.43
 31
0.0
  0
LINE
  5
2F8
330
1F
100
AcDbEntity
  8
0
  6
Continuous
 62
     7
370
    15
100
AcDbLine
 10
83.3
 20
232.43
 30
0.0
 11
83.3
 21
235.53
 31
0.0
  0
LINE
  5
2F9
330
1F
100
AcDbEntity
  8
0
  6
Continuous
 62
     7
370
    15
100
AcDbLine
 10
83.3
 20
235.53
 30
0.0
 11
73.1
 21
235.53
 31
0.0
  0
LINE
  5
2FA
330
1F
100
AcDbEntity
  8
0
  6
Continuous
 62
     7
370
    15
100
AcDbLine
 10
73.1
 20
235.53
 30
0.0
 11
73.1
 21
232.43
 31
0.0
  0
LINE
  5
2FB
330
1F
100
AcDbEntity
  8
0
  6
Continuous
 62
     7
370
    15
100
AcDbLine
 10
63.3
 20
232.43
 30
0.0
 11
73.1
 21
232.43
 31
0.0
  0
LINE
  5
2FC
330
1F
100
AcDbEntity
  8
0
  6
Continuous
 62
     7
370
    15
100
AcDbLine
 10
63.3
 20
232.43
 30
0.0
 11
63.3
 21
235.53
 31
0.0
  0
LINE
  5
2FD
330
1F
100
AcDbEntity
  8
0
  6
Continuous
 62
     7
370
    15
100
AcDbLine
 10
63.3
 20
235.53
 30
0.0
 11
53.1
 21
235.53
 31
0.0
  0
LINE
  5
2FE
330
1F
100
AcDbEntity
  8
0
  6
Continuous
 62
     7
370
    15
100
AcDbLine
 10
53.1
 20
235.53
 30
0.0
 11
53.1
 21
232.43
 31
0.0
  0
LINE
  5
2FF
330
1F
100
AcDbEntity
  8
0
  6
Continuous
 62
     7
370
    15
100
AcDbLine
 10
37.8277828983
 20
232.43
 30
0.0
 11
53.1
 21
232.43
 31
0.0
  0
LINE
  5
300
330
1F
100
AcDbEntity
  8
0
  6
Continuous
 62
     7
370
    15
100
AcDbLine
 10
37.8277828983
 20
202.43
 30
0.0
 11
37.8277828983
 21
232.43
 31
0.0
  0
LINE
  5
301
330
1F
100
AcDbEntity
  8
0
  6
Continuous
 62
     7
370
    15
100
AcDbLine
 10
22.8277828983
 20
202.43
 30
0.0
 11
37.8277828983
 21
202.43
 31
0.0
  0
LINE
  5
302
330
1F
100
AcDbEntity
  8
0
  6
Continuous
 62
     7
370
    15
100
AcDbLine
 10
22.8277828983
 20
211.1466666667
 30
0.0
 11
22.8277828983
 21
202.43
 31
0.0
  0
LINE
  5
303
330
1F
100
AcDbEntity
  8
0
  6
Continuous
 62
     7
370
    15
100
AcDbLine
 10
22.8277828983
 20
211.1466666667
 30
0.0
 11
25.9277828983
 21
211.1466666667
 31
0.0
  0
LINE
  5
304
330
1F
100
AcDbEntity
  8
0
  6
Continuous
 62
     7
370
    15
100
AcDbLine
 10
25.9277828983
 20
211.1466666667
 30
0.0
 11
25.9277828983
 21
219.8633333333
 31
0.0
  0
LINE
  5
305
330
1F
100
AcDbEntity
  8
0
  6
Continuous
 62
     7
370
    15
100
AcDbLine
 10
25.9277828983
 20
219.8633333333
 30
0.0
 11
22.8277828983
 21
219.8633333333
 31
0.0
  0
LINE
  5
306
330
1F
100
AcDbEntity
  8
0
  6
Continuous
 62
     7
370
    15
100
AcDbLine
 10
22.8277828983
 20
228.58
 30
0.0
 11
22.8277828983
 21
219.8633333333
 31
0.0
  0
LINE
  5
307
330
1F
100
AcDbEntity
  8
0
  6
Continuous
 62
     7
370
    15
100
AcDbLine
 10
22.8277828983
 20
228.58
 30
0.0
 11
25.9277828983
 21
228.58
 31
0.0
  0
LINE
  5
308
330
1F
100
AcDbEntity
  8
0
  6
Continuous
 62
     7
370
    15
100
AcDbLine
 10
25.9277828983
 20
228.58
 30
0.0
 11
25.9277828983
 21
237.2966666667
 31
0.0
  0
LINE
  5
309
330
1F
100
AcDbEntity
  8
0
  6
Continuous
 62
     7
370
    15
100
AcDbLine
 10
25.9277828983
 20
237.2966666667
 30
0.0
 11
22.8277828983
 21
237.2966666667
 31
0.0
  0
LINE
  5
30A
330
1F
100
AcDbEntity
  8
0
  6
Continuous
 62
     7
370
    15
100
AcDbLine
 10
22.8277828983
 20
245.9133333333
 30
0.0
 11
22.8277828983
 21
237.2966666667
 31
0.0
  0
LINE
  5
30B
330
1F
100
AcDbEntity
  8
0
  6
Continuous
 62
     7
370
    15
100
AcDbLine
 10
22.8277828983
 20
245.9133333333
 30
0.0
 11
25.9277828983
 21
245.9133333333
 31
0.0
  0
LINE
  5
30C
330
1F
100
AcDbEntity
  8
0
  6
Continuous
 62
     7
370
    15
100
AcDbLine
 10
25.9277828983
 20
245.9133333333
 30
0.0
 11
25.9277828983
 21
254.73
 31
0.0
  0
LINE
  5
30D
330
1F
100
AcDbEntity
  8
0
  6
Continuous
 62
     7
370
    15
100
AcDbLine
 10
33.1
 20
254.73
 30
0.0
 11
25.9277828983
 21
254.73
 31
0.0
  0
LINE
  5
30E
330
1F
100
AcDbEntity
  8
0
  6
Continuous
 62
     7
370
    15
100
AcDbLine
 10
33.1
 20
254.73
 30
0.0
 11
33.1
 21
251.63
 31
0.0
  0
LINE
  5
30F
330
1F
100
AcDbEntity
  8
0
  6
Continuous
 62
     7
370
    15
100
AcDbLine
 10
33.1
 20
251.63
 30
0.0
 11
43.3
 21
251.63
 31
0.0
  0
LINE
  5
310
330
1F
100
AcDbEntity
  8
0
  6
Continuous
 62
     7
370
    15
100
AcDbLine
 10
43.3
 20
251.63
 30
0.0
 11
43.3
 21
254.73
 31
0.0
  0
LINE
  5
311
330
1F
100
AcDbEntity
  8
0
  6
Continuous
 62
     7
370
    15
100
AcDbLine
 10
53.1
 20
254.73
 30
0.0
 11
43.3
 21
254.73
 31
0.0
  0
LINE
  5
312
330
1F
100
AcDbEntity
  8
0
  6
Continuous
 62
     7
370
    15
100
AcDbLine
 10
53.1
 20
254.73
 30
0.0
 11
53.1
 21
251.63
 31
0.0
  0
LINE
  5
313
330
1F
100
AcDbEntity
  8
0
  6
Continuous
 62
     7
370
    15
100
AcDbLine
 10
53.1
 20
251.63
 30
0.0
 11
63.3
 21
251.63
 31
0.0
  0
LINE
  5
314
330
1F
100
AcDbEntity
  8
0
  6
Continuous
 62
     7
370
    15
100
AcDbLine
 10
63.3
 20
251.63
 30
0.0
 11
63.3
 21
254.73
 31
0.0
  0
LINE
  5
315
330
1F
100
AcDbEntity
  8
0
  6
Continuous
 62
     7
370
    15
100
AcDbLine
 10
73.1
 20
254.73
 30
0.0
 11
63.3
 21
254.73
 31
0.0
  0
LINE
  5
316
330
1F
100
AcDbEntity
  8
0
  6
Continuous
 62
     7
370
    15
100
AcDbLine
 10
73.1
 20
254.73
 30
0.0
 11
73.1
 21
251.63
 31
0.0
  0
LINE
  5
317
330
1F
100
AcDbEntity
  8
0
  6
Continuous
 62
     7
370
    15
100
AcDbLine
 10
73.1
 20
251.63
 30
0.0
 11
83.3
 21
251.63
 31
0.0
  0
LINE
  5
318
330
1F
100
AcDbEntity
  8
0
  6
Continuous
 62
     7
370
    15
100
AcDbLine
 10
83.3
 20
251.63
 30
0.0
 11
83.3
 21
254.73
 31
0.0
  0
LINE
  5
319
330
1F
100
AcDbEntity
  8
0
  6
Continuous
 62
     7
370
    15
100
AcDbLine
 10
93.1
 20
254.73
 30
0.0
 11
83.3
 21
254.73
 31
0.0
  0
LINE
  5
31A
330
1F
100
AcDbEntity
  8
0
  6
Continuous
 62
     7
370
    15
100
AcDbLine
 10
93.1
 20
254.73
 30
0.0
 11
93.1
 21
251.63
 31
0.0
  0
LINE
  5
31B
330
1F
100
AcDbEntity
  8
0
  6
Continuous
 62
     7
370
    15
100
AcDbLine
 10
93.1
 20
251.63
 30
0.0
 11
103.3
 21
251.63
 31
0.0
  0
LINE
  5
31C
330
1F
100
AcDbEntity
  8
0
  6
Continuous
 62
     7
370
    15
100
AcDbLine
 10
103.3
 20
251.63
 30
0.0
 11
103.3
 21
254.73
 31
0.0
  0
LINE
  5
31D
330
1F
100
AcDbEntity
  8
0
  6
Continuous
 62
     7
370
    15
100
AcDbLine
 10
113.1
 20
254.73
 30
0.0
 11
103.3
 21
254.73
 31
0.0
  0
LINE
  5
31E
330
1F
100
AcDbEntity
  8
0
  6
Continuous
 62
     7
370
    15
100
AcDbLine
 10
113.1
 20
254.73
 30
0.0
 11
113.1
 21
251.63
 31
0.0
  0
LINE
  5
31F
330
1F
100
AcDbEntity
  8
0
  6
Continuous
 62
     7
370
    15
100
AcDbLine
 10
113.1
 20
251.63
 30
0.0
 11
123.3
 21
251.63
 31
0.0
  0
LINE
  5
320
330
1F
100
AcDbEntity
  8
0
  6
Continuous
 62
     7
370
    15
100
AcDbLine
 10
123.3
 20
251.63
 30
0.0
 11
123.3
 21
254.73
 31
0.0
  0
LINE
  5
321
330
1F
100
AcDbEntity
  8
0
  6
Continuous
 62
     7
370
    15
100
AcDbLine
 10
130.4722171017
 20
254.73
 30
0.0
 11
123.3
 21
254.73
 31
0.0
  0
LINE
  5
322
330
1F
100
AcDbEntity
  8
0
  6
Continuous
 62
     7
370
    15
100
AcDbLine
 10
130.4722171017
 20
254.73
 30
0.0
 11
130.4722171017
 21
251.63
 31
0.0
  0
LINE
  5
323
330
1F
100
AcDbEntity
  8
0
  6
Continuous
 62
     7
370
    15
100
AcDbLine
 10
93.1
 20
246.23
 30
0.0
 11
93.1
 21
243.03
 31
0.0
  0
LINE
  5
324
330
1F
100
AcDbEntity
  8
0
  6
Continuous
 62
     7
370
    15
100
AcDbLine
 10
93.1
 20
243.03
 30
0.0
 11
103.3
 21
243.03
 31
0.0
  0
LINE
  5
325
330
1F
100
AcDbEntity
  8
0
  6
Continuous
 62
     7
370
    15
100
AcDbLine
 10
103.3
 20
243.03
 30
0.0
 11
103.3
 21
246.23
 31
0.0
  0
LINE
  5
326
330
1F
100
AcDbEntity
  8
0
  6
Continuous
 62
     7
370
    15
100
AcDbLine
 10
103.3
 20
246.23
 30
0.0
 11
93.1
 21
246.23
 31
0.0
  0
LINE
  5
327
330
1F
100
AcDbEntity
  8
0
  6
Continuous
 62
     7
370
    15
100
AcDbLine
 10
113.1
 20
246.23
 30
0.0
 11
113.1
 21
243.03
 31
0.0
  0
LINE
  5
328
330
1F
100
AcDbEntity
  8
0
  6
Continuous
 62
     7
370
    15
100
AcDbLine
 10
113.1
 20
243.03
 30
0.0
 11
123.3
 21
243.03
 31
0.0
  0
LINE
  5
329
330
1F
100
AcDbEntity
  8
0
  6
Continuous
 62
     7
370
    15
100
AcDbLine
 10
123.3
 20
243.03
 30
0.0
 11
123.3
 21
246.23
 31
0.0
  0
LINE
  5
32A
330
1F
100
AcDbEntity
  8
0
  6
Continuous
 62
     7
370
    15
100
AcDbLine
 10
123.3
 20
246.23
 30
0.0
 11
113.1
 21
246.23
 31
0.0
  0
LINE
  5
32B
330
1F
100
AcDbEntity
  8
0
  6
Continuous
 62
     7
370
    15
100
AcDbLine
 10
53.1
 20
243.03
 30
0.0
 11
63.3
 21
243.03
 31
0.0
  0
LINE
  5
32C
330
1F
100
AcDbEntity
  8
0
  6
Continuous
 62
     7
370
    15
100
AcDbLine
 10
63.3
 20
243.03
 30
0.0
 11
63.3
 21
246.23
 31
0.0
  0
LINE
  5
32D
330
1F
100
AcDbEntity
  8
0
  6
Continuous
 62
     7
370
    15
100
AcDbLine
 10
63.3
 20
246.23
 30
0.0
 11
53.1
 21
246.23
 31
0.0
  0
LINE
  5
32E
330
1F
100
AcDbEntity
  8
0
  6
Continuous
 62
     7
370
    15
100
AcDbLine
 10
53.1
 20
246.23
 30
0.0
 11
53.1
 21
243.03
 31
0.0
  0
LINE
  5
32F
330
1F
100
AcDbEntity
  8
0
  6
Continuous
 62
     7
370
    15
100
AcDbLine
 10
73.1
 20
243.03
 30
0.0
 11
83.3
 21
243.03
 31
0.0
  0
LINE
  5
330
330
1F
100
AcDbEntity
  8
0
  6
Continuous
 62
     7
370
    15
100
AcDbLine
 10
83.3
 20
243.03
 30
0.0
 11
83.3
 21
246.23
 31
0.0
  0
LINE
  5
331
330
1F
100
AcDbEntity
  8
0
  6
Continuous
 62
     7
370
    15
100
AcDbLine
 10
83.3
 20
246.23
 30
0.0
 11
73.1
 21
246.23
 31
0.0
  0
LINE
  5
332
330
1F
100
AcDbEntity
  8
0
  6
Continuous
 62
     7
370
    15
100
AcDbLine
 10
73.1
 20
246.23
 30
0.0
 11
73.1
 21
243.03
 31
0.0
  0
LINE
  5
333
330
1F
100
AcDbEntity
  8
0
  6
Continuous
 62
     7
370
    15
100
AcDbLine
 10
33.1
 20
243.03
 30
0.0
 11
43.3
 21
243.03
 31
0.0
  0
LINE
  5
334
330
1F
100
AcDbEntity
  8
0
  6
Continuous
 62
     7
370
    15
100
AcDbLine
 10
43.3
 20
243.03
 30
0.0
 11
43.3
 21
246.23
 31
0.0
  0
LINE
  5
335
330
1F
100
AcDbEntity
  8
0
  6
Continuous
 62
     7
370
    15
100
AcDbLine
 10
43.3
 20
246.23
 30
0.0
 11
33.1
 21
246.23
 31
0.0
  0
LINE
  5
336
330
1F
100
AcDbEntity
  8
0
  6
Continuous
 62
     7
370
    15
100
AcDbLine
 10
33.1
 20
246.23
 30
0.0
 11
33.1
 21
243.03
 31
0.0
  0
LINE
  5
337
330
1F
100
AcDbEntity
  8
0
  6
CENTERX2
 62
     7
370
     0
100
AcDbLine
 10
113.1
 20
243.03
 30
0.0
 11
123.3
 21
243.03
 31
0.0
  0
LINE
  5
338
330
1F
100
AcDbEntity
  8
0
  6
CENTERX2
 62
     7
370
     0
100
AcDbLine
 10
123.3
 20
243.03
 30
0.0
 11
123.3
 21
246.23
 31
0.0
  0
LINE
  5
339
330
1F
100
AcDbEntity
  8
0
  6
CENTERX2
 62
     7
370
     0
100
AcDbLine
 10
123.3
 20
246.23
 30
0.0
 11
113.1
 21
246.23
 31
0.0
  0
LINE
  5
33A
330
1F
100
AcDbEntity
  8
0
  6
CENTERX2
 62
     7
370
     0
100
AcDbLine
 10
113.1
 20
246.23
 30
0.0
 11
113.1
 21
243.03
 31
0.0
  0
LINE
  5
33B
330
1F
100
AcDbEntity
  8
0
  6
CENTERX2
 62
     7
370
     0
100
AcDbLine
 10
103.3
 20
243.03
 30
0.0
 11
103.3
 21
246.23
 31
0.0
  0
LINE
  5
33C
330
1F
100
AcDbEntity
  8
0
  6
CENTERX2
 62
     7
370
     0
100
AcDbLine
 10
103.3
 20
246.23
 30
0.0
 11
93.1
 21
246.23
 31
0.0
  0
LINE
  5
33D
330
1F
100
AcDbEntity
  8
0
  6
CENTERX2
 62
     7
370
     0
100
AcDbLine
 10
93.1
 20
246.23
 30
0.0
 11
93.1
 21
243.03
 31
0.0
  0
LINE
  5
33E
330
1F
100
AcDbEntity
  8
0
  6
CENTERX2
 62
     7
370
     0
100
AcDbLine
 10
93.1
 20
243.03
 30
0.0
 11
103.3
 21
243.03
 31
0.0
  0
LINE
  5
33F
330
1F
100
AcDbEntity
  8
0
  6
CENTERX2
 62
     7
370
     0
100
AcDbLine
 10
73.1
 20
243.03
 30
0.0
 11
83.3
 21
243.03
 31
0.0
  0
LINE
  5
340
330
1F
100
AcDbEntity
  8
0
  6
CENTERX2
 62
     7
370
     0
100
AcDbLine
 10
83.3
 20
243.03
 30
0.0
 11
83.3
 21
246.23
 31
0.0
  0
LINE
  5
341
330
1F
100
AcDbEntity
  8
0
  6
CENTERX2
 62
     7
370
     0
100
AcDbLine
 10
83.3
 20
246.23
 30
0.0
 11
73.1
 21
246.23
 31
0.0
  0
LINE
  5
342
330
1F
100
AcDbEntity
  8
0
  6
CENTERX2
 62
     7
370
     0
100
AcDbLine
 10
73.1
 20
246.23
 30
0.0
 11
73.1
 21
243.03
 31
0.0
  0
LINE
  5
343
330
1F
100
AcDbEntity
  8
0
  6
CENTERX2
 62
     7
370
     0
100
AcDbLine
 10
63.3
 20
243.03
 30
0.0
 11
63.3
 21
246.23
 31
0.0
  0
LINE
  5
344
330
1F
100
AcDbEntity
  8
0
  6
CENTERX2
 62
     7
370
     0
100
AcDbLine
 10
63.3
 20
246.23
 30
0.0
 11
53.1
 21
246.23
 31
0.0
  0
LINE
  5
345
330
1F
100
AcDbEntity
  8
0
  6
CENTERX2
 62
     7
370
     0
100
AcDbLine
 10
53.1
 20
246.23
 30
0.0
 11
53.1
 21
243.03
 31
0.0
  0
LINE
  5
346
330
1F
100
AcDbEntity
  8
0
  6
CENTERX2
 62
     7
370
     0
100
AcDbLine
 10
53.1
 20
243.03
 30
0.0
 11
63.3
 21
243.03
 31
0.0
  0
LINE
  5
347
330
1F
100
AcDbEntity
  8
0
  6
CENTERX2
 62
     7
370
     0
100
AcDbLine
 10
33.1
 20
243.03
 30
0.0
 11
43.3
 21
243.03
 31
0.0
  0
LINE
  5
348
330
1F
100
AcDbEntity
  8
0
  6
CENTERX2
 62
     7
370
     0
100
AcDbLine
 10
43.3
 20
243.03
 30
0.0
 11
43.3
 21
246.23
 31
0.0
  0
LINE
  5
349
330
1F
100
AcDbEntity
  8
0
  6
CENTERX2
 62
     7
370
     0
100
AcDbLine
 10
43.3
 20
246.23
 30
0.0
 11
33.1
 21
246.23
 31
0.0
  0
LINE
  5
34A
330
1F
100
AcDbEntity
  8
0
  6
CENTERX2
 62
     7
370
     0
100
AcDbLine
 10
33.1
 20
246.23
 30
0.0
 11
33.1
 21
243.03
 31
0.0
  0
LINE
  5
34B
330
1F
100
AcDbEntity
  8
0
  6
Continuous
 62
     7
370
     0
100
AcDbLine
 10
43.2
 20
251.73
 30
0.0
 11
33.2
 21
251.73
 31
0.0
  0
LINE
  5
34C
330
1F
100
AcDbEntity
  8
0
  6
Continuous
 62
     7
370
     0
100
AcDbLine
 10
33.2
 20
251.73
 30
0.0
 11
33.2
 21
254.83
 31
0.0
  0
LINE
  5
34D
330
1F
100
AcDbEntity
  8
0
  6
Continuous
 62
     7
370
     0
100
AcDbLine
 10
33.2
 20
254.83
 30
0.0
 11
25.8277828983
 21
254.83
 31
0.0
  0
LINE
  5
34E
330
1F
100
AcDbEntity
  8
0
  6
Continuous
 62
     7
370
     0
100
AcDbLine
 10
25.8277828983
 20
254.83
 30
0.0
 11
25.8277828983
 21
246.0133333333
 31
0.0
  0
LINE
  5
34F
330
1F
100
AcDbEntity
  8
0
  6
Continuous
 62
     7
370
     0
100
AcDbLine
 10
25.8277828983
 20
246.0133333333
 30
0.0
 11
22.7277828983
 21
246.0133333333
 31
0.0
  0
LINE
  5
350
330
1F
100
AcDbEntity
  8
0
  6
Continuous
 62
     7
370
     0
100
AcDbLine
 10
22.7277828983
 20
246.0133333333
 30
0.0
 11
22.7277828983
 21
237.1966666667
 31
0.0
  0
LINE
  5
351
330
1F
100
AcDbEntity
  8
0
  6
Continuous
 62
     7
370
     0
100
AcDbLine
 10
22.7277828983
 20
237.1966666667
 30
0.0
 11
25.8277828983
 21
237.1966666667
 31
0.0
  0
LINE
  5
352
330
1F
100
AcDbEntity
  8
0
  6
Continuous
 62
     7
370
     0
100
AcDbLine
 10
25.8277828983
 20
237.1966666667
 30
0.0
 11
25.8277828983
 21
228.68
 31
0.0
  0
LINE
  5
353
330
1F
100
AcDbEntity
  8
0
  6
Continuous
 62
     7
370
     0
100
AcDbLine
 10
25.8277828983
 20
228.68
 30
0.0
 11
22.7277828983
 21
228.68
 31
0.0
  0
LINE
  5
354
330
1F
100
AcDbEntity
  8
0
  6
Continuous
 62
     7
370
     0
100
AcDbLine
 10
22.7277828983
 20
228.68
 30
0.0
 11
22.7277828983
 21
219.7633333333
 31
0.0
  0
LINE
  5
355
330
1F
100
AcDbEntity
  8
0
  6
Continuous
 62
     7
370
     0
100
AcDbLine
 10
22.7277828983
 20
219.7633333333
 30
0.0
 11
25.8277828983
 21
219.7633333333
 31
0.0
  0
LINE
  5
356
330
1F
100
AcDbEntity
  8
0
  6
Continuous
 62
     7
370
     0
100
AcDbLine
 10
25.8277828983
 20
219.7633333333
 30
0.0
 11
25.8277828983
 21
211.2466666667
 31
0.0
  0
LINE
  5
357
330
1F
100
AcDbEntity
  8
0
  6
Continuous
 62
     7
370
     0
100
AcDbLine
 10
25.8277828983
 20
211.2466666667
 30
0.0
 11
22.7277828983
 21
211.2466666667
 31
0.0
  0
LINE
  5
358
330
1F
100
AcDbEntity
  8
0
  6
Continuous
 62
     7
370
     0
100
AcDbLine
 10
22.7277828983
 20
211.2466666667
 30
0.0
 11
22.7277828983
 21
202.33
 31
0.0
  0
LINE
  5
359
330
1F
100
AcDbEntity
  8
0
  6
Continuous
 62
     7
370
     0
100
AcDbLine
 10
22.7277828983
 20
202.33
 30
0.0
 11
37.9277828983
 21
202.33
 31
0.0
  0
LINE
  5
35A
330
1F
100
AcDbEntity
  8
0
  6
Continuous
 62
     7
370
     0
100
AcDbLine
 10
37.9277828983
 20
202.33
 30
0.0
 11
37.9277828983
 21
232.33
 31
0.0
  0
LINE
  5
35B
330
1F
100
AcDbEntity
  8
0
  6
Continuous
 62
     7
370
     0
100
AcDbLine
 10
37.9277828983
 20
232.33
 30
0.0
 11
53.2
 21
232.33
 31
0.0
  0
LINE
  5
35C
330
1F
100
AcDbEntity
  8
0
  6
Continuous
 62
     7
370
     0
100
AcDbLine
 10
53.2
 20
232.33
 30
0.0
 11
53.2
 21
235.43
 31
0.0
  0
LINE
  5
35D
330
1F
100
AcDbEntity
  8
0
  6
Continuous
 62
     7
370
     0
100
AcDbLine
 10
53.2
 20
235.43
 30
0.0
 11
63.2
 21
235.43
 31
0.0
  0
LINE
  5
35E
330
1F
100
AcDbEntity
  8
0
  6
Continuous
 62
     7
370
     0
100
AcDbLine
 10
63.2
 20
235.43
 30
0.0
 11
63.2
 21
232.33
 31
0.0
  0
LINE
  5
35F
330
1F
100
AcDbEntity
  8
0
  6
CENTERX2
 62
     7
370
     0
100
AcDbLine
 10
130.4722171017
 20
251.63
 30
0.0
 11
130.4722171017
 21
254.73
 31
0.0
  0
LINE
  5
360
330
1F
100
AcDbEntity
  8
0
  6
CENTERX2
 62
     7
370
     0
100
AcDbLine
 10
130.4722171017
 20
254.73
 30
0.0
 11
123.3
 21
254.73
 31
0.0
  0
LINE
  5
361
330
1F
100
AcDbEntity
  8
0
  6
CENTERX2
 62
     7
370
     0
100
AcDbLine
 10
123.3
 20
254.73
 30
0.0
 11
123.3
 21
251.63
 31
0.0
  0
LINE
  5
362
330
1F
100
AcDbEntity
  8
0
  6
CENTERX2
 62
     7
370
     0
100
AcDbLine
 10
123.3
 20
251.63
 30
0.0
 11
113.1
 21
251.63
 31
0.0
  0
LINE
  5
363
330
1F
100
AcDbEntity
  8
0
  6
CENTERX2
 62
     7
370
     0
100
AcDbLine
 10
113.1
 20
251.63
 30
0.0
 11
113.1
 21
254.73
 31
0.0
  0
LINE
  5
364
330
1F
100
AcDbEntity
  8
0
  6
CENTERX2
 62
     7
370
     0
100
AcDbLine
 10
113.1
 20
254.73
 30
0.0
 11
103.3
 21
254.73
 31
0.0
  0
LINE
  5
365
330
1F
100
AcDbEntity
  8
0
  6
CENTERX2
 62
     7
370
     0
100
AcDbLine
 10
103.3
 20
254.73
 30
0.0
 11
103.3
 21
251.63
 31
0.0
  0
LINE
  5
366
330
1F
100
AcDbEntity
  8
0
  6
CENTERX2
 62
     7
370
     0
100
AcDbLine
 10
103.3
 20
251.63
 30
0.0
 11
93.1
 21
251.63
 31
0.0
  0
LINE
  5
367
330
1F
100
AcDbEntity
  8
0
  6
CENTERX2
 62
     7
370
     0
100
AcDbLine
 10
93.1
 20
251.63
 30
0.0
 11
93.1
 21
254.73
 31
0.0
  0
LINE
  5
368
330
1F
100
AcDbEntity
  8
0
  6
CENTERX2
 62
     7
370
     0
100
AcDbLine
 10
93.1
 20
254.73
 30
0.0
 11
83.3
 21
254.73
 31
0.0
  0
LINE
  5
369
330
1F
100
AcDbEntity
  8
0
  6
CENTERX2
 62
     7
370
     0
100
AcDbLine
 10
83.3
 20
254.73
 30
0.0
 11
83.3
 21
251.63
 31
0.0
  0
LINE
  5
36A
330
1F
100
AcDbEntity
  8
0
  6
CENTERX2
 62
     7
370
     0
100
AcDbLine
 10
83.3
 20
251.63
 30
0.0
 11
73.1
 21
251.63
 31
0.0
  0
LINE
  5
36B
330
1F
100
AcDbEntity
  8
0
  6
CENTERX2
 62
     7
370
     0
100
AcDbLine
 10
73.1
 20
251.63
 30
0.0
 11
73.1
 21
254.73
 31
0.0
  0
LINE
  5
36C
330
1F
100
AcDbEntity
  8
0
  6
CENTERX2
 62
     7
370
     0
100
AcDbLine
 10
73.1
 20
254.73
 30
0.0
 11
63.3
 21
254.73
 31
0.0
  0
LINE
  5
36D
330
1F
100
AcDbEntity
  8
0
  6
CENTERX2
 62
     7
370
     0
100
AcDbLine
 10
63.3
 20
254.73
 30
0.0
 11
63.3
 21
251.63
 31
0.0
  0
LINE
  5
36E
330
1F
100
AcDbEntity
  8
0
  6
CENTERX2
 62
     7
370
     0
100
AcDbLine
 10
63.3
 20
251.63
 30
0.0
 11
53.1
 21
251.63
 31
0.0
  0
LINE
  5
36F
330
1F
100
AcDbEntity
  8
0
  6
CENTERX2
 62
     7
370
     0
100
AcDbLine
 10
53.1
 20
251.63
 30
0.0
 11
53.1
 21
254.73
 31
0.0
  0
LINE
  5
370
330
1F
100
AcDbEntity
  8
0
  6
CENTERX2
 62
     7
370
     0
100
AcDbLine
 10
53.1
 20
254.73
 30
0.0
 11
43.3
 21
254.73
 31
0.0
  0
LINE
  5
371
330
1F
100
AcDbEntity
  8
0
  6
CENTERX2
 62
     7
370
     0
100
AcDbLine
 10
43.3
 20
254.73
 30
0.0
 11
43.3
 21
251.63
 31
0.0
  0
LINE
  5
372
330
1F
100
AcDbEntity
  8
0
  6
CENTERX2
 62
     7
370
     0
100
AcDbLine
 10
43.3
 20
251.63
 30
0.0
 11
33.1
 21
251.63
 31
0.0
  0
LINE
  5
373
330
1F
100
AcDbEntity
  8
0
  6
CENTERX2
 62
     7
370
     0
100
AcDbLine
 10
33.1
 20
251.63
 30
0.0
 11
33.1
 21
254.73
 31
0.0
  0
LINE
  5
374
330
1F
100
AcDbEntity
  8
0
  6
CENTERX2
 62
     7
370
     0
100
AcDbLine
 10
33.1
 20
254.73
 30
0.0
 11
25.9277828983
 21
254.73
 31
0.0
  0
LINE
  5
375
330
1F
100
AcDbEntity
  8
0
  6
CENTERX2
 62
     7
370
     0
100
AcDbLine
 10
25.9277828983
 20
254.73
 30
0.0
 11
25.9277828983
 21
245.9133333333
 31
0.0
  0
LINE
  5
376
330
1F
100
AcDbEntity
  8
0
  6
CENTERX2
 62
     7
370
     0
100
AcDbLine
 10
25.9277828983
 20
245.9133333333
 30
0.0
 11
22.8277828983
 21
245.9133333333
 31
0.0
  0
LINE
  5
377
330
1F
100
AcDbEntity
  8
0
  6
CENTERX2
 62
     7
370
     0
100
AcDbLine
 10
22.8277828983
 20
245.9133333333
 30
0.0
 11
22.8277828983
 21
237.2966666667
 31
0.0
  0
LINE
  5
378
330
1F
100
AcDbEntity
  8
0
  6
CENTERX2
 62
     7
370
     0
100
AcDbLine
 10
22.8277828983
 20
237.2966666667
 30
0.0
 11
25.9277828983
 21
237.2966666667
 31
0.0
  0
LINE
  5
379
330
1F
100
AcDbEntity
  8
0
  6
CENTERX2
 62
     7
370
     0
100
AcDbLine
 10
25.9277828983
 20
237.2966666667
 30
0.0
 11
25.9277828983
 21
228.58
 31
0.0
  0
LINE
  5
37A
330
1F
100
AcDbEntity
  8
0
  6
CENTERX2
 62
     7
370
     0
100
AcDbLine
 10
25.9277828983
 20
228.58
 30
0.0
 11
22.8277828983
 21
228.58
 31
0.0
  0
LINE
  5
37B
330
1F
100
AcDbEntity
  8
0
  6
CENTERX2
 62
     7
370
     0
100
AcDbLine
 10
22.8277828983
 20
228.58
 30
0.0
 11
22.8277828983
 21
219.8633333333
 31
0.0
  0
LINE
  5
37C
330
1F
100
AcDbEntity
  8
0
  6
CENTERX2
 62
     7
370
     0
100
AcDbLine
 10
22.8277828983
 20
219.8633333333
 30
0.0
 11
25.9277828983
 21
219.8633333333
 31
0.0
  0
LINE
  5
37D
330
1F
100
AcDbEntity
  8
0
  6
CENTERX2
 62
     7
370
     0
100
AcDbLine
 10
25.9277828983
 20
219.8633333333
 30
0.0
 11
25.9277828983
 21
211.1466666667
 31
0.0
  0
LINE
  5
37E
330
1F
100
AcDbEntity
  8
0
  6
CENTERX2
 62
     7
370
     0
100
AcDbLine
 10
25.9277828983
 20
211.1466666667
 30
0.0
 11
22.8277828983
 21
211.1466666667
 31
0.0
  0
LINE
  5
37F
330
1F
100
AcDbEntity
  8
0
  6
CENTERX2
 62
     7
370
     0
100
AcDbLine
 10
22.8277828983
 20
211.1466666667
 30
0.0
 11
22.8277828983
 21
202.43
 31
0.0
  0
LINE
  5
380
330
1F
100
AcDbEntity
  8
0
  6
CENTERX2
 62
     7
370
     0
100
AcDbLine
 10
22.8277828983
 20
202.43
 30
0.0
 11
37.8277828983
 21
202.43
 31
0.0
  0
LINE
  5
381
330
1F
100
AcDbEntity
  8
0
  6
CENTERX2
 62
     7
370
     0
100
AcDbLine
 10
37.8277828983
 20
202.43
 30
0.0
 11
37.8277828983
 21
232.43
 31
0.0
  0
LINE
  5
382
330
1F
100
AcDbEntity
  8
0
  6
CENTERX2
 62
     7
370
     0
100
AcDbLine
 10
37.8277828983
 20
232.43
 30
0.0
 11
53.1
 21
232.43
 31
0.0
  0
LINE
  5
383
330
1F
100
AcDbEntity
  8
0
  6
CENTERX2
 62
     7
370
     0
100
AcDbLine
 10
53.1
 20
232.43
 30
0.0
 11
53.1
 21
235.53
 31
0.0
  0
LINE
  5
384
330
1F
100
AcDbEntity
  8
0
  6
CENTERX2
 62
     7
370
     0
100
AcDbLine
 10
53.1
 20
235.53
 30
0.0
 11
63.3
 21
235.53
 31
0.0
  0
LINE
  5
385
330
1F
100
AcDbEntity
  8
0
  6
CENTERX2
 62
     7
370
     0
100
AcDbLine
 10
63.3
 20
235.53
 30
0.0
 11
63.3
 21
232.43
 31
0.0
  0
LINE
  5
386
330
1F
100
AcDbEntity
  8
0
  6
CENTERX2
 62
     7
370
     0
100
AcDbLine
 10
63.3
 20
232.43
 30
0.0
 11
73.1
 21
232.43
 31
0.0
  0
LINE
  5
387
330
1F
100
AcDbEntity
  8
0
  6
CENTERX2
 62
     7
370
     0
100
AcDbLine
 10
73.1
 20
232.43
 30
0.0
 11
73.1
 21
235.53
 31
0.0
  0
LINE
  5
388
330
1F
100
AcDbEntity
  8
0
  6
CENTERX2
 62
     7
370
     0
100
AcDbLine
 10
73.1
 20
235.53
 30
0.0
 11
83.3
 21
235.53
 31
0.0
  0
LINE
  5
389
330
1F
100
AcDbEntity
  8
0
  6
CENTERX2
 62
     7
370
     0
100
AcDbLine
 10
83.3
 20
235.53
 30
0.0
 11
83.3
 21
232.43
 31
0.0
  0
LINE
  5
38A
330
1F
100
AcDbEntity
  8
0
  6
CENTERX2
 62
     7
370
     0
100
AcDbLine
 10
83.3
 20
232.43
 30
0.0
 11
93.1
 21
232.43
 31
0.0
  0
LINE
  5
38B
330
1F
100
AcDbEntity
  8
0
  6
CENTERX2
 62
     7
370
     0
100
AcDbLine
 10
93.1
 20
232.43
 30
0.0
 11
93.1
 21
235.53
 31
0.0
  0
LINE
  5
38C
330
1F
100
AcDbEntity
  8
0
  6
CENTERX2
 62
     7
370
     0
100
AcDbLine
 10
93.1
 20
235.53
 30
0.0
 11
103.3
 21
235.53
 31
0.0
  0
LINE
  5
38D
330
1F
100
AcDbEntity
  8
0
  6
CENTERX2
 62
     7
370
     0
100
AcDbLine
 10
103.3
 20
235.53
 30
0.0
 11
103.3
 21
232.43
 31
0.0
  0
LINE
  5
38E
330
1F
100
AcDbEntity
  8
0
  6
CENTERX2
 62
     7
370
     0
100
AcDbLine
 10
103.3
 20
232.43
 30
0.0
 11
118.5722171017
 21
232.43
 31
0.0
  0
LINE
  5
38F
330
1F
100
AcDbEntity
  8
0
  6
CENTERX2
 62
     7
370
     0
100
AcDbLine
 10
118.5722171017
 20
232.43
 30
0.0
 11
118.5722171017
 21
202.43
 31
0.0
  0
LINE
  5
390
330
1F
100
AcDbEntity
  8
0
  6
CENTERX2
 62
     7
370
     0
100
AcDbLine
 10
118.5722171017
 20
202.43
 30
0.0
 11
133.5722171017
 21
202.43
 31
0.0
  0
LINE
  5
391
330
1F
100
AcDbEntity
  8
0
  6
CENTERX2
 62
     7
370
     0
100
AcDbLine
 10
133.5722171017
 20
202.43
 30
0.0
 11
133.5722171017
 21
211.1466666667
 31
0.0
  0
LINE
  5
392
330
1F
100
AcDbEntity
  8
0
  6
CENTERX2
 62
     7
370
     0
100
AcDbLine
 10
133.5722171017
 20
211.1466666667
 30
0.0
 11
130.4722171017
 21
211.1466666667
 31
0.0
  0
LINE
  5
393
330
1F
100
AcDbEntity
  8
0
  6
CENTERX2
 62
     7
370
     0
100
AcDbLine
 10
130.4722171017
 20
211.1466666667
 30
0.0
 11
130.4722171017
 21
219.8633333333
 31
0.0
  0
LINE
  5
394
330
1F
100
AcDbEntity
  8
0
  6
CENTERX2
 62
     7
370
     0
100
AcDbLine
 10
130.4722171017
 20
219.8633333333
 30
0.0
 11
133.5722171017
 21
219.8633333333
 31
0.0
  0
LINE
  5
395
330
1F
100
AcDbEntity
  8
0
  6
CENTERX2
 62
     7
370
     0
100
AcDbLine
 10
133.5722171017
 20
219.8633333333
 30
0.0
 11
133.5722171017
 21
228.58
 31
0.0
  0
LINE
  5
396
330
1F
100
AcDbEntity
  8
0
  6
CENTERX2
 62
     7
370
     0
100
AcDbLine
 10
133.5722171017
 20
228.58
 30
0.0
 11
130.4722171017
 21
228.58
 31
0.0
  0
LINE
  5
397
330
1F
100
AcDbEntity
  8
0
  6
CENTERX2
 62
     7
370
     0
100
AcDbLine
 10
130.4722171017
 20
228.58
 30
0.0
 11
130.4722171017
 21
237.2966666667
 31
0.0
  0
LINE
  5
398
330
1F
100
AcDbEntity
  8
0
  6
CENTERX2
 62
     7
370
     0
100
AcDbLine
 10
130.4722171017
 20
237.2966666667
 30
0.0
 11
133.5722171017
 21
237.2966666667
 31
0.0
  0
LINE
  5
399
330
1F
100
AcDbEntity
  8
0
  6
CENTERX2
 62
     7
370
     0
100
AcDbLine
 10
133.5722171017
 20
237.2966666667
 30
0.0
 11
133.5722171017
 21
251.63
 31
0.0
  0
LINE
  5
39A
330
1F
100
AcDbEntity
  8
0
  6
CENTERX2
 62
     7
370
     0
100
AcDbLine
 10
133.5722171017
 20
251.63
 30
0.0
 11
130.4722171017
 21
251.63
 31
0.0
  0
LINE
  5
39B
330
1F
100
AcDbEntity
  8
0
  6
Continuous
 62
     7
370
     0
100
AcDbLine
 10
63.2
 20
232.33
 30
0.0
 11
73.2
 21
232.33
 31
0.0
  0
LINE
  5
39C
330
1F
100
AcDbEntity
  8
0
  6
Continuous
 62
     7
370
     0
100
AcDbLine
 10
73.2
 20
232.33
 30
0.0
 11
73.2
 21
235.43
 31
0.0
  0
LINE
  5
39D
330
1F
100
AcDbEntity
  8
0
  6
Continuous
 62
     7
370
     0
100
AcDbLine
 10
73.2
 20
235.43
 30
0.0
 11
83.2
 21
235.43
 31
0.0
  0
LINE
  5
39E
330
1F
100
AcDbEntity
  8
0
  6
Continuous
 62
     7
370
     0
100
AcDbLine
 10
83.2
 20
235.43
 30
0.0
 11
83.2
 21
232.33
 31
0.0
  0
LINE
  5
39F
330
1F
100
AcDbEntity
  8
0
  6
Continuous
 62
     7
370
     0
100
AcDbLine
 10
83.2
 20
232.33
 30
0.0
 11
93.2
 21
232.33
 31
0.0
  0
LINE
  5
3A0
330
1F
100
AcDbEntity
  8
0
  6
Continuous
 62
     7
370
     0
100
AcDbLine
 10
93.2
 20
232.33
 30
0.0
 11
93.2
 21
235.43
 31
0.0
  0
LINE
  5
3A1
330
1F
100
AcDbEntity
  8
0
  6
Continuous
 62
     7
370
     0
100
AcDbLine
 10
93.2
 20
235.43
 30
0.0
 11
103.2
 21
235.43
 31
0.0
  0
LINE
  5
3A2
330
1F
100
AcDbEntity
  8
0
  6
Continuous
 62
     7
370
     0
100
AcDbLine
 10
103.2
 20
235.43
 30
0.0
 11
103.2
 21
232.33
 31
0.0
  0
LINE
  5
3A3
330
1F
100
AcDbEntity
  8
0
  6
Continuous
 62
     7
370
     0
100
AcDbLine
 10
103.2
 20
232.33
 30
0.0
 11
118.4722171017
 21
232.33
 31
0.0
  0
LINE
  5
3A4
330
1F
100
AcDbEntity
  8
0
  6
Continuous
 62
     7
370
     0
100
AcDbLine
 10
118.4722171017
 20
232.33
 30
0.0
 11
118.4722171017
 21
202.33
 31
0.0
  0
LINE
  5
3A5
330
1F
100
AcDbEntity
  8
0
  6
Continuous
 62
     7
370
     0
100
AcDbLine
 10
118.4722171017
 20
202.33
 30
0.0
 11
133.6722171017
 21
202.33
 31
0.0
  0
LINE
  5
3A6
330
1F
100
AcDbEntity
  8
0
  6
Continuous
 62
     7
370
     0
100
AcDbLine
 10
133.6722171017
 20
202.33
 30
0.0
 11
133.6722171017
 21
211.2466666667
 31
0.0
  0
LINE
  5
3A7
330
1F
100
AcDbEntity
  8
0
  6
Continuous
 62
     7
370
     0
100
AcDbLine
 10
133.6722171017
 20
211.2466666667
 30
0.0
 11
130.5722171017
 21
211.2466666667
 31
0.0
  0
LINE
  5
3A8
330
1F
100
AcDbEntity
  8
0
  6
Continuous
 62
     7
370
     0
100
AcDbLine
 10
130.5722171017
 20
211.2466666667
 30
0.0
 11
130.5722171017
 21
219.7633333333
 31
0.0
  0
LINE
  5
3A9
330
1F
100
AcDbEntity
  8
0
  6
Continuous
 62
     7
370
     0
100
AcDbLine
 10
130.5722171017
 20
219.7633333333
 30
0.0
 11
133.6722171017
 21
219.7633333333
 31
0.0
  0
LINE
  5
3AA
330
1F
100
AcDbEntity
  8
0
  6
Continuous
 62
     7
370
     0
100
AcDbLine
 10
133.6722171017
 20
219.7633333333
 30
0.0
 11
133.6722171017
 21
228.68
 31
0.0
  0
LINE
  5
3AB
330
1F
100
AcDbEntity
  8
0
  6
Continuous
 62
     7
370
     0
100
AcDbLine
 10
133.6722171017
 20
228.68
 30
0.0
 11
130.5722171017
 21
228.68
 31
0.0
  0
LINE
  5
3AC
330
1F
100
AcDbEntity
  8
0
  6
Continuous
 62
     7
370
     0
100
AcDbLine
 10
130.5722171017
 20
228.68
 30
0.0
 11
130.5722171017
 21
237.1966666667
 31
0.0
  0
LINE
  5
3AD
330
1F
100
AcDbEntity
  8
0
  6
Continuous
 62
     7
370
     0
100
AcDbLine
 10
130.5722171017
 20
237.1966666667
 30
0.0
 11
133.6722171017
 21
237.1966666667
 31
0.0
  0
LINE
  5
3AE
330
1F
100
AcDbEntity
  8
0
  6
Continuous
 62
     7
370
     0
100
AcDbLine
 10
133.6722171017
 20
237.1966666667
 30
0.0
 11
133.6722171017
 21
251.73
 31
0.0
  0
LINE
  5
3AF
330
1F
100
AcDbEntity
  8
0
  6
Continuous
 62
     7
370
     0
100
AcDbLine
 10
133.6722171017
 20
251.73
 30
0.0
 11
130.5722171017
 21
251.73
 31
0.0
  0
LINE
  5
3B0
330
1F
100
AcDbEntity
  8
0
  6
Continuous
 62
     7
370
     0
100
AcDbLine
 10
130.5722171017
 20
251.73
 30
0.0
 11
130.5722171017
 21
254.83
 31
0.0
  0
LINE
  5
3B1
330
1F
100
AcDbEntity
  8
0
  6
Continuous
 62
     7
370
     0
100
AcDbLine
 10
130.5722171017
 20
254.83
 30
0.0
 11
123.2
 21
254.83
 31
0.0
  0
LINE
  5
3B2
330
1F
100
AcDbEntity
  8
0
  6
Continuous
 62
     7
370
     0
100
AcDbLine
 10
123.2
 20
254.83
 30
0.0
 11
123.2
 21
251.73
 31
0.0
  0
LINE
  5
3B3
330
1F
100
AcDbEntity
  8
0
  6
Continuous
 62
     7
370
     0
100
AcDbLine
 10
123.2
 20
251.73
 30
0.0
 11
113.2
 21
251.73
 31
0.0
  0
LINE
  5
3B4
330
1F
100
AcDbEntity
  8
0
  6
Continuous
 62
     7
370
     0
100
AcDbLine
 10
113.2
 20
251.73
 30
0.0
 11
113.2
 21
254.83
 31
0.0
  0
LINE
  5
3B5
330
1F
100
AcDbEntity
  8
0
  6
Continuous
 62
     7
370
     0
100
AcDbLine
 10
113.2
 20
254.83
 30
0.0
 11
103.2
 21
254.83
 31
0.0
  0
LINE
  5
3B6
330
1F
100
AcDbEntity
  8
0
  6
Continuous
 62
     7
370
     0
100
AcDbLine
 10
103.2
 20
254.83
 30
0.0
 11
103.2
 21
251.73
 31
0.0
  0
LINE
  5
3B7
330
1F
100
AcDbEntity
  8
0
  6
Continuous
 62
     7
370
     0
100
AcDbLine
 10
103.2
 20
251.73
 30
0.0
 11
93.2
 21
251.73
 31
0.0
  0
LINE
  5
3B8
330
1F
100
AcDbEntity
  8
0
  6
Continuous
 62
     7
370
     0
100
AcDbLine
 10
93.2
 20
251.73
 30
0.0
 11
93.2
 21
254.83
 31
0.0
  0
LINE
  5
3B9
330
1F
100
AcDbEntity
  8
0
  6
Continuous
 62
     7
370
     0
100
AcDbLine
 10
93.2
 20
254.83
 30
0.0
 11
83.2
 21
254.83
 31
0.0
  0
LINE
  5
3BA
330
1F
100
AcDbEntity
  8
0
  6
Continuous
 62
     7
370
     0
100
AcDbLine
 10
83.2
 20
254.83
 30
0.0
 11
83.2
 21
251.73
 31
0.0
  0
LINE
  5
3BB
330
1F
100
AcDbEntity
  8
0
  6
Continuous
 62
     7
370
     0
100
AcDbLine
 10
83.2
 20
251.73
 30
0.0
 11
73.2
 21
251.73
 31
0.0
  0
LINE
  5
3BC
330
1F
100
AcDbEntity
  8
0
  6
Continuous
 62
     7
370
     0
100
AcDbLine
 10
73.2
 20
251.73
 30
0.0
 11
73.2
 21
254.83
 31
0.0
  0
LINE
  5
3BD
330
1F
100
AcDbEntity
  8
0
  6
Continuous
 62
     7
370
     0
100
AcDbLine
 10
73.2
 20
254.83
 30
0.0
 11
63.2
 21
254.83
 31
0.0
  0
LINE
  5
3BE
330
1F
100
AcDbEntity
  8
0
  6
Continuous
 62
     7
370
     0
100
AcDbLine
 10
63.2
 20
254.83
 30
0.0
 11
63.2
 21
251.73
 31
0.0
  0
LINE
  5
3BF
330
1F
100
AcDbEntity
  8
0
  6
Continuous
 62
     7
370
     0
100
AcDbLine
 10
63.2
 20
251.73
 30
0.0
 11
53.2
 21
251.73
 31
0.0
  0
LINE
  5
3C0
330
1F
100
AcDbEntity
  8
0
  6
Continuous
 62
     7
370
     0
100
AcDbLine
 10
53.2
 20
251.73
 30
0.0
 11
53.2
 21
254.83
 31
0.0
  0
LINE
  5
3C1
330
1F
100
AcDbEntity
  8
0
  6
Continuous
 62
     7
370
     0
100
AcDbLine
 10
53.2
 20
254.83
 30
0.0
 11
43.2
 21
254.83
 31
0.0
  0
LINE
  5
3C2
330
1F
100
AcDbEntity
  8
0
  6
Continuous
 62
     7
370
     0
100
AcDbLine
 10
43.2
 20
254.83
 30
0.0
 11
43.2
 21
251.73
 31
0.0
  0
LINE
  5
3C3
330
1F
100
AcDbEntity
  8
0
  6
Continuous
 62
     7
370
     0
100
AcDbLine
 10
43.2
 20
246.13
 30
0.0
 11
33.2
 21
246.13
 31
0.0
  0
LINE
  5
3C4
330
1F
100
AcDbEntity
  8
0
  6
Continuous
 62
     7
370
     0
100
AcDbLine
 10
33.2
 20
246.13
 30
0.0
 11
33.2
 21
243.13
 31
0.0
  0
LINE
  5
3C5
330
1F
100
AcDbEntity
  8
0
  6
Continuous
 62
     7
370
     0
100
AcDbLine
 10
33.2
 20
243.13
 30
0.0
 11
43.2
 21
243.13
 31
0.0
  0
LINE
  5
3C6
330
1F
100
AcDbEntity
  8
0
  6
Continuous
 62
     7
370
     0
100
AcDbLine
 10
43.2
 20
243.13
 30
0.0
 11
43.2
 21
246.13
 31
0.0
  0
LINE
  5
3C7
330
1F
100
AcDbEntity
  8
0
  6
Continuous
 62
     7
370
     0
100
AcDbLine
 10
63.2
 20
246.13
 30
0.0
 11
53.2
 21
246.13
 31
0.0
  0
LINE
  5
3C8
330
1F
100
AcDbEntity
  8
0
  6
Continuous
 62
     7
370
     0
100
AcDbLine
 10
53.2
 20
246.13
 30
0.0
 11
53.2
 21
243.13
 31
0.0
  0
LINE
  5
3C9
330
1F
100
AcDbEntity
  8
0
  6
Continuous
 62
     7
370
     0
100
AcDbLine
 10
53.2
 20
243.13
 30
0.0
 11
63.2
 21
243.13
 31
0.0
  0
LINE
  5
3CA
330
1F
100
AcDbEntity
  8
0
  6
Continuous
 62
     7
370
     0
100
AcDbLine
 10
63.2
 20
243.13
 30
0.0
 11
63.2
 21
246.13
 31
0.0
  0
LINE
  5
3CB
330
1F
100
AcDbEntity
  8
0
  6
Continuous
 62
     7
370
     0
100
AcDbLine
 10
113.2
 20
243.13
 30
0.0
 11
123.2
 21
243.13
 31
0.0
  0
LINE
  5
3CC
330
1F
100
AcDbEntity
  8
0
  6
Continuous
 62
     7
370
     0
100
AcDbLine
 10
123.2
 20
243.13
 30
0.0
 11
123.2
 21
246.13
 31
0.0
  0
LINE
  5
3CD
330
1F
100
AcDbEntity
  8
0
  6
Continuous
 62
     7
370
     0
100
AcDbLine
 10
123.2
 20
246.13
 30
0.0
 11
113.2
 21
246.13
 31
0.0
  0
LINE
  5
3CE
330
1F
100
AcDbEntity
  8
0
  6
Continuous
 62
     7
370
     0
100
AcDbLine
 10
113.2
 20
246.13
 30
0.0
 11
113.2
 21
243.13
 31
0.0
  0
LINE
  5
3CF
330
1F
100
AcDbEntity
  8
0
  6
Continuous
 62
     7
370
     0
100
AcDbLine
 10
103.2
 20
246.13
 30
0.0
 11
93.2
 21
246.13
 31
0.0
  0
LINE
  5
3D0
330
1F
100
AcDbEntity
  8
0
  6
Continuous
 62
     7
370
     0
100
AcDbLine
 10
93.2
 20
246.13
 30
0.0
 11
93.2
 21
243.13
 31
0.0
  0
LINE
  5
3D1
330
1F
100
AcDbEntity
  8
0
  6
Continuous
 62
     7
370
     0
100
AcDbLine
 10
93.2
 20
243.13
 30
0.0
 11
103.2
 21
243.13
 31
0.0
  0
LINE
  5
3D2
330
1F
100
AcDbEntity
  8
0
  6
Continuous
 62
     7
370
     0
100
AcDbLine
 10
103.2
 20
243.13
 30
0.0
 11
103.2
 21
246.13
 31
0.0
  0
LINE
  5
3D3
330
1F
100
AcDbEntity
  8
0
  6
Continuous
 62
     7
370
     0
100
AcDbLine
 10
83.2
 20
246.13
 30
0.0
 11
73.2
 21
246.13
 31
0.0
  0
LINE
  5
3D4
330
1F
100
AcDbEntity
  8
0
  6
Continuous
 62
     7
370
     0
100
AcDbLine
 10
73.2
 20
246.13
 30
0.0
 11
73.2
 21
243.13
 31
0.0
  0
LINE
  5
3D5
330
1F
100
AcDbEntity
  8
0
  6
Continuous
 62
     7
370
     0
100
AcDbLine
 10
73.2
 20
243.13
 30
0.0
 11
83.2
 21
243.13
 31
0.0
  0
LINE
  5
3D6
330
1F
100
AcDbEntity
  8
0
  6
Continuous
 62
     7
370
     0
100
AcDbLine
 10
83.2
 20
243.13
 30
0.0
 11
83.2
 21
246.13
 31
0.0
  0
DIMENSION
  5
3D7
330
1F
100
AcDbEntity
  8
0
  6
Continuous
 62
     7
370
     0
100
AcDbDimension
  2
_D_6
 10
45.9499354467
 20
251.63
 30
0.0
 11
45.9499354467
 21
264.73
 31
0.0
 70
   160
  1
<>
 71
     2
 42
-1.0
  3
SLDDIMSTYLE0
100
AcDbAlignedDimension
 13
38.2
 23
251.73
 33
0.0
 14
38.2
 24
251.63
 34
0.0
 50
90.0
100
AcDbRotatedDimension
  0
DIMENSION
  5
3E3
330
1F
100
AcDbEntity
  8
0
  6
Continuous
 62
     7
370
     0
100
AcDbDimension
  2
_D_7
 10
31.034918192
 20
246.23
 30
0.0
 11
31.034918192
 21
236.1645252967
 31
0.0
 70
   160
  1
<>
 71
     2
 42
-1.0
  3
SLDDIMSTYLE0
100
AcDbAlignedDimension
 13
38.2
 23
246.13
 33
0.0
 14
38.2
 24
246.23
 34
0.0
 50
90.0
100
AcDbRotatedDimension
  0
LINE
  5
3EF
330
1F
100
AcDbEntity
  8
0
  6
Continuous
 62
     7
370
    15
100
AcDbLine
 10
113.1
 20
163.07
 30
0.0
 11
113.1
 21
166.17
 31
0.0
  0
LINE
  5
3F0
330
1F
100
AcDbEntity
  8
0
  6
Continuous
 62
     7
370
    15
100
AcDbLine
 10
113.1
 20
163.07
 30
0.0
 11
123.3
 21
163.07
 31
0.0
  0
LINE
  5
3F1
330
1F
100
AcDbEntity
  8
0
  6
Continuous
 62
     7
370
    15
100
AcDbLine
 10
123.3
 20
163.07
 30
0.0
 11
123.3
 21
166.17
 31
0.0
  0
LINE
  5
3F2
330
1F
100
AcDbEntity
  8
0
  6
Continuous
 62
     7
370
    15
100
AcDbLine
 10
130.4722171017
 20
163.07
 30
0.0
 11
130.4722171017
 21
166.17
 31
0.0
  0
LINE
  5
3F3
330
1F
100
AcDbEntity
  8
0
  6
Continuous
 62
     7
370
    15
100
AcDbLine
 10
130.4722171017
 20
163.07
 30
0.0
 11
133.5722171017
 21
163.07
 31
0.0
  0
LINE
  5
3F4
330
1F
100
AcDbEntity
  8
0
  6
Continuous
 62
     7
370
    15
100
AcDbLine
 10
130.4722171017
 20
148.7366666667
 30
0.0
 11
133.5722171017
 21
148.7366666667
 31
0.0
  0
LINE
  5
3F5
330
1F
100
AcDbEntity
  8
0
  6
Continuous
 62
     7
370
    15
100
AcDbLine
 10
130.4722171017
 20
140.02
 30
0.0
 11
133.5722171017
 21
140.02
 31
0.0
  0
LINE
  5
3F6
330
1F
100
AcDbEntity
  8
0
  6
Continuous
 62
     7
370
    15
100
AcDbLine
 10
130.4722171017
 20
131.3033333333
 30
0.0
 11
133.5722171017
 21
131.3033333333
 31
0.0
  0
LINE
  5
3F7
330
1F
100
AcDbEntity
  8
0
  6
Continuous
 62
     7
370
    15
100
AcDbLine
 10
130.4722171017
 20
131.3033333333
 30
0.0
 11
130.4722171017
 21
122.5866666667
 31
0.0
  0
LINE
  5
3F8
330
1F
100
AcDbEntity
  8
0
  6
Continuous
 62
     7
370
    15
100
AcDbLine
 10
130.4722171017
 20
122.5866666667
 30
0.0
 11
133.5722171017
 21
122.5866666667
 31
0.0
  0
LINE
  5
3F9
330
1F
100
AcDbEntity
  8
0
  6
Continuous
 62
     7
370
    15
100
AcDbLine
 10
103.3
 20
146.97
 30
0.0
 11
103.3
 21
143.87
 31
0.0
  0
LINE
  5
3FA
330
1F
100
AcDbEntity
  8
0
  6
Continuous
 62
     7
370
    15
100
AcDbLine
 10
103.3
 20
146.97
 30
0.0
 11
93.1
 21
146.97
 31
0.0
  0
LINE
  5
3FB
330
1F
100
AcDbEntity
  8
0
  6
Continuous
 62
     7
370
    15
100
AcDbLine
 10
93.1
 20
146.97
 30
0.0
 11
93.1
 21
143.87
 31
0.0
  0
LINE
  5
3FC
330
1F
100
AcDbEntity
  8
0
  6
Continuous
 62
     7
370
    15
100
AcDbLine
 10
83.3
 20
146.97
 30
0.0
 11
83.3
 21
143.87
 31
0.0
  0
LINE
  5
3FD
330
1F
100
AcDbEntity
  8
0
  6
Continuous
 62
     7
370
    15
100
AcDbLine
 10
83.3
 20
146.97
 30
0.0
 11
73.1
 21
146.97
 31
0.0
  0
LINE
  5
3FE
330
1F
100
AcDbEntity
  8
0
  6
Continuous
 62
     7
370
    15
100
AcDbLine
 10
73.1
 20
146.97
 30
0.0
 11
73.1
 21
143.87
 31
0.0
  0
LINE
  5
3FF
330
1F
100
AcDbEntity
  8
0
  6
Continuous
 62
     7
370
    15
100
AcDbLine
 10
63.3
 20
146.97
 30
0.0
 11
63.3
 21
143.87
 31
0.0
  0
LINE
  5
400
330
1F
100
AcDbEntity
  8
0
  6
Continuous
 62
     7
370
    15
100
AcDbLine
 10
63.3
 20
146.97
 30
0.0
 11
53.1
 21
146.97
 31
0.0
  0
LINE
  5
401
330
1F
100
AcDbEntity
  8
0
  6
Continuous
 62
     7
370
    15
100
AcDbLine
 10
53.1
 20
146.97
 30
0.0
 11
53.1
 21
143.87
 31
0.0
  0
LINE
  5
402
330
1F
100
AcDbEntity
  8
0
  6
Continuous
 62
     7
370
    15
100
AcDbLine
 10
25.9277828983
 20
122.5866666667
 30
0.0
 11
22.8277828983
 21
122.5866666667
 31
0.0
  0
LINE
  5
403
330
1F
100
AcDbEntity
  8
0
  6
Continuous
 62
     7
370
    15
100
AcDbLine
 10
25.9277828983
 20
122.5866666667
 30
0.0
 11
25.9277828983
 21
131.3033333333
 31
0.0
  0
LINE
  5
404
330
1F
100
AcDbEntity
  8
0
  6
Continuous
 62
     7
370
    15
100
AcDbLine
 10
25.9277828983
 20
131.3033333333
 30
0.0
 11
22.8277828983
 21
131.3033333333
 31
0.0
  0
LINE
  5
405
330
1F
100
AcDbEntity
  8
0
  6
Continuous
 62
     7
370
    15
100
AcDbLine
 10
25.9277828983
 20
140.02
 30
0.0
 11
22.8277828983
 21
140.02
 31
0.0
  0
LINE
  5
406
330
1F
100
AcDbEntity
  8
0
  6
Continuous
 62
     7
370
    15
100
AcDbLine
 10
25.9277828983
 20
140.02
 30
0.0
 11
25.9277828983
 21
148.7366666667
 31
0.0
  0
LINE
  5
407
330
1F
100
AcDbEntity
  8
0
  6
Continuous
 62
     7
370
    15
100
AcDbLine
 10
25.9277828983
 20
148.7366666667
 30
0.0
 11
22.8277828983
 21
148.7366666667
 31
0.0
  0
LINE
  5
408
330
1F
100
AcDbEntity
  8
0
  6
Continuous
 62
     7
370
    15
100
AcDbLine
 10
25.9277828983
 20
157.3533333333
 30
0.0
 11
22.8277828983
 21
157.3533333333
 31
0.0
  0
LINE
  5
409
330
1F
100
AcDbEntity
  8
0
  6
Continuous
 62
     7
370
    15
100
AcDbLine
 10
25.9277828983
 20
157.3533333333
 30
0.0
 11
25.9277828983
 21
166.17
 31
0.0
  0
LINE
  5
40A
330
1F
100
AcDbEntity
  8
0
  6
Continuous
 62
     7
370
    15
100
AcDbLine
 10
33.1
 20
163.07
 30
0.0
 11
33.1
 21
166.17
 31
0.0
  0
LINE
  5
40B
330
1F
100
AcDbEntity
  8
0
  6
Continuous
 62
     7
370
    15
100
AcDbLine
 10
33.1
 20
163.07
 30
0.0
 11
43.3
 21
163.07
 31
0.0
  0
LINE
  5
40C
330
1F
100
AcDbEntity
  8
0
  6
Continuous
 62
     7
370
    15
100
AcDbLine
 10
43.3
 20
163.07
 30
0.0
 11
43.3
 21
166.17
 31
0.0
  0
LINE
  5
40D
330
1F
100
AcDbEntity
  8
0
  6
Continuous
 62
     7
370
    15
100
AcDbLine
 10
53.1
 20
163.07
 30
0.0
 11
53.1
 21
166.17
 31
0.0
  0
LINE
  5
40E
330
1F
100
AcDbEntity
  8
0
  6
Continuous
 62
     7
370
    15
100
AcDbLine
 10
53.1
 20
163.07
 30
0.0
 11
63.3
 21
163.07
 31
0.0
  0
LINE
  5
40F
330
1F
100
AcDbEntity
  8
0
  6
Continuous
 62
     7
370
    15
100
AcDbLine
 10
63.3
 20
163.07
 30
0.0
 11
63.3
 21
166.17
 31
0.0
  0
LINE
  5
410
330
1F
100
AcDbEntity
  8
0
  6
Continuous
 62
     7
370
    15
100
AcDbLine
 10
73.1
 20
163.07
 30
0.0
 11
73.1
 21
166.17
 31
0.0
  0
LINE
  5
411
330
1F
100
AcDbEntity
  8
0
  6
Continuous
 62
     7
370
    15
100
AcDbLine
 10
73.1
 20
163.07
 30
0.0
 11
83.3
 21
163.07
 31
0.0
  0
LINE
  5
412
330
1F
100
AcDbEntity
  8
0
  6
Continuous
 62
     7
370
    15
100
AcDbLine
 10
83.3
 20
163.07
 30
0.0
 11
83.3
 21
166.17
 31
0.0
  0
LINE
  5
413
330
1F
100
AcDbEntity
  8
0
  6
Continuous
 62
     7
370
    15
100
AcDbLine
 10
93.1
 20
163.07
 30
0.0
 11
93.1
 21
166.17
 31
0.0
  0
LINE
  5
414
330
1F
100
AcDbEntity
  8
0
  6
Continuous
 62
     7
370
    15
100
AcDbLine
 10
93.1
 20
163.07
 30
0.0
 11
103.3
 21
163.07
 31
0.0
  0
LINE
  5
415
330
1F
100
AcDbEntity
  8
0
  6
Continuous
 62
     7
370
    15
100
AcDbLine
 10
103.3
 20
163.07
 30
0.0
 11
103.3
 21
166.17
 31
0.0
  0
LINE
  5
416
330
1F
100
AcDbEntity
  8
0
  6
Continuous
 62
     7
370
    15
100
AcDbLine
 10
83.3
 20
154.47
 30
0.0
 11
83.3
 21
157.67
 31
0.0
  0
LINE
  5
417
330
1F
100
AcDbEntity
  8
0
  6
Continuous
 62
     7
370
    15
100
AcDbLine
 10
83.3
 20
157.67
 30
0.0
 11
73.1
 21
157.67
 31
0.0
  0
LINE
  5
418
330
1F
100
AcDbEntity
  8
0
  6
Continuous
 62
     7
370
    15
100
AcDbLine
 10
73.1
 20
157.67
 30
0.0
 11
73.1
 21
154.47
 31
0.0
  0
LINE
  5
419
330
1F
100
AcDbEntity
  8
0
  6
Continuous
 62
     7
370
    15
100
AcDbLine
 10
73.1
 20
154.47
 30
0.0
 11
83.3
 21
154.47
 31
0.0
  0
LINE
  5
41A
330
1F
100
AcDbEntity
  8
0
  6
Continuous
 62
     7
370
    15
100
AcDbLine
 10
63.3
 20
154.47
 30
0.0
 11
63.3
 21
157.67
 31
0.0
  0
LINE
  5
41B
330
1F
100
AcDbEntity
  8
0
  6
Continuous
 62
     7
370
    15
100
AcDbLine
 10
63.3
 20
157.67
 30
0.0
 11
53.1
 21
157.67
 31
0.0
  0
LINE
  5
41C
330
1F
100
AcDbEntity
  8
0
  6
Continuous
 62
     7
370
    15
100
AcDbLine
 10
53.1
 20
157.67
 30
0.0
 11
53.1
 21
154.47
 31
0.0
  0
LINE
  5
41D
330
1F
100
AcDbEntity
  8
0
  6
Continuous
 62
     7
370
    15
100
AcDbLine
 10
53.1
 20
154.47
 30
0.0
 11
63.3
 21
154.47
 31
0.0
  0
LINE
  5
41E
330
1F
100
AcDbEntity
  8
0
  6
Continuous
 62
     7
370
    15
100
AcDbLine
 10
43.3
 20
154.47
 30
0.0
 11
43.3
 21
157.67
 31
0.0
  0
LINE
  5
41F
330
1F
100
AcDbEntity
  8
0
  6
Continuous
 62
     7
370
    15
100
AcDbLine
 10
43.3
 20
157.67
 30
0.0
 11
33.1
 21
157.67
 31
0.0
  0
LINE
  5
420
330
1F
100
AcDbEntity
  8
0
  6
Continuous
 62
     7
370
    15
100
AcDbLine
 10
33.1
 20
157.67
 30
0.0
 11
33.1
 21
154.47
 31
0.0
  0
LINE
  5
421
330
1F
100
AcDbEntity
  8
0
  6
Continuous
 62
     7
370
    15
100
AcDbLine
 10
33.1
 20
154.47
 30
0.0
 11
43.3
 21
154.47
 31
0.0
  0
LINE
  5
422
330
1F
100
AcDbEntity
  8
0
  6
Continuous
 62
     7
370
    15
100
AcDbLine
 10
113.1
 20
154.47
 30
0.0
 11
123.3
 21
154.47
 31
0.0
  0
LINE
  5
423
330
1F
100
AcDbEntity
  8
0
  6
Continuous
 62
     7
370
    15
100
AcDbLine
 10
123.3
 20
154.47
 30
0.0
 11
123.3
 21
157.67
 31
0.0
  0
LINE
  5
424
330
1F
100
AcDbEntity
  8
0
  6
Continuous
 62
     7
370
    15
100
AcDbLine
 10
123.3
 20
157.67
 30
0.0
 11
113.1
 21
157.67
 31
0.0
  0
LINE
  5
425
330
1F
100
AcDbEntity
  8
0
  6
Continuous
 62
     7
370
    15
100
AcDbLine
 10
113.1
 20
157.67
 30
0.0
 11
113.1
 21
154.47
 31
0.0
  0
LINE
  5
426
330
1F
100
AcDbEntity
  8
0
  6
Continuous
 62
     7
370
    15
100
AcDbLine
 10
93.1
 20
154.47
 30
0.0
 11
103.3
 21
154.47
 31
0.0
  0
LINE
  5
427
330
1F
100
AcDbEntity
  8
0
  6
Continuous
 62
     7
370
    15
100
AcDbLine
 10
103.3
 20
154.47
 30
0.0
 11
103.3
 21
157.67
 31
0.0
  0
LINE
  5
428
330
1F
100
AcDbEntity
  8
0
  6
Continuous
 62
     7
370
    15
100
AcDbLine
 10
103.3
 20
157.67
 30
0.0
 11
93.1
 21
157.67
 31
0.0
  0
LINE
  5
429
330
1F
100
AcDbEntity
  8
0
  6
Continuous
 62
     7
370
    15
100
AcDbLine
 10
93.1
 20
157.67
 30
0.0
 11
93.1
 21
154.47
 31
0.0
  0
LINE
  5
42A
330
1F
100
AcDbEntity
  8
0
  6
Continuous
 62
     7
370
    15
100
AcDbLine
 10
130.4722171017
 20
148.7366666667
 30
0.0
 11
130.4722171017
 21
140.02
 31
0.0
  0
LINE
  5
42B
330
1F
100
AcDbEntity
  8
0
  6
Continuous
 62
     7
370
    15
100
AcDbLine
 10
37.8277828983
 20
113.87
 30
0.0
 11
37.8277828983
 21
143.87
 31
0.0
  0
LINE
  5
42C
330
1F
100
AcDbEntity
  8
0
  6
Continuous
 62
     7
370
    15
100
AcDbLine
 10
83.3
 20
143.87
 30
0.0
 11
93.1
 21
143.87
 31
0.0
  0
LINE
  5
42D
330
1F
100
AcDbEntity
  8
0
  6
Continuous
 62
     7
370
    15
100
AcDbLine
 10
118.5722171017
 20
143.87
 30
0.0
 11
118.5722171017
 21
113.87
 31
0.0
  0
LINE
  5
42E
330
1F
100
AcDbEntity
  8
0
  6
Continuous
 62
     7
370
    15
100
AcDbLine
 10
118.5722171017
 20
113.87
 30
0.0
 11
133.5722171017
 21
113.87
 31
0.0
  0
LINE
  5
42F
330
1F
100
AcDbEntity
  8
0
  6
Continuous
 62
     7
370
    15
100
AcDbLine
 10
133.5722171017
 20
148.7366666667
 30
0.0
 11
133.5722171017
 21
163.07
 31
0.0
  0
LINE
  5
430
330
1F
100
AcDbEntity
  8
0
  6
Continuous
 62
     7
370
    15
100
AcDbLine
 10
93.1
 20
166.17
 30
0.0
 11
83.3
 21
166.17
 31
0.0
  0
LINE
  5
431
330
1F
100
AcDbEntity
  8
0
  6
Continuous
 62
     7
370
    15
100
AcDbLine
 10
22.8277828983
 20
122.5866666667
 30
0.0
 11
22.8277828983
 21
113.87
 31
0.0
  0
LINE
  5
432
330
1F
100
AcDbEntity
  8
0
  6
Continuous
 62
     7
370
    15
100
AcDbLine
 10
22.8277828983
 20
113.87
 30
0.0
 11
37.8277828983
 21
113.87
 31
0.0
  0
LINE
  5
433
330
1F
100
AcDbEntity
  8
0
  6
Continuous
 62
     7
370
    15
100
AcDbLine
 10
22.8277828983
 20
157.3533333333
 30
0.0
 11
22.8277828983
 21
148.7366666667
 31
0.0
  0
LINE
  5
434
330
1F
100
AcDbEntity
  8
0
  6
Continuous
 62
     7
370
    15
100
AcDbLine
 10
22.8277828983
 20
140.02
 30
0.0
 11
22.8277828983
 21
131.3033333333
 31
0.0
  0
LINE
  5
435
330
1F
100
AcDbEntity
  8
0
  6
Continuous
 62
     7
370
    15
100
AcDbLine
 10
73.1
 20
166.17
 30
0.0
 11
63.3
 21
166.17
 31
0.0
  0
LINE
  5
436
330
1F
100
AcDbEntity
  8
0
  6
Continuous
 62
     7
370
    15
100
AcDbLine
 10
63.3
 20
143.87
 30
0.0
 11
73.1
 21
143.87
 31
0.0
  0
LINE
  5
437
330
1F
100
AcDbEntity
  8
0
  6
Continuous
 62
     7
370
    15
100
AcDbLine
 10
53.1
 20
166.17
 30
0.0
 11
43.3
 21
166.17
 31
0.0
  0
LINE
  5
438
330
1F
100
AcDbEntity
  8
0
  6
Continuous
 62
     7
370
    15
100
AcDbLine
 10
37.8277828983
 20
143.87
 30
0.0
 11
53.1
 21
143.87
 31
0.0
  0
LINE
  5
439
330
1F
100
AcDbEntity
  8
0
  6
Continuous
 62
     7
370
    15
100
AcDbLine
 10
33.1
 20
166.17
 30
0.0
 11
25.9277828983
 21
166.17
 31
0.0
  0
LINE
  5
43A
330
1F
100
AcDbEntity
  8
0
  6
Continuous
 62
     7
370
    15
100
AcDbLine
 10
133.5722171017
 20
113.87
 30
0.0
 11
133.5722171017
 21
122.5866666667
 31
0.0
  0
LINE
  5
43B
330
1F
100
AcDbEntity
  8
0
  6
Continuous
 62
     7
370
    15
100
AcDbLine
 10
133.5722171017
 20
131.3033333333
 30
0.0
 11
133.5722171017
 21
140.02
 31
0.0
  0
LINE
  5
43C
330
1F
100
AcDbEntity
  8
0
  6
Continuous
 62
     7
370
    15
100
AcDbLine
 10
130.4722171017
 20
166.17
 30
0.0
 11
123.3
 21
166.17
 31
0.0
  0
LINE
  5
43D
330
1F
100
AcDbEntity
  8
0
  6
Continuous
 62
     7
370
    15
100
AcDbLine
 10
103.3
 20
143.87
 30
0.0
 11
118.5722171017
 21
143.87
 31
0.0
  0
LINE
  5
43E
330
1F
100
AcDbEntity
  8
0
  6
Continuous
 62
     7
370
    15
100
AcDbLine
 10
113.1
 20
166.17
 30
0.0
 11
103.3
 21
166.17
 31
0.0
  0
LINE
  5
43F
330
1F
100
AcDbEntity
  8
0
  6
Continuous
 62
     7
370
    15
100
AcDbLine
 10
395.0522171017
 20
113.0733333333
 30
0.0
 11
398.0522171017
 21
113.0733333333
 31
0.0
  0
LINE
  5
440
330
1F
100
AcDbEntity
  8
0
  6
Continuous
 62
     7
370
    15
100
AcDbLine
 10
398.0522171017
 20
123.79
 30
0.0
 11
401.6522171017
 21
123.79
 31
0.0
  0
LINE
  5
441
330
1F
100
AcDbEntity
  8
0
  6
Continuous
 62
     7
370
    15
100
AcDbLine
 10
401.6522171017
 20
123.79
 30
0.0
 11
401.6522171017
 21
126.29
 31
0.0
  0
LINE
  5
442
330
1F
100
AcDbEntity
  8
0
  6
Continuous
 62
     7
370
    15
100
AcDbLine
 10
401.6522171017
 20
126.29
 30
0.0
 11
406.9522171017
 21
126.29
 31
0.0
  0
LINE
  5
443
330
1F
100
AcDbEntity
  8
0
  6
Continuous
 62
     7
370
    15
100
AcDbLine
 10
406.9522171017
 20
126.29
 30
0.0
 11
406.9522171017
 21
117.9566666667
 31
0.0
  0
LINE
  5
444
330
1F
100
AcDbEntity
  8
0
  6
Continuous
 62
     7
370
    15
100
AcDbLine
 10
406.9522171017
 20
117.9566666667
 30
0.0
 11
410.0522171017
 21
117.9566666667
 31
0.0
  0
LINE
  5
445
330
1F
100
AcDbEntity
  8
0
  6
Continuous
 62
     7
370
    15
100
AcDbLine
 10
406.9522171017
 20
109.44
 30
0.0
 11
406.9522171017
 21
100.5233333333
 31
0.0
  0
LINE
  5
446
330
1F
100
AcDbEntity
  8
0
  6
Continuous
 62
     7
370
    15
100
AcDbLine
 10
406.9522171017
 20
100.5233333333
 30
0.0
 11
410.0522171017
 21
100.5233333333
 31
0.0
  0
LINE
  5
447
330
1F
100
AcDbEntity
  8
0
  6
Continuous
 62
     7
370
    15
100
AcDbLine
 10
410.0522171017
 20
92.0066666667
 30
0.0
 11
406.9522171017
 21
92.0066666667
 31
0.0
  0
LINE
  5
448
330
1F
100
AcDbEntity
  8
0
  6
Continuous
 62
     7
370
    15
100
AcDbLine
 10
406.9522171017
 20
92.0066666667
 30
0.0
 11
406.9522171017
 21
83.19
 31
0.0
  0
LINE
  5
449
330
1F
100
AcDbEntity
  8
0
  6
Continuous
 62
     7
370
    15
100
AcDbLine
 10
410.0522171017
 20
109.44
 30
0.0
 11
406.9522171017
 21
109.44
 31
0.0
  0
LINE
  5
44A
330
1F
100
AcDbEntity
  8
0
  6
Continuous
 62
     7
370
    15
100
AcDbLine
 10
398.0522171017
 20
113.0733333333
 30
0.0
 11
398.0522171017
 21
123.79
 31
0.0
  0
LINE
  5
44B
330
1F
100
AcDbEntity
  8
0
  6
Continuous
 62
     7
370
    15
100
AcDbLine
 10
395.0522171017
 20
113.0733333333
 30
0.0
 11
395.0522171017
 21
83.19
 31
0.0
  0
LINE
  5
44C
330
1F
100
AcDbEntity
  8
0
  6
Continuous
 62
     7
370
    15
100
AcDbLine
 10
395.0522171017
 20
83.19
 30
0.0
 11
406.9522171017
 21
83.19
 31
0.0
  0
LINE
  5
44D
330
1F
100
AcDbEntity
  8
0
  6
Continuous
 62
     7
370
    15
100
AcDbLine
 10
410.0522171017
 20
117.9566666667
 30
0.0
 11
410.0522171017
 21
109.44
 31
0.0
  0
LINE
  5
44E
330
1F
100
AcDbEntity
  8
0
  6
Continuous
 62
     7
370
    15
100
AcDbLine
 10
410.0522171017
 20
100.5233333333
 30
0.0
 11
410.0522171017
 21
92.0066666667
 31
0.0
  0
LINE
  5
44F
330
1F
100
AcDbEntity
  8
0
  6
Continuous
 62
     7
370
    15
100
AcDbLine
 10
302.4077828983
 20
117.9566666667
 30
0.0
 11
302.4077828983
 21
126.29
 31
0.0
  0
LINE
  5
450
330
1F
100
AcDbEntity
  8
0
  6
Continuous
 62
     7
370
    15
100
AcDbLine
 10
302.4077828983
 20
126.29
 30
0.0
 11
307.7077828983
 21
126.29
 31
0.0
  0
LINE
  5
451
330
1F
100
AcDbEntity
  8
0
  6
Continuous
 62
     7
370
    15
100
AcDbLine
 10
307.7077828983
 20
126.29
 30
0.0
 11
307.7077828983
 21
123.79
 31
0.0
  0
LINE
  5
452
330
1F
100
AcDbEntity
  8
0
  6
Continuous
 62
     7
370
    15
100
AcDbLine
 10
311.3077828983
 20
113.0733333333
 30
0.0
 11
314.3077828983
 21
113.0733333333
 31
0.0
  0
LINE
  5
453
330
1F
100
AcDbEntity
  8
0
  6
Continuous
 62
     7
370
    15
100
AcDbLine
 10
302.4077828983
 20
83.19
 30
0.0
 11
302.4077828983
 21
92.0066666667
 31
0.0
  0
LINE
  5
454
330
1F
100
AcDbEntity
  8
0
  6
Continuous
 62
     7
370
    15
100
AcDbLine
 10
299.3077828983
 20
100.5233333333
 30
0.0
 11
302.4077828983
 21
100.5233333333
 31
0.0
  0
LINE
  5
455
330
1F
100
AcDbEntity
  8
0
  6
Continuous
 62
     7
370
    15
100
AcDbLine
 10
302.4077828983
 20
100.5233333333
 30
0.0
 11
302.4077828983
 21
109.44
 31
0.0
  0
LINE
  5
456
330
1F
100
AcDbEntity
  8
0
  6
Continuous
 62
     7
370
    15
100
AcDbLine
 10
302.4077828983
 20
109.44
 30
0.0
 11
299.3077828983
 21
109.44
 31
0.0
  0
LINE
  5
457
330
1F
100
AcDbEntity
  8
0
  6
Continuous
 62
     7
370
    15
100
AcDbLine
 10
299.3077828983
 20
117.9566666667
 30
0.0
 11
302.4077828983
 21
117.9566666667
 31
0.0
  0
LINE
  5
458
330
1F
100
AcDbEntity
  8
0
  6
Continuous
 62
     7
370
    15
100
AcDbLine
 10
302.4077828983
 20
92.0066666667
 30
0.0
 11
299.3077828983
 21
92.0066666667
 31
0.0
  0
LINE
  5
459
330
1F
100
AcDbEntity
  8
0
  6
Continuous
 62
     7
370
    15
100
AcDbLine
 10
299.3077828983
 20
100.5233333333
 30
0.0
 11
299.3077828983
 21
92.0066666667
 31
0.0
  0
LINE
  5
45A
330
1F
100
AcDbEntity
  8
0
  6
Continuous
 62
     7
370
    15
100
AcDbLine
 10
314.3077828983
 20
83.19
 30
0.0
 11
302.4077828983
 21
83.19
 31
0.0
  0
LINE
  5
45B
330
1F
100
AcDbEntity
  8
0
  6
Continuous
 62
     7
370
    15
100
AcDbLine
 10
314.3077828983
 20
83.19
 30
0.0
 11
314.3077828983
 21
113.0733333333
 31
0.0
  0
LINE
  5
45C
330
1F
100
AcDbEntity
  8
0
  6
Continuous
 62
     7
370
    15
100
AcDbLine
 10
311.3077828983
 20
113.0733333333
 30
0.0
 11
311.3077828983
 21
123.79
 31
0.0
  0
LINE
  5
45D
330
1F
100
AcDbEntity
  8
0
  6
Continuous
 62
     7
370
    15
100
AcDbLine
 10
299.3077828983
 20
117.9566666667
 30
0.0
 11
299.3077828983
 21
109.44
 31
0.0
  0
LINE
  5
45E
330
1F
100
AcDbEntity
  8
0
  6
Continuous
 62
     7
370
    15
100
AcDbLine
 10
307.7077828983
 20
123.79
 30
0.0
 11
311.3077828983
 21
123.79
 31
0.0
  0
LINE
  5
45F
330
1F
100
AcDbEntity
  8
0
  6
Continuous
 62
     7
370
     0
100
AcDbLine
 10
302.3077828983
 20
126.39
 30
0.0
 11
302.3077828983
 21
118.0566666667
 31
0.0
  0
LINE
  5
460
330
1F
100
AcDbEntity
  8
0
  6
Continuous
 62
     7
370
     0
100
AcDbLine
 10
302.3077828983
 20
118.0566666667
 30
0.0
 11
299.2077828983
 21
118.0566666667
 31
0.0
  0
LINE
  5
461
330
1F
100
AcDbEntity
  8
0
  6
Continuous
 62
     7
370
     0
100
AcDbLine
 10
299.2077828983
 20
118.0566666667
 30
0.0
 11
299.2077828983
 21
109.34
 31
0.0
  0
LINE
  5
462
330
1F
100
AcDbEntity
  8
0
  6
Continuous
 62
     7
370
     0
100
AcDbLine
 10
299.2077828983
 20
109.34
 30
0.0
 11
302.3077828983
 21
109.34
 31
0.0
  0
LINE
  5
463
330
1F
100
AcDbEntity
  8
0
  6
Continuous
 62
     7
370
     0
100
AcDbLine
 10
302.3077828983
 20
109.34
 30
0.0
 11
302.3077828983
 21
100.6233333333
 31
0.0
  0
LINE
  5
464
330
1F
100
AcDbEntity
  8
0
  6
Continuous
 62
     7
370
     0
100
AcDbLine
 10
302.3077828983
 20
100.6233333333
 30
0.0
 11
299.2077828983
 21
100.6233333333
 31
0.0
  0
LINE
  5
465
330
1F
100
AcDbEntity
  8
0
  6
Continuous
 62
     7
370
     0
100
AcDbLine
 10
299.2077828983
 20
100.6233333333
 30
0.0
 11
299.2077828983
 21
91.9066666667
 31
0.0
  0
LINE
  5
466
330
1F
100
AcDbEntity
  8
0
  6
Continuous
 62
     7
370
     0
100
AcDbLine
 10
299.2077828983
 20
91.9066666667
 30
0.0
 11
302.3077828983
 21
91.9066666667
 31
0.0
  0
LINE
  5
467
330
1F
100
AcDbEntity
  8
0
  6
Continuous
 62
     7
370
     0
100
AcDbLine
 10
302.3077828983
 20
91.9066666667
 30
0.0
 11
302.3077828983
 21
83.09
 31
0.0
  0
LINE
  5
468
330
1F
100
AcDbEntity
  8
0
  6
Continuous
 62
     7
370
     0
100
AcDbLine
 10
302.3077828983
 20
83.09
 30
0.0
 11
314.4077828983
 21
83.09
 31
0.0
  0
LINE
  5
469
330
1F
100
AcDbEntity
  8
0
  6
Continuous
 62
     7
370
     0
100
AcDbLine
 10
314.4077828983
 20
83.09
 30
0.0
 11
314.4077828983
 21
113.1733333333
 31
0.0
  0
LINE
  5
46A
330
1F
100
AcDbEntity
  8
0
  6
Continuous
 62
     7
370
     0
100
AcDbLine
 10
314.4077828983
 20
113.1733333333
 30
0.0
 11
311.4077828983
 21
113.1733333333
 31
0.0
  0
LINE
  5
46B
330
1F
100
AcDbEntity
  8
0
  6
Continuous
 62
     7
370
     0
100
AcDbLine
 10
311.4077828983
 20
113.1733333333
 30
0.0
 11
311.4077828983
 21
123.89
 31
0.0
  0
LINE
  5
46C
330
1F
100
AcDbEntity
  8
0
  6
Continuous
 62
     7
370
     0
100
AcDbLine
 10
311.4077828983
 20
123.89
 30
0.0
 11
307.8077828983
 21
123.89
 31
0.0
  0
LINE
  5
46D
330
1F
100
AcDbEntity
  8
0
  6
Continuous
 62
     7
370
     0
100
AcDbLine
 10
307.8077828983
 20
123.89
 30
0.0
 11
307.8077828983
 21
126.39
 31
0.0
  0
LINE
  5
46E
330
1F
100
AcDbEntity
  8
0
  6
Continuous
 62
     7
370
     0
100
AcDbLine
 10
307.8077828983
 20
126.39
 30
0.0
 11
302.3077828983
 21
126.39
 31
0.0
  0
LINE
  5
46F
330
1F
100
AcDbEntity
  8
0
  6
CENTERX2
 62
     7
370
     0
100
AcDbLine
 10
302.4077828983
 20
117.9566666667
 30
0.0
 11
299.3077828983
 21
117.9566666667
 31
0.0
  0
LINE
  5
470
330
1F
100
AcDbEntity
  8
0
  6
CENTERX2
 62
     7
370
     0
100
AcDbLine
 10
299.3077828983
 20
117.9566666667
 30
0.0
 11
299.3077828983
 21
109.44
 31
0.0
  0
LINE
  5
471
330
1F
100
AcDbEntity
  8
0
  6
CENTERX2
 62
     7
370
     0
100
AcDbLine
 10
299.3077828983
 20
109.44
 30
0.0
 11
302.4077828983
 21
109.44
 31
0.0
  0
LINE
  5
472
330
1F
100
AcDbEntity
  8
0
  6
CENTERX2
 62
     7
370
     0
100
AcDbLine
 10
302.4077828983
 20
109.44
 30
0.0
 11
302.4077828983
 21
100.5233333333
 31
0.0
  0
LINE
  5
473
330
1F
100
AcDbEntity
  8
0
  6
CENTERX2
 62
     7
370
     0
100
AcDbLine
 10
302.4077828983
 20
100.5233333333
 30
0.0
 11
299.3077828983
 21
100.5233333333
 31
0.0
  0
LINE
  5
474
330
1F
100
AcDbEntity
  8
0
  6
CENTERX2
 62
     7
370
     0
100
AcDbLine
 10
299.3077828983
 20
100.5233333333
 30
0.0
 11
299.3077828983
 21
92.0066666667
 31
0.0
  0
LINE
  5
475
330
1F
100
AcDbEntity
  8
0
  6
CENTERX2
 62
     7
370
     0
100
AcDbLine
 10
299.3077828983
 20
92.0066666667
 30
0.0
 11
302.4077828983
 21
92.0066666667
 31
0.0
  0
LINE
  5
476
330
1F
100
AcDbEntity
  8
0
  6
CENTERX2
 62
     7
370
     0
100
AcDbLine
 10
302.4077828983
 20
92.0066666667
 30
0.0
 11
302.4077828983
 21
83.19
 31
0.0
  0
LINE
  5
477
330
1F
100
AcDbEntity
  8
0
  6
CENTERX2
 62
     7
370
     0
100
AcDbLine
 10
302.4077828983
 20
83.19
 30
0.0
 11
314.3077828983
 21
83.19
 31
0.0
  0
LINE
  5
478
330
1F
100
AcDbEntity
  8
0
  6
CENTERX2
 62
     7
370
     0
100
AcDbLine
 10
314.3077828983
 20
83.19
 30
0.0
 11
314.3077828983
 21
113.0733333333
 31
0.0
  0
LINE
  5
479
330
1F
100
AcDbEntity
  8
0
  6
CENTERX2
 62
     7
370
     0
100
AcDbLine
 10
314.3077828983
 20
113.0733333333
 30
0.0
 11
311.3077828983
 21
113.0733333333
 31
0.0
  0
LINE
  5
47A
330
1F
100
AcDbEntity
  8
0
  6
CENTERX2
 62
     7
370
     0
100
AcDbLine
 10
311.3077828983
 20
113.0733333333
 30
0.0
 11
311.3077828983
 21
123.79
 31
0.0
  0
LINE
  5
47B
330
1F
100
AcDbEntity
  8
0
  6
CENTERX2
 62
     7
370
     0
100
AcDbLine
 10
311.3077828983
 20
123.79
 30
0.0
 11
307.7077828983
 21
123.79
 31
0.0
  0
LINE
  5
47C
330
1F
100
AcDbEntity
  8
0
  6
CENTERX2
 62
     7
370
     0
100
AcDbLine
 10
307.7077828983
 20
123.79
 30
0.0
 11
307.7077828983
 21
126.29
 31
0.0
  0
LINE
  5
47D
330
1F
100
AcDbEntity
  8
0
  6
CENTERX2
 62
     7
370
     0
100
AcDbLine
 10
307.7077828983
 20
126.29
 30
0.0
 11
302.4077828983
 21
126.29
 31
0.0
  0
LINE
  5
47E
330
1F
100
AcDbEntity
  8
0
  6
CENTERX2
 62
     7
370
     0
100
AcDbLine
 10
302.4077828983
 20
126.29
 30
0.0
 11
302.4077828983
 21
117.9566666667
 31
0.0
  0
DIMENSION
  5
47F
330
1F
100
AcDbEntity
  8
0
  6
Continuous
 62
     7
370
     0
100
AcDbDimension
  2
_D_8
 10
302.4077828983
 20
123.2233333333
 30
0.0
 11
302.3077828983
 21
123.2233333333
 31
0.0
 70
   160
  1
<>
 71
     2
 42
-1.0
  3
SLDDIMSTYLE0
100
AcDbAlignedDimension
 13
302.3077828983
 23
122.2233333333
 33
0.0
 14
302.4077828983
 24
122.2233333333
 34
0.0
100
AcDbRotatedDimension
  0
ENDSEC
  0
SECTION
  2
OBJECTS
  0
DICTIONARY
  5
C
330
0
100
AcDbDictionary
281
     1
  3
ACAD_GROUP
350
D
  3
ACAD_LAYOUT
350
1A
  3
ACAD_MLINESTYLE
350
17
  3
ACAD_PLOTSETTINGS
350
19
  3
ACAD_PLOTSTYLENAME
350
E
  0
DICTIONARY
  5
D
102
{ACAD_REACTORS
330
C
102
}
330
C
100
AcDbDictionary
281
     1
  0
DICTIONARY
  5
1A
102
{ACAD_REACTORS
330
C
102
}
330
C
100
AcDbDictionary
281
     1
  3
Layout1
350
1E
  3
Layout2
350
26
  3
Model
350
22
  0
DICTIONARY
  5
17
102
{ACAD_REACTORS
330
C
102
}
330
C
100
AcDbDictionary
281
     1
  3
Standard
350
18
  0
DICTIONARY
  5
19
102
{ACAD_REACTORS
330
C
102
}
330
C
100
AcDbDictionary
281
     1
  0
ACDBDICTIONARYWDFLT
  5
E
102
{ACAD_REACTORS
330
C
102
}
330
C
100
AcDbDictionary
281
     1
  3
Normal
350
F
100
AcDbDictionaryWithDefault
340
F
  0
LAYOUT
  5
1E
102
{ACAD_REACTORS
330
1A
102
}
330
1A
100
AcDbPlotSettings
  1

  2
none_device
  4

  6

 40
0.0
 41
0.0
 42
0.0
 43
0.0
 44
0.0
 45
0.0
 46
0.0
 47
0.0
 48
0.0
 49
0.0
140
0.0
141
0.0
142
1.0
143
1.0
 70
   688
 72
     0
 73
     0
 74
     5
  7

 75
    16
147
1.0
148
0.0
149
0.0
100
AcDbLayout
  1
Layout1
 70
     1
 71
     1
 10
0.0
 20
0.0
 11
420.0
 21
297.0
 12
0.0
 22
0.0
 32
0.0
 14
1.0000000000E+20
 24
1.0000000000E+20
 34
1.0000000000E+20
 15
-1.0000000000E+20
 25
-1.0000000000E+20
 35
-1.0000000000E+20
146
0.0
 13
0.0
 23
0.0
 33
0.0
 16
1.0
 26
0.0
 36
0.0
 17
0.0
 27
1.0
 37
0.0
 76
     0
330
1B
  0
LAYOUT
  5
26
102
{ACAD_REACTORS
330
1A
102
}
330
1A
100
AcDbPlotSettings
  1

  2
none_device
  4

  6

 40
0.0
 41
0.0
 42
0.0
 43
0.0
 44
0.0
 45
0.0
 46
0.0
 47
0.0
 48
0.0
 49
0.0
140
0.0
141
0.0
142
1.0
143
1.0
 70
   688
 72
     0
 73
     0
 74
     5
  7

 75
    16
147
1.0
148
0.0
149
0.0
100
AcDbLayout
  1
Layout2
 70
     1
 71
     2
 10
0.0
 20
0.0
 11
0.0
 21
0.0
 12
0.0
 22
0.0
 32
0.0
 14
0.0
 24
0.0
 34
0.0
 15
0.0
 25
0.0
 35
0.0
146
0.0
 13
0.0
 23
0.0
 33
0.0
 16
1.0
 26
0.0
 36
0.0
 17
0.0
 27
1.0
 37
0.0
 76
     0
330
23
  0
LAYOUT
  5
22
102
{ACAD_REACTORS
330
1A
102
}
330
1A
100
AcDbPlotSettings
  1

  2
none_device
  4

  6

 40
0.0
 41
0.0
 42
0.0
 43
0.0
 44
0.0
 45
0.0
 46
0.0
 47
0.0
 48
0.0
 49
0.0
140
0.0
141
0.0
142
1.0
143
1.0
 70
  1712
 72
     0
 73
     0
 74
     0
  7

 75
     0
147
1.0
148
0.0
149
0.0
100
AcDbLayout
  1
Model
 70
     1
 71
     0
 10
0.0
 20
0.0
 11
430.0
 21
275.0
 12
0.0
 22
0.0
 32
0.0
 14
0.0
 24
0.0
 34
0.0
 15
430.0
 25
275.0
 35
0.0
146
0.0
 13
0.0
 23
0.0
 33
0.0
 16
1.0
 26
0.0
 36
0.0
 17
0.0
 27
1.0
 37
0.0
 76
     0
330
1F
331
29
  0
MLINESTYLE
  5
18
102
{ACAD_REACTORS
330
17
102
}
330
17
100
AcDbMlineStyle
  2
Standard
 70
     0
  3

 62
   256
 51
90.0
 52
90.0
 71
     2
 49
0.5
 62
   256
  6
BYLAYER
 49
-0.5
 62
   256
  6
BYLAYER
  0
ACDBPLACEHOLDER
  5
F
102
{ACAD_REACTORS
330
E
102
}
330
E
  0
ENDSEC
  0
EOF
