<?xml version="1.0" encoding="UTF-8" standalone="no"?>
<svg
   xmlns:dc="http://purl.org/dc/elements/1.1/"
   xmlns:cc="http://creativecommons.org/ns#"
   xmlns:rdf="http://www.w3.org/1999/02/22-rdf-syntax-ns#"
   xmlns:svg="http://www.w3.org/2000/svg"
   xmlns="http://www.w3.org/2000/svg"
   xmlns:sodipodi="http://sodipodi.sourceforge.net/DTD/sodipodi-0.dtd"
   xmlns:inkscape="http://www.inkscape.org/namespaces/inkscape"
   width="206.37802mm"
   height="237.12314mm"
   id="svg4717"
   version="1.1"
   inkscape:version="0.91 r13725"
   sodipodi:docname="biccolo_layout_6.ink.svg">
  <metadata
     id="metadata6976">
    <rdf:RDF>
      <cc:Work
         rdf:about="">
        <dc:format>image/svg+xml</dc:format>
        <dc:type
           rdf:resource="http://purl.org/dc/dcmitype/StillImage" />
        <dc:title />
      </cc:Work>
    </rdf:RDF>
  </metadata>
  <sodipodi:namedview
     pagecolor="#ffffff"
     bordercolor="#666666"
     borderopacity="1"
     objecttolerance="10"
     gridtolerance="10"
     guidetolerance="10"
     inkscape:pageopacity="0"
     inkscape:pageshadow="2"
     inkscape:window-width="1366"
     inkscape:window-height="705"
     id="namedview6974"
     showgrid="false"
     inkscape:zoom="0.6342957"
     inkscape:cx="450.31324"
     inkscape:cy="424.39952"
     inkscape:window-x="-8"
     inkscape:window-y="-8"
     inkscape:window-maximized="1"
     inkscape:current-layer="g6266"
     fit-margin-left="10"
     fit-margin-top="10"
     fit-margin-bottom="10"
     fit-margin-right="10"
     units="mm" />
  <desc
     id="desc4719">C:\philetus\bottery_piccolo\Piccolo_Hardware\bottery_piccolo\biccolo_layout_6.dxf - scale = 1.000000, origin = (0.000000, 0.000000), auto = False</desc>
  <defs
     id="defs4721">
    <marker
       refY="0"
       refX="0"
       style="overflow:visible"
       id="DistanceX"
       orient="auto">
      <path
         style="stroke:#000000;stroke-width:0.5"
         d="M 3,-3 -3,3 M 0,-5 0,5"
         id="path4724"
         inkscape:connector-curvature="0" />
    </marker>
    <pattern
       height="8"
       width="8"
       patternUnits="userSpaceOnUse"
       y="0"
       x="0"
       id="Hatch">
      <path
         linecap="square"
         stroke="#000000"
         stroke-width="0.25"
         d="M8 4 l-4,4"
         id="path4727" />
      <path
         linecap="square"
         stroke="#000000"
         stroke-width="0.25"
         d="M6 2 l-4,4"
         id="path4729" />
      <path
         linecap="square"
         stroke="#000000"
         stroke-width="0.25"
         d="M4 0 l-4,4"
         id="path4731" />
    </pattern>
    <symbol
       id="*Model_Space" />
    <symbol
       id="*Paper_Space" />
    <symbol
       id="*Paper_Space0" />
    <symbol
       id="_D">
      <path
         style="fill:none;stroke:#000000;stroke-linecap:round"
         d="m 972.9429,363.47244 0,-7.77918"
         id="path4737"
         inkscape:connector-curvature="0" />
      <path
         style="fill:none;stroke:#000000;stroke-linecap:round"
         d="m 973.65157,363.47244 0,-7.77918"
         id="path4739"
         inkscape:connector-curvature="0" />
      <path
         style="fill:none;stroke:#000000;stroke-linecap:round"
         d="m 972.9429,366.94326 -22.5,0"
         id="path4741"
         inkscape:connector-curvature="0" />
      <path
         style="fill:none;stroke:#000000;stroke-linecap:round"
         d="m 973.65157,366.94326 78.85363,0"
         id="path4743"
         inkscape:connector-curvature="0" />
      <text
         y="361.37094"
         x="1052.5052"
         style="font-size:11.30000019px;line-height:125%;font-family:Arial;fill:#000000"
         sodipodi:linespacing="125%"
         id="text4745">
        <tspan
           sodipodi:role="line"
           id="tspan4747"
           x="1052.5052"
           y="361.37094">0.20</tspan>
      </text>
    </symbol>
    <symbol
       id="_D_1">
      <path
         style="fill:none;stroke:#000000;stroke-linecap:round"
         d="m 778.61223,355.76575 0,-12.84375"
         id="path4750"
         inkscape:connector-curvature="0" />
      <path
         style="fill:none;stroke:#000000;stroke-linecap:round"
         d="m 779.32089,355.76575 0,-12.84375"
         id="path4752"
         inkscape:connector-curvature="0" />
      <path
         style="fill:none;stroke:#000000;stroke-linecap:round"
         d="m 778.61223,354.172 -11.06302,0"
         id="path4754"
         inkscape:connector-curvature="0" />
      <path
         style="fill:none;stroke:#000000;stroke-linecap:round"
         d="m 779.32089,354.172 22.5,0"
         id="path4756"
         inkscape:connector-curvature="0" />
      <text
         y="348.59967"
         x="729.31482"
         style="font-size:11.30000019px;line-height:125%;font-family:Arial;fill:#000000"
         sodipodi:linespacing="125%"
         id="text4758">
        <tspan
           sodipodi:role="line"
           id="tspan4760"
           x="729.31482"
           y="348.59967">0.20</tspan>
      </text>
    </symbol>
    <symbol
       id="_D_2">
      <path
         style="fill:none;stroke:#000000;stroke-linecap:round"
         d="m 643.99606,388.77165 0,32.12846"
         id="path4763"
         inkscape:connector-curvature="0" />
      <path
         style="fill:none;stroke:#000000;stroke-linecap:round"
         d="m 644.70472,388.77165 0,32.12846"
         id="path4765"
         inkscape:connector-curvature="0" />
      <path
         style="fill:none;stroke:#000000;stroke-linecap:round"
         d="m 643.99606,409.65011 -15.60722,0"
         id="path4767"
         inkscape:connector-curvature="0" />
      <path
         style="fill:none;stroke:#000000;stroke-linecap:round"
         d="m 644.70472,409.65011 22.5,0"
         id="path4769"
         inkscape:connector-curvature="0" />
      <text
         y="404.07779"
         x="590.15448"
         style="font-size:11.30000019px;line-height:125%;font-family:Arial;fill:#000000"
         sodipodi:linespacing="125%"
         id="text4771">
        <tspan
           sodipodi:role="line"
           id="tspan4773"
           x="590.15448"
           y="404.07779">0.20</tspan>
      </text>
    </symbol>
    <symbol
       id="_D_3">
      <path
         style="fill:none;stroke:#000000;stroke-linecap:round"
         d="m 533.97638,480.17912 0,10.86832"
         id="path4776"
         inkscape:connector-curvature="0" />
      <path
         style="fill:none;stroke:#000000;stroke-linecap:round"
         d="m 534.68504,480.17912 0,10.86832"
         id="path4778"
         inkscape:connector-curvature="0" />
      <path
         style="fill:none;stroke:#000000;stroke-linecap:round"
         d="m 533.97638,479.79744 -19.64163,0"
         id="path4780"
         inkscape:connector-curvature="0" />
      <path
         style="fill:none;stroke:#000000;stroke-linecap:round"
         d="m 534.68504,479.79744 22.5,0"
         id="path4782"
         inkscape:connector-curvature="0" />
      <text
         y="474.2251"
         x="476.10037"
         style="font-size:11.30000019px;line-height:125%;font-family:Arial;fill:#000000"
         sodipodi:linespacing="125%"
         id="text4784">
        <tspan
           sodipodi:role="line"
           id="tspan4786"
           x="476.10037"
           y="474.2251">0.20</tspan>
      </text>
    </symbol>
    <symbol
       id="_D_4">
      <path
         style="fill:none;stroke:#000000;stroke-linecap:round"
         d="m 423.94608,760.0905 0,64.86024"
         id="path4789"
         inkscape:connector-curvature="0" />
      <path
         style="fill:none;stroke:#000000;stroke-linecap:round"
         d="m 423.23742,760.0905 0,64.86024"
         id="path4791"
         inkscape:connector-curvature="0" />
      <path
         style="fill:none;stroke:#000000;stroke-linecap:round"
         d="m 423.94608,813.70074 22.5,0"
         id="path4793"
         inkscape:connector-curvature="0" />
      <path
         style="fill:none;stroke:#000000;stroke-linecap:round"
         d="m 423.23742,813.70074 -13.26281,0"
         id="path4795"
         inkscape:connector-curvature="0" />
      <text
         y="808.12842"
         x="371.74023"
         style="font-size:11.30000019px;line-height:125%;font-family:Arial;fill:#000000"
         sodipodi:linespacing="125%"
         id="text4797">
        <tspan
           sodipodi:role="line"
           id="tspan4799"
           x="371.74023"
           y="808.12842">0.20</tspan>
      </text>
    </symbol>
    <symbol
       id="_D_5">
      <path
         style="fill:none;stroke:#000000;stroke-linecap:round"
         d="m 763.80944,917.07165 7.08625,0"
         id="path4802"
         inkscape:connector-curvature="0" />
      <path
         style="fill:none;stroke:#000000;stroke-linecap:round"
         d="m 763.80944,916.36299 7.08625,0"
         id="path4804"
         inkscape:connector-curvature="0" />
      <path
         style="fill:none;stroke:#000000;stroke-linecap:round"
         d="m 782.14569,951.01776 -22.5,0"
         id="path4806"
         inkscape:connector-curvature="0" />
      <path
         style="fill:none;stroke:#000000;stroke-linecap:round"
         d="m 759.64569,951.01776 0,-33.94611"
         id="path4808"
         inkscape:connector-curvature="0" />
      <path
         style="fill:none;stroke:#000000;stroke-linecap:round"
         d="m 759.64569,916.36299 0,-22.5"
         id="path4810"
         inkscape:connector-curvature="0" />
      <text
         y="945.44543"
         x="782.14569"
         style="font-size:11.30000019px;line-height:125%;font-family:Arial;fill:#000000"
         sodipodi:linespacing="125%"
         id="text4812">
        <tspan
           sodipodi:role="line"
           id="tspan4814"
           x="782.14569"
           y="945.44543">0.20</tspan>
      </text>
    </symbol>
  </defs>
  <g
     inkscape:label="0"
     inkscape:groupmode="layer"
     id="g4816"
     style="display:inline"
     transform="translate(6.6821932,-14.104532)" />
  <g
     inkscape:label="CUT"
     inkscape:groupmode="layer"
     id="g6266"
     style="display:inline"
     transform="translate(6.6821932,-14.104532)">
    <g
       id="g7549"
       transform="matrix(0,1,-1,0,643.7093,92.799631)"
       style="stroke-width:0.17716535;stroke-miterlimit:4;stroke-dasharray:none">
      <path
         d="m 159.54726,218.89766 0,-9.92126 m -27.63779,9.92126 27.63779,0 m -27.63779,-9.92126 0,9.92126 m 27.63779,-9.92126 -27.63779,0"
         style="fill:none;stroke:#ff0000;stroke-width:0.17716535;stroke-miterlimit:4;stroke-dasharray:none"
         id="path6274"
         inkscape:connector-curvature="0" />
      <path
         d="m 368.40549,463.18896 0,17.00787 m 9.92126,-17.00787 -9.92126,0 m 9.92126,17.00787 0,-17.00787 m -9.92126,17.00787 9.92126,0"
         style="fill:none;stroke:#ff0000;stroke-width:0.17716535;stroke-miterlimit:4;stroke-dasharray:none"
         id="path6282"
         inkscape:connector-curvature="0" />
      <path
         d="m 350.68896,218.89766 17.71653,0 m -17.71653,-9.92126 0,9.92126 m 27.63779,-9.92126 -27.63779,0 m 27.63779,17.00787 0,-17.00787 m -9.92126,17.00787 9.92126,0 m -9.92126,-7.08661 0,7.08661"
         style="fill:none;stroke:#ff0000;stroke-width:0.17716535;stroke-miterlimit:4;stroke-dasharray:none"
         id="path6294"
         inkscape:connector-curvature="0" />
      <path
         d="m 315.25589,463.18896 0,17.00787 m 9.92126,-17.00787 -9.92126,0 m 9.92126,17.00787 0,-17.00787 m -9.92126,17.00787 9.92126,0"
         style="fill:none;stroke:#ff0000;stroke-width:0.17716535;stroke-miterlimit:4;stroke-dasharray:none"
         id="path6302"
         inkscape:connector-curvature="0" />
      <path
         inkscape:connector-curvature="0"
         id="path6438"
         d="m 165.97399,426.28979 a 4.96063,4.96063 0 1 0 -9.92126,0 4.96063,4.96063 0 1 0 9.92126,0 z"
         style="fill:none;stroke:#ff0000;stroke-width:0.17716535;stroke-miterlimit:4;stroke-dasharray:none" />
      <path
         inkscape:connector-curvature="0"
         id="path6440"
         d="m 165.97399,238.08029 a 4.96063,4.96063 0 1 0 -9.92126,0 4.96063,4.96063 0 1 0 9.92126,0 z"
         style="fill:none;stroke:#ff0000;stroke-width:0.17716535;stroke-miterlimit:4;stroke-dasharray:none" />
      <path
         inkscape:connector-curvature="0"
         id="path6442"
         d="m 354.18349,426.28979 a 4.96063,4.96063 0 1 0 -9.92126,0 4.96063,4.96063 0 1 0 9.92126,0 z"
         style="fill:none;stroke:#ff0000;stroke-width:0.17716535;stroke-miterlimit:4;stroke-dasharray:none" />
      <path
         inkscape:connector-curvature="0"
         id="path6444"
         d="m 354.18349,238.08029 a 4.96063,4.96063 0 1 0 -9.92126,0 4.96063,4.96063 0 1 0 9.92126,0 z"
         style="fill:none;stroke:#ff0000;stroke-width:0.17716535;stroke-miterlimit:4;stroke-dasharray:none" />
      <path
         d="m 92.578758,147.85435 a 18.248031,18.248031 0 0 0 -18.248031,18.24803 m 106.702313,0 a 18.248031,18.248031 0 0 0 -18.24803,-18.24803 m 18.24803,240.36371 a 74.08507,74.08507 0 0 0 148.17014,0 m 4.0748,-240.36371 a 4.074803,4.074803 0 0 0 -4.0748,4.0748 m 106.70231,14.17323 a 18.248031,18.248031 0 0 0 -18.24803,-18.24803 m 0,368.66138 a 18.248031,18.248031 0 0 0 18.24803,-18.24803 m -361.574763,0 a 18.248031,18.248031 0 0 0 18.248031,18.24803 m 70.206252,-368.66138 -70.206252,0 m 88.454282,240.36371 0,-222.11568 m 148.17014,216.52167 0,5.59401 m -13.7116,-10.28365 13.7116,4.68964 m -13.7116,-11.35613 0,6.66649 m 13.7116,-11.35613 -13.7116,4.68964 m 13.7116,-9.90371 0,5.21407 m -13.7116,-9.90371 13.7116,4.68964 m -13.7116,-11.35613 0,6.66649 m 13.7116,-11.35613 -13.7116,4.68964 m 13.7116,-9.90371 0,5.21407 m -13.7116,-9.90372 13.7116,4.68965 m -13.7116,-11.35613 0,6.66648 m 13.7116,-11.35612 -13.7116,4.68964 m 13.7116,-9.90371 0,5.21407 m -13.7116,-9.90372 13.7116,4.68965 m -13.7116,-11.35613 0,6.66648 m 13.7116,-11.35613 -13.7116,4.68965 m 13.7116,-9.90372 0,5.21407 m -13.7116,-9.90371 13.7116,4.68964 m -13.7116,-11.35613 0,6.66649 m 13.7116,-11.35613 -13.7116,4.68964 m 13.7116,-9.90371 0,5.21407 m -13.7116,-9.90371 13.7116,4.68964 m -13.7116,-11.35613 0,6.66649 m 13.7116,-11.35613 -13.7116,4.68964 m 13.7116,-9.90371 0,5.21407 m -13.7116,-9.90372 13.7116,4.68965 m -13.7116,-11.35613 0,6.66648 m 13.7116,-11.35613 -13.7116,4.68965 m 13.7116,-9.90371 0,5.21406 m -13.7116,-9.90371 13.7116,4.68965 m -13.7116,-11.35613 0,6.66648 m 13.7116,-11.35613 -13.7116,4.68965 m 13.7116,-9.90372 0,5.21407 m -13.7116,-9.90371 13.7116,4.68964 m -13.7116,-11.35613 0,6.66649 m 13.7116,-11.35613 -13.7116,4.68964 m 13.7116,-9.90371 0,5.21407 m -13.7116,-9.90371 13.7116,4.68964 m -13.7116,-11.35613 0,6.66649 m 13.7116,-11.35613 -13.7116,4.68964 m 13.7116,-9.90371 0,5.21407 m -13.7116,-9.90372 13.7116,4.68965 m -13.7116,-11.35613 0,6.66648 m 13.7116,-11.35613 -13.7116,4.68965 m 13.7116,-6.74035 0,2.0507 m 88.45428,-6.1255 -84.37948,0 m 102.62751,350.41335 0,-332.16532 m -57.40157,350.41335 39.15354,0 m -39.15354,-10.98425 0,10.98425 m -34.94938,-10.98425 34.94938,0 m -34.94938,10.98425 0,-10.98425 m -35.65804,10.98425 35.65804,0 m -35.65804,-10.98425 0,10.98425 m -34.94937,-10.98425 34.94937,0 m -34.94937,10.98425 0,-10.98425 m -35.65804,10.98425 35.65804,0 m -35.65804,-10.98425 0,10.98425 m -34.94938,-10.98425 34.94938,0 m -34.94938,10.98425 0,-10.98425 m -35.65803,10.98425 35.65803,0 m -35.65803,-10.98425 0,10.98425 m -34.94938,-10.98425 34.94938,0 m -34.94938,10.98425 0,-10.98425 m -39.153542,10.98425 39.153542,0 m -57.401573,-350.41335 0,332.16532"
         style="fill:none;stroke:#ff0000;stroke-width:0.17716535;stroke-miterlimit:4;stroke-dasharray:none"
         id="path6458"
         inkscape:connector-curvature="0" />
    </g>
    <path
       id="path6586"
       style="fill:none;stroke:#ff0000;stroke-width:0.17716535;stroke-miterlimit:4;stroke-dasharray:none"
       d="m 533.35334,297.45379 0,6.90945 m 10.98425,-6.90945 -10.98425,0 m 10.98425,-34.72441 0,34.72441 m -10.98425,-34.72441 10.98425,0 m -10.98425,-36.14173 0,36.14173 m 10.98425,-36.14173 -10.98425,0 m 10.98425,-34.72441 0,34.72441 m -10.98425,-34.72441 10.98425,0 m -10.98425,-36.14173 0,36.14173 m 10.98425,-36.14173 -10.98425,0 m 10.98425,-34.72441 0,34.72441 m -10.98425,-34.72441 10.98425,0 m -10.98425,-16.2795 0,16.2795 m -210.47244,-16.2795 210.47244,0 M 322.8809,85.938075 l 0,18.779525 m 11.51575,-18.779525 -11.51575,0 m 11.51575,-24.80315 0,24.80315 m 4.42913,-24.80315 -4.42913,0 m 4.42913,-10.98425 0,10.98425 m 36.14173,-10.98425 -36.14173,0 m 36.14173,10.98425 0,-10.98425 m 34.72442,10.98425 -34.72442,0 m 34.72442,-10.98425 0,10.98425 m 36.14173,-10.98425 -36.14173,0 m 36.14173,10.98425 0,-10.98425 m 34.72441,10.98425 -34.72441,0 m 34.72441,-10.98425 0,10.98425 m 36.14173,-10.98425 -36.14173,0 m 36.14173,10.98425 0,-10.98425 m 34.72441,10.98425 -34.72441,0 m 34.72441,-10.98425 0,10.98425 m 36.49606,-10.98425 -36.49606,0 m 36.49606,485.413335 0,-485.413335 m -18.07087,485.413335 18.07087,0 m -18.07087,10.9843 0,-10.9843 m -36.49606,10.9843 36.49606,0 m -36.49606,-36.4961 0,36.4961 m 10.98425,-36.4961 -10.98425,0 m 10.98425,-34.7244 0,34.7244 m -10.98425,-34.7244 10.98425,0 m -10.98425,-36.14174 0,36.14174 m 10.98425,-36.14174 -10.98425,0 m 10.98425,-34.72441 0,34.72441 m -10.98425,-34.72441 10.98425,0 m -10.98425,-3.01181 0,3.01181 m -28.34646,-3.01181 28.34646,0 m -28.34646,-29.76378 0,29.76378 m 15.59056,-29.76378 -15.59056,0 m 15.59056,14.17323 0,-14.17323 m 12.7559,14.17323 -12.7559,0 m 12.7559,-26.92913 0,26.92913 m -52.79527,-26.92913 52.79527,0 m -52.79527,-10.98426 0,10.98426 m -34.72441,-10.98426 34.72441,0 m -34.72441,10.98426 0,-10.98426 m -36.14173,10.98426 36.14173,0 m -36.14173,-10.98426 0,10.98426 m -34.72442,-10.98426 34.72442,0 m -34.72442,10.98426 0,-10.98426 m -52.08661,10.98426 52.08661,0 m -52.08661,-18.77953 0,18.77953 m 11.51575,-18.77953 -11.51575,0 m 11.51575,-35.7874 0,35.7874 m 198.95669,-35.7874 -198.95669,0"
       inkscape:connector-curvature="0" />
    <g
       id="g7538"
       transform="matrix(0,-1,1,0,17.075568,1590.3148)"
       style="stroke-width:0.17716535;stroke-miterlimit:4;stroke-dasharray:none">
      <path
         d="m 963.02164,376.47638 9.92126,0 m -9.92126,-17.00788 0,17.00788 m 9.92126,-17.00788 -9.92126,0 m 9.92126,17.00788 0,-17.00788"
         style="fill:none;stroke:#ff0000;stroke-width:0.17716535;stroke-miterlimit:4;stroke-dasharray:none"
         id="path6594"
         inkscape:connector-curvature="0" />
      <path
         d="m 1003.061,199.31102 0,-9.92126 m -17.00786,9.92126 17.00786,0 m -17.00786,-9.92126 0,9.92126 m 17.00786,-9.92126 -17.00786,0"
         style="fill:none;stroke:#ff0000;stroke-width:0.17716535;stroke-miterlimit:4;stroke-dasharray:none"
         id="path6602"
         inkscape:connector-curvature="0" />
      <path
         d="m 961.95865,309.68504 -183.34642,0 m 183.34642,-57.22441 0,57.22441 m 10.98425,-57.22441 -10.98425,0 m 10.98425,-34.72441 0,34.72441 m -10.98425,-34.72441 10.98425,0 m -10.98425,-36.14173 0,36.14173 m 10.98425,-36.14173 -10.98425,0 m 10.98425,-36.43527 0,36.43527 m 21.61418,-14.8211 -21.61418,-21.61417 m 43.2284,0 -21.61422,21.61417 m 21.61422,14.8211 0,-36.43527 m 10.9842,36.43527 -10.9842,0 m 10.9842,36.14173 0,-36.14173 m -10.9842,36.14173 10.9842,0 m -10.9842,34.72441 0,-34.72441 m 10.9842,34.72441 -10.9842,0 m 10.9842,36.14173 0,-36.14173 m -10.9842,36.14173 10.9842,0 m -10.9842,34.72441 0,-34.72441 m 10.9842,34.72441 -10.9842,0 m 10.9842,36.14173 0,-36.14173 m -10.9842,36.14173 10.9842,0 m -10.9842,34.72441 0,-34.72441 m 10.9842,34.72441 -10.9842,0 m 10.9842,16.65355 0,-16.65355 m -36.3667,16.65355 36.3667,0 m -36.3667,-11.51575 0,11.51575 m -34.59504,-11.51575 34.59504,0 m -34.59504,11.51575 0,-11.51575 m -36.01237,11.51575 36.01237,0 m -36.01237,-11.51575 0,11.51575 m -34.59504,-11.51575 34.59504,0 m -34.59504,11.51575 0,-11.51575 m -36.01237,11.51575 36.01237,0 m -36.01237,-11.51575 0,11.51575 m -34.59505,-11.51575 34.59505,0 m -34.59505,11.51575 0,-11.51575 m -36.3667,11.51575 36.3667,0 m -36.3667,-101.16142 0,101.16142"
         style="fill:none;stroke:#ff0000;stroke-width:0.17716535;stroke-miterlimit:4;stroke-dasharray:none"
         id="path6680"
         inkscape:connector-curvature="0" />
    </g>
    <path
       id="path6768"
       style="fill:none;stroke:#ff0000;stroke-width:0.17716535;stroke-miterlimit:4;stroke-dasharray:none"
       d="m 65.424113,52.223292 -36.49607,0 m 36.49607,10.98425 0,-10.98425 m 34.724407,10.98425 -34.724407,0 m 34.724407,-10.98425 0,10.98425 m 36.14173,-10.98425 -36.14173,0 m 36.14173,10.98425 0,-10.98425 m 105.59049,10.98425 -105.59049,0 m 105.59049,-10.98425 0,10.98425 m 18.4252,-10.98425 -18.4252,0 m 18.4252,10.98425 0,-10.98425 m 22.1457,10.98425 -22.1457,0 m 22.1457,24.80315 0,-24.80315 m 11.5157,24.80315 -11.5157,0 m 11.5157,18.779528 0,-18.779528 m -210.472367,18.779528 210.472367,0 m -210.472367,16.27949 0,-16.27949 m -10.98425,16.27949 10.98425,0 m -10.98425,34.72441 0,-34.72441 m 10.98425,34.72441 -10.98425,0 m 10.98425,36.14173 0,-36.14173 m -10.98425,36.14173 10.98425,0 m -10.98425,34.72441 0,-34.72441 m 10.98425,34.72441 -10.98425,0 m 10.98425,36.14173 0,-36.14173 m -10.98425,36.14173 10.98425,0 m -10.98425,34.72441 0,-34.72441 m 10.98425,34.72441 -10.98425,0 m 10.98425,36.14173 0,-36.14173 m -10.98425,36.14173 10.98425,0 m -10.98425,34.72441 0,-34.72441 m 10.98425,34.72441 -10.98425,0 m 10.98425,36.14174 0,-36.14174 m -10.98425,36.14174 10.98425,0 m -10.98425,34.72441 0,-34.72441 m 10.98425,34.72441 -10.98425,0 m 10.98425,36.14173 0,-36.14173 m -10.98425,36.14173 10.98425,0 m -10.98425,34.72441 0,-34.72441 m 10.98425,34.72441 -10.98425,0 m 10.98425,36.49606 0,-36.49606 m -36.49606,36.49606 36.49606,0 m -36.49606,-10.98425 0,10.98425 m -18.07087,-10.98425 18.07087,0 m -18.07087,-485.413348 0,485.413348"
       inkscape:connector-curvature="0" />
    <path
       id="path6888"
       style="fill:none;stroke:#ff0000;stroke-width:0.17716535;stroke-miterlimit:4;stroke-dasharray:none"
       d="m 623.77144,368.59269 10.98425,0 m -10.98425,-36.14173 0,36.14173 m 10.98425,-36.14173 -10.98425,0 m 10.98425,-34.72441 0,34.72441 m -10.98425,-34.72441 10.98425,0 m -10.98425,-36.14173 0,36.14173 m 10.98425,-36.14173 -10.98425,0 m 10.98425,-34.72441 0,34.72441 m -10.98425,-34.72441 10.98425,0 m -10.98425,-36.14173 0,36.14173 m 10.98425,-36.14173 -10.98425,0 m 10.98425,-34.72441 0,34.72441 m -10.98425,-34.72441 10.98425,0 m -10.98425,-36.14174 0,36.14174 m 10.98425,-36.14174 -10.98425,0 m 10.98425,-59.153502 0,59.153502 m 12.40157,-59.153502 -12.40157,0 m 12.40157,-10.98426 0,10.98426 m 18.4252,-10.98426 -18.4252,0 m 18.4252,10.98426 0,-10.98426 m 12.40157,10.98426 -12.40157,0 m 12.40157,59.153502 0,-59.153502 m 10.98426,59.153502 -10.98426,0 m 10.98426,36.14174 0,-36.14174 m -10.98426,36.14174 10.98426,0 m -10.98426,34.72441 0,-34.72441 m 10.98426,34.72441 -10.98426,0 m 10.98426,36.14173 0,-36.14173 m -10.98426,36.14173 10.98426,0 m -10.98426,34.72441 0,-34.72441 m 10.98426,34.72441 -10.98426,0 m 10.98426,36.14173 0,-36.14173 m -10.98426,36.14173 10.98426,0 m -10.98426,49.78346 0,-49.78346 m -21.25984,49.78346 21.25984,0 m -21.25984,9.92126 0,-9.92126 m 21.25984,9.92126 -21.25984,0 m 21.25984,45.88583 0,-45.88583 m 10.98426,45.88583 -10.98426,0 m 10.98426,36.14173 0,-36.14173 m -10.98426,36.14173 10.98426,0 m -10.98426,34.72441 0,-34.72441 m 10.98426,34.72441 -10.98426,0 m 10.98426,36.14173 0,-36.14173 m -10.98426,36.14173 10.98426,0 m -10.98426,35.78741 0,-35.78741 m -13.11023,35.78741 13.11023,0 m -13.11023,-10.98426 0,10.98426 m -17.00788,-10.98426 17.00788,0 m -17.00788,10.98426 0,-10.98426 m -13.11023,10.98426 13.11023,0 m -13.11023,-35.78741 0,35.78741 m -10.98425,-35.78741 10.98425,0 m -10.98425,-36.14173 0,36.14173 m 10.98425,-36.14173 -10.98425,0 m 10.98425,-34.72441 0,34.72441 m -10.98425,-34.72441 10.98425,0 m -10.98425,-36.14173 0,36.14173 m 10.98425,-36.14173 -10.98425,0 m 10.98425,-34.72441 0,34.72441"
       inkscape:connector-curvature="0" />
    <path
       id="path6918"
       style="fill:none;stroke:#ff0000;stroke-width:0.17716535;stroke-miterlimit:4;stroke-dasharray:none"
       d="m 231.81762,708.0831 12.40157,0 m -12.40157,10.98426 0,-10.98426 m -18.4252,10.98426 18.4252,0 m -18.4252,-10.98426 0,10.98426 m -12.40158,-10.98426 12.40158,0 m -12.40158,-24.80314 0,24.80314 m -10.98425,-24.80314 10.98425,0 m -10.98425,-18.77953 0,18.77953 m 11.63212,-18.77953 -11.63212,0 m 32.59843,20.9663 -20.96631,-20.9663 m 41.93261,0 -20.9663,20.9663 m 32.59842,-20.9663 -11.63212,0 m 11.63212,18.77953 0,-18.77953 m -10.98425,18.77953 10.98425,0 m -10.98425,24.80314 0,-24.80314"
       inkscape:connector-curvature="0" />
    <path
       id="path6972"
       style="fill:none;stroke:#ff0000;stroke-width:0.17716535;stroke-miterlimit:4;stroke-dasharray:none"
       d="m 42.045005,606.51785 24.80315,0 m -24.80315,-6.95725 0,6.95725 m -11.51575,-6.95725 11.51575,0 m -11.51575,-29.40945 0,29.40945 m 101.161415,-29.40945 -101.161415,0 m 101.161415,183.34641 0,-183.34641 m 110.37402,183.34641 -110.37402,0 m 110.37402,32.24409 0,-32.24409 m 9.92126,32.24409 -9.92126,0 m 9.92126,-21.25984 0,21.25984 m 44.23055,-21.25984 -44.23055,0 m 22.61637,21.61418 21.61418,-21.61418 m 0,43.22835 -21.61418,-21.61417 m -85.68724,21.61417 107.30142,0 m -107.30142,10.98425 0,-10.98425 m -36.14173,10.98425 36.14173,0 m -36.14173,-10.98425 0,10.98425 m -34.72441,-10.98425 34.72441,0 m -34.72441,10.98425 0,-10.98425 m -36.141731,10.98425 36.141731,0 m -36.141731,-10.98425 0,10.98425 m -51.377954,-10.98425 51.377954,0 m -51.377954,-18.4252 0,18.4252 m 11.51575,-18.4252 -11.51575,0 m 11.51575,-6.95725 0,6.95725 m 24.80315,-6.95725 -24.80315,0 m 24.80315,-175.80986 0,175.80986"
       inkscape:connector-curvature="0" />
  </g>
</svg>
