<?xml version="1.0" encoding="UTF-8" standalone="no"?>
<svg
   xmlns:dc="http://purl.org/dc/elements/1.1/"
   xmlns:cc="http://creativecommons.org/ns#"
   xmlns:rdf="http://www.w3.org/1999/02/22-rdf-syntax-ns#"
   xmlns:svg="http://www.w3.org/2000/svg"
   xmlns="http://www.w3.org/2000/svg"
   xmlns:sodipodi="http://sodipodi.sourceforge.net/DTD/sodipodi-0.dtd"
   xmlns:inkscape="http://www.inkscape.org/namespaces/inkscape"
   width="744.094488189"
   height="1052.36220472"
   id="svg4136"
   version="1.1"
   inkscape:version="0.91 r13725"
   sodipodi:docname="biccolo_layout_1x.ink.svg">
  <metadata
     id="metadata6500">
    <rdf:RDF>
      <cc:Work
         rdf:about="">
        <dc:format>image/svg+xml</dc:format>
        <dc:type
           rdf:resource="http://purl.org/dc/dcmitype/StillImage" />
        <dc:title />
      </cc:Work>
    </rdf:RDF>
  </metadata>
  <sodipodi:namedview
     pagecolor="#ffffff"
     bordercolor="#666666"
     borderopacity="1"
     objecttolerance="10"
     gridtolerance="10"
     guidetolerance="10"
     inkscape:pageopacity="0"
     inkscape:pageshadow="2"
     inkscape:window-width="1366"
     inkscape:window-height="705"
     id="namedview6498"
     showgrid="false"
     inkscape:zoom="0.72030188"
     inkscape:cx="120.76919"
     inkscape:cy="670.12169"
     inkscape:window-x="-8"
     inkscape:window-y="-8"
     inkscape:window-maximized="1"
     inkscape:current-layer="g4228" />
  <desc
     id="desc4138">C:\philetus\bottery_piccolo\Piccolo_Hardware\bottery_piccolo\biccolo_layout_1.dxf - scale = 1.000000, origin = (0.000000, 0.000000), auto = False</desc>
  <defs
     id="defs4140">
    <marker
       refY="0.0"
       refX="0.0"
       style="overflow:visible"
       id="DistanceX"
       orient="auto">
      <path
         style="stroke:#000000; stroke-width:0.5"
         d="M 3,-3 L -3,3 M 0,-5 L  0,5"
         id="path4143" />
    </marker>
    <pattern
       height="8"
       width="8"
       patternUnits="userSpaceOnUse"
       y="0"
       x="0"
       id="Hatch">
      <path
         linecap="square"
         stroke="#000000"
         stroke-width="0.25"
         d="M8 4 l-4,4"
         id="path4146" />
      <path
         linecap="square"
         stroke="#000000"
         stroke-width="0.25"
         d="M6 2 l-4,4"
         id="path4148" />
      <path
         linecap="square"
         stroke="#000000"
         stroke-width="0.25"
         d="M4 0 l-4,4"
         id="path4150" />
    </pattern>
    <symbol
       id="*Model_Space" />
    <symbol
       id="*Paper_Space" />
    <symbol
       id="*Paper_Space0" />
    <symbol
       id="_D">
      <path
         style="stroke:#000000;fill:none;stroke-linecap: round"
         d="M 525.152895,209.148143 508.398823,192.899446"
         id="path4156" />
      <path
         style="stroke:#000000;fill:none;stroke-linecap: round"
         d="M 525.522921,208.766608 508.768849,192.517911"
         id="path4158" />
      <path
         style="stroke:#000000;fill:none;stroke-linecap: round"
         d="M 516.474643,200.731664 502.511039,215.129571"
         id="path4160" />
      <path
         style="stroke:#000000;fill:none;stroke-linecap: round"
         d="M 516.844669,200.350129 532.509105,184.198490"
         id="path4162" />
      <path
         style="stroke:#000000;fill:none;stroke-linecap: round"
         d="M 502.511039,215.129571 480.011039,215.129571"
         id="path4164" />
      <text
         y="209.557247"
         x="441.776665"
         style="font-size: 11.3px; fill: #000000; font-family: Arial"
         sodipodi:linespacing="125%"
         id="text4166">
        <tspan
           sodipodi:role="line"
           id="tspan4168">0.15</tspan>
      </text>
    </symbol>
    <symbol
       id="_D_1">
      <path
         style="stroke:#000000;fill:none;stroke-linecap: round"
         d="M 600.756914,251.489487 711.700850,217.570522"
         id="path4171" />
      <path
         style="stroke:#000000;fill:none;stroke-linecap: round"
         d="M 600.912308,251.997759 711.856244,218.078794"
         id="path4173" />
      <path
         style="stroke:#000000;fill:none;stroke-linecap: round"
         d="M 700.942421,220.859704 694.364058,199.342847"
         id="path4175" />
      <path
         style="stroke:#000000;fill:none;stroke-linecap: round"
         d="M 701.097816,221.367976 701.679991,223.272185"
         id="path4177" />
      <path
         style="stroke:#000000;fill:none;stroke-linecap: round"
         d="M 701.679991,223.272185 724.179991,223.272185"
         id="path4179" />
      <text
         y="217.699862"
         x="724.179991"
         style="font-size: 11.3px; fill: #000000; font-family: Arial"
         sodipodi:linespacing="125%"
         id="text4181">
        <tspan
           sodipodi:role="line"
           id="tspan4183">0.15</tspan>
      </text>
    </symbol>
    <symbol
       id="_D_2">
      <path
         style="stroke:#000000;fill:none;stroke-linecap: round"
         d="M 127.378300,345.426431 205.129267,345.426431"
         id="path4186" />
      <path
         style="stroke:#000000;fill:none;stroke-linecap: round"
         d="M 127.378300,344.717770 205.129267,344.717770"
         id="path4188" />
      <path
         style="stroke:#000000;fill:none;stroke-linecap: round"
         d="M 216.379267,307.408851 193.879267,307.408851"
         id="path4190" />
      <path
         style="stroke:#000000;fill:none;stroke-linecap: round"
         d="M 193.879267,307.408851 193.879267,344.717770"
         id="path4192" />
      <path
         style="stroke:#000000;fill:none;stroke-linecap: round"
         d="M 193.879267,345.426431 193.879267,367.926431"
         id="path4194" />
      <text
         y="301.836527"
         x="216.379267"
         style="font-size: 11.3px; fill: #000000; font-family: Arial"
         sodipodi:linespacing="125%"
         id="text4196">
        <tspan
           sodipodi:role="line"
           id="tspan4198">0.20</tspan>
      </text>
    </symbol>
    <symbol
       id="_D_3">
      <path
         style="stroke:#000000;fill:none;stroke-linecap: round"
         d="M 246.286202,511.656668 468.725160,511.656668"
         id="path4201" />
      <path
         style="stroke:#000000;fill:none;stroke-linecap: round"
         d="M 246.286202,511.125172 468.725160,511.125172"
         id="path4203" />
      <path
         style="stroke:#000000;fill:none;stroke-linecap: round"
         d="M 479.975160,452.312719 457.475160,452.312719"
         id="path4205" />
      <path
         style="stroke:#000000;fill:none;stroke-linecap: round"
         d="M 457.475160,452.312719 457.475160,511.125172"
         id="path4207" />
      <path
         style="stroke:#000000;fill:none;stroke-linecap: round"
         d="M 457.475160,511.656668 457.475160,534.156668"
         id="path4209" />
      <text
         y="446.740395"
         x="479.975160"
         style="font-size: 11.3px; fill: #000000; font-family: Arial"
         sodipodi:linespacing="125%"
         id="text4211">
        <tspan
           sodipodi:role="line"
           id="tspan4213">0.15</tspan>
      </text>
    </symbol>
    <symbol
       id="_D_4">
      <path
         style="stroke:#000000;fill:none;stroke-linecap: round"
         d="M 136.093316,595.444771 136.093316,582.959049"
         id="path4216" />
      <path
         style="stroke:#000000;fill:none;stroke-linecap: round"
         d="M 136.801977,595.444771 136.801977,582.959049"
         id="path4218" />
      <path
         style="stroke:#000000;fill:none;stroke-linecap: round"
         d="M 136.093316,594.209049 88.241999,594.209049"
         id="path4220" />
      <path
         style="stroke:#000000;fill:none;stroke-linecap: round"
         d="M 136.801977,594.209049 159.301977,594.209049"
         id="path4222" />
      <text
         y="588.636726"
         x="50.007625"
         style="font-size: 11.3px; fill: #000000; font-family: Arial"
         sodipodi:linespacing="125%"
         id="text4224">
        <tspan
           sodipodi:role="line"
           id="tspan4226">0.20</tspan>
      </text>
    </symbol>
  </defs>
  <g
     inkscape:label="0"
     inkscape:groupmode="layer"
     id="g4228">
    <g
       id="g5215"
       transform="translate(4.4175652,-5.8900869)">
      <path
         d="m 524.19204,207.16328 a 39.349585,39.349585 0 0 0 2.16709,2.91476 m 0.29945,-7.75563 a 74.940945,74.940945 0 0 0 -2.46654,4.84087 m 6.09842,-4.8009 a 39.349585,39.349585 0 0 0 -3.63188,-0.04 m 9.51676,1.06464 a 25.979274,25.979274 0 0 0 -5.88488,-1.02467 m 8.27386,2.07116 a 10.438277,10.438277 0 0 0 -2.38898,-1.04649 m 2.38898,1.04649 a 5.590127,5.590127 0 0 0 1.54819,0.63272 m 0,0 a 1.793198,1.793198 0 0 0 0.86287,-0.004 m 3.33108,-4.58483 a 75.127652,75.127652 0 0 0 -3.33108,4.58483 m 3.33108,-4.58483 a 1.793198,1.793198 0 0 0 -0.2624,-0.82202 m 0,0 a 5.590127,5.590127 0 0 0 -1.08018,-1.27689 m -1.7335,-1.94867 a 10.438277,10.438277 0 0 0 1.7335,1.94867 m -4.52655,-7.22888 a 25.979274,25.979274 0 0 0 2.79305,5.28021 m -3.95337,-8.72199 a 39.349585,39.349585 0 0 0 1.16032,3.44178 m 2.68141,-7.28351 a 74.940945,74.940945 0 0 0 -3.84173,3.84173 m 7.2835,-2.68141 a 39.349585,39.349585 0 0 0 -3.44177,-1.16032 m 8.72198,3.95337 a 25.979274,25.979274 0 0 0 -5.28021,-2.79305 m 7.22889,4.52656 a 10.438277,10.438277 0 0 0 -1.94868,-1.73351 m 1.94868,1.73351 a 5.590127,5.590127 0 0 0 1.27689,1.08017 m 0,0 a 1.793198,1.793198 0 0 0 0.82201,0.2624 m 4.58484,-3.33108 a 75.127652,75.127652 0 0 0 -4.58484,3.33108 m 4.58484,-3.33108 a 1.793198,1.793198 0 0 0 0.004,-0.86287 m 0,0 a 5.590127,5.590127 0 0 0 -0.63273,-1.54819 m -1.04648,-2.38898 a 10.438277,10.438277 0 0 0 1.04648,2.38898 m -2.07116,-8.27386 a 25.979274,25.979274 0 0 0 1.02468,5.88488 m -1.06464,-9.51675 a 39.349585,39.349585 0 0 0 0.04,3.63187 m 4.8009,-6.09842 a 74.940945,74.940945 0 0 0 -4.84086,2.46655 m 7.75562,-0.29945 a 39.349585,39.349585 0 0 0 -2.91476,-2.1671 m 7.07344,6.45512 a 25.979274,25.979274 0 0 0 -4.15868,-4.28802 m 5.4763,6.53886 a 10.438277,10.438277 0 0 0 -1.31762,-2.25084 m 1.31762,2.25084 a 5.590127,5.590127 0 0 0 0.8806,1.42188 m 0,0 a 1.793198,1.793198 0 0 0 0.7007,0.50358 m 5.3898,-1.75126 a 75.127652,75.127652 0 0 0 -5.3898,1.75126 m 5.3898,-1.75126 a 1.793198,1.793198 0 0 0 0.27088,-0.81925 m 0,0 a 5.590127,5.590127 0 0 0 -0.12334,-1.66794 m -0.25703,-2.59544 a 10.438277,10.438277 0 0 0 0.25703,2.59544 m 0.58697,-8.50893 a 25.979274,25.979274 0 0 0 -0.844,5.91349 m 1.9283,-9.37996 a 39.349585,39.349585 0 0 0 -1.0843,3.46647 m 6.45045,-4.31639 a 74.940945,74.940945 0 0 0 -5.36615,0.84992 m 7.46858,2.11182 a 39.349585,39.349585 0 0 0 -2.10243,-2.96174 m 4.73249,8.325 a 25.979274,25.979274 0 0 0 -2.63006,-5.36326 m 3.18764,7.9111 a 10.438277,10.438277 0 0 0 -0.55758,-2.54784 m 0.55758,2.54784 a 5.590127,5.590127 0 0 0 0.39813,1.62441 m 0,0 a 1.793198,1.793198 0 0 0 0.51078,0.69546 m 5.66717,0 a 75.127652,75.127652 0 0 0 -5.66717,0 m 5.66717,0 a 1.793198,1.793198 0 0 0 0.51079,-0.69546 m 0,0 a 5.590127,5.590127 0 0 0 0.39812,-1.62441 m 0.55758,-2.54784 a 10.438277,10.438277 0 0 0 -0.55758,2.54784 m 3.18765,-7.9111 a 25.979274,25.979274 0 0 0 -2.63007,5.36326 m 4.7325,-8.325 a 39.349585,39.349585 0 0 0 -2.10243,2.96174 m 7.46857,-2.11182 a 74.940945,74.940945 0 0 0 -5.36614,-0.84992 m 6.45044,4.31639 a 39.349585,39.349585 0 0 0 -1.0843,-3.46647 m 1.92831,9.37996 a 25.979274,25.979274 0 0 0 -0.84401,-5.91349 m 0.58697,8.50893 a 10.438277,10.438277 0 0 0 0.25704,-2.59544 m -0.25704,2.59544 a 5.590127,5.590127 0 0 0 -0.12333,1.66794 m 0,0 a 1.793198,1.793198 0 0 0 0.27088,0.81925 m 5.3898,1.75126 a 75.127652,75.127652 0 0 0 -5.3898,-1.75126 m 5.3898,1.75126 a 1.793198,1.793198 0 0 0 0.70069,-0.50358 m 0,0 a 5.590127,5.590127 0 0 0 0.88061,-1.42188 m 1.31761,-2.25084 a 10.438277,10.438277 0 0 0 -1.31761,2.25084 m 5.47629,-6.53886 a 25.979274,25.979274 0 0 0 -4.15868,4.28802 m 7.07344,-6.45512 a 39.349585,39.349585 0 0 0 -2.91476,2.1671 m 7.75563,0.29945 a 74.940945,74.940945 0 0 0 -4.84087,-2.46655 m 4.8009,6.09842 a 39.349585,39.349585 0 0 0 0.04,-3.63187 m -1.06464,9.51675 a 25.979274,25.979274 0 0 0 1.02467,-5.88488 m -2.07116,8.27386 a 10.438277,10.438277 0 0 0 1.04649,-2.38898 m -1.04649,2.38898 a 5.590127,5.590127 0 0 0 -0.63272,1.54819 m 0,0 a 1.793198,1.793198 0 0 0 0.004,0.86287 m 4.58483,3.33108 a 75.127652,75.127652 0 0 0 -4.58483,-3.33108 m 4.58483,3.33108 a 1.793198,1.793198 0 0 0 0.82201,-0.2624 m 0,0 a 5.590127,5.590127 0 0 0 1.2769,-1.08017 m 1.94867,-1.73351 a 10.438277,10.438277 0 0 0 -1.94867,1.73351 m 7.22888,-4.52656 a 25.979274,25.979274 0 0 0 -5.28021,2.79305 m 8.72198,-3.95337 a 39.349585,39.349585 0 0 0 -3.44177,1.16032 m 7.28351,2.68141 A 74.940945,74.940945 0 0 0 643.189,183.8661 m 2.68142,7.28351 a 39.349585,39.349585 0 0 0 1.16032,-3.44178 m -3.95337,8.72199 a 25.979274,25.979274 0 0 0 2.79305,-5.28021 m -4.52656,7.22888 a 10.438277,10.438277 0 0 0 1.73351,-1.94867 m -1.73351,1.94867 a 5.590127,5.590127 0 0 0 -1.08017,1.27689 m 0,0 a 1.793198,1.793198 0 0 0 -0.2624,0.82202 m 3.33108,4.58483 a 75.127652,75.127652 0 0 0 -3.33108,-4.58483 m 3.33108,4.58483 a 1.793198,1.793198 0 0 0 0.86286,0.004 m 0,0 a 5.590127,5.590127 0 0 0 1.5482,-0.63272 m 2.38898,-1.04649 a 10.438277,10.438277 0 0 0 -2.38898,1.04649 m 8.27386,-2.07116 a 25.979274,25.979274 0 0 0 -5.88488,1.02467 m 9.51675,-1.06464 a 39.349585,39.349585 0 0 0 -3.63187,0.04 m 6.09842,4.8009 a 74.940945,74.940945 0 0 0 -2.46655,-4.84087 m 0.29945,7.75563 a 39.349585,39.349585 0 0 0 2.1671,-2.91476 m -6.45512,7.07344 a 25.979274,25.979274 0 0 0 4.28802,-4.15868 m -6.53886,5.47629 a 10.438277,10.438277 0 0 0 2.25084,-1.31761 m -2.25084,1.31761 a 5.590127,5.590127 0 0 0 -1.42189,0.88061 m 0,0 a 1.793198,1.793198 0 0 0 -0.50357,0.70069 m 1.75125,5.3898 a 75.127652,75.127652 0 0 0 -1.75125,-5.3898 m 1.75125,5.3898 a 1.793198,1.793198 0 0 0 0.81926,0.27088 m 0,0 a 5.590127,5.590127 0 0 0 1.66794,-0.12334 m 2.59544,-0.25703 a 10.438277,10.438277 0 0 0 -2.59544,0.25703 m 8.50893,0.58698 a 25.979274,25.979274 0 0 0 -5.91349,-0.84401 m 9.37996,1.92831 a 39.349585,39.349585 0 0 0 -3.46647,-1.0843 m 4.31639,6.45044 a 74.940945,74.940945 0 0 0 -0.84992,-5.36614 m -2.11182,7.46857 a 39.349585,39.349585 0 0 0 2.96174,-2.10243 m -8.325,4.7325 a 25.979274,25.979274 0 0 0 5.36326,-2.63007 m -7.9111,3.18765 a 10.438277,10.438277 0 0 0 2.54784,-0.55758 m -2.54784,0.55758 a 5.590127,5.590127 0 0 0 -1.62442,0.39812 m 0,0 a 1.793198,1.793198 0 0 0 -0.69545,0.51079 m 0,5.66717 a 75.127652,75.127652 0 0 0 0,-5.66717 m 0,5.66717 a 1.793198,1.793198 0 0 0 0.69545,0.51078 m 0,0 a 5.590127,5.590127 0 0 0 1.62442,0.39812 m 2.54784,0.55758 a 10.438277,10.438277 0 0 0 -2.54784,-0.55758 m 7.9111,3.18765 a 25.979274,25.979274 0 0 0 -5.36326,-2.63007 m 8.325,4.7325 a 39.349585,39.349585 0 0 0 -2.96174,-2.10243 m 2.11182,7.46857 a 74.940945,74.940945 0 0 0 0.84992,-5.36614 m -4.31639,6.45045 a 39.349585,39.349585 0 0 0 3.46647,-1.08431 m -9.37996,1.92831 a 25.979274,25.979274 0 0 0 5.91349,-0.844 m -8.50893,0.58697 a 10.438277,10.438277 0 0 0 2.59544,0.25703 m -2.59544,-0.25703 a 5.590127,5.590127 0 0 0 -1.66794,-0.12334 m 0,0 a 1.793198,1.793198 0 0 0 -0.81926,0.27088 m -1.75125,5.3898 a 75.127652,75.127652 0 0 0 1.75125,-5.3898 m -1.75125,5.3898 a 1.793198,1.793198 0 0 0 0.50357,0.70069 m 0,0 a 5.590127,5.590127 0 0 0 1.42189,0.88061 m 2.25084,1.31762 a 10.438277,10.438277 0 0 0 -2.25084,-1.31762 m 6.53886,5.4763 a 25.979274,25.979274 0 0 0 -4.28802,-4.15868 m 6.45512,7.07344 a 39.349585,39.349585 0 0 0 -2.1671,-2.91476 m -0.29945,7.75562 a 74.940945,74.940945 0 0 0 2.46655,-4.84086 m -6.09842,4.8009 a 39.349585,39.349585 0 0 0 3.63187,0.04 m -9.51675,-1.06464 a 25.979274,25.979274 0 0 0 5.88488,1.02468 m -8.27386,-2.07116 a 10.438277,10.438277 0 0 0 2.38898,1.04648 m -2.38898,-1.04648 a 5.590127,5.590127 0 0 0 -1.5482,-0.63273 m 0,0 a 1.793198,1.793198 0 0 0 -0.86286,0.004 m -3.33108,4.58484 a 75.127652,75.127652 0 0 0 3.33108,-4.58484 m -3.33108,4.58484 a 1.793198,1.793198 0 0 0 0.2624,0.82201 m 0,0 a 5.590127,5.590127 0 0 0 1.08017,1.27689 m 1.73351,1.94868 a 10.438277,10.438277 0 0 0 -1.73351,-1.94868 m 4.52656,7.22889 a 25.979274,25.979274 0 0 0 -2.79305,-5.28021 m 3.95337,8.72198 a 39.349585,39.349585 0 0 0 -1.16032,-3.44177 m -2.68142,7.2835 a 74.940945,74.940945 0 0 0 3.84174,-3.84173 m -7.28351,2.68141 a 39.349585,39.349585 0 0 0 3.44177,1.16032 m -8.72198,-3.95337 a 25.979274,25.979274 0 0 0 5.28021,2.79305 m -7.22888,-4.52655 a 10.438277,10.438277 0 0 0 1.94867,1.7335 m -1.94867,-1.7335 a 5.590127,5.590127 0 0 0 -1.2769,-1.08018 m 0,0 a 1.793198,1.793198 0 0 0 -0.82201,-0.2624 m -4.58483,3.33108 a 75.127652,75.127652 0 0 0 4.58483,-3.33108 m -4.58483,3.33108 a 1.793198,1.793198 0 0 0 -0.004,0.86287 m 0,0 a 5.590127,5.590127 0 0 0 0.63272,1.54819 m 1.04649,2.38898 a 10.438277,10.438277 0 0 0 -1.04649,-2.38898 m 2.07116,8.27386 a 25.979274,25.979274 0 0 0 -1.02467,-5.88488 m 1.06464,9.51676 a 39.349585,39.349585 0 0 0 -0.04,-3.63188 m -4.8009,6.09842 a 74.940945,74.940945 0 0 0 4.84087,-2.46654 m -7.75563,0.29944 a 39.349585,39.349585 0 0 0 2.91476,2.1671 m -7.07344,-6.45512 a 25.979274,25.979274 0 0 0 4.15868,4.28802 m -5.47629,-6.53885 a 10.438277,10.438277 0 0 0 1.31761,2.25083 m -1.31761,-2.25083 a 5.590127,5.590127 0 0 0 -0.88061,-1.42189 m 0,0 a 1.793198,1.793198 0 0 0 -0.70069,-0.50357 m -5.3898,1.75125 a 75.127652,75.127652 0 0 0 5.3898,-1.75125 m -5.3898,1.75125 a 1.793198,1.793198 0 0 0 -0.27088,0.81925 m 0,0 a 5.590127,5.590127 0 0 0 0.12333,1.66794 m 0.25704,2.59544 a 10.438277,10.438277 0 0 0 -0.25704,-2.59544 m -0.58697,8.50894 a 25.979274,25.979274 0 0 0 0.84401,-5.9135 m -1.92831,9.37997 a 39.349585,39.349585 0 0 0 1.0843,-3.46647 m -6.45044,4.31638 a 74.940945,74.940945 0 0 0 5.36614,-0.84991 m -7.46857,-2.11183 a 39.349585,39.349585 0 0 0 2.10243,2.96174 m -4.7325,-8.325 a 25.979274,25.979274 0 0 0 2.63007,5.36326 m -3.18765,-7.91109 a 10.438277,10.438277 0 0 0 0.55758,2.54783 m -0.55758,-2.54783 a 5.590127,5.590127 0 0 0 -0.39812,-1.62442 m 0,0 a 1.793198,1.793198 0 0 0 -0.51079,-0.69545 m -5.66717,0 a 75.127652,75.127652 0 0 0 5.66717,0 m -5.66717,0 a 1.793198,1.793198 0 0 0 -0.51078,0.69545 m 0,0 a 5.590127,5.590127 0 0 0 -0.39813,1.62442 m -0.55758,2.54783 a 10.438277,10.438277 0 0 0 0.55758,-2.54783 m -3.18764,7.91109 a 25.979274,25.979274 0 0 0 2.63006,-5.36326 m -4.73249,8.325 a 39.349585,39.349585 0 0 0 2.10243,-2.96174 m -7.46858,2.11183 a 74.940945,74.940945 0 0 0 5.36615,0.84991 m -6.45045,-4.31638 a 39.349585,39.349585 0 0 0 1.0843,3.46647 m -1.9283,-9.37997 a 25.979274,25.979274 0 0 0 0.844,5.9135 m -0.58697,-8.50894 a 10.438277,10.438277 0 0 0 -0.25703,2.59544 m 0.25703,-2.59544 a 5.590127,5.590127 0 0 0 0.12334,-1.66794 m 0,0 a 1.793198,1.793198 0 0 0 -0.27088,-0.81925 m -5.3898,-1.75125 a 75.127652,75.127652 0 0 0 5.3898,1.75125 m -5.3898,-1.75125 a 1.793198,1.793198 0 0 0 -0.7007,0.50357 m 0,0 a 5.590127,5.590127 0 0 0 -0.8806,1.42189 m -1.31762,2.25083 a 10.438277,10.438277 0 0 0 1.31762,-2.25083 m -5.4763,6.53885 a 25.979274,25.979274 0 0 0 4.15868,-4.28802 m -7.07344,6.45512 a 39.349585,39.349585 0 0 0 2.91476,-2.1671 m -7.75562,-0.29944 a 74.940945,74.940945 0 0 0 4.84086,2.46654 m -4.8009,-6.09842 a 39.349585,39.349585 0 0 0 -0.04,3.63188 m 1.06464,-9.51676 a 25.979274,25.979274 0 0 0 -1.02468,5.88488 m 2.07116,-8.27386 a 10.438277,10.438277 0 0 0 -1.04648,2.38898 m 1.04648,-2.38898 a 5.590127,5.590127 0 0 0 0.63273,-1.54819 m 0,0 a 1.793198,1.793198 0 0 0 -0.004,-0.86287 m -4.58484,-3.33108 a 75.127652,75.127652 0 0 0 4.58484,3.33108 m -4.58484,-3.33108 a 1.793198,1.793198 0 0 0 -0.82201,0.2624 m 0,0 a 5.590127,5.590127 0 0 0 -1.27689,1.08018 m -1.94868,1.7335 a 10.438277,10.438277 0 0 0 1.94868,-1.7335 m -7.22889,4.52655 a 25.979274,25.979274 0 0 0 5.28021,-2.79305 m -8.72198,3.95337 a 39.349585,39.349585 0 0 0 3.44177,-1.16032 m -7.2835,-2.68141 a 74.940945,74.940945 0 0 0 3.84173,3.84173 m -2.68141,-7.2835 a 39.349585,39.349585 0 0 0 -1.16032,3.44177 m 3.95337,-8.72198 a 25.979274,25.979274 0 0 0 -2.79305,5.28021 m 4.52655,-7.22889 a 10.438277,10.438277 0 0 0 -1.7335,1.94868 m 1.7335,-1.94868 a 5.590127,5.590127 0 0 0 1.08018,-1.27689 m 0,0 a 1.793198,1.793198 0 0 0 0.2624,-0.82201 m -3.33108,-4.58484 a 75.127652,75.127652 0 0 0 3.33108,4.58484 m -3.33108,-4.58484 a 1.793198,1.793198 0 0 0 -0.86287,-0.004 m 0,0 a 5.590127,5.590127 0 0 0 -1.54819,0.63273 m -2.38898,1.04648 a 10.438277,10.438277 0 0 0 2.38898,-1.04648 m -8.27386,2.07116 a 25.979274,25.979274 0 0 0 5.88488,-1.02468 m -9.51676,1.06464 a 39.349585,39.349585 0 0 0 3.63188,-0.04 m -6.09842,-4.8009 a 74.940945,74.940945 0 0 0 2.46654,4.84086 m -0.29945,-7.75562 a 39.349585,39.349585 0 0 0 -2.16709,2.91476 m 6.45512,-7.07344 a 25.979274,25.979274 0 0 0 -4.28803,4.15868 m 6.53886,-5.4763 a 10.438277,10.438277 0 0 0 -2.25083,1.31762 m 2.25083,-1.31762 a 5.590127,5.590127 0 0 0 1.42189,-0.88061 m 0,0 a 1.793198,1.793198 0 0 0 0.50357,-0.70069 m -1.75125,-5.3898 a 75.127652,75.127652 0 0 0 1.75125,5.3898 m -1.75125,-5.3898 a 1.793198,1.793198 0 0 0 -0.81926,-0.27088 m 0,0 a 5.590127,5.590127 0 0 0 -1.66793,0.12334 m -2.59544,0.25703 a 10.438277,10.438277 0 0 0 2.59544,-0.25703 m -8.50894,-0.58697 a 25.979274,25.979274 0 0 0 5.9135,0.844 m -9.37997,-1.92831 a 39.349585,39.349585 0 0 0 3.46647,1.08431 m -4.31638,-6.45045 a 74.940945,74.940945 0 0 0 0.84991,5.36614 m 2.11183,-7.46857 a 39.349585,39.349585 0 0 0 -2.96174,2.10243 m 8.325,-4.7325 a 25.979274,25.979274 0 0 0 -5.36326,2.63007 m 7.91109,-3.18765 a 10.438277,10.438277 0 0 0 -2.54783,0.55758 m 2.54783,-0.55758 a 5.590127,5.590127 0 0 0 1.62442,-0.39812 m 0,0 a 1.793198,1.793198 0 0 0 0.69545,-0.51078 m 0,-5.66717 a 75.127652,75.127652 0 0 0 0,5.66717 m 0,-5.66717 a 1.793198,1.793198 0 0 0 -0.69545,-0.51079 m 0,0 a 5.590127,5.590127 0 0 0 -1.62442,-0.39812 m -2.54783,-0.55758 a 10.438277,10.438277 0 0 0 2.54783,0.55758 m -7.91109,-3.18765 a 25.979274,25.979274 0 0 0 5.36326,2.63007 m -8.325,-4.7325 a 39.349585,39.349585 0 0 0 2.96174,2.10243 m -2.11183,-7.46857 a 74.940945,74.940945 0 0 0 -0.84991,5.36614 m 4.31638,-6.45044 a 39.349585,39.349585 0 0 0 -3.46647,1.0843 m 9.37997,-1.92831 a 25.979274,25.979274 0 0 0 -5.9135,0.84401 m 8.50894,-0.58698 a 10.438277,10.438277 0 0 0 -2.59544,-0.25703 m 2.59544,0.25703 a 5.590127,5.590127 0 0 0 1.66793,0.12334 m 0,0 a 1.793198,1.793198 0 0 0 0.81926,-0.27088 m 1.75125,-5.3898 a 75.127652,75.127652 0 0 0 -1.75125,5.3898 m 1.75125,-5.3898 a 1.793198,1.793198 0 0 0 -0.50357,-0.70069 m 0,0 a 5.590127,5.590127 0 0 0 -1.42189,-0.88061 m -2.25083,-1.31761 a 10.438277,10.438277 0 0 0 2.25083,1.31761 m -6.53886,-5.47629 a 25.979274,25.979274 0 0 0 4.28803,4.15868"
         style="fill:none;stroke:#000000;stroke-width:0.17716534;stroke-linecap:round;stroke-miterlimit:4;stroke-dasharray:none"
         id="path5190"
         inkscape:connector-curvature="0" />
      <path
         id="path5674"
         d="m 606.85902,238.74296 a 14.704724,14.704724 0 1 0 -29.40945,0 14.704724,14.704724 0 1 0 29.40945,0 z"
         style="fill:none;stroke:#000000;stroke-width:0.17716534;stroke-linecap:round;stroke-miterlimit:4;stroke-dasharray:none"
         inkscape:connector-curvature="0" />
    </g>
    <g
       id="g5228">
      <path
         d="m 127.83893,380.21002 0,-34.78359 m -9.92126,34.78359 9.92126,0 m -9.92126,-34.78359 0,34.78359 m 9.92126,-34.78359 -9.92126,0"
         style="stroke:#000000;fill:none;stroke-linecap:round;stroke-width:0.17716535;stroke-miterlimit:4;stroke-dasharray:none"
         id="path6068" />
      <path
         d="m 152.70125,203.45744 -34.78358,0 m 34.78358,9.92126 0,-9.92126 m -24.86232,9.92126 24.86232,0 m -24.86232,24.86233 0,-24.86233 m -9.92126,24.86233 9.92126,0 m -9.92126,-34.78359 0,34.78359"
         style="stroke:#000000;fill:none;stroke-linecap:round;stroke-width:0.17716535;stroke-miterlimit:4;stroke-dasharray:none"
         id="path6080" />
      <path
         d="m 127.83893,274.44194 -9.92126,0 m 9.92126,34.78358 0,-34.78358 m -9.92126,34.78358 9.92126,0 m -9.92126,-34.78358 0,34.78358"
         style="stroke:#000000;fill:none;stroke-linecap:round;stroke-width:0.17716535;stroke-miterlimit:4;stroke-dasharray:none"
         id="path6088" />
      <path
         d="m 152.70125,441.27325 -24.86232,0 m 24.86232,9.92126 0,-9.92126 m -34.78358,9.92126 34.78358,0 m -34.78358,-34.78359 0,34.78359 m 9.92126,-34.78359 -9.92126,0 m 9.92126,24.86233 0,-24.86233"
         style="stroke:#000000;fill:none;stroke-linecap:round;stroke-width:0.17716535;stroke-miterlimit:4;stroke-dasharray:none"
         id="path6100" />
      <path
         d="m 355.73347,309.22552 9.92127,0 m -9.92127,-34.78358 0,34.78358 m 9.92127,-34.78358 -9.92127,0 m 9.92127,34.78358 0,-34.78358"
         style="stroke:#000000;fill:none;stroke-linecap:round;stroke-width:0.17716535;stroke-miterlimit:4;stroke-dasharray:none"
         id="path6108" />
      <path
         d="m 330.87115,213.3787 24.86232,0 m -24.86232,-9.92126 0,9.92126 m 34.78359,-9.92126 -34.78359,0 m 34.78359,34.78359 0,-34.78359 m -9.92127,34.78359 9.92127,0 m -9.92127,-24.86233 0,24.86233"
         style="stroke:#000000;fill:none;stroke-linecap:round;stroke-width:0.17716535;stroke-miterlimit:4;stroke-dasharray:none"
         id="path6120" />
      <path
         d="m 365.65474,380.21002 0,-34.78359 m -9.92127,34.78359 9.92127,0 m -9.92127,-34.78359 0,34.78359 m 9.92127,-34.78359 -9.92127,0"
         style="stroke:#000000;fill:none;stroke-linecap:round;stroke-width:0.17716535;stroke-miterlimit:4;stroke-dasharray:none"
         id="path6128" />
      <path
         d="m 330.87115,451.19451 34.78359,0 m -34.78359,-9.92126 0,9.92126 m 24.86232,-9.92126 -24.86232,0 m 24.86232,-24.86233 0,24.86233 m 9.92127,-24.86233 -9.92127,0 m 9.92127,34.78359 0,-34.78359"
         style="stroke:#000000;fill:none;stroke-linecap:round;stroke-width:0.17716535;stroke-miterlimit:4;stroke-dasharray:none"
         id="path6140" />
      <path
         id="path6266"
         d="M 152.642079,421.430730 A 4.960630,4.960630 -0.000000 1 0 142.720819,421.430730 4.960630,4.960630 -0.000000 1 0 152.642079,421.430730 z"
         style="stroke:#000000;fill:none;stroke-linecap:round;stroke-width:0.17716535;stroke-miterlimit:4;stroke-dasharray:none" />
      <path
         id="path6268"
         d="M 340.851585,421.430730 A 4.960630,4.960630 -0.000000 1 0 330.930325,421.430730 4.960630,4.960630 -0.000000 1 0 340.851585,421.430730 z"
         style="stroke:#000000;fill:none;stroke-linecap:round;stroke-width:0.17716535;stroke-miterlimit:4;stroke-dasharray:none" />
      <path
         id="path6270"
         d="M 340.851585,233.221224 A 4.960630,4.960630 -0.000000 1 0 330.930325,233.221224 4.960630,4.960630 -0.000000 1 0 340.851585,233.221224 z"
         style="stroke:#000000;fill:none;stroke-linecap:round;stroke-width:0.17716535;stroke-miterlimit:4;stroke-dasharray:none" />
      <path
         id="path6272"
         d="M 152.642079,233.221224 A 4.960630,4.960630 -0.000000 1 0 142.720819,233.221224 4.960630,4.960630 -0.000000 1 0 152.642079,233.221224 z"
         style="stroke:#000000;fill:none;stroke-linecap:round;stroke-width:0.17716535;stroke-miterlimit:4;stroke-dasharray:none" />
      <path
         d="m 60.998819,493.40864 a 18.248031,18.248031 0 0 0 18.248031,18.24803 m 0,-368.66138 a 18.248031,18.248031 0 0 0 -18.248031,18.24803 m 106.702311,0 A 18.248031,18.248031 0 0 0 149.4531,142.99529 M 167.70113,383.359 a 74.085068,74.085068 0 0 0 148.17014,0 m 4.0748,-240.36371 a 4.074803,4.074803 0 0 0 -4.0748,4.0748 m 106.70232,14.17323 a 18.248031,18.248031 0 0 0 -18.24804,-18.24803 m 0,368.66138 a 18.248031,18.248031 0 0 0 18.24804,-18.24803 M 60.998819,161.24332 l 0,332.16532 m 88.454281,-350.41335 -70.20625,0 m 88.45428,240.36371 0,-222.11568 m 148.17014,216.52167 0,5.59401 m -13.7116,-10.28365 13.7116,4.68964 m -13.7116,-11.35613 0,6.66649 m 13.7116,-11.35613 -13.7116,4.68964 m 13.7116,-9.90371 0,5.21407 m -13.7116,-9.90372 13.7116,4.68965 m -13.7116,-11.35613 0,6.66648 m 13.7116,-11.35612 -13.7116,4.68964 m 13.7116,-9.90371 0,5.21407 m -13.7116,-9.90372 13.7116,4.68965 m -13.7116,-11.35613 0,6.66648 m 13.7116,-11.35613 -13.7116,4.68965 m 13.7116,-9.90372 0,5.21407 m -13.7116,-9.90371 13.7116,4.68964 m -13.7116,-11.35612 0,6.66648 m 13.7116,-11.35613 -13.7116,4.68965 m 13.7116,-9.90372 0,5.21407 m -13.7116,-9.90371 13.7116,4.68964 m -13.7116,-11.35613 0,6.66649 m 13.7116,-11.35613 -13.7116,4.68964 m 13.7116,-9.90371 0,5.21407 m -13.7116,-9.90372 13.7116,4.68965 m -13.7116,-11.35613 0,6.66648 m 13.7116,-11.35612 -13.7116,4.68964 m 13.7116,-9.90371 0,5.21407 m -13.7116,-9.90372 13.7116,4.68965 m -13.7116,-11.35613 0,6.66648 m 13.7116,-11.35613 -13.7116,4.68965 m 13.7116,-9.90372 0,5.21407 m -13.7116,-9.90371 13.7116,4.68964 m -13.7116,-11.35613 0,6.66649 m 13.7116,-11.35613 -13.7116,4.68964 m 13.7116,-9.90371 0,5.21407 m -13.7116,-9.90371 13.7116,4.68964 m -13.7116,-11.35613 0,6.66649 m 13.7116,-11.35613 -13.7116,4.68964 m 13.7116,-9.90371 0,5.21407 m -13.7116,-9.90372 13.7116,4.68965 m -13.7116,-11.35613 0,6.66648 m 13.7116,-11.35613 -13.7116,4.68965 m 13.7116,-9.90371 0,5.21406 m -13.7116,-9.90371 13.7116,4.68965 m -13.7116,-11.35613 0,6.66648 m 13.7116,-11.35613 -13.7116,4.68965 m 13.7116,-6.74035 0,2.0507 m 88.45428,-6.1255 -84.37948,0 m 102.62752,350.41335 0,-332.16532 m -343.32674,350.41335 325.0787,0"
         style="stroke:#000000;fill:none;stroke-linecap:round;stroke-width:0.17716535;stroke-miterlimit:4;stroke-dasharray:none"
         id="path6286" />
    </g>
  </g>
</svg>
