<?xml version="1.0" encoding="UTF-8" standalone="no"?>
<svg
   xmlns:dc="http://purl.org/dc/elements/1.1/"
   xmlns:cc="http://creativecommons.org/ns#"
   xmlns:rdf="http://www.w3.org/1999/02/22-rdf-syntax-ns#"
   xmlns:svg="http://www.w3.org/2000/svg"
   xmlns="http://www.w3.org/2000/svg"
   xmlns:sodipodi="http://sodipodi.sourceforge.net/DTD/sodipodi-0.dtd"
   xmlns:inkscape="http://www.inkscape.org/namespaces/inkscape"
   width="744.094488189"
   height="1052.36220472"
   id="svg10764"
   version="1.1"
   inkscape:version="0.91 r13725"
   sodipodi:docname="biccolo_layout_2.ink.svg">
  <metadata
     id="metadata11009">
    <rdf:RDF>
      <cc:Work
         rdf:about="">
        <dc:format>image/svg+xml</dc:format>
        <dc:type
           rdf:resource="http://purl.org/dc/dcmitype/StillImage" />
        <dc:title></dc:title>
      </cc:Work>
    </rdf:RDF>
  </metadata>
  <sodipodi:namedview
     pagecolor="#ffffff"
     bordercolor="#666666"
     borderopacity="1"
     objecttolerance="10"
     gridtolerance="10"
     guidetolerance="10"
     inkscape:pageopacity="0"
     inkscape:pageshadow="2"
     inkscape:window-width="1366"
     inkscape:window-height="705"
     id="namedview11007"
     showgrid="false"
     inkscape:zoom="0.89702957"
     inkscape:cx="201.76177"
     inkscape:cy="636.50098"
     inkscape:window-x="-8"
     inkscape:window-y="-8"
     inkscape:window-maximized="1"
     inkscape:current-layer="g10877" />
  <desc
     id="desc10766">C:\philetus\bottery_piccolo\Piccolo_Hardware\bottery_piccolo\biccolo_layout_2.dxf - scale = 1.000000, origin = (0.000000, 0.000000), auto = False</desc>
  <defs
     id="defs10768">
    <marker
       refY="0.0"
       refX="0.0"
       style="overflow:visible"
       id="DistanceX"
       orient="auto">
      <path
         style="stroke:#000000; stroke-width:0.5"
         d="M 3,-3 L -3,3 M 0,-5 L  0,5"
         id="path10771" />
    </marker>
    <pattern
       height="8"
       width="8"
       patternUnits="userSpaceOnUse"
       y="0"
       x="0"
       id="Hatch">
      <path
         linecap="square"
         stroke="#000000"
         stroke-width="0.25"
         d="M8 4 l-4,4"
         id="path10774" />
      <path
         linecap="square"
         stroke="#000000"
         stroke-width="0.25"
         d="M6 2 l-4,4"
         id="path10776" />
      <path
         linecap="square"
         stroke="#000000"
         stroke-width="0.25"
         d="M4 0 l-4,4"
         id="path10778" />
    </pattern>
    <symbol
       id="*Model_Space" />
    <symbol
       id="*Paper_Space" />
    <symbol
       id="*Paper_Space0" />
    <symbol
       id="_D">
      <path
         style="stroke:#000000;fill:none;stroke-linecap: round"
         d="M 182.627531,285.061797 182.627531,275.496308"
         id="path10784" />
      <path
         style="stroke:#000000;fill:none;stroke-linecap: round"
         d="M 182.273200,285.061797 182.273200,275.496308"
         id="path10786" />
      <path
         style="stroke:#000000;fill:none;stroke-linecap: round"
         d="M 182.627531,286.746308 211.127369,286.746308"
         id="path10788" />
      <path
         style="stroke:#000000;fill:none;stroke-linecap: round"
         d="M 182.273200,286.746308 159.773200,286.746308"
         id="path10790" />
      <text
         y="281.173985"
         x="211.127369"
         style="font-size: 11.3px; fill: #000000; font-family: Arial"
         sodipodi:linespacing="125%"
         id="text10792">
        <tspan
           sodipodi:role="line"
           id="tspan10794">0.10</tspan>
      </text>
    </symbol>
    <symbol
       id="_D_1">
      <path
         style="stroke:#000000;fill:none;stroke-linecap: round"
         d="M 165.843302,453.066147 176.136609,453.066147"
         id="path10797" />
      <path
         style="stroke:#000000;fill:none;stroke-linecap: round"
         d="M 165.843302,453.420478 176.136609,453.420478"
         id="path10799" />
      <path
         style="stroke:#000000;fill:none;stroke-linecap: round"
         d="M 164.886609,453.066147 164.886609,430.566147"
         id="path10801" />
      <path
         style="stroke:#000000;fill:none;stroke-linecap: round"
         d="M 164.886609,453.420478 164.886609,475.920478"
         id="path10803" />
      <text
         y="447.493823"
         x="145.769422"
         style="font-size: 11.3px; fill: #000000; font-family: Arial"
         sodipodi:linespacing="125%"
         id="text10805">
        <tspan
           sodipodi:role="line"
           id="tspan10807">0.10</tspan>
      </text>
    </symbol>
    <symbol
       id="SW_CENTERMARKSYMBOL_0">
      <path
         style="stroke:#000000;fill:none;stroke-linecap: round"
         d="M 0.000000,1052.362205 0.000000,1043.362205"
         id="path10810" />
      <path
         style="stroke:#000000;fill:none;stroke-linecap: round"
         d="M 0.000000,1052.362205 -9.000000,1052.362205"
         id="path10812" />
      <path
         style="stroke:#000000;fill:none;stroke-linecap: round"
         d="M 0.000000,1052.362205 0.000000,1061.362205"
         id="path10814" />
      <path
         style="stroke:#000000;fill:none;stroke-linecap: round"
         d="M 0.000000,1052.362205 9.000000,1052.362205"
         id="path10816" />
      <path
         style="stroke:#000000;fill:none;stroke-linecap: round"
         d="M 0.000000,1043.362205 0.000000,1037.161417"
         id="path10818" />
      <path
         style="stroke:#000000;fill:none;stroke-linecap: round"
         d="M -9.000000,1052.362205 -15.200787,1052.362205"
         id="path10820" />
      <path
         style="stroke:#000000;fill:none;stroke-linecap: round"
         d="M 0.000000,1061.362205 0.000000,1067.562992"
         id="path10822" />
      <path
         style="stroke:#000000;fill:none;stroke-linecap: round"
         d="M 9.000000,1052.362205 15.200787,1052.362205"
         id="path10824" />
    </symbol>
    <symbol
       id="SW_CENTERMARKSYMBOL_1">
      <path
         style="stroke:#000000;fill:none;stroke-linecap: round"
         d="M 0.000000,1052.362205 0.000000,1043.362205"
         id="path10827" />
      <path
         style="stroke:#000000;fill:none;stroke-linecap: round"
         d="M 0.000000,1052.362205 -9.000000,1052.362205"
         id="path10829" />
      <path
         style="stroke:#000000;fill:none;stroke-linecap: round"
         d="M 0.000000,1052.362205 0.000000,1061.362205"
         id="path10831" />
      <path
         style="stroke:#000000;fill:none;stroke-linecap: round"
         d="M 0.000000,1052.362205 9.000000,1052.362205"
         id="path10833" />
      <path
         style="stroke:#000000;fill:none;stroke-linecap: round"
         d="M 0.000000,1043.362205 0.000000,1037.161417"
         id="path10835" />
      <path
         style="stroke:#000000;fill:none;stroke-linecap: round"
         d="M -9.000000,1052.362205 -15.200787,1052.362205"
         id="path10837" />
      <path
         style="stroke:#000000;fill:none;stroke-linecap: round"
         d="M 0.000000,1061.362205 0.000000,1067.562992"
         id="path10839" />
      <path
         style="stroke:#000000;fill:none;stroke-linecap: round"
         d="M 9.000000,1052.362205 15.200787,1052.362205"
         id="path10841" />
    </symbol>
    <symbol
       id="SW_CENTERMARKSYMBOL_2">
      <path
         style="stroke:#000000;fill:none;stroke-linecap: round"
         d="M 0.000000,1052.362205 0.000000,1043.362205"
         id="path10844" />
      <path
         style="stroke:#000000;fill:none;stroke-linecap: round"
         d="M 0.000000,1052.362205 -9.000000,1052.362205"
         id="path10846" />
      <path
         style="stroke:#000000;fill:none;stroke-linecap: round"
         d="M 0.000000,1052.362205 0.000000,1061.362205"
         id="path10848" />
      <path
         style="stroke:#000000;fill:none;stroke-linecap: round"
         d="M 0.000000,1052.362205 9.000000,1052.362205"
         id="path10850" />
      <path
         style="stroke:#000000;fill:none;stroke-linecap: round"
         d="M 0.000000,1043.362205 0.000000,1037.161417"
         id="path10852" />
      <path
         style="stroke:#000000;fill:none;stroke-linecap: round"
         d="M -9.000000,1052.362205 -15.200787,1052.362205"
         id="path10854" />
      <path
         style="stroke:#000000;fill:none;stroke-linecap: round"
         d="M 0.000000,1061.362205 0.000000,1067.562992"
         id="path10856" />
      <path
         style="stroke:#000000;fill:none;stroke-linecap: round"
         d="M 9.000000,1052.362205 15.200787,1052.362205"
         id="path10858" />
    </symbol>
    <symbol
       id="SW_CENTERMARKSYMBOL_3">
      <path
         style="stroke:#000000;fill:none;stroke-linecap: round"
         d="M 0.000000,1052.362205 0.000000,1043.362205"
         id="path10861" />
      <path
         style="stroke:#000000;fill:none;stroke-linecap: round"
         d="M 0.000000,1052.362205 -9.000000,1052.362205"
         id="path10863" />
      <path
         style="stroke:#000000;fill:none;stroke-linecap: round"
         d="M 0.000000,1052.362205 0.000000,1061.362205"
         id="path10865" />
      <path
         style="stroke:#000000;fill:none;stroke-linecap: round"
         d="M 0.000000,1052.362205 9.000000,1052.362205"
         id="path10867" />
      <path
         style="stroke:#000000;fill:none;stroke-linecap: round"
         d="M 0.000000,1043.362205 0.000000,1037.161417"
         id="path10869" />
      <path
         style="stroke:#000000;fill:none;stroke-linecap: round"
         d="M -9.000000,1052.362205 -15.200787,1052.362205"
         id="path10871" />
      <path
         style="stroke:#000000;fill:none;stroke-linecap: round"
         d="M 0.000000,1061.362205 0.000000,1067.562992"
         id="path10873" />
      <path
         style="stroke:#000000;fill:none;stroke-linecap: round"
         d="M 9.000000,1052.362205 15.200787,1052.362205"
         id="path10875" />
    </symbol>
  </defs>
  <g
     inkscape:label="0"
     inkscape:groupmode="layer"
     id="g10877">
    <g
       id="g11558">
      <path
         id="path10979"
         d="M 167.189759,447.219690 A 5.846457,5.846457 -0.000000 1 0 155.496845,447.219690 5.846457,5.846457 -0.000000 1 0 167.189759,447.219690 z"
         style="stroke:#000000;fill:none;stroke-linecap:round;stroke-width:0.17716535;stroke-miterlimit:4;stroke-dasharray:none" />
      <path
         id="path10981"
         d="M 372.455911,447.219690 A 5.846457,5.846457 -0.000000 1 0 360.762997,447.219690 5.846457,5.846457 -0.000000 1 0 372.455911,447.219690 z"
         style="stroke:#000000;fill:none;stroke-linecap:round;stroke-width:0.17716535;stroke-miterlimit:4;stroke-dasharray:none" />
      <path
         id="path10983"
         d="M 372.455911,241.953538 A 5.846457,5.846457 -0.000000 1 0 360.762997,241.953538 5.846457,5.846457 -0.000000 1 0 372.455911,241.953538 z"
         style="stroke:#000000;fill:none;stroke-linecap:round;stroke-width:0.17716535;stroke-miterlimit:4;stroke-dasharray:none" />
      <path
         id="path10985"
         d="M 167.189759,241.953538 A 5.846457,5.846457 -0.000000 1 0 155.496845,241.953538 5.846457,5.846457 -0.000000 1 0 167.189759,241.953538 z"
         style="stroke:#000000;fill:none;stroke-linecap:round;stroke-width:0.17716535;stroke-miterlimit:4;stroke-dasharray:none" />
      <path
         d="m 182.2732,286.74631 0.35433,0 m 0,113.87333 a 81.348847,81.348847 0 0 0 162.69769,0 m 18.07087,-240.18655 a 18.070866,18.070866 0 0 0 -18.07087,18.07086 m 102.80468,0 a 18.070866,18.070866 0 0 0 -18.07086,-18.07086 m 0,368.30705 a 18.070866,18.070866 0 0 0 18.07086,-18.07087 m -368.307047,0 a 18.070866,18.070866 0 0 0 18.070866,18.07087 m 0,-368.30705 a 18.070866,18.070866 0 0 0 -18.070866,18.07086 m 102.804677,0 a 18.070866,18.070866 0 0 0 -18.07087,-18.07086 m 180.76856,18.07086 0,222.11569 m 84.73382,-240.18655 -66.66295,0 m 84.73381,350.23618 0,-332.16532 m -350.236181,350.23619 332.165321,0 M 79.822853,178.50395 l 0,332.16532 m 84.733807,-350.23618 -66.662941,0 m 84.733811,240.18655 0,-222.11569"
         style="stroke:#000000;fill:none;stroke-linecap:round;marker-start:url(#DistanceX);marker-end:url(#DistanceX);stroke-width:0.17716535;stroke-miterlimit:4;stroke-dasharray:none"
         id="path10987" />
      <path
         id="path10993"
         d="M 164.886609,453.420478 164.886609,453.066147"
         style="stroke:#000000;fill:none;stroke-linecap:round;marker-start:url(#DistanceX);marker-end:url(#DistanceX);stroke-width:0.17716535;stroke-miterlimit:4;stroke-dasharray:none" />
    </g>
  </g>
</svg>
