<?xml version="1.0" encoding="UTF-8" standalone="no"?>
<svg
   xmlns:dc="http://purl.org/dc/elements/1.1/"
   xmlns:cc="http://creativecommons.org/ns#"
   xmlns:rdf="http://www.w3.org/1999/02/22-rdf-syntax-ns#"
   xmlns:svg="http://www.w3.org/2000/svg"
   xmlns="http://www.w3.org/2000/svg"
   xmlns:sodipodi="http://sodipodi.sourceforge.net/DTD/sodipodi-0.dtd"
   xmlns:inkscape="http://www.inkscape.org/namespaces/inkscape"
   width="744.094488189"
   height="1052.36220472"
   id="svg7187"
   version="1.1"
   inkscape:version="0.91 r13725"
   sodipodi:docname="biccolo_layout_1x.ink.svg">
  <metadata
     id="metadata9551">
    <rdf:RDF>
      <cc:Work
         rdf:about="">
        <dc:format>image/svg+xml</dc:format>
        <dc:type
           rdf:resource="http://purl.org/dc/dcmitype/StillImage" />
        <dc:title></dc:title>
      </cc:Work>
    </rdf:RDF>
  </metadata>
  <sodipodi:namedview
     pagecolor="#ffffff"
     bordercolor="#666666"
     borderopacity="1"
     objecttolerance="10"
     gridtolerance="10"
     guidetolerance="10"
     inkscape:pageopacity="0"
     inkscape:pageshadow="2"
     inkscape:window-width="1366"
     inkscape:window-height="705"
     id="namedview9549"
     showgrid="false"
     inkscape:zoom="2.5371828"
     inkscape:cx="510.30815"
     inkscape:cy="822.33572"
     inkscape:window-x="-8"
     inkscape:window-y="-8"
     inkscape:window-maximized="1"
     inkscape:current-layer="g7279" />
  <desc
     id="desc7189">C:\philetus\bottery_piccolo\Piccolo_Hardware\bottery_piccolo\biccolo_layout_1.dxf - scale = 1.000000, origin = (0.000000, 0.000000), auto = False</desc>
  <defs
     id="defs7191">
    <marker
       refY="0.0"
       refX="0.0"
       style="overflow:visible"
       id="DistanceX"
       orient="auto">
      <path
         style="stroke:#000000; stroke-width:0.5"
         d="M 3,-3 L -3,3 M 0,-5 L  0,5"
         id="path7194" />
    </marker>
    <pattern
       height="8"
       width="8"
       patternUnits="userSpaceOnUse"
       y="0"
       x="0"
       id="Hatch">
      <path
         linecap="square"
         stroke="#000000"
         stroke-width="0.25"
         d="M8 4 l-4,4"
         id="path7197" />
      <path
         linecap="square"
         stroke="#000000"
         stroke-width="0.25"
         d="M6 2 l-4,4"
         id="path7199" />
      <path
         linecap="square"
         stroke="#000000"
         stroke-width="0.25"
         d="M4 0 l-4,4"
         id="path7201" />
    </pattern>
    <symbol
       id="*Model_Space" />
    <symbol
       id="*Paper_Space" />
    <symbol
       id="*Paper_Space0" />
    <symbol
       id="_D">
      <path
         style="stroke:#000000;fill:none;stroke-linecap: round"
         d="M 525.276237,209.020964 508.522165,192.772268"
         id="path7207" />
      <path
         style="stroke:#000000;fill:none;stroke-linecap: round"
         d="M 525.522921,208.766608 508.768849,192.517911"
         id="path7209" />
      <path
         style="stroke:#000000;fill:none;stroke-linecap: round"
         d="M 516.597985,200.604486 502.634381,215.002393"
         id="path7211" />
      <path
         style="stroke:#000000;fill:none;stroke-linecap: round"
         d="M 516.844669,200.350129 532.509105,184.198490"
         id="path7213" />
      <path
         style="stroke:#000000;fill:none;stroke-linecap: round"
         d="M 502.634381,215.002393 480.134381,215.002393"
         id="path7215" />
      <text
         y="209.430069"
         x="441.900007"
         style="font-size: 11.3px; fill: #000000; font-family: Arial"
         sodipodi:linespacing="125%"
         id="text7217">
        <tspan
           sodipodi:role="line"
           id="tspan7219">0.10</tspan>
      </text>
    </symbol>
    <symbol
       id="_D_1">
      <path
         style="stroke:#000000;fill:none;stroke-linecap: round"
         d="M 600.756914,251.489487 711.700850,217.570522"
         id="path7222" />
      <path
         style="stroke:#000000;fill:none;stroke-linecap: round"
         d="M 600.912308,251.997759 711.856244,218.078794"
         id="path7224" />
      <path
         style="stroke:#000000;fill:none;stroke-linecap: round"
         d="M 700.942421,220.859704 694.364058,199.342847"
         id="path7226" />
      <path
         style="stroke:#000000;fill:none;stroke-linecap: round"
         d="M 701.097816,221.367976 701.679991,223.272185"
         id="path7228" />
      <path
         style="stroke:#000000;fill:none;stroke-linecap: round"
         d="M 701.679991,223.272185 724.179991,223.272185"
         id="path7230" />
      <text
         y="217.699862"
         x="724.179991"
         style="font-size: 11.3px; fill: #000000; font-family: Arial"
         sodipodi:linespacing="125%"
         id="text7232">
        <tspan
           sodipodi:role="line"
           id="tspan7234">0.15</tspan>
      </text>
    </symbol>
    <symbol
       id="_D_2">
      <path
         style="stroke:#000000;fill:none;stroke-linecap: round"
         d="M 127.378300,345.426431 205.129267,345.426431"
         id="path7237" />
      <path
         style="stroke:#000000;fill:none;stroke-linecap: round"
         d="M 127.378300,344.717770 205.129267,344.717770"
         id="path7239" />
      <path
         style="stroke:#000000;fill:none;stroke-linecap: round"
         d="M 216.379267,307.408851 193.879267,307.408851"
         id="path7241" />
      <path
         style="stroke:#000000;fill:none;stroke-linecap: round"
         d="M 193.879267,307.408851 193.879267,344.717770"
         id="path7243" />
      <path
         style="stroke:#000000;fill:none;stroke-linecap: round"
         d="M 193.879267,345.426431 193.879267,367.926431"
         id="path7245" />
      <text
         y="301.836527"
         x="216.379267"
         style="font-size: 11.3px; fill: #000000; font-family: Arial"
         sodipodi:linespacing="125%"
         id="text7247">
        <tspan
           sodipodi:role="line"
           id="tspan7249">0.20</tspan>
      </text>
    </symbol>
    <symbol
       id="_D_3">
      <path
         style="stroke:#000000;fill:none;stroke-linecap: round"
         d="M 246.286202,511.656668 468.725160,511.656668"
         id="path7252" />
      <path
         style="stroke:#000000;fill:none;stroke-linecap: round"
         d="M 246.286202,511.125172 468.725160,511.125172"
         id="path7254" />
      <path
         style="stroke:#000000;fill:none;stroke-linecap: round"
         d="M 479.975160,452.312719 457.475160,452.312719"
         id="path7256" />
      <path
         style="stroke:#000000;fill:none;stroke-linecap: round"
         d="M 457.475160,452.312719 457.475160,511.125172"
         id="path7258" />
      <path
         style="stroke:#000000;fill:none;stroke-linecap: round"
         d="M 457.475160,511.656668 457.475160,534.156668"
         id="path7260" />
      <text
         y="446.740395"
         x="479.975160"
         style="font-size: 11.3px; fill: #000000; font-family: Arial"
         sodipodi:linespacing="125%"
         id="text7262">
        <tspan
           sodipodi:role="line"
           id="tspan7264">0.15</tspan>
      </text>
    </symbol>
    <symbol
       id="_D_4">
      <path
         style="stroke:#000000;fill:none;stroke-linecap: round"
         d="M 136.093316,595.444771 136.093316,582.959049"
         id="path7267" />
      <path
         style="stroke:#000000;fill:none;stroke-linecap: round"
         d="M 136.801977,595.444771 136.801977,582.959049"
         id="path7269" />
      <path
         style="stroke:#000000;fill:none;stroke-linecap: round"
         d="M 136.093316,594.209049 88.241999,594.209049"
         id="path7271" />
      <path
         style="stroke:#000000;fill:none;stroke-linecap: round"
         d="M 136.801977,594.209049 159.301977,594.209049"
         id="path7273" />
      <text
         y="588.636726"
         x="50.007625"
         style="font-size: 11.3px; fill: #000000; font-family: Arial"
         sodipodi:linespacing="125%"
         id="text7275">
        <tspan
           sodipodi:role="line"
           id="tspan7277">0.20</tspan>
      </text>
    </symbol>
  </defs>
  <g
     inkscape:label="0"
     inkscape:groupmode="layer"
     id="g7279">
    <g
       id="g10100">
      <path
         d="m 524.39497,207.14713 a 39.172419,39.172419 0 0 0 2.10131,2.81875 m 0.26852,-7.4698 a 74.76378,74.76378 0 0 0 -2.36983,4.65105 m 5.88537,-4.60788 a 39.172419,39.172419 0 0 0 -3.51554,-0.0432 m 9.36028,1.06086 a 25.802108,25.802108 0 0 0 -5.84474,-1.01769 m 8.19318,2.04641 a 10.261111,10.261111 0 0 0 -2.34844,-1.02872 m 2.34844,1.02872 a 5.767292,5.767292 0 0 0 1.59725,0.65278 m 0,0 a 1.970364,1.970364 0 0 0 1.01501,-0.0231 m 3.40081,-4.68082 a 74.950486,74.950486 0 0 0 -3.40081,4.68082 m 3.40081,-4.68082 a 1.970364,1.970364 0 0 0 -0.29168,-0.97247 m 0,0 a 5.767292,5.767292 0 0 0 -1.11441,-1.31736 m -1.70408,-1.9156 a 10.261111,10.261111 0 0 0 1.70408,1.9156 m -4.47808,-7.1598 a 25.802108,25.802108 0 0 0 2.774,5.2442 m -3.90142,-8.57433 a 39.172419,39.172419 0 0 0 1.12742,3.33013 m 2.56368,-7.02123 a 74.76378,74.76378 0 0 0 -3.6911,3.6911 m 7.02122,-2.56368 a 39.172419,39.172419 0 0 0 -3.33012,-1.12742 m 8.57433,3.90143 a 25.802108,25.802108 0 0 0 -5.24421,-2.77401 m 7.15981,4.47809 a 10.261111,10.261111 0 0 0 -1.9156,-1.70408 m 1.9156,1.70408 a 5.767292,5.767292 0 0 0 1.31736,1.11441 m 0,0 a 1.970364,1.970364 0 0 0 0.97246,0.29167 m 4.68082,-3.40081 a 74.950486,74.950486 0 0 0 -4.68082,3.40081 m 4.68082,-3.40081 a 1.970364,1.970364 0 0 0 0.0231,-1.015 m 0,0 a 5.767292,5.767292 0 0 0 -0.65278,-1.59726 m -1.02873,-2.34843 a 10.261111,10.261111 0 0 0 1.02873,2.34843 m -2.04641,-8.19318 a 25.802108,25.802108 0 0 0 1.01768,5.84475 m -1.06086,-9.36028 a 39.172419,39.172419 0 0 0 0.0432,3.51553 m 4.60788,-5.88537 a 74.76378,74.76378 0 0 0 -4.65106,2.36984 m 7.46981,-0.26853 a 39.172419,39.172419 0 0 0 -2.81875,-2.10131 m 6.94907,6.3601 a 25.802108,25.802108 0 0 0 -4.13032,-4.25879 m 5.42557,6.47142 a 10.261111,10.261111 0 0 0 -1.29525,-2.21263 m 1.29525,2.21263 a 5.767292,5.767292 0 0 0 0.90852,1.46695 m 0,0 a 1.970364,1.970364 0 0 0 0.83473,0.57791 m 5.50263,-1.78791 a 74.950486,74.950486 0 0 0 -5.50263,1.78791 m 5.50263,-1.78791 a 1.970364,1.970364 0 0 0 0.33563,-0.95819 m 0,0 a 5.767292,5.767292 0 0 0 -0.12725,-1.7208 m -0.25267,-2.55139 a 10.261111,10.261111 0 0 0 0.25267,2.55139 m 0.58558,-8.42455 a 25.802108,25.802108 0 0 0 -0.83825,5.87316 m 1.88355,-9.22998 a 39.172419,39.172419 0 0 0 -1.0453,3.35682 m 6.20103,-4.17341 a 74.76378,74.76378 0 0 0 -5.15573,0.81659 m 7.18718,2.05292 a 39.172419,39.172419 0 0 0 -2.03145,-2.86951 m 4.64358,8.19619 a 25.802108,25.802108 0 0 0 -2.61213,-5.32668 m 3.16025,7.83127 a 10.261111,10.261111 0 0 0 -0.54812,-2.50459 m 0.54812,2.50459 a 5.767292,5.767292 0 0 0 0.41074,1.6759 m 0,0 a 1.970364,1.970364 0 0 0 0.61529,0.80758 m 5.78581,0 a 74.950486,74.950486 0 0 0 -5.78581,0 m 5.78581,0 a 1.970364,1.970364 0 0 0 0.6153,-0.80758 m 0,0 a 5.767292,5.767292 0 0 0 0.41073,-1.6759 m 0.54812,-2.50459 a 10.261111,10.261111 0 0 0 -0.54812,2.50459 m 3.16025,-7.83127 a 25.802108,25.802108 0 0 0 -2.61213,5.32668 m 4.64358,-8.19619 a 39.172419,39.172419 0 0 0 -2.03145,2.86951 m 7.18719,-2.05292 a 74.76378,74.76378 0 0 0 -5.15574,-0.81659 m 6.20103,4.17341 a 39.172419,39.172419 0 0 0 -1.04529,-3.35682 m 1.88354,9.22998 a 25.802108,25.802108 0 0 0 -0.83825,-5.87316 m 0.58558,8.42455 a 10.261111,10.261111 0 0 0 0.25267,-2.55139 m -0.25267,2.55139 a 5.767292,5.767292 0 0 0 -0.12724,1.7208 m 0,0 a 1.970364,1.970364 0 0 0 0.33562,0.95819 m 5.50264,1.78791 a 74.950486,74.950486 0 0 0 -5.50264,-1.78791 m 5.50264,1.78791 a 1.970364,1.970364 0 0 0 0.83473,-0.57791 m 0,0 a 5.767292,5.767292 0 0 0 0.90852,-1.46695 m 1.29525,-2.21263 a 10.261111,10.261111 0 0 0 -1.29525,2.21263 m 5.42557,-6.47142 a 25.802108,25.802108 0 0 0 -4.13032,4.25879 m 6.94907,-6.3601 a 39.172419,39.172419 0 0 0 -2.81875,2.10131 m 7.4698,0.26853 a 74.76378,74.76378 0 0 0 -4.65105,-2.36984 m 4.60788,5.88537 a 39.172419,39.172419 0 0 0 0.0432,-3.51553 m -1.06086,9.36028 a 25.802108,25.802108 0 0 0 1.01769,-5.84475 m -2.04642,8.19318 a 10.261111,10.261111 0 0 0 1.02873,-2.34843 m -1.02873,2.34843 a 5.767292,5.767292 0 0 0 -0.65277,1.59726 m 0,0 a 1.970364,1.970364 0 0 0 0.0231,1.015 m 4.68082,3.40081 a 74.950486,74.950486 0 0 0 -4.68082,-3.40081 m 4.68082,3.40081 a 1.970364,1.970364 0 0 0 0.97246,-0.29167 m 0,0 a 5.767292,5.767292 0 0 0 1.31737,-1.11441 m 1.9156,-1.70408 a 10.261111,10.261111 0 0 0 -1.9156,1.70408 m 7.1598,-4.47809 a 25.802108,25.802108 0 0 0 -5.2442,2.77401 m 8.57433,-3.90143 a 39.172419,39.172419 0 0 0 -3.33013,1.12742 m 7.02123,2.56368 a 74.76378,74.76378 0 0 0 -3.6911,-3.6911 m 2.56368,7.02123 a 39.172419,39.172419 0 0 0 1.12742,-3.33013 m -3.90143,8.57433 a 25.802108,25.802108 0 0 0 2.77401,-5.2442 m -4.47809,7.1598 a 10.261111,10.261111 0 0 0 1.70408,-1.9156 m -1.70408,1.9156 a 5.767292,5.767292 0 0 0 -1.11441,1.31736 m 0,0 a 1.970364,1.970364 0 0 0 -0.29168,0.97247 m 3.40082,4.68082 a 74.950486,74.950486 0 0 0 -3.40082,-4.68082 m 3.40082,4.68082 a 1.970364,1.970364 0 0 0 1.015,0.0231 m 0,0 a 5.767292,5.767292 0 0 0 1.59726,-0.65278 m 2.34843,-1.02872 a 10.261111,10.261111 0 0 0 -2.34843,1.02872 m 8.19318,-2.04641 a 25.802108,25.802108 0 0 0 -5.84475,1.01769 m 9.36028,-1.06086 a 39.172419,39.172419 0 0 0 -3.51553,0.0432 m 5.88536,4.60788 a 74.76378,74.76378 0 0 0 -2.36983,-4.65105 m 0.26852,7.4698 a 39.172419,39.172419 0 0 0 2.10131,-2.81875 m -6.36009,6.94907 a 25.802108,25.802108 0 0 0 4.25878,-4.13032 m -6.47141,5.42557 a 10.261111,10.261111 0 0 0 2.21263,-1.29525 m -2.21263,1.29525 a 5.767292,5.767292 0 0 0 -1.46695,0.90852 m 0,0 a 1.970364,1.970364 0 0 0 -0.57791,0.83473 m 1.78791,5.50264 a 74.950486,74.950486 0 0 0 -1.78791,-5.50264 m 1.78791,5.50264 a 1.970364,1.970364 0 0 0 0.95819,0.33562 m 0,0 a 5.767292,5.767292 0 0 0 1.7208,-0.12724 m 2.55139,-0.25268 a 10.261111,10.261111 0 0 0 -2.55139,0.25268 m 8.42455,0.58557 a 25.802108,25.802108 0 0 0 -5.87316,-0.83825 m 9.22998,1.88355 a 39.172419,39.172419 0 0 0 -3.35682,-1.0453 m 4.1734,6.20104 a 74.76378,74.76378 0 0 0 -0.81658,-5.15574 m -2.05292,7.18719 a 39.172419,39.172419 0 0 0 2.8695,-2.03145 m -8.19618,4.64358 a 25.802108,25.802108 0 0 0 5.32668,-2.61213 m -7.83127,3.16024 a 10.261111,10.261111 0 0 0 2.50459,-0.54811 m -2.50459,0.54811 a 5.767292,5.767292 0 0 0 -1.6759,0.41074 m 0,0 a 1.970364,1.970364 0 0 0 -0.80758,0.6153 m 0,5.78581 a 74.950486,74.950486 0 0 0 0,-5.78581 m 0,5.78581 a 1.970364,1.970364 0 0 0 0.80758,0.61529 m 0,0 a 5.767292,5.767292 0 0 0 1.6759,0.41074 m 2.50459,0.54812 a 10.261111,10.261111 0 0 0 -2.50459,-0.54812 m 7.83127,3.16025 a 25.802108,25.802108 0 0 0 -5.32668,-2.61213 m 8.19618,4.64358 a 39.172419,39.172419 0 0 0 -2.8695,-2.03145 m 2.05292,7.18718 a 74.76378,74.76378 0 0 0 0.81658,-5.15573 m -4.1734,6.20103 a 39.172419,39.172419 0 0 0 3.35682,-1.0453 m -9.22998,1.88355 a 25.802108,25.802108 0 0 0 5.87316,-0.83825 m -8.42455,0.58558 a 10.261111,10.261111 0 0 0 2.55139,0.25267 m -2.55139,-0.25267 a 5.767292,5.767292 0 0 0 -1.7208,-0.12725 m 0,0 a 1.970364,1.970364 0 0 0 -0.95819,0.33563 m -1.78791,5.50263 a 74.950486,74.950486 0 0 0 1.78791,-5.50263 m -1.78791,5.50263 a 1.970364,1.970364 0 0 0 0.57791,0.83473 m 0,0 a 5.767292,5.767292 0 0 0 1.46695,0.90852 m 2.21263,1.29525 a 10.261111,10.261111 0 0 0 -2.21263,-1.29525 m 6.47141,5.42557 a 25.802108,25.802108 0 0 0 -4.25878,-4.13032 m 6.36009,6.94907 a 39.172419,39.172419 0 0 0 -2.10131,-2.81875 m -0.26852,7.46981 a 74.76378,74.76378 0 0 0 2.36983,-4.65106 m -5.88536,4.60788 a 39.172419,39.172419 0 0 0 3.51553,0.0432 m -9.36028,-1.06087 a 25.802108,25.802108 0 0 0 5.84475,1.01769 m -8.19318,-2.04641 a 10.261111,10.261111 0 0 0 2.34843,1.02872 m -2.34843,-1.02872 a 5.767292,5.767292 0 0 0 -1.59726,-0.65278 m 0,0 a 1.970364,1.970364 0 0 0 -1.015,0.0231 m -3.40082,4.68082 a 74.950486,74.950486 0 0 0 3.40082,-4.68082 m -3.40082,4.68082 a 1.970364,1.970364 0 0 0 0.29168,0.97246 m 0,0 a 5.767292,5.767292 0 0 0 1.11441,1.31736 m 1.70408,1.9156 a 10.261111,10.261111 0 0 0 -1.70408,-1.9156 m 4.47809,7.1598 a 25.802108,25.802108 0 0 0 -2.77401,-5.2442 m 3.90143,8.57433 a 39.172419,39.172419 0 0 0 -1.12742,-3.33013 m -2.56368,7.02123 a 74.76378,74.76378 0 0 0 3.6911,-3.6911 m -7.02123,2.56368 a 39.172419,39.172419 0 0 0 3.33013,1.12742 m -8.57433,-3.90142 a 25.802108,25.802108 0 0 0 5.2442,2.774 m -7.1598,-4.47809 a 10.261111,10.261111 0 0 0 1.9156,1.70409 m -1.9156,-1.70409 a 5.767292,5.767292 0 0 0 -1.31737,-1.1144 m 0,0 a 1.970364,1.970364 0 0 0 -0.97246,-0.29168 m -4.68082,3.40081 a 74.950486,74.950486 0 0 0 4.68082,-3.40081 m -4.68082,3.40081 a 1.970364,1.970364 0 0 0 -0.0231,1.015 m 0,0 a 5.767292,5.767292 0 0 0 0.65277,1.59726 m 1.02873,2.34843 a 10.261111,10.261111 0 0 0 -1.02873,-2.34843 m 2.04642,8.19318 a 25.802108,25.802108 0 0 0 -1.01769,-5.84475 m 1.06086,9.36029 a 39.172419,39.172419 0 0 0 -0.0432,-3.51554 m -4.60788,5.88537 a 74.76378,74.76378 0 0 0 4.65105,-2.36983 m -7.4698,0.26852 a 39.172419,39.172419 0 0 0 2.81875,2.10131 m -6.94907,-6.36009 a 25.802108,25.802108 0 0 0 4.13032,4.25878 m -5.42557,-6.47141 a 10.261111,10.261111 0 0 0 1.29525,2.21263 m -1.29525,-2.21263 a 5.767292,5.767292 0 0 0 -0.90852,-1.46695 m 0,0 a 1.970364,1.970364 0 0 0 -0.83473,-0.57792 m -5.50264,1.78792 a 74.950486,74.950486 0 0 0 5.50264,-1.78792 m -5.50264,1.78792 a 1.970364,1.970364 0 0 0 -0.33562,0.95818 m 0,0 a 5.767292,5.767292 0 0 0 0.12724,1.7208 m 0.25267,2.55139 a 10.261111,10.261111 0 0 0 -0.25267,-2.55139 m -0.58558,8.42456 a 25.802108,25.802108 0 0 0 0.83825,-5.87317 m -1.88354,9.22998 a 39.172419,39.172419 0 0 0 1.04529,-3.35681 m -6.20103,4.1734 a 74.76378,74.76378 0 0 0 5.15574,-0.81659 m -7.18719,-2.05292 a 39.172419,39.172419 0 0 0 2.03145,2.86951 m -4.64358,-8.19619 a 25.802108,25.802108 0 0 0 2.61213,5.32668 m -3.16025,-7.83127 a 10.261111,10.261111 0 0 0 0.54812,2.50459 m -0.54812,-2.50459 a 5.767292,5.767292 0 0 0 -0.41073,-1.6759 m 0,0 a 1.970364,1.970364 0 0 0 -0.6153,-0.80757 m -5.78581,0 a 74.950486,74.950486 0 0 0 5.78581,0 m -5.78581,0 a 1.970364,1.970364 0 0 0 -0.61529,0.80757 m 0,0 a 5.767292,5.767292 0 0 0 -0.41074,1.6759 m -0.54812,2.50459 a 10.261111,10.261111 0 0 0 0.54812,-2.50459 m -3.16025,7.83127 a 25.802108,25.802108 0 0 0 2.61213,-5.32668 m -4.64358,8.19619 a 39.172419,39.172419 0 0 0 2.03145,-2.86951 m -7.18718,2.05292 a 74.76378,74.76378 0 0 0 5.15573,0.81659 m -6.20103,-4.1734 a 39.172419,39.172419 0 0 0 1.0453,3.35681 m -1.88355,-9.22998 a 25.802108,25.802108 0 0 0 0.83825,5.87317 m -0.58558,-8.42456 a 10.261111,10.261111 0 0 0 -0.25267,2.55139 m 0.25267,-2.55139 a 5.767292,5.767292 0 0 0 0.12725,-1.7208 m 0,0 a 1.970364,1.970364 0 0 0 -0.33563,-0.95818 m -5.50263,-1.78792 a 74.950486,74.950486 0 0 0 5.50263,1.78792 m -5.50263,-1.78792 a 1.970364,1.970364 0 0 0 -0.83473,0.57792 m 0,0 a 5.767292,5.767292 0 0 0 -0.90852,1.46695 m -1.29525,2.21263 a 10.261111,10.261111 0 0 0 1.29525,-2.21263 m -5.42557,6.47141 a 25.802108,25.802108 0 0 0 4.13032,-4.25878 m -6.94907,6.36009 a 39.172419,39.172419 0 0 0 2.81875,-2.10131 m -7.46981,-0.26852 a 74.76378,74.76378 0 0 0 4.65106,2.36983 m -4.60788,-5.88537 a 39.172419,39.172419 0 0 0 -0.0432,3.51554 m 1.06086,-9.36029 a 25.802108,25.802108 0 0 0 -1.01768,5.84475 m 2.04641,-8.19318 a 10.261111,10.261111 0 0 0 -1.02873,2.34843 m 1.02873,-2.34843 a 5.767292,5.767292 0 0 0 0.65278,-1.59726 m 0,0 a 1.970364,1.970364 0 0 0 -0.0231,-1.015 m -4.68082,-3.40081 a 74.950486,74.950486 0 0 0 4.68082,3.40081 m -4.68082,-3.40081 a 1.970364,1.970364 0 0 0 -0.97246,0.29168 m 0,0 a 5.767292,5.767292 0 0 0 -1.31736,1.1144 m -1.9156,1.70409 a 10.261111,10.261111 0 0 0 1.9156,-1.70409 m -7.15981,4.47809 a 25.802108,25.802108 0 0 0 5.24421,-2.774 m -8.57433,3.90142 a 39.172419,39.172419 0 0 0 3.33012,-1.12742 m -7.02122,-2.56368 a 74.76378,74.76378 0 0 0 3.6911,3.6911 m -2.56368,-7.02123 a 39.172419,39.172419 0 0 0 -1.12742,3.33013 m 3.90142,-8.57433 a 25.802108,25.802108 0 0 0 -2.774,5.2442 m 4.47808,-7.1598 a 10.261111,10.261111 0 0 0 -1.70408,1.9156 m 1.70408,-1.9156 a 5.767292,5.767292 0 0 0 1.11441,-1.31736 m 0,0 a 1.970364,1.970364 0 0 0 0.29168,-0.97246 m -3.40081,-4.68082 a 74.950486,74.950486 0 0 0 3.40081,4.68082 m -3.40081,-4.68082 a 1.970364,1.970364 0 0 0 -1.01501,-0.0231 m 0,0 a 5.767292,5.767292 0 0 0 -1.59725,0.65278 m -2.34844,1.02872 a 10.261111,10.261111 0 0 0 2.34844,-1.02872 m -8.19318,2.04641 a 25.802108,25.802108 0 0 0 5.84474,-1.01769 m -9.36028,1.06087 a 39.172419,39.172419 0 0 0 3.51554,-0.0432 m -5.88537,-4.60788 a 74.76378,74.76378 0 0 0 2.36983,4.65106 m -0.26852,-7.46981 a 39.172419,39.172419 0 0 0 -2.10131,2.81875 m 6.36009,-6.94907 a 25.802108,25.802108 0 0 0 -4.25878,4.13032 m 6.47141,-5.42557 a 10.261111,10.261111 0 0 0 -2.21263,1.29525 m 2.21263,-1.29525 a 5.767292,5.767292 0 0 0 1.46695,-0.90852 m 0,0 a 1.970364,1.970364 0 0 0 0.57792,-0.83473 m -1.78792,-5.50263 a 74.950486,74.950486 0 0 0 1.78792,5.50263 m -1.78792,-5.50263 a 1.970364,1.970364 0 0 0 -0.95818,-0.33563 m 0,0 a 5.767292,5.767292 0 0 0 -1.7208,0.12725 m -2.55139,0.25267 a 10.261111,10.261111 0 0 0 2.55139,-0.25267 m -8.42456,-0.58558 a 25.802108,25.802108 0 0 0 5.87317,0.83825 m -9.22998,-1.88355 a 39.172419,39.172419 0 0 0 3.35681,1.0453 m -4.1734,-6.20103 a 74.76378,74.76378 0 0 0 0.81659,5.15573 m 2.05291,-7.18718 a 39.172419,39.172419 0 0 0 -2.8695,2.03145 m 8.19619,-4.64358 a 25.802108,25.802108 0 0 0 -5.32669,2.61213 m 7.83128,-3.16025 a 10.261111,10.261111 0 0 0 -2.50459,0.54812 m 2.50459,-0.54812 a 5.767292,5.767292 0 0 0 1.6759,-0.41074 m 0,0 a 1.970364,1.970364 0 0 0 0.80757,-0.61529 m 0,-5.78581 a 74.950486,74.950486 0 0 0 0,5.78581 m 0,-5.78581 a 1.970364,1.970364 0 0 0 -0.80757,-0.6153 m 0,0 a 5.767292,5.767292 0 0 0 -1.6759,-0.41074 m -2.50459,-0.54811 a 10.261111,10.261111 0 0 0 2.50459,0.54811 m -7.83128,-3.16024 a 25.802108,25.802108 0 0 0 5.32669,2.61213 m -8.19619,-4.64358 a 39.172419,39.172419 0 0 0 2.8695,2.03145 m -2.05291,-7.18719 a 74.76378,74.76378 0 0 0 -0.81659,5.15574 m 4.1734,-6.20104 a 39.172419,39.172419 0 0 0 -3.35681,1.0453 m 9.22998,-1.88355 a 25.802108,25.802108 0 0 0 -5.87317,0.83825 m 8.42456,-0.58557 a 10.261111,10.261111 0 0 0 -2.55139,-0.25268 m 2.55139,0.25268 a 5.767292,5.767292 0 0 0 1.7208,0.12724 m 0,0 a 1.970364,1.970364 0 0 0 0.95818,-0.33562 m 1.78792,-5.50264 a 74.950486,74.950486 0 0 0 -1.78792,5.50264 m 1.78792,-5.50264 a 1.970364,1.970364 0 0 0 -0.57792,-0.83473 m 0,0 a 5.767292,5.767292 0 0 0 -1.46695,-0.90852 m -2.21263,-1.29525 a 10.261111,10.261111 0 0 0 2.21263,1.29525 m -6.47141,-5.42557 a 25.802108,25.802108 0 0 0 4.25878,4.13032"
         style="stroke:#000000;fill:none;stroke-linecap:round;stroke-width:0.17716535;stroke-miterlimit:4;stroke-dasharray:none"
         id="path8241" />
      <path
         id="path8725"
         d="M 606.859022,238.742962 A 14.704724,14.704724 -0.000000 1 0 577.449573,238.742962 14.704724,14.704724 -0.000000 1 0 606.859022,238.742962 z"
         style="stroke:#000000;fill:none;stroke-linecap:round;stroke-width:0.17716535;stroke-miterlimit:4;stroke-dasharray:none" />
    </g>
  </g>
</svg>
